<?xml version="1.0" encoding="utf-8"?>
<!-- Generator: Adobe Illustrator 22.1.0, SVG Export Plug-In . SVG Version: 6.00 Build 0)  -->
<svg version="1.1" id="Livello_1" xmlns="http://www.w3.org/2000/svg" xmlns:xlink="http://www.w3.org/1999/xlink" x="0px" y="0px"
	 viewBox="0 0 846.7 477.2" style="enable-background:new 0 0 846.7 477.2;" xml:space="preserve">
<style type="text/css">
	.st0{fill:#FF4A60;}
	.st1{enable-background:new    ;}
	.st2{fill:#FFFFFF;}
	.st3{fill:#A93142;}
	.st4{fill:none;stroke:#FFFFFF;stroke-width:0.5;}
	.st5{fill:none;stroke:#FFFFFF;stroke-width:0.25;}
</style>
<rect x="-0.2" y="0" class="st0" width="847" height="477.2"/>
<g>
	<g class="st1">
		<path class="st2" d="M5.6,449.5c0.7-0.8,1.1-1.6,1.1-2.3c0-0.5-0.1-0.7-0.4-1.1c-0.2-0.2-0.6-0.4-1.1-0.4c-0.5,0-0.8,0.1-1.2,0.5
			c-0.2,0.4-0.4,0.7-0.5,1.3H2.8c0-0.8,0.4-1.6,0.8-1.9c0.5-0.5,1.1-0.7,1.8-0.7s1.3,0.2,1.7,0.6s0.6,1,0.6,1.6s-0.2,1.2-0.6,1.8
			c-0.4,0.6-0.8,1.2-1.4,1.7c-0.6,0.5-1.1,1-1.7,1.3h3.8v0.8H2.6V452C3.8,451.2,4.9,450.4,5.6,449.5z"/>
		<path class="st2" d="M9,448.9c0-1.2,0.2-2.2,0.6-2.9c0.4-0.7,1.1-1,2-1s1.7,0.4,2.2,1.1c0.4,0.7,0.6,1.7,0.6,2.9
			c0,1.2-0.2,2.2-0.6,2.9c-0.4,0.7-1.1,1.1-2.2,1.1c-1,0-1.7-0.4-2-1.1C9.1,451.1,9,450.1,9,448.9z M13.4,448.9c0-0.6,0-1.1-0.1-1.6
			c-0.1-0.4-0.2-0.7-0.5-1s-0.6-0.4-1.1-0.4c-0.5,0-0.8,0.1-1.1,0.4s-0.5,0.6-0.5,1c-0.1,0.4-0.1,1-0.1,1.6c0,0.6,0,1.2,0.1,1.6
			c0.1,0.5,0.2,0.7,0.5,1c0.2,0.2,0.6,0.4,1.1,0.4c0.5,0,0.8-0.1,1.1-0.4c0.2-0.2,0.5-0.6,0.5-1C13.3,450,13.4,449.5,13.4,448.9z"/>
		<path class="st2" d="M15.6,448.9c0-1.2,0.2-2.2,0.6-2.9c0.4-0.7,1.1-1,2-1s1.7,0.4,2.2,1.1c0.4,0.7,0.6,1.7,0.6,2.9
			c0,1.2-0.2,2.2-0.6,2.9c-0.4,0.7-1.1,1.1-2.2,1.1c-1,0-1.7-0.4-2-1.1C15.8,451.1,15.6,450.1,15.6,448.9z M20,448.9
			c0-0.6,0-1.1-0.1-1.6c-0.1-0.4-0.2-0.7-0.5-1s-0.6-0.4-1.1-0.4s-0.8,0.1-1.1,0.4s-0.5,0.6-0.5,1c-0.1,0.4-0.1,1-0.1,1.6
			c0,0.6,0,1.2,0.1,1.6c0.1,0.5,0.2,0.7,0.5,1c0.2,0.2,0.6,0.4,1.1,0.4s0.8-0.1,1.1-0.4c0.2-0.2,0.5-0.6,0.5-1
			C20,450,20,449.5,20,448.9z"/>
		<path class="st2" d="M26,445.2c0.4,0.1,0.6,0.4,0.8,0.7c0.1,0.4,0.2,0.6,0.2,1.1c0,0.5-0.1,0.8-0.4,1.2c-0.2,0.4-0.7,0.5-1.2,0.6
			v0.1c0.6,0.1,1,0.4,1.3,0.7c0.4,0.4,0.5,0.7,0.5,1.2c0,0.6-0.2,1.1-0.6,1.6c-0.4,0.5-1,0.6-1.8,0.6c-0.8,0-1.4-0.2-1.9-0.6
			s-0.7-1-0.8-1.8h1c0.1,0.5,0.2,0.8,0.6,1.1c0.2,0.2,0.7,0.5,1.2,0.5s0.8-0.1,1.1-0.4s0.4-0.6,0.4-1c0-0.5-0.2-0.8-0.6-1.1
			c-0.4-0.2-0.8-0.4-1.6-0.4H24v-0.8h0.2c1.3,0,2-0.5,2-1.3c0-0.4-0.1-0.7-0.4-1c-0.2-0.2-0.6-0.4-1-0.4c-0.5,0-0.8,0.1-1.1,0.4
			c-0.2,0.2-0.5,0.6-0.5,1.1h-1c0-0.7,0.4-1.3,0.7-1.7c0.5-0.4,1.1-0.6,1.8-0.6C25.3,445,25.8,445.1,26,445.2z"/>
	</g>
	<g class="st1">
		<path class="st2" d="M60.9,449.5c0.7-0.8,1.1-1.6,1.1-2.3c0-0.5-0.1-0.7-0.4-1.1c-0.2-0.2-0.6-0.4-1.1-0.4c-0.5,0-0.8,0.1-1.2,0.5
			c-0.2,0.4-0.4,0.7-0.5,1.3h-1c0-0.8,0.4-1.6,0.8-1.9c0.5-0.5,1.1-0.7,1.8-0.7c0.7,0,1.3,0.2,1.7,0.6c0.4,0.4,0.6,1,0.6,1.6
			s-0.2,1.2-0.6,1.8c-0.4,0.6-0.8,1.2-1.4,1.7c-0.6,0.5-1.1,1-1.7,1.3h3.8v0.8h-5.3V452C59.2,451.2,60.2,450.4,60.9,449.5z"/>
		<path class="st2" d="M64.2,448.9c0-1.2,0.2-2.2,0.6-2.9s1.1-1,2-1c1,0,1.7,0.4,2.2,1.1c0.4,0.7,0.6,1.7,0.6,2.9
			c0,1.2-0.2,2.2-0.6,2.9c-0.4,0.7-1.1,1.1-2.2,1.1c-1,0-1.7-0.4-2-1.1C64.4,451.1,64.2,450.1,64.2,448.9z M68.7,448.9
			c0-0.6,0-1.1-0.1-1.6c-0.1-0.4-0.2-0.7-0.5-1S67.5,446,67,446s-0.8,0.1-1.1,0.4s-0.5,0.6-0.5,1c-0.1,0.4-0.1,1-0.1,1.6
			c0,0.6,0,1.2,0.1,1.6c0.1,0.5,0.2,0.7,0.5,1c0.2,0.2,0.6,0.4,1.1,0.4s0.8-0.1,1.1-0.4c0.2-0.2,0.5-0.6,0.5-1
			C68.6,450,68.7,449.5,68.7,448.9z"/>
		<path class="st2" d="M70.8,448.9c0-1.2,0.2-2.2,0.6-2.9c0.4-0.7,1.1-1,2-1s1.7,0.4,2.2,1.1c0.4,0.7,0.6,1.7,0.6,2.9
			c0,1.2-0.2,2.2-0.6,2.9c-0.4,0.7-1.1,1.1-2.2,1.1c-1,0-1.7-0.4-2-1.1C71.1,451.1,70.8,450.1,70.8,448.9z M75.3,448.9
			c0-0.6,0-1.1-0.1-1.6c-0.1-0.4-0.2-0.7-0.5-1s-0.6-0.4-1.1-0.4s-0.8,0.1-1.1,0.4s-0.5,0.6-0.5,1c-0.1,0.4-0.1,1-0.1,1.6
			c0,0.6,0,1.2,0.1,1.6c0.1,0.5,0.2,0.7,0.5,1c0.2,0.2,0.6,0.4,1.1,0.4s0.8-0.1,1.1-0.4c0.2-0.2,0.5-0.6,0.5-1
			C75.3,450,75.3,449.5,75.3,448.9z"/>
		<path class="st2" d="M77.2,451v-0.7l4-5h1.1v5h1.1v0.8h-1.1v1.8h-1v-1.8h-4.1V451z M81.3,446.3l-3,3.8h3V446.3z"/>
	</g>
	<g class="st1">
		<path class="st2" d="M131.7,449.5c0.7-0.8,1.1-1.6,1.1-2.3c0-0.5-0.1-0.7-0.4-1.1c-0.2-0.2-0.6-0.4-1.1-0.4s-0.8,0.1-1.2,0.5
			c-0.2,0.4-0.4,0.7-0.5,1.3h-0.8c0-0.8,0.4-1.6,0.8-1.9c0.5-0.5,1.1-0.7,1.8-0.7c0.7,0,1.3,0.2,1.7,0.6c0.4,0.4,0.6,1,0.6,1.6
			s-0.2,1.2-0.6,1.8c-0.4,0.6-0.8,1.2-1.4,1.7c-0.6,0.5-1.1,1-1.7,1.3h3.8v0.8h-5.3V452C130,451.2,131,450.4,131.7,449.5z"/>
		<path class="st2" d="M135,448.9c0-1.2,0.2-2.2,0.6-2.9s1.1-1,2-1s1.7,0.4,2.2,1.1c0.4,0.7,0.6,1.7,0.6,2.9c0,1.2-0.2,2.2-0.6,2.9
			c-0.4,0.7-1.1,1.1-2.2,1.1c-1,0-1.7-0.4-2-1.1C135.2,451.1,135,450.1,135,448.9z M139.5,448.9c0-0.6,0-1.1-0.1-1.6
			c-0.1-0.4-0.2-0.7-0.5-1c-0.2-0.2-0.6-0.4-1.1-0.4s-0.8,0.1-1.1,0.4c-0.2,0.2-0.5,0.6-0.5,1c-0.1,0.4-0.1,1-0.1,1.6
			c0,0.6,0,1.2,0.1,1.6c0.1,0.5,0.2,0.7,0.5,1c0.2,0.2,0.6,0.4,1.1,0.4s0.8-0.1,1.1-0.4c0.2-0.2,0.5-0.6,0.5-1
			C139.4,450,139.5,449.5,139.5,448.9z"/>
		<path class="st2" d="M141.6,448.9c0-1.2,0.2-2.2,0.6-2.9c0.4-0.7,1.1-1,2-1c1,0,1.7,0.4,2.2,1.1c0.4,0.7,0.6,1.7,0.6,2.9
			c0,1.2-0.2,2.2-0.6,2.9c-0.4,0.7-1.1,1.1-2.2,1.1c-1,0-1.7-0.4-2-1.1C141.9,451.1,141.6,450.1,141.6,448.9z M146.1,448.9
			c0-0.6,0-1.1-0.1-1.6c-0.1-0.4-0.2-0.7-0.5-1c-0.2-0.2-0.6-0.4-1.1-0.4c-0.5,0-0.8,0.1-1.1,0.4s-0.5,0.6-0.5,1
			c-0.1,0.4-0.1,1-0.1,1.6c0,0.6,0,1.2,0.1,1.6c0.1,0.5,0.2,0.7,0.5,1c0.2,0.2,0.6,0.4,1.1,0.4c0.5,0,0.8-0.1,1.1-0.4
			c0.2-0.2,0.5-0.6,0.5-1C146.1,450,146.1,449.5,146.1,448.9z"/>
		<path class="st2" d="M153.4,445.9h-4v2.5c0.1-0.2,0.5-0.5,0.7-0.6c0.4-0.1,0.7-0.2,1.1-0.2c0.6,0,1,0.1,1.3,0.4
			c0.4,0.2,0.6,0.5,0.8,0.8c0.1,0.4,0.2,0.8,0.2,1.2c0,0.8-0.2,1.4-0.6,1.9c-0.4,0.5-1.1,0.7-1.9,0.7c-0.7,0-1.4-0.2-1.9-0.6
			c-0.5-0.4-0.7-1-0.8-1.7h1c0.1,0.5,0.2,0.8,0.6,1.1c0.2,0.2,0.7,0.4,1.1,0.4c0.6,0,1-0.1,1.2-0.5s0.5-0.7,0.5-1.3
			c0-0.5-0.1-1-0.5-1.2c-0.2-0.2-0.7-0.5-1.2-0.5c-0.4,0-0.7,0.1-1,0.2c-0.2,0.1-0.5,0.4-0.6,0.6h-1v-4.3h4.8v1.1H153.4z"/>
	</g>
	<g class="st1">
		<path class="st2" d="M199.8,449.5c0.7-0.8,1.1-1.6,1.1-2.3c0-0.5-0.1-0.7-0.4-1.1c-0.2-0.2-0.6-0.4-1.1-0.4s-0.8,0.1-1.2,0.5
			c-0.2,0.4-0.4,0.7-0.5,1.3h-1c0-0.8,0.4-1.6,0.8-1.9c0.5-0.5,1.1-0.7,1.8-0.7c0.7,0,1.3,0.2,1.7,0.6c0.4,0.4,0.6,1,0.6,1.6
			s-0.2,1.2-0.6,1.8c-0.4,0.6-0.8,1.2-1.4,1.7c-0.6,0.5-1.1,1-1.7,1.3h3.8v0.8h-5.3V452C198.1,451.2,199.1,450.4,199.8,449.5z"/>
		<path class="st2" d="M203.2,448.9c0-1.2,0.2-2.2,0.6-2.9s1.1-1,2-1s1.7,0.4,2.2,1.1c0.4,0.7,0.6,1.7,0.6,2.9
			c0,1.2-0.2,2.2-0.6,2.9c-0.4,0.7-1.1,1.1-2.2,1.1c-1,0-1.7-0.4-2-1.1C203.4,451.1,203.2,450.1,203.2,448.9z M207.6,448.9
			c0-0.6,0-1.1-0.1-1.6c-0.1-0.4-0.2-0.7-0.5-1c-0.2-0.2-0.6-0.4-1.1-0.4s-0.8,0.1-1.1,0.4c-0.2,0.2-0.5,0.6-0.5,1
			c-0.1,0.4-0.1,1-0.1,1.6c0,0.6,0,1.2,0.1,1.6c0.1,0.5,0.2,0.7,0.5,1c0.2,0.2,0.6,0.4,1.1,0.4s0.8-0.1,1.1-0.4
			c0.2-0.2,0.5-0.6,0.5-1C207.6,450,207.6,449.5,207.6,448.9z"/>
		<path class="st2" d="M209.8,448.9c0-1.2,0.2-2.2,0.6-2.9c0.4-0.7,1.1-1,2-1c1,0,1.7,0.4,2.2,1.1c0.4,0.7,0.6,1.7,0.6,2.9
			c0,1.2-0.2,2.2-0.6,2.9c-0.4,0.7-1.1,1.1-2.2,1.1c-1,0-1.7-0.4-2-1.1C210,451.1,209.8,450.1,209.8,448.9z M214.2,448.9
			c0-0.6,0-1.1-0.1-1.6c-0.1-0.4-0.2-0.7-0.5-1c-0.2-0.2-0.6-0.4-1.1-0.4c-0.5,0-0.8,0.1-1.1,0.4s-0.5,0.6-0.5,1
			c-0.1,0.4-0.1,1-0.1,1.6c0,0.6,0,1.2,0.1,1.6c0.1,0.5,0.2,0.7,0.5,1c0.2,0.2,0.6,0.4,1.1,0.4c0.5,0,0.8-0.1,1.1-0.4
			c0.2-0.2,0.5-0.6,0.5-1C214.2,450,214.2,449.5,214.2,448.9z"/>
		<path class="st2" d="M220.3,446.1c-0.2-0.2-0.6-0.4-1.1-0.4c-0.6,0-1.1,0.2-1.4,0.7c-0.4,0.5-0.5,1.2-0.5,2.3v0.4
			c0.1-0.5,0.4-0.7,0.7-1.1c0.4-0.2,0.8-0.4,1.3-0.4c0.7,0,1.3,0.2,1.8,0.7c0.5,0.5,0.6,1.1,0.6,1.9c0,0.5-0.1,1-0.2,1.3
			c-0.2,0.4-0.5,0.7-0.8,1c-0.4,0.2-0.8,0.4-1.4,0.4c-1.1,0-1.8-0.4-2.3-1.1c-0.5-0.7-0.6-1.6-0.6-2.8c0-1.3,0.2-2.4,0.6-3
			c0.5-0.7,1.2-1.1,2.2-1.1c0.7,0,1.3,0.2,1.7,0.6s0.6,1,0.7,1.6h-1C220.7,446.8,220.6,446.4,220.3,446.1z M217.9,451.4
			c0.4,0.4,0.7,0.5,1.3,0.5c0.5,0,1-0.1,1.2-0.5s0.5-0.7,0.5-1.2c0-0.6-0.1-1.1-0.5-1.3c-0.4-0.2-0.7-0.5-1.2-0.5
			c-0.4,0-0.6,0.1-0.8,0.2c-0.2,0.1-0.5,0.4-0.7,0.6c-0.2,0.2-0.2,0.6-0.2,1C217.6,450.6,217.7,451.1,217.9,451.4z"/>
	</g>
	<g class="st1">
		<path class="st2" d="M272.7,449.5c0.7-0.8,1.1-1.6,1.1-2.3c0-0.5-0.1-0.7-0.4-1.1c-0.2-0.2-0.6-0.4-1.1-0.4
			c-0.5,0-0.8,0.1-1.2,0.5c-0.2,0.4-0.4,0.7-0.5,1.3h-1c0-0.8,0.4-1.6,0.8-1.9c0.5-0.5,1.1-0.7,1.8-0.7s1.3,0.2,1.7,0.6
			s0.6,1,0.6,1.6s-0.2,1.2-0.6,1.8c-0.4,0.6-0.8,1.2-1.4,1.7c-0.6,0.5-1.1,1-1.7,1.3h3.8v0.8h-5.3V452
			C271,451.2,271.9,450.4,272.7,449.5z"/>
		<path class="st2" d="M276,448.9c0-1.2,0.2-2.2,0.6-2.9s1.1-1,2-1c1,0,1.7,0.4,2.2,1.1c0.4,0.7,0.6,1.7,0.6,2.9
			c0,1.2-0.2,2.2-0.6,2.9c-0.4,0.7-1.1,1.1-2.2,1.1c-1,0-1.7-0.4-2-1.1C276.3,451.1,276,450.1,276,448.9z M280.5,448.9
			c0-0.6,0-1.1-0.1-1.6c-0.1-0.4-0.2-0.7-0.5-1c-0.2-0.2-0.6-0.4-1.1-0.4c-0.5,0-0.8,0.1-1.1,0.4s-0.5,0.6-0.5,1
			c-0.1,0.4-0.1,1-0.1,1.6c0,0.6,0,1.2,0.1,1.6c0.1,0.5,0.2,0.7,0.5,1c0.2,0.2,0.6,0.4,1.1,0.4c0.5,0,0.8-0.1,1.1-0.4
			c0.2-0.2,0.5-0.6,0.5-1C280.5,450,280.5,449.5,280.5,448.9z"/>
		<path class="st2" d="M282.7,448.9c0-1.2,0.2-2.2,0.6-2.9s1.1-1,2-1c1,0,1.7,0.4,2.2,1.1c0.4,0.7,0.6,1.7,0.6,2.9
			c0,1.2-0.2,2.2-0.6,2.9c-0.4,0.7-1.1,1.1-2.2,1.1c-1,0-1.7-0.4-2-1.1C282.9,451.1,282.7,450.1,282.7,448.9z M287.1,448.9
			c0-0.6,0-1.1-0.1-1.6c-0.1-0.4-0.2-0.7-0.5-1c-0.2-0.2-0.6-0.4-1.1-0.4s-0.8,0.1-1.1,0.4c-0.2,0.2-0.5,0.6-0.5,1
			c-0.1,0.4-0.1,1-0.1,1.6c0,0.6,0,1.2,0.1,1.6c0.1,0.5,0.2,0.7,0.5,1c0.2,0.2,0.6,0.4,1.1,0.4s0.8-0.1,1.1-0.4
			c0.2-0.2,0.5-0.6,0.5-1C287.1,450,287.1,449.5,287.1,448.9z"/>
		<path class="st2" d="M293.8,445.9l-2.9,7h-1.1l2.9-6.8h-4v-0.8h5L293.8,445.9L293.8,445.9z"/>
	</g>
	<g class="st1">
		<path class="st2" d="M342.4,449.5c0.7-0.8,1.1-1.6,1.1-2.3c0-0.5-0.1-0.7-0.4-1.1c-0.2-0.2-0.6-0.4-1.1-0.4
			c-0.5,0-0.8,0.1-1.2,0.5c-0.2,0.4-0.4,0.7-0.5,1.3h-1c0-0.8,0.4-1.6,0.8-1.9c0.5-0.5,1.1-0.7,1.8-0.7s1.3,0.2,1.7,0.6
			s0.6,1,0.6,1.6s-0.2,1.2-0.6,1.8c-0.4,0.6-0.8,1.2-1.4,1.7c-0.6,0.5-1.1,1-1.7,1.3h3.8v0.8h-5.3V452
			C340.6,451.2,341.6,450.4,342.4,449.5z"/>
		<path class="st2" d="M345.6,448.9c0-1.2,0.2-2.2,0.6-2.9s1.1-1,2-1s1.7,0.4,2.2,1.1c0.4,0.7,0.6,1.7,0.6,2.9
			c0,1.2-0.2,2.2-0.6,2.9c-0.4,0.7-1.1,1.1-2.2,1.1s-1.7-0.4-2-1.1C345.9,451.2,345.6,450.1,345.6,448.9z M350.1,448.9
			c0-0.6,0-1.1-0.1-1.6c-0.1-0.4-0.2-0.7-0.5-1c-0.2-0.2-0.6-0.4-1.1-0.4c-0.5,0-0.8,0.1-1.1,0.4c-0.2,0.2-0.5,0.6-0.5,1
			c-0.1,0.4-0.1,1-0.1,1.6c0,0.6,0,1.2,0.1,1.6c0.1,0.5,0.2,0.7,0.5,1c0.2,0.2,0.6,0.4,1.1,0.4c0.5,0,0.8-0.1,1.1-0.4
			c0.2-0.2,0.5-0.6,0.5-1C350.1,450,350.1,449.5,350.1,448.9z"/>
		<path class="st2" d="M352.4,448.9c0-1.2,0.2-2.2,0.6-2.9s1.1-1,2-1c1,0,1.7,0.4,2.2,1.1c0.5,0.7,0.6,1.7,0.6,2.9
			c0,1.2-0.2,2.2-0.6,2.9c-0.4,0.7-1.1,1.1-2.2,1.1c-1,0-1.7-0.4-2-1.1C352.5,451.1,352.4,450.1,352.4,448.9z M356.8,448.9
			c0-0.6,0-1.1-0.1-1.6c-0.1-0.5-0.2-0.7-0.5-1s-0.6-0.4-1.1-0.4c-0.5,0-0.8,0.1-1.1,0.4c-0.2,0.2-0.5,0.6-0.5,1s-0.1,1-0.1,1.6
			c0,0.6,0,1.2,0.1,1.6c0.1,0.5,0.2,0.7,0.5,1c0.2,0.2,0.6,0.4,1.1,0.4c0.5,0,0.8-0.1,1.1-0.4c0.2-0.2,0.5-0.6,0.5-1
			C356.7,450,356.8,449.5,356.8,448.9z"/>
		<path class="st2" d="M359.4,445.9c0.2-0.4,0.5-0.6,0.8-0.7c0.4-0.1,0.8-0.2,1.4-0.2c0.6,0,1,0.1,1.4,0.2c0.4,0.2,0.7,0.5,0.8,0.7
			c0.1,0.2,0.4,0.6,0.4,1.1c0,0.5-0.1,0.8-0.4,1.1c-0.2,0.4-0.6,0.5-1.1,0.6c0.5,0.1,0.8,0.4,1.2,0.7s0.5,0.7,0.5,1.2
			c0,0.7-0.2,1.3-0.7,1.7c-0.5,0.4-1.2,0.6-2,0.6s-1.6-0.2-2-0.6s-0.7-1-0.7-1.7c0-0.5,0.1-1,0.4-1.2c0.2-0.4,0.7-0.6,1.2-0.7
			c-0.5-0.1-0.8-0.4-1.1-0.6s-0.4-0.7-0.4-1.1C359.1,446.5,359.2,446.3,359.4,445.9z M360.4,451.8c0.4,0.2,0.8,0.4,1.3,0.4
			c0.6,0,1-0.1,1.3-0.4c0.4-0.2,0.5-0.6,0.5-1.1c0-0.5-0.1-0.8-0.5-1.1c-0.4-0.2-0.8-0.4-1.3-0.4c-0.5,0-1,0.1-1.3,0.4
			c-0.4,0.2-0.5,0.6-0.5,1.1C359.9,451.2,360,451.4,360.4,451.8z M360.5,448.1c0.2,0.2,0.7,0.4,1.2,0.4c0.5,0,1-0.1,1.2-0.4
			s0.5-0.6,0.5-1c0-0.5-0.1-0.7-0.5-1c-0.4-0.2-0.7-0.4-1.2-0.4c-0.5,0-0.8,0.1-1.2,0.4c-0.4,0.2-0.5,0.6-0.5,1
			S360.3,447.8,360.5,448.1z"/>
	</g>
	<g class="st1">
		<path class="st2" d="M413.5,449.5c0.7-0.8,1.1-1.6,1.1-2.3c0-0.5-0.1-0.7-0.4-1.1c-0.2-0.2-0.6-0.4-1.1-0.4
			c-0.5,0-0.8,0.1-1.2,0.5c-0.2,0.4-0.4,0.7-0.5,1.3h-1c0-0.8,0.4-1.6,0.8-1.9c0.5-0.5,1.1-0.7,1.8-0.7c0.7,0,1.3,0.2,1.7,0.6
			s0.6,1,0.6,1.6s-0.2,1.2-0.6,1.8c-0.4,0.6-0.8,1.2-1.4,1.7c-0.6,0.5-1.1,1-1.7,1.3h3.8v0.8h-5.3V452
			C411.9,451.2,412.8,450.4,413.5,449.5z"/>
		<path class="st2" d="M416.9,448.9c0-1.2,0.2-2.2,0.6-2.9s1.1-1,2-1c1,0,1.7,0.4,2.2,1.1c0.4,0.7,0.6,1.7,0.6,2.9
			c0,1.2-0.2,2.2-0.6,2.9c-0.4,0.7-1.1,1.1-2.2,1.1c-1,0-1.7-0.4-2-1.1C417.1,451.1,416.9,450.1,416.9,448.9z M421.3,448.9
			c0-0.6,0-1.1-0.1-1.6c-0.1-0.4-0.2-0.7-0.5-1c-0.2-0.2-0.6-0.4-1.1-0.4c-0.5,0-0.8,0.1-1.1,0.4c-0.2,0.2-0.5,0.6-0.5,1
			c-0.1,0.4-0.1,1-0.1,1.6c0,0.6,0,1.2,0.1,1.6c0.1,0.5,0.2,0.7,0.5,1c0.2,0.2,0.6,0.4,1.1,0.4c0.5,0,0.8-0.1,1.1-0.4
			c0.2-0.2,0.5-0.6,0.5-1C421.3,450,421.3,449.5,421.3,448.9z"/>
		<path class="st2" d="M423.6,448.9c0-1.2,0.2-2.2,0.6-2.9s1.1-1,2-1s1.7,0.4,2.2,1.1c0.4,0.7,0.6,1.7,0.6,2.9
			c0,1.2-0.2,2.2-0.6,2.9c-0.4,0.7-1.1,1.1-2.2,1.1c-1.1,0-1.7-0.4-2-1.1C423.7,451.1,423.6,450.1,423.6,448.9z M428.1,448.9
			c0-0.6,0-1.1-0.1-1.6c-0.1-0.4-0.2-0.7-0.5-1c-0.2-0.2-0.6-0.4-1.1-0.4c-0.5,0-0.8,0.1-1.1,0.4c-0.2,0.2-0.5,0.6-0.5,1
			c-0.1,0.4-0.1,1-0.1,1.6c0,0.6,0,1.2,0.1,1.6c0.1,0.5,0.2,0.7,0.5,1c0.2,0.2,0.6,0.4,1.1,0.4c0.5,0,0.8-0.1,1.1-0.4
			c0.2-0.2,0.5-0.6,0.5-1C427.9,450,428.1,449.5,428.1,448.9z"/>
		<path class="st2" d="M431.8,451.7c0.2,0.2,0.6,0.4,1.1,0.4c0.6,0,1.1-0.2,1.3-0.7c0.4-0.5,0.5-1.2,0.5-2.3c0-0.2,0-0.4,0-0.5
			c-0.1,0.5-0.4,0.7-0.7,1.1s-0.8,0.4-1.3,0.4c-0.7,0-1.3-0.2-1.8-0.7c-0.5-0.5-0.6-1.1-0.6-1.9c0-0.5,0.1-1,0.2-1.3
			c0.2-0.4,0.5-0.7,0.8-1c0.4-0.2,0.8-0.4,1.4-0.4c1.1,0,1.8,0.4,2.3,1c0.4,0.7,0.6,1.6,0.6,2.8c0,1.3-0.2,2.4-0.6,3.1
			s-1.1,1.1-2,1.1c-0.7,0-1.3-0.2-1.7-0.6s-0.6-1-0.7-1.6h1C431.4,451.1,431.5,451.4,431.8,451.7z M434.1,446.4
			c-0.4-0.4-0.7-0.6-1.3-0.6c-0.5,0-1,0.1-1.2,0.5s-0.5,0.7-0.5,1.3c0,0.6,0.1,1,0.5,1.3c0.4,0.4,0.7,0.5,1.2,0.5
			c0.4,0,0.6-0.1,0.8-0.2s0.5-0.4,0.7-0.6c0.1-0.2,0.2-0.6,0.2-1C434.5,447.1,434.4,446.8,434.1,446.4z"/>
	</g>
	<g class="st1">
		<path class="st2" d="M486.7,449.5c0.7-0.8,1.1-1.6,1.1-2.3c0-0.5-0.1-0.7-0.4-1.1c-0.2-0.2-0.6-0.4-1.1-0.4
			c-0.5,0-0.8,0.1-1.2,0.5c-0.2,0.4-0.4,0.7-0.5,1.3h-1c0-0.8,0.4-1.6,0.8-1.9c0.5-0.5,1.1-0.7,1.8-0.7c0.7,0,1.3,0.2,1.7,0.6
			s0.6,1,0.6,1.6s-0.2,1.2-0.6,1.8c-0.4,0.6-0.8,1.2-1.4,1.7c-0.6,0.5-1.1,1-1.7,1.3h3.8v0.8h-5.3V452
			C485,451.2,486,450.4,486.7,449.5z"/>
		<path class="st2" d="M490,448.9c0-1.2,0.2-2.2,0.6-2.9s1.1-1,2-1s1.7,0.4,2.2,1.1s0.6,1.7,0.6,2.9c0,1.2-0.2,2.2-0.6,2.9
			c-0.4,0.7-1.1,1.1-2.2,1.1c-1.1,0-1.7-0.4-2-1.1C490.3,451.2,490,450.1,490,448.9z M494.5,448.9c0-0.6,0-1.1-0.1-1.6
			c-0.1-0.5-0.2-0.7-0.5-1s-0.6-0.4-1.1-0.4c-0.5,0-0.8,0.1-1.1,0.4c-0.2,0.2-0.5,0.6-0.5,1s-0.1,1-0.1,1.6c0,0.6,0,1.2,0.1,1.6
			c0.1,0.5,0.2,0.7,0.5,1c0.2,0.2,0.6,0.4,1.1,0.4c0.5,0,0.8-0.1,1.1-0.4c0.2-0.2,0.5-0.6,0.5-1C494.5,450,494.5,449.5,494.5,448.9z
			"/>
		<path class="st2" d="M496.2,446v-1h2.2v7.6h-1.1v-6.7h-1.1V446z"/>
		<path class="st2" d="M499.8,448.9c0-1.2,0.2-2.2,0.6-2.9s1.1-1,2-1s1.7,0.4,2.2,1.1c0.4,0.7,0.6,1.7,0.6,2.9
			c0,1.2-0.2,2.2-0.6,2.9c-0.4,0.7-1.1,1.1-2.2,1.1c-1.1,0-1.7-0.4-2-1.1C500,451.2,499.8,450.1,499.8,448.9z M504.2,448.9
			c0-0.6,0-1.1-0.1-1.6c-0.1-0.4-0.2-0.7-0.5-1c-0.2-0.2-0.6-0.4-1.1-0.4s-0.8,0.1-1.1,0.4c-0.2,0.2-0.5,0.6-0.5,1
			c-0.1,0.4-0.1,1-0.1,1.6c0,0.6,0,1.2,0.1,1.6c0.1,0.5,0.2,0.7,0.5,1c0.2,0.2,0.6,0.4,1.1,0.4s0.8-0.1,1.1-0.4
			c0.2-0.2,0.5-0.6,0.5-1C504.2,450,504.2,449.5,504.2,448.9z"/>
	</g>
	<g class="st1">
		<path class="st2" d="M558.9,449.5c0.7-0.8,1.1-1.6,1.1-2.3c0-0.5-0.1-0.7-0.4-1.1c-0.2-0.2-0.6-0.4-1.1-0.4
			c-0.5,0-0.8,0.1-1.2,0.5c-0.2,0.4-0.4,0.7-0.5,1.3h-1c0-0.8,0.4-1.6,0.8-1.9c0.5-0.5,1.1-0.7,1.8-0.7s1.3,0.2,1.7,0.6
			c0.4,0.4,0.6,1,0.6,1.6s-0.2,1.2-0.6,1.8c-0.4,0.6-0.8,1.2-1.4,1.7c-0.6,0.5-1.1,1-1.7,1.3h3.8v0.8h-5.3V452
			C557.1,451.2,558.1,450.4,558.9,449.5z"/>
		<path class="st2" d="M562.2,448.9c0-1.2,0.2-2.2,0.6-2.9s1.1-1,2-1c1,0,1.7,0.4,2.2,1.1c0.5,0.7,0.6,1.7,0.6,2.9
			c0,1.2-0.2,2.2-0.6,2.9c-0.4,0.7-1.1,1.1-2.2,1.1s-1.7-0.4-2-1.1C562.5,451.2,562.2,450.1,562.2,448.9z M566.7,448.9
			c0-0.6,0-1.1-0.1-1.6c-0.1-0.5-0.2-0.7-0.5-1c-0.2-0.2-0.6-0.4-1.1-0.4s-0.8,0.1-1.1,0.4c-0.2,0.2-0.5,0.6-0.5,1s-0.1,1-0.1,1.6
			c0,0.6,0,1.2,0.1,1.6c0.1,0.5,0.2,0.7,0.5,1c0.2,0.2,0.6,0.4,1.1,0.4s0.8-0.1,1.1-0.4c0.2-0.2,0.5-0.6,0.5-1
			C566.5,450,566.7,449.5,566.7,448.9z"/>
		<path class="st2" d="M568.3,446v-1h2.2v7.6h-1v-6.7h-1.2V446z"/>
		<path class="st2" d="M571.5,446v-1h2.2v7.6h-1.1v-6.7h-1.1V446z"/>
	</g>
	<g class="st1">
		<path class="st2" d="M627.6,449.5c0.7-0.8,1.1-1.6,1.1-2.3c0-0.5-0.1-0.7-0.4-1.1c-0.2-0.2-0.6-0.4-1.1-0.4
			c-0.5,0-0.8,0.1-1.2,0.5c-0.2,0.4-0.4,0.7-0.5,1.3h-0.8c0-0.8,0.4-1.6,0.8-1.9c0.5-0.5,1.1-0.7,1.8-0.7s1.3,0.2,1.7,0.6
			c0.4,0.4,0.6,1,0.6,1.6s-0.2,1.2-0.6,1.8c-0.4,0.6-0.8,1.2-1.4,1.7c-0.6,0.5-1.1,1-1.7,1.3h3.8v0.8h-5.3V452
			C625.9,451.2,626.9,450.4,627.6,449.5z"/>
		<path class="st2" d="M630.9,448.9c0-1.2,0.2-2.2,0.6-2.9s1.1-1,2-1c1,0,1.7,0.4,2.2,1.1c0.4,0.7,0.6,1.7,0.6,2.9
			c0,1.2-0.2,2.2-0.6,2.9c-0.4,0.7-1.1,1.1-2.2,1.1s-1.7-0.4-2-1.1C631.2,451.2,630.9,450.1,630.9,448.9z M635.4,448.9
			c0-0.6,0-1.1-0.1-1.6c-0.1-0.4-0.2-0.7-0.5-1c-0.2-0.2-0.6-0.4-1.1-0.4s-0.8,0.1-1.1,0.4s-0.5,0.6-0.5,1c-0.1,0.4-0.1,1-0.1,1.6
			c0,0.6,0,1.2,0.1,1.6c0.1,0.5,0.2,0.7,0.5,1c0.2,0.2,0.6,0.4,1.1,0.4s0.8-0.1,1.1-0.4c0.2-0.2,0.5-0.6,0.5-1
			C635.3,450,635.4,449.5,635.4,448.9z"/>
		<path class="st2" d="M637.1,446v-1h2.2v7.6h-1.1v-6.7h-1.1V446z"/>
		<path class="st2" d="M643.4,449.5c0.7-0.8,1.1-1.6,1.1-2.3c0-0.5-0.1-0.7-0.4-1.1c-0.2-0.2-0.6-0.4-1.1-0.4s-0.8,0.1-1.2,0.5
			c-0.2,0.4-0.4,0.7-0.5,1.3h-1c0-0.8,0.4-1.6,0.8-1.9c0.5-0.5,1.1-0.7,1.8-0.7s1.3,0.2,1.7,0.6c0.4,0.4,0.6,1,0.6,1.6
			s-0.2,1.2-0.6,1.8c-0.4,0.6-0.8,1.2-1.4,1.7c-0.6,0.5-1.1,1-1.7,1.3h3.8v0.8h-5.3V452C641.7,451.2,642.7,450.4,643.4,449.5z"/>
	</g>
	<g class="st1">
		<path class="st2" d="M698.7,449.5c0.7-0.8,1.1-1.6,1.1-2.3c0-0.5-0.1-0.7-0.4-1.1c-0.2-0.2-0.6-0.4-1.1-0.4s-0.8,0.1-1.2,0.5
			c-0.2,0.4-0.4,0.7-0.5,1.3h-1c0-0.8,0.4-1.6,0.8-1.9c0.5-0.5,1.1-0.7,1.8-0.7s1.3,0.2,1.7,0.6c0.4,0.4,0.6,1,0.6,1.6
			s-0.2,1.2-0.6,1.8c-0.4,0.6-0.8,1.2-1.4,1.7c-0.6,0.5-1.1,1-1.7,1.3h3.8v0.8h-5.3V452C697,451.2,698,450.4,698.7,449.5z"/>
		<path class="st2" d="M702.1,448.9c0-1.2,0.2-2.2,0.6-2.9s1.1-1,2-1s1.7,0.4,2.2,1.1c0.5,0.7,0.6,1.7,0.6,2.9
			c0,1.2-0.2,2.2-0.6,2.9c-0.4,0.7-1.1,1.1-2.2,1.1c-1,0-1.7-0.4-2-1.1C702.3,451.1,702.1,450.1,702.1,448.9z M706.5,448.9
			c0-0.6,0-1.1-0.1-1.6c-0.1-0.5-0.2-0.7-0.5-1c-0.2-0.2-0.6-0.4-1.1-0.4c-0.5,0-0.8,0.1-1.1,0.4c-0.2,0.2-0.5,0.6-0.5,1
			s-0.1,1-0.1,1.6c0,0.6,0,1.2,0.1,1.6c0.1,0.5,0.2,0.7,0.5,1c0.2,0.2,0.6,0.4,1.1,0.4c0.5,0,0.8-0.1,1.1-0.4c0.2-0.2,0.5-0.6,0.5-1
			C706.5,450,706.5,449.5,706.5,448.9z"/>
		<path class="st2" d="M708.2,446v-1h2.2v7.6h-1.1v-6.7h-1.1V446z"/>
		<path class="st2" d="M715.8,445.2c0.4,0.1,0.6,0.4,0.8,0.7c0.1,0.4,0.2,0.6,0.2,1.1c0,0.5-0.1,0.8-0.4,1.2
			c-0.2,0.4-0.7,0.5-1.2,0.6v0.1c0.6,0.1,1,0.4,1.3,0.7c0.4,0.4,0.5,0.7,0.5,1.2c0,0.6-0.2,1.1-0.6,1.6c-0.4,0.4-1,0.6-1.8,0.6
			c-0.8,0-1.4-0.2-1.9-0.6c-0.5-0.4-0.7-1-0.8-1.8h1c0.1,0.5,0.2,0.8,0.6,1.1c0.2,0.2,0.7,0.5,1.2,0.5c0.5,0,0.8-0.1,1.1-0.4
			c0.2-0.2,0.4-0.6,0.4-1c0-0.5-0.2-0.8-0.6-1.1c-0.4-0.2-0.8-0.4-1.6-0.4h-0.2v-0.8h0.2c1.3,0,2-0.5,2-1.3c0-0.4-0.1-0.7-0.4-1
			c-0.2-0.2-0.6-0.4-1-0.4s-0.8,0.1-1.1,0.4c-0.2,0.2-0.5,0.6-0.5,1.1h-1c0-0.7,0.4-1.3,0.7-1.7c0.5-0.4,1.1-0.6,1.8-0.6
			C714.9,445,715.4,445.1,715.8,445.2z"/>
	</g>
	<g class="st1">
		<path class="st2" d="M768.8,449.5c0.7-0.8,1.1-1.6,1.1-2.3c0-0.5-0.1-0.7-0.4-1.1c-0.2-0.2-0.6-0.4-1.1-0.4s-0.8,0.1-1.2,0.5
			c-0.2,0.4-0.4,0.7-0.5,1.3h-1c0-0.8,0.4-1.6,0.8-1.9c0.5-0.5,1.1-0.7,1.8-0.7s1.3,0.2,1.7,0.6c0.4,0.4,0.6,1,0.6,1.6
			s-0.2,1.2-0.6,1.8c-0.4,0.6-0.8,1.2-1.4,1.7c-0.6,0.5-1.1,1-1.7,1.3h3.8v0.8h-5.3V452C767.1,451.2,768,450.4,768.8,449.5z"/>
		<path class="st2" d="M772.1,448.9c0-1.2,0.2-2.2,0.6-2.9s1.1-1,2-1s1.7,0.4,2.2,1.1c0.5,0.7,0.6,1.7,0.6,2.9
			c0,1.2-0.2,2.2-0.6,2.9c-0.4,0.7-1.1,1.1-2.2,1.1c-1,0-1.7-0.4-2-1.1C772.2,451.1,772.1,450.1,772.1,448.9z M776.6,448.9
			c0-0.6,0-1.1-0.1-1.6c-0.1-0.5-0.2-0.7-0.5-1c-0.2-0.2-0.6-0.4-1.1-0.4c-0.5,0-0.8,0.1-1.1,0.4c-0.2,0.2-0.5,0.6-0.5,1
			s-0.1,1-0.1,1.6c0,0.6,0,1.2,0.1,1.6c0.1,0.5,0.2,0.7,0.5,1c0.2,0.2,0.6,0.4,1.1,0.4c0.5,0,0.8-0.1,1.1-0.4c0.2-0.2,0.5-0.6,0.5-1
			C776.4,450,776.6,449.5,776.6,448.9z"/>
		<path class="st2" d="M778.2,446v-1h2.2v7.6h-1.1v-6.7h-1.1V446z"/>
		<path class="st2" d="M781.6,451v-0.7l4-5h1.1v5h1.1v0.8h-1.1v1.8h-1v-1.8h-4.1V451z M785.6,446.3l-3,3.8h3V446.3z"/>
	</g>
	<g class="st1">
		<path class="st2" d="M827.3,449.5c0.7-0.8,1.1-1.6,1.1-2.3c0-0.5-0.1-0.7-0.4-1.1c-0.2-0.2-0.6-0.4-1.1-0.4s-0.8,0.1-1.2,0.5
			c-0.2,0.4-0.4,0.7-0.5,1.3h-1c0-0.8,0.4-1.6,0.8-1.9c0.5-0.5,1.1-0.7,1.8-0.7s1.3,0.2,1.7,0.6c0.4,0.4,0.6,1,0.6,1.6
			s-0.2,1.2-0.6,1.8c-0.4,0.6-0.8,1.2-1.4,1.7c-0.6,0.5-1.1,1-1.7,1.3h3.8v0.8h-5.3V452C825.5,451.2,826.6,450.4,827.3,449.5z"/>
		<path class="st2" d="M830.7,448.9c0-1.2,0.2-2.2,0.6-2.9s1.1-1,2-1c1,0,1.7,0.4,2.2,1.1c0.5,0.7,0.6,1.7,0.6,2.9
			c0,1.2-0.2,2.2-0.6,2.9c-0.4,0.7-1.1,1.1-2.2,1.1c-1,0-1.7-0.4-2-1.1C830.8,451.1,830.7,450.1,830.7,448.9z M835.1,448.9
			c0-0.6,0-1.1-0.1-1.6c-0.1-0.5-0.2-0.7-0.5-1s-0.6-0.4-1.1-0.4s-0.8,0.1-1.1,0.4c-0.2,0.2-0.5,0.6-0.5,1s-0.1,1-0.1,1.6
			c0,0.6,0,1.2,0.1,1.6c0.1,0.5,0.2,0.7,0.5,1c0.2,0.2,0.6,0.4,1.1,0.4s0.8-0.1,1.1-0.4c0.2-0.2,0.5-0.6,0.5-1
			C835,450,835.1,449.5,835.1,448.9z"/>
		<path class="st2" d="M836.8,446v-1h2.2v7.6h-1.1v-6.7h-1.1V446z"/>
		<path class="st2" d="M845.6,445.9h-4v2.5c0.2-0.2,0.5-0.5,0.7-0.6c0.2-0.1,0.7-0.2,1.1-0.2c0.6,0,1,0.1,1.3,0.4
			c0.4,0.2,0.6,0.5,0.8,0.8c0.1,0.4,0.2,0.8,0.2,1.2c0,0.8-0.2,1.4-0.6,1.9c-0.4,0.5-1.1,0.7-1.9,0.7c-0.7,0-1.4-0.2-1.9-0.6
			c-0.5-0.4-0.7-1-0.8-1.7h1c0.1,0.5,0.2,0.8,0.6,1.1c0.2,0.2,0.6,0.4,1.1,0.4c0.6,0,1-0.1,1.2-0.5s0.5-0.7,0.5-1.3
			c0-0.5-0.1-1-0.5-1.2s-0.7-0.5-1.2-0.5c-0.4,0-0.7,0.1-1,0.2c-0.2,0.1-0.5,0.4-0.6,0.6h-1v-4.3h4.8v1.1H845.6z"/>
	</g>
</g>
<path class="st3" d="M493.9,83.6c35.3,0,35.3-35.1,70.5-35.1s35.3,10.6,70.5,10.6c35.4,0,35.4,2.2,70.7,2.2s35.4,11.9,70.6,11.9
	c35.3,0,35.3-6.8,70.5-6.8v36.2c-35.3,0-35.3-6.8-70.5-6.8c-35.3,0-35.3,11.9-70.5,11.9c-35.4,0-35.4,2.2-70.7,2.2
	s-35.3,10.6-70.5,10.6s-35.2-35-70.5-35v-1.9L493.9,83.6L493.9,83.6z"/>
<g class="st1">
	<path class="st2" d="M498.2,70.2v4.4h-1.4v-11h3.5c1.2,0,2.2,0.2,2.9,0.8c0.6,0.6,1,1.4,1,2.4c0,1.1-0.4,1.8-1,2.4
		s-1.6,0.8-2.8,0.8h-2.2V70.2z M502.1,68.5c0.4-0.4,0.6-0.8,0.6-1.6c0-0.7-0.2-1.2-0.6-1.6c-0.4-0.4-1-0.5-1.9-0.5h-1.9V69h1.9
		C501,69,501.6,68.8,502.1,68.5z"/>
	<path class="st2" d="M507.1,70.2v4.4h-1.4v-11h3.5c1.2,0,2.2,0.2,2.9,0.8c0.6,0.6,1,1.4,1,2.4c0,1.1-0.4,1.8-1,2.4
		c-0.6,0.6-1.6,0.8-2.8,0.8h-2.2V70.2z M511,68.5c0.4-0.4,0.6-0.8,0.6-1.6c0-0.7-0.2-1.2-0.6-1.6c-0.4-0.4-1-0.5-1.9-0.5h-1.9V69
		h1.9C509.9,69,510.6,68.8,511,68.5z"/>
	<path class="st2" d="M522.8,64.5c0.8,0.7,1.4,1.6,1.8,2.8h-1.4c-0.2-0.7-0.7-1.3-1.3-1.7c-0.6-0.5-1.4-0.6-2.3-0.6
		c-0.7,0-1.3,0.1-1.9,0.5c-0.6,0.4-1,0.8-1.3,1.4c-0.4,0.6-0.5,1.4-0.5,2.3c0,0.8,0.1,1.6,0.5,2.3c0.4,0.6,0.7,1.2,1.3,1.4
		c0.6,0.4,1.2,0.5,1.9,0.5c1,0,1.7-0.2,2.3-0.6c0.6-0.5,1.1-1,1.3-1.7h1.4c-0.4,1.2-1,2-1.8,2.8c-0.8,0.6-2,1-3.4,1
		c-1.1,0-1.9-0.2-2.8-0.7c-0.8-0.5-1.4-1.1-1.8-2c-0.5-0.8-0.7-1.8-0.7-2.9s0.2-2,0.7-2.9c0.5-0.8,1.1-1.6,1.8-2
		c0.8-0.5,1.7-0.7,2.8-0.7C520.8,63.6,521.9,63.8,522.8,64.5z"/>
	<path class="st2" d="M532.3,74.6l-2.9-4.4h-1.6v4.4h-1.4v-11h3.6c1.2,0,2.2,0.2,2.8,0.8c0.6,0.6,1,1.4,1,2.4c0,0.8-0.2,1.6-0.7,2.2
		c-0.5,0.6-1.2,0.8-2.2,1.1l3,4.6C533.9,74.6,532.3,74.6,532.3,74.6z M527.9,69.1h2c1.6,0,2.4-0.7,2.4-2.2c0-1.4-0.8-2.2-2.4-2.2h-2
		V69.1z"/>
</g>
<path class="st3" d="M846.9,166.6c-35.3,0-35.3,11.8-70.5,11.8c-35.3,0-35.3,15.7-70.5,15.7c-35.4,0-35.4-12.7-70.7-12.7
	s-35.3-11-70.5-11s-35.3-5.7-70.5-5.7s-35.3,3.7-70.5,3.7c-35.4,0-35.4-5-70.7-5s-35.3-1.6-70.5-1.6c-70.5,0-70.5-0.4-141.1-0.4
	c-35.4,0-35.4,0.6-70.7,0.6s-35.3-0.2-70.5-0.2v-0.9c35.3,0,35.3-0.2,70.5-0.2c35.4,0,35.4,0.6,70.7,0.6c70.5,0,70.5-0.4,141.1-0.4
	c35.3,0,35.3-1.6,70.5-1.6c35.4,0,35.4-5,70.7-5s35.3,3.7,70.5,3.7s35.3-5.7,70.5-5.7s35.3-11,70.5-11c35.4,0,35.4-12.7,70.7-12.7
	s35.3,15.7,70.5,15.7c35.3,0,35.3,11.8,70.5,11.8"/>
<g class="st1">
	<path class="st2" d="M12.2,153.3h3.8v1.1h-5.3v-11h1.4V153.3z"/>
	<path class="st2" d="M26.1,151.9c-0.5,0.8-1.1,1.4-1.9,1.9c-0.8,0.5-1.9,0.7-3.1,0.7h-3.5v-11h3.5c1.2,0,2.3,0.2,3.1,0.7
		c0.8,0.5,1.6,1.1,1.9,1.9c0.5,0.8,0.7,1.8,0.7,2.9C26.9,150.1,26.6,151,26.1,151.9z M24.2,152.1c0.7-0.7,1.1-1.8,1.1-3.1
		s-0.4-2.4-1.1-3.1c-0.7-0.7-1.8-1.1-3.2-1.1h-1.9v8.5H21C22.4,153.2,23.5,152.8,24.2,152.1z"/>
	<path class="st2" d="M37,144.3c0.8,0.7,1.4,1.6,1.8,2.8h-1.4c-0.2-0.7-0.7-1.3-1.3-1.7c-0.6-0.5-1.4-0.6-2.3-0.6
		c-0.7,0-1.3,0.1-1.9,0.5c-0.6,0.4-1,0.8-1.3,1.4c-0.4,0.6-0.5,1.4-0.5,2.3s0.1,1.6,0.5,2.3c0.4,0.6,0.7,1.2,1.3,1.4
		c0.6,0.4,1.2,0.5,1.9,0.5c1,0,1.7-0.2,2.3-0.6c0.6-0.5,1.1-1,1.3-1.7h1.4c-0.4,1.2-1,2-1.8,2.8c-0.8,0.6-2,1-3.4,1
		c-1.1,0-1.9-0.2-2.8-0.7s-1.4-1.1-1.8-2c-0.5-0.8-0.7-1.8-0.7-2.9c0-1.1,0.2-2,0.7-2.9s1.1-1.6,1.8-2c0.8-0.5,1.7-0.7,2.8-0.7
		C34.9,143.4,36.1,143.7,37,144.3z"/>
	<path class="st2" d="M46.9,143.5v1.2h-4.8v3.8h4.1v1.1h-4.1v4.9h-1.4v-11H46.9z"/>
</g>
<path class="st3" d="M846.9,246.3c-35.3,0-35.3-0.8-70.5-0.8c-35.3,0-35.3-4.4-70.5-4.4c-35.4,0-35.4,8-70.7,8s-35.3-2-70.5-2
	s-35.3-5.7-70.5-5.7v-5.6c35.3,0,35.3-5.7,70.5-5.7s35.3-2,70.5-2c35.4,0,35.4,8,70.7,8s35.3-4.4,70.5-4.4c35.3,0,35.3-0.8,70.5-0.8
	"/>
<path class="st3" d="M846.9,317.5c-35.3,0-35.3,8.1-70.5,8.1c-35.3,0-35.3-8.6-70.5-8.6c-35.4,0-35.4,3.9-70.7,3.9
	s-35.3-1.2-70.5-1.2s-35.3-3.3-70.5-3.3s-35.3,2.9-70.5,2.9c-35.4,0-35.4-2.9-70.7-2.9s-35.3,3-70.5,3S247.2,316,212,316v-0.9
	c35.3,0,35.3-3.4,70.5-3.4s35.3,3,70.5,3c35.4,0,35.4-2.9,70.7-2.9s35.3,2.9,70.5,2.9s35.3-3.3,70.5-3.3s35.3-1.2,70.5-1.2
	c35.4,0,35.4,3.9,70.7,3.9s35.3-8.6,70.5-8.6c35.3,0,35.3,8.1,70.5,8.1"/>
<g class="st1">
	<path class="st2" d="M220.9,307c-0.2,0.5-0.6,0.8-1.1,1.1c-0.5,0.2-1.1,0.5-1.9,0.5c-0.7,0-1.3-0.1-1.9-0.4c-0.6-0.2-1-0.6-1.3-1.1
		c-0.4-0.5-0.5-1-0.6-1.6h1.6c0,0.4,0.1,0.6,0.4,1c0.2,0.2,0.5,0.6,0.7,0.7c0.2,0.1,0.7,0.2,1.2,0.2c0.6,0,1.1-0.1,1.4-0.5
		c0.4-0.4,0.5-0.7,0.5-1.3c0-0.5-0.1-0.8-0.4-1.1c-0.2-0.2-0.5-0.5-0.8-0.7c-0.4-0.1-0.8-0.4-1.4-0.5c-0.7-0.2-1.2-0.5-1.7-0.6
		c-0.5-0.2-0.7-0.5-1.1-1c-0.2-0.4-0.5-1-0.5-1.6s0.1-1.1,0.4-1.6c0.2-0.5,0.7-0.7,1.2-1c0.5-0.2,1.1-0.4,1.8-0.4
		c1.1,0,1.9,0.2,2.5,0.8c0.6,0.5,1,1.2,1.1,2h-1.6c-0.1-0.5-0.4-0.8-0.7-1.2c-0.4-0.4-0.8-0.5-1.4-0.5c-0.6,0-1.1,0.1-1.3,0.5
		c-0.4,0.2-0.5,0.7-0.5,1.2c0,0.5,0.1,0.7,0.4,1.1c0.2,0.2,0.5,0.5,0.8,0.6c0.4,0.1,0.8,0.4,1.3,0.5c0.7,0.2,1.3,0.5,1.7,0.6
		c0.5,0.2,0.8,0.5,1.1,1c0.4,0.5,0.5,1,0.5,1.7C221.2,306.1,221.1,306.6,220.9,307z"/>
	<path class="st2" d="M231.3,298.3c0.8,0.7,1.4,1.6,1.8,2.8h-1.4c-0.2-0.7-0.7-1.3-1.3-1.7c-0.6-0.5-1.4-0.6-2.3-0.6
		c-0.7,0-1.3,0.1-1.9,0.5c-0.6,0.4-1,0.8-1.3,1.4c-0.4,0.6-0.5,1.4-0.5,2.3c0,0.8,0.1,1.6,0.5,2.3c0.4,0.6,0.7,1.2,1.3,1.4
		c0.6,0.4,1.2,0.5,1.9,0.5c1,0,1.7-0.2,2.3-0.6c0.6-0.5,1.1-1,1.3-1.7h1.4c-0.4,1.2-1,2-1.8,2.8c-0.8,0.6-2,1-3.4,1
		c-1.1,0-1.9-0.2-2.8-0.7c-0.8-0.5-1.4-1.1-1.8-2c-0.5-0.8-0.7-1.8-0.7-2.9s0.2-2,0.7-2.9c0.5-0.8,1.1-1.6,1.8-2
		c0.8-0.5,1.7-0.7,2.8-0.7C229.4,297.2,230.5,297.6,231.3,298.3z"/>
	<path class="st2" d="M243.2,298.3c0.8,0.7,1.4,1.6,1.8,2.8h-1.4c-0.2-0.7-0.7-1.3-1.3-1.7c-0.6-0.5-1.4-0.6-2.3-0.6
		c-0.7,0-1.3,0.1-1.9,0.5s-1,0.8-1.3,1.4s-0.5,1.4-0.5,2.3c0,0.8,0.1,1.6,0.5,2.3c0.4,0.6,0.7,1.2,1.3,1.4c0.6,0.4,1.2,0.5,1.9,0.5
		c1,0,1.7-0.2,2.3-0.6c0.6-0.5,1.1-1,1.3-1.7h1.4c-0.4,1.2-1,2-1.8,2.8c-0.8,0.6-2,1-3.4,1c-1.1,0-1.9-0.2-2.8-0.7
		c-0.8-0.5-1.4-1.1-1.8-2c-0.5-0.8-0.7-1.8-0.7-2.9s0.2-2,0.7-2.9c0.5-0.8,1.1-1.6,1.8-2c0.8-0.5,1.7-0.7,2.8-0.7
		C241.3,297.2,242.4,297.6,243.2,298.3z"/>
	<path class="st2" d="M253.2,297.4v1.2h-4.8v3.8h4.1v1.1h-4.1v4.9h-1.4v-11H253.2z"/>
</g>
<path class="st3" d="M635.1,391.9c35.4,0,35.4-11.5,70.7-11.5s35.3,2.4,70.5,2.4c35.3,0,35.3-1.3,70.5-1.3v22.2
	c-35.3,0-35.3-1.3-70.5-1.3c-35.3,0-35.3,2.4-70.5,2.4c-35.4,0-35.4-11.5-70.7-11.5V391.9z"/>
<g class="st1">
	<path class="st2" d="M644.5,383.4h-4.8l-1,2.5h-1.6l4.1-10.8h1.6l4.1,10.8h-1.6L644.5,383.4z M644,382.3l-2-5.5l-2,5.5H644z"/>
	<path class="st2" d="M654.9,384.6c-0.2,0.5-0.6,0.8-1.1,1.1c-0.5,0.2-1.1,0.5-1.9,0.5c-0.7,0-1.3-0.1-1.9-0.4
		c-0.6-0.2-1-0.6-1.3-1.1c-0.4-0.5-0.5-1-0.6-1.6h1.6c0,0.4,0.1,0.6,0.4,1s0.5,0.6,0.8,0.7c0.4,0.2,0.7,0.2,1.2,0.2
		c0.6,0,1.1-0.1,1.4-0.5s0.5-0.7,0.5-1.3c0-0.5-0.1-0.8-0.4-1.1c-0.2-0.2-0.5-0.5-0.8-0.7c-0.4-0.1-0.8-0.4-1.4-0.5
		c-0.7-0.2-1.2-0.5-1.7-0.6c-0.5-0.2-0.8-0.5-1.1-1c-0.2-0.4-0.5-1-0.5-1.6s0.1-1.1,0.4-1.6c0.2-0.5,0.7-0.7,1.2-1
		c0.5-0.2,1.1-0.4,1.8-0.4c1.1,0,1.9,0.2,2.5,0.8c0.6,0.5,1,1.2,1.1,2h-1.6c-0.1-0.5-0.4-0.8-0.7-1.2s-0.8-0.5-1.4-0.5
		c-0.6,0-1.1,0.1-1.3,0.5c-0.4,0.2-0.5,0.7-0.5,1.2c0,0.5,0.1,0.7,0.4,1.1c0.2,0.4,0.5,0.5,0.8,0.6c0.4,0.1,0.8,0.4,1.3,0.5
		c0.7,0.2,1.3,0.5,1.7,0.6c0.4,0.1,0.8,0.5,1.1,1c0.4,0.4,0.5,1,0.5,1.7C655.3,383.6,655.2,384.1,654.9,384.6z"/>
	<path class="st2" d="M663.7,383.4h-4.8l-1,2.5h-1.6l4.1-10.8h1.6l4.1,10.8h-1.6L663.7,383.4z M663.2,382.3l-2-5.5l-2,5.5H663.2z"/>
	<path class="st2" d="M669,381.5v4.4h-1.4v-11h3.5c1.2,0,2.2,0.2,2.9,0.8c0.6,0.6,1,1.4,1,2.4c0,1.1-0.4,1.8-1,2.4
		c-0.6,0.6-1.6,0.8-2.8,0.8H669V381.5z M672.8,379.8c0.4-0.4,0.6-0.8,0.6-1.6c0-0.7-0.2-1.2-0.6-1.6s-1-0.5-1.9-0.5H669v4.2h1.9
		C671.7,380.3,672.3,380.1,672.8,379.8z"/>
</g>
<line class="st4" x1="-0.2" y1="433.5" x2="-0.2" y2="0"/>
<line class="st5" x1="70.4" y1="433.5" x2="70.4" y2="0"/>
<line class="st5" x1="141.2" y1="433.5" x2="141.2" y2="0"/>
<line class="st5" x1="211.7" y1="433.5" x2="211.7" y2="0"/>
<line class="st5" x1="282.1" y1="433.5" x2="282.1" y2="0"/>
<line class="st5" x1="352.8" y1="433.5" x2="352.8" y2="0"/>
<line class="st5" x1="423.4" y1="433.5" x2="423.4" y2="0"/>
<line class="st5" x1="493.9" y1="433.5" x2="493.9" y2="0"/>
<line class="st5" x1="564.5" y1="433.5" x2="564.5" y2="0"/>
<line class="st5" x1="635.1" y1="433.5" x2="635.1" y2="0"/>
<line class="st5" x1="705.8" y1="433.5" x2="705.8" y2="0"/>
<line class="st5" x1="776.4" y1="433.5" x2="776.4" y2="0"/>
<line class="st4" x1="846.9" y1="433.5" x2="846.9" y2="0"/>
<g>
	<path class="st2" d="M845.8,1v431.5H0.8V1H845.8 M846.8,0h-847v433.5h847V0L846.8,0z"/>
</g>
<g class="st1">
	<path class="st2" d="M505.1,226.5h-4.8l-1,2.5h-1.6l4.1-10.8h1.6l4.1,10.8h-1.6L505.1,226.5z M504.7,225.4l-2-5.5l-2,5.5H504.7z"/>
	<path class="st2" d="M515.2,218v1.2h-4.8v3.8h4.1v1.1h-4.1v4.9h-1.4v-11H515.2z"/>
</g>
</svg>
