<?xml version="1.0" encoding="utf-8"?>
<!-- Generator: Adobe Illustrator 22.1.0, SVG Export Plug-In . SVG Version: 6.00 Build 0)  -->
<svg version="1.1" id="Livello_1" xmlns="http://www.w3.org/2000/svg" xmlns:xlink="http://www.w3.org/1999/xlink" x="0px" y="0px"
	 viewBox="0 0 846.7 477.2" style="enable-background:new 0 0 846.7 477.2;" xml:space="preserve">
<style type="text/css">
	.st0{fill:#FF4A60;}
	.st1{enable-background:new    ;}
	.st2{fill:#FFFFFF;}
	.st3{fill:#A93142;}
	.st4{fill:none;stroke:#FFFFFF;stroke-width:0.5;}
	.st5{fill:none;stroke:#FFFFFF;stroke-width:0.25;}
</style>
<rect x="-0.2" y="0" class="st0" width="847" height="477.2"/>
<g>
	<g class="st1">
		<path class="st2" d="M2.7,449.4c0.6-0.7,0.9-1.3,0.9-1.9c0-0.4-0.1-0.6-0.3-0.9c-0.2-0.2-0.5-0.3-0.9-0.3c-0.4,0-0.7,0.1-1,0.4
			c-0.2,0.3-0.3,0.6-0.4,1.1H0.3c0-0.7,0.3-1.3,0.7-1.6c0.4-0.4,0.9-0.6,1.5-0.6c0.6,0,1.1,0.2,1.4,0.5c0.3,0.3,0.5,0.8,0.5,1.3
			c0,0.5-0.2,1-0.5,1.5c-0.3,0.5-0.7,1-1.2,1.4c-0.5,0.4-0.9,0.8-1.4,1.1h3.2v0.7H0.2v-0.6C1.2,450.8,2.1,450.1,2.7,449.4z"/>
		<path class="st2" d="M5.5,448.9c0-1,0.2-1.8,0.5-2.4c0.3-0.6,0.9-0.8,1.7-0.8c0.8,0,1.4,0.3,1.8,0.9c0.3,0.6,0.5,1.4,0.5,2.4
			c0,1-0.2,1.8-0.5,2.4c-0.3,0.6-0.9,0.9-1.8,0.9c-0.8,0-1.4-0.3-1.7-0.9C5.6,450.7,5.5,449.9,5.5,448.9z M9.2,448.9
			c0-0.5,0-0.9-0.1-1.3c-0.1-0.3-0.2-0.6-0.4-0.8s-0.5-0.3-0.9-0.3c-0.4,0-0.7,0.1-0.9,0.3s-0.4,0.5-0.4,0.8
			c-0.1,0.3-0.1,0.8-0.1,1.3c0,0.5,0,1,0.1,1.3c0.1,0.4,0.2,0.6,0.4,0.8s0.5,0.3,0.9,0.3c0.4,0,0.7-0.1,0.9-0.3s0.4-0.5,0.4-0.8
			C9.1,449.8,9.2,449.4,9.2,448.9z"/>
		<path class="st2" d="M11,448.9c0-1,0.2-1.8,0.5-2.4c0.3-0.6,0.9-0.8,1.7-0.8c0.8,0,1.4,0.3,1.8,0.9c0.3,0.6,0.5,1.4,0.5,2.4
			c0,1-0.2,1.8-0.5,2.4c-0.3,0.6-0.9,0.9-1.8,0.9c-0.8,0-1.4-0.3-1.7-0.9C11.2,450.7,11,449.9,11,448.9z M14.7,448.9
			c0-0.5,0-0.9-0.1-1.3c-0.1-0.3-0.2-0.6-0.4-0.8s-0.5-0.3-0.9-0.3c-0.4,0-0.7,0.1-0.9,0.3s-0.4,0.5-0.4,0.8
			c-0.1,0.3-0.1,0.8-0.1,1.3c0,0.5,0,1,0.1,1.3c0.1,0.4,0.2,0.6,0.4,0.8s0.5,0.3,0.9,0.3c0.4,0,0.7-0.1,0.9-0.3s0.4-0.5,0.4-0.8
			C14.7,449.8,14.7,449.4,14.7,448.9z"/>
		<path class="st2" d="M19.7,445.8c0.3,0.1,0.5,0.3,0.7,0.6c0.1,0.3,0.2,0.5,0.2,0.9c0,0.4-0.1,0.7-0.3,1c-0.2,0.3-0.6,0.4-1,0.5
			v0.1c0.5,0.1,0.8,0.3,1.1,0.6c0.3,0.3,0.4,0.6,0.4,1c0,0.5-0.2,0.9-0.5,1.3s-0.8,0.5-1.5,0.5c-0.7,0-1.2-0.2-1.6-0.5
			c-0.4-0.3-0.6-0.8-0.7-1.5h0.8c0.1,0.4,0.2,0.7,0.5,0.9c0.2,0.2,0.6,0.4,1,0.4c0.4,0,0.7-0.1,0.9-0.3s0.3-0.5,0.3-0.8
			c0-0.4-0.2-0.7-0.5-0.9s-0.7-0.3-1.3-0.3H18v-0.7h0.2c1.1,0,1.7-0.4,1.7-1.1c0-0.3-0.1-0.6-0.3-0.8c-0.2-0.2-0.5-0.3-0.8-0.3
			c-0.4,0-0.7,0.1-0.9,0.3c-0.2,0.2-0.4,0.5-0.4,0.9h-0.8c0-0.6,0.3-1.1,0.6-1.4c0.4-0.3,0.9-0.5,1.5-0.5
			C19.1,445.6,19.5,445.7,19.7,445.8z"/>
	</g>
	<g class="st1">
		<path class="st2" d="M60.8,449.4c0.6-0.7,0.9-1.3,0.9-1.9c0-0.4-0.1-0.6-0.3-0.9c-0.2-0.2-0.5-0.3-0.9-0.3c-0.4,0-0.7,0.1-1,0.4
			c-0.2,0.3-0.3,0.6-0.4,1.1h-0.8c0-0.7,0.3-1.3,0.7-1.6c0.4-0.4,0.9-0.6,1.5-0.6c0.6,0,1.1,0.2,1.4,0.5c0.3,0.3,0.5,0.8,0.5,1.3
			c0,0.5-0.2,1-0.5,1.5c-0.3,0.5-0.7,1-1.2,1.4c-0.5,0.4-0.9,0.8-1.4,1.1h3.2v0.7h-4.4v-0.6C59.4,450.8,60.2,450.1,60.8,449.4z"/>
		<path class="st2" d="M63.6,448.9c0-1,0.2-1.8,0.5-2.4c0.3-0.6,0.9-0.8,1.7-0.8c0.8,0,1.4,0.3,1.8,0.9c0.3,0.6,0.5,1.4,0.5,2.4
			c0,1-0.2,1.8-0.5,2.4c-0.3,0.6-0.9,0.9-1.8,0.9c-0.8,0-1.4-0.3-1.7-0.9C63.7,450.7,63.6,449.9,63.6,448.9z M67.3,448.9
			c0-0.5,0-0.9-0.1-1.3c-0.1-0.3-0.2-0.6-0.4-0.8s-0.5-0.3-0.9-0.3c-0.4,0-0.7,0.1-0.9,0.3s-0.4,0.5-0.4,0.8
			c-0.1,0.3-0.1,0.8-0.1,1.3c0,0.5,0,1,0.1,1.3c0.1,0.4,0.2,0.6,0.4,0.8s0.5,0.3,0.9,0.3c0.4,0,0.7-0.1,0.9-0.3s0.4-0.5,0.4-0.8
			C67.2,449.8,67.3,449.4,67.3,448.9z"/>
		<path class="st2" d="M69.1,448.9c0-1,0.2-1.8,0.5-2.4c0.3-0.6,0.9-0.8,1.7-0.8c0.8,0,1.4,0.3,1.8,0.9c0.3,0.6,0.5,1.4,0.5,2.4
			c0,1-0.2,1.8-0.5,2.4c-0.3,0.6-0.9,0.9-1.8,0.9c-0.8,0-1.4-0.3-1.7-0.9C69.3,450.7,69.1,449.9,69.1,448.9z M72.8,448.9
			c0-0.5,0-0.9-0.1-1.3c-0.1-0.3-0.2-0.6-0.4-0.8s-0.5-0.3-0.9-0.3c-0.4,0-0.7,0.1-0.9,0.3s-0.4,0.5-0.4,0.8
			c-0.1,0.3-0.1,0.8-0.1,1.3c0,0.5,0,1,0.1,1.3c0.1,0.4,0.2,0.6,0.4,0.8s0.5,0.3,0.9,0.3c0.4,0,0.7-0.1,0.9-0.3s0.4-0.5,0.4-0.8
			C72.8,449.8,72.8,449.4,72.8,448.9z"/>
		<path class="st2" d="M74.4,450.6V450l3.3-4.2h0.9v4.2h0.9v0.7h-0.9v1.5h-0.8v-1.5H74.4z M77.8,446.7l-2.5,3.2h2.5V446.7z"/>
	</g>
	<g class="st1">
		<path class="st2" d="M131.4,449.4c0.6-0.7,0.9-1.3,0.9-1.9c0-0.4-0.1-0.6-0.3-0.9c-0.2-0.2-0.5-0.3-0.9-0.3c-0.4,0-0.7,0.1-1,0.4
			c-0.2,0.3-0.3,0.6-0.4,1.1H129c0-0.7,0.3-1.3,0.7-1.6c0.4-0.4,0.9-0.6,1.5-0.6c0.6,0,1.1,0.2,1.4,0.5c0.3,0.3,0.5,0.8,0.5,1.3
			c0,0.5-0.2,1-0.5,1.5c-0.3,0.5-0.7,1-1.2,1.4c-0.5,0.4-0.9,0.8-1.4,1.1h3.2v0.7h-4.4v-0.6C130,450.8,130.8,450.1,131.4,449.4z"/>
		<path class="st2" d="M134.2,448.9c0-1,0.2-1.8,0.5-2.4c0.3-0.6,0.9-0.8,1.7-0.8c0.8,0,1.4,0.3,1.8,0.9c0.3,0.6,0.5,1.4,0.5,2.4
			c0,1-0.2,1.8-0.5,2.4c-0.3,0.6-0.9,0.9-1.8,0.9c-0.8,0-1.4-0.3-1.7-0.9C134.3,450.7,134.2,449.9,134.2,448.9z M137.9,448.9
			c0-0.5,0-0.9-0.1-1.3c-0.1-0.3-0.2-0.6-0.4-0.8s-0.5-0.3-0.9-0.3c-0.4,0-0.7,0.1-0.9,0.3s-0.4,0.5-0.4,0.8
			c-0.1,0.3-0.1,0.8-0.1,1.3c0,0.5,0,1,0.1,1.3c0.1,0.4,0.2,0.6,0.4,0.8s0.5,0.3,0.9,0.3c0.4,0,0.7-0.1,0.9-0.3s0.4-0.5,0.4-0.8
			C137.8,449.8,137.9,449.4,137.9,448.9z"/>
		<path class="st2" d="M139.7,448.9c0-1,0.2-1.8,0.5-2.4c0.3-0.6,0.9-0.8,1.7-0.8c0.8,0,1.4,0.3,1.8,0.9c0.3,0.6,0.5,1.4,0.5,2.4
			c0,1-0.2,1.8-0.5,2.4c-0.3,0.6-0.9,0.9-1.8,0.9c-0.8,0-1.4-0.3-1.7-0.9C139.9,450.7,139.7,449.9,139.7,448.9z M143.4,448.9
			c0-0.5,0-0.9-0.1-1.3c-0.1-0.3-0.2-0.6-0.4-0.8s-0.5-0.3-0.9-0.3c-0.4,0-0.7,0.1-0.9,0.3s-0.4,0.5-0.4,0.8
			c-0.1,0.3-0.1,0.8-0.1,1.3c0,0.5,0,1,0.1,1.3c0.1,0.4,0.2,0.6,0.4,0.8s0.5,0.3,0.9,0.3c0.4,0,0.7-0.1,0.9-0.3s0.4-0.5,0.4-0.8
			C143.4,449.8,143.4,449.4,143.4,448.9z"/>
		<path class="st2" d="M149.5,446.4h-3.3v2.1c0.1-0.2,0.4-0.4,0.6-0.5c0.3-0.1,0.6-0.2,0.9-0.2c0.5,0,0.8,0.1,1.1,0.3
			c0.3,0.2,0.5,0.4,0.7,0.7c0.1,0.3,0.2,0.7,0.2,1c0,0.7-0.2,1.2-0.5,1.6s-0.9,0.6-1.6,0.6c-0.6,0-1.2-0.2-1.6-0.5
			c-0.4-0.3-0.6-0.8-0.7-1.4h0.8c0.1,0.4,0.2,0.7,0.5,0.9c0.2,0.2,0.6,0.3,0.9,0.3c0.5,0,0.8-0.1,1-0.4c0.2-0.3,0.4-0.6,0.4-1.1
			c0-0.4-0.1-0.8-0.4-1c-0.2-0.2-0.6-0.4-1-0.4c-0.3,0-0.6,0.1-0.8,0.2c-0.2,0.1-0.4,0.3-0.5,0.5h-0.8v-3.6h4V446.4z"/>
	</g>
	<g class="st1">
		<path class="st2" d="M201.9,449.4c0.6-0.7,0.9-1.3,0.9-1.9c0-0.4-0.1-0.6-0.3-0.9c-0.2-0.2-0.5-0.3-0.9-0.3c-0.4,0-0.7,0.1-1,0.4
			c-0.2,0.3-0.3,0.6-0.4,1.1h-0.8c0-0.7,0.3-1.3,0.7-1.6c0.4-0.4,0.9-0.6,1.5-0.6c0.6,0,1.1,0.2,1.4,0.5c0.3,0.3,0.5,0.8,0.5,1.3
			c0,0.5-0.2,1-0.5,1.5c-0.3,0.5-0.7,1-1.2,1.4c-0.5,0.4-0.9,0.8-1.4,1.1h3.2v0.7h-4.4v-0.6C200.5,450.8,201.3,450.1,201.9,449.4z"
			/>
		<path class="st2" d="M204.7,448.9c0-1,0.2-1.8,0.5-2.4c0.3-0.6,0.9-0.8,1.7-0.8c0.8,0,1.4,0.3,1.8,0.9c0.3,0.6,0.5,1.4,0.5,2.4
			c0,1-0.2,1.8-0.5,2.4c-0.3,0.6-0.9,0.9-1.8,0.9c-0.8,0-1.4-0.3-1.7-0.9C204.9,450.7,204.7,449.9,204.7,448.9z M208.4,448.9
			c0-0.5,0-0.9-0.1-1.3c-0.1-0.3-0.2-0.6-0.4-0.8s-0.5-0.3-0.9-0.3c-0.4,0-0.7,0.1-0.9,0.3s-0.4,0.5-0.4,0.8
			c-0.1,0.3-0.1,0.8-0.1,1.3c0,0.5,0,1,0.1,1.3c0.1,0.4,0.2,0.6,0.4,0.8s0.5,0.3,0.9,0.3c0.4,0,0.7-0.1,0.9-0.3s0.4-0.5,0.4-0.8
			C208.4,449.8,208.4,449.4,208.4,448.9z"/>
		<path class="st2" d="M210.2,448.9c0-1,0.2-1.8,0.5-2.4c0.3-0.6,0.9-0.8,1.7-0.8c0.8,0,1.4,0.3,1.8,0.9c0.3,0.6,0.5,1.4,0.5,2.4
			c0,1-0.2,1.8-0.5,2.4c-0.3,0.6-0.9,0.9-1.8,0.9c-0.8,0-1.4-0.3-1.7-0.9C210.4,450.7,210.2,449.9,210.2,448.9z M213.9,448.9
			c0-0.5,0-0.9-0.1-1.3c-0.1-0.3-0.2-0.6-0.4-0.8s-0.5-0.3-0.9-0.3c-0.4,0-0.7,0.1-0.9,0.3s-0.4,0.5-0.4,0.8
			c-0.1,0.3-0.1,0.8-0.1,1.3c0,0.5,0,1,0.1,1.3c0.1,0.4,0.2,0.6,0.4,0.8s0.5,0.3,0.9,0.3c0.4,0,0.7-0.1,0.9-0.3s0.4-0.5,0.4-0.8
			C213.9,449.8,213.9,449.4,213.9,448.9z"/>
		<path class="st2" d="M219,446.6c-0.2-0.2-0.5-0.3-0.9-0.3c-0.5,0-0.9,0.2-1.2,0.6c-0.3,0.4-0.4,1-0.4,1.9l0,0.3
			c0.1-0.4,0.3-0.6,0.6-0.9c0.3-0.2,0.7-0.3,1.1-0.3c0.6,0,1.1,0.2,1.5,0.6c0.4,0.4,0.5,0.9,0.5,1.6c0,0.4-0.1,0.8-0.2,1.1
			c-0.2,0.3-0.4,0.6-0.7,0.8c-0.3,0.2-0.7,0.3-1.2,0.3c-0.9,0-1.5-0.3-1.9-0.9s-0.5-1.3-0.5-2.3c0-1.1,0.2-2,0.5-2.5
			c0.4-0.6,1-0.9,1.8-0.9c0.6,0,1.1,0.2,1.4,0.5s0.5,0.8,0.6,1.3h-0.8C219.3,447.1,219.2,446.8,219,446.6z M217,451
			c0.3,0.3,0.6,0.4,1.1,0.4c0.4,0,0.8-0.1,1-0.4s0.4-0.6,0.4-1c0-0.5-0.1-0.9-0.4-1.1s-0.6-0.4-1-0.4c-0.3,0-0.5,0.1-0.7,0.2
			c-0.2,0.1-0.4,0.3-0.6,0.5s-0.2,0.5-0.2,0.8C216.7,450.3,216.8,450.7,217,451z"/>
	</g>
	<g class="st1">
		<path class="st2" d="M272.9,449.4c0.6-0.7,0.9-1.3,0.9-1.9c0-0.4-0.1-0.6-0.3-0.9c-0.2-0.2-0.5-0.3-0.9-0.3c-0.4,0-0.7,0.1-1,0.4
			c-0.2,0.3-0.3,0.6-0.4,1.1h-0.8c0-0.7,0.3-1.3,0.7-1.6c0.4-0.4,0.9-0.6,1.5-0.6c0.6,0,1.1,0.2,1.4,0.5c0.3,0.3,0.5,0.8,0.5,1.3
			c0,0.5-0.2,1-0.5,1.5c-0.3,0.5-0.7,1-1.2,1.4c-0.5,0.4-0.9,0.8-1.4,1.1h3.2v0.7h-4.4v-0.6C271.5,450.8,272.3,450.1,272.9,449.4z"
			/>
		<path class="st2" d="M275.7,448.9c0-1,0.2-1.8,0.5-2.4c0.3-0.6,0.9-0.8,1.7-0.8c0.8,0,1.4,0.3,1.8,0.9c0.3,0.6,0.5,1.4,0.5,2.4
			c0,1-0.2,1.8-0.5,2.4c-0.3,0.6-0.9,0.9-1.8,0.9c-0.8,0-1.4-0.3-1.7-0.9C275.9,450.7,275.7,449.9,275.7,448.9z M279.4,448.9
			c0-0.5,0-0.9-0.1-1.3c-0.1-0.3-0.2-0.6-0.4-0.8s-0.5-0.3-0.9-0.3c-0.4,0-0.7,0.1-0.9,0.3s-0.4,0.5-0.4,0.8
			c-0.1,0.3-0.1,0.8-0.1,1.3c0,0.5,0,1,0.1,1.3c0.1,0.4,0.2,0.6,0.4,0.8s0.5,0.3,0.9,0.3c0.4,0,0.7-0.1,0.9-0.3s0.4-0.5,0.4-0.8
			C279.4,449.8,279.4,449.4,279.4,448.9z"/>
		<path class="st2" d="M281.3,448.9c0-1,0.2-1.8,0.5-2.4c0.3-0.6,0.9-0.8,1.7-0.8c0.8,0,1.4,0.3,1.8,0.9c0.3,0.6,0.5,1.4,0.5,2.4
			c0,1-0.2,1.8-0.5,2.4c-0.3,0.6-0.9,0.9-1.8,0.9c-0.8,0-1.4-0.3-1.7-0.9C281.4,450.7,281.3,449.9,281.3,448.9z M284.9,448.9
			c0-0.5,0-0.9-0.1-1.3c-0.1-0.3-0.2-0.6-0.4-0.8s-0.5-0.3-0.9-0.3c-0.4,0-0.7,0.1-0.9,0.3s-0.4,0.5-0.4,0.8
			c-0.1,0.3-0.1,0.8-0.1,1.3c0,0.5,0,1,0.1,1.3c0.1,0.4,0.2,0.6,0.4,0.8s0.5,0.3,0.9,0.3c0.4,0,0.7-0.1,0.9-0.3s0.4-0.5,0.4-0.8
			C284.9,449.8,284.9,449.4,284.9,448.9z"/>
		<path class="st2" d="M290.5,446.4l-2.4,5.8h-0.9l2.4-5.7h-3.3v-0.7h4.2V446.4z"/>
	</g>
	<g class="st1">
		<path class="st2" d="M343.2,449.4c0.6-0.7,0.9-1.3,0.9-1.9c0-0.4-0.1-0.6-0.3-0.9c-0.2-0.2-0.5-0.3-0.9-0.3c-0.4,0-0.7,0.1-1,0.4
			c-0.2,0.3-0.3,0.6-0.4,1.1h-0.8c0-0.7,0.3-1.3,0.7-1.6c0.4-0.4,0.9-0.6,1.5-0.6c0.6,0,1.1,0.2,1.4,0.5c0.3,0.3,0.5,0.8,0.5,1.3
			c0,0.5-0.2,1-0.5,1.5c-0.3,0.5-0.7,1-1.2,1.4c-0.5,0.4-0.9,0.8-1.4,1.1h3.2v0.7h-4.4v-0.6C341.7,450.8,342.5,450.1,343.2,449.4z"
			/>
		<path class="st2" d="M345.9,448.9c0-1,0.2-1.8,0.5-2.4c0.3-0.6,0.9-0.8,1.7-0.8s1.4,0.3,1.8,0.9c0.3,0.6,0.5,1.4,0.5,2.4
			c0,1-0.2,1.8-0.5,2.4c-0.3,0.6-0.9,0.9-1.8,0.9s-1.4-0.3-1.7-0.9S345.9,449.9,345.9,448.9z M349.6,448.9c0-0.5,0-0.9-0.1-1.3
			c-0.1-0.3-0.2-0.6-0.4-0.8s-0.5-0.3-0.9-0.3c-0.4,0-0.7,0.1-0.9,0.3s-0.4,0.5-0.4,0.8c-0.1,0.3-0.1,0.8-0.1,1.3c0,0.5,0,1,0.1,1.3
			c0.1,0.4,0.2,0.6,0.4,0.8s0.5,0.3,0.9,0.3c0.4,0,0.7-0.1,0.9-0.3s0.4-0.5,0.4-0.8C349.6,449.8,349.6,449.4,349.6,448.9z"/>
		<path class="st2" d="M351.5,448.9c0-1,0.2-1.8,0.5-2.4c0.3-0.6,0.9-0.8,1.7-0.8c0.8,0,1.4,0.3,1.8,0.9s0.5,1.4,0.5,2.4
			c0,1-0.2,1.8-0.5,2.4s-0.9,0.9-1.8,0.9c-0.8,0-1.4-0.3-1.7-0.9C351.6,450.7,351.5,449.9,351.5,448.9z M355.2,448.9
			c0-0.5,0-0.9-0.1-1.3s-0.2-0.6-0.4-0.8s-0.5-0.3-0.9-0.3c-0.4,0-0.7,0.1-0.9,0.3s-0.4,0.5-0.4,0.8s-0.1,0.8-0.1,1.3
			c0,0.5,0,1,0.1,1.3c0.1,0.4,0.2,0.6,0.4,0.8s0.5,0.3,0.9,0.3c0.4,0,0.7-0.1,0.9-0.3s0.4-0.5,0.4-0.8
			C355.1,449.8,355.2,449.4,355.2,448.9z"/>
		<path class="st2" d="M357.4,446.4c0.2-0.3,0.4-0.5,0.7-0.6c0.3-0.1,0.7-0.2,1.2-0.2s0.8,0.1,1.2,0.2c0.3,0.2,0.6,0.4,0.7,0.6
			s0.3,0.5,0.3,0.9c0,0.4-0.1,0.7-0.3,0.9c-0.2,0.3-0.5,0.4-0.9,0.5c0.4,0.1,0.7,0.3,1,0.6s0.4,0.6,0.4,1c0,0.6-0.2,1.1-0.6,1.4
			s-1,0.5-1.7,0.5s-1.3-0.2-1.7-0.5c-0.4-0.3-0.6-0.8-0.6-1.4c0-0.4,0.1-0.8,0.3-1c0.2-0.3,0.6-0.5,1-0.6c-0.4-0.1-0.7-0.3-0.9-0.5
			s-0.3-0.6-0.3-0.9C357.1,446.9,357.2,446.7,357.4,446.4z M358.2,451.3c0.3,0.2,0.7,0.3,1.1,0.3c0.5,0,0.8-0.1,1.1-0.3
			c0.3-0.2,0.4-0.5,0.4-0.9c0-0.4-0.1-0.7-0.4-0.9s-0.7-0.3-1.1-0.3c-0.4,0-0.8,0.1-1.1,0.3s-0.4,0.5-0.4,0.9S357.9,451,358.2,451.3
			z M358.3,448.2c0.2,0.2,0.6,0.3,1,0.3s0.8-0.1,1-0.3s0.4-0.5,0.4-0.8c0-0.4-0.1-0.6-0.4-0.8s-0.6-0.3-1-0.3s-0.7,0.1-1,0.3
			s-0.4,0.5-0.4,0.8C357.9,447.7,358.1,448,358.3,448.2z"/>
	</g>
	<g class="st1">
		<path class="st2" d="M413.7,449.4c0.6-0.7,0.9-1.3,0.9-1.9c0-0.4-0.1-0.6-0.3-0.9c-0.2-0.2-0.5-0.3-0.9-0.3c-0.4,0-0.7,0.1-1,0.4
			c-0.2,0.3-0.3,0.6-0.4,1.1h-0.8c0-0.7,0.3-1.3,0.7-1.6c0.4-0.4,0.9-0.6,1.5-0.6c0.6,0,1.1,0.2,1.4,0.5c0.3,0.3,0.5,0.8,0.5,1.3
			c0,0.5-0.2,1-0.5,1.5c-0.3,0.5-0.7,1-1.2,1.4c-0.5,0.4-0.9,0.8-1.4,1.1h3.2v0.7h-4.4v-0.6C412.3,450.8,413.1,450.1,413.7,449.4z"
			/>
		<path class="st2" d="M416.5,448.9c0-1,0.2-1.8,0.5-2.4c0.3-0.6,0.9-0.8,1.7-0.8c0.8,0,1.4,0.3,1.8,0.9c0.3,0.6,0.5,1.4,0.5,2.4
			c0,1-0.2,1.8-0.5,2.4c-0.3,0.6-0.9,0.9-1.8,0.9c-0.8,0-1.4-0.3-1.7-0.9C416.7,450.7,416.5,449.9,416.5,448.9z M420.2,448.9
			c0-0.5,0-0.9-0.1-1.3c-0.1-0.3-0.2-0.6-0.4-0.8s-0.5-0.3-0.9-0.3c-0.4,0-0.7,0.1-0.9,0.3s-0.4,0.5-0.4,0.8
			c-0.1,0.3-0.1,0.8-0.1,1.3c0,0.5,0,1,0.1,1.3c0.1,0.4,0.2,0.6,0.4,0.8s0.5,0.3,0.9,0.3c0.4,0,0.7-0.1,0.9-0.3s0.4-0.5,0.4-0.8
			C420.2,449.8,420.2,449.4,420.2,448.9z"/>
		<path class="st2" d="M422.1,448.9c0-1,0.2-1.8,0.5-2.4c0.3-0.6,0.9-0.8,1.7-0.8s1.4,0.3,1.8,0.9c0.3,0.6,0.5,1.4,0.5,2.4
			c0,1-0.2,1.8-0.5,2.4c-0.3,0.6-0.9,0.9-1.8,0.9s-1.4-0.3-1.7-0.9C422.2,450.7,422.1,449.9,422.1,448.9z M425.8,448.9
			c0-0.5,0-0.9-0.1-1.3c-0.1-0.3-0.2-0.6-0.4-0.8s-0.5-0.3-0.9-0.3c-0.4,0-0.7,0.1-0.9,0.3s-0.4,0.5-0.4,0.8
			c-0.1,0.3-0.1,0.8-0.1,1.3c0,0.5,0,1,0.1,1.3c0.1,0.4,0.2,0.6,0.4,0.8s0.5,0.3,0.9,0.3c0.4,0,0.7-0.1,0.9-0.3s0.4-0.5,0.4-0.8
			C425.7,449.8,425.8,449.4,425.8,448.9z"/>
		<path class="st2" d="M428.9,451.2c0.2,0.2,0.5,0.3,0.9,0.3c0.5,0,0.9-0.2,1.1-0.6c0.3-0.4,0.4-1,0.4-1.9c0-0.2,0-0.3,0-0.4
			c-0.1,0.4-0.3,0.6-0.6,0.9s-0.7,0.3-1.1,0.3c-0.6,0-1.1-0.2-1.5-0.6c-0.4-0.4-0.5-0.9-0.5-1.6c0-0.4,0.1-0.8,0.2-1.1
			c0.2-0.3,0.4-0.6,0.7-0.8c0.3-0.2,0.7-0.3,1.2-0.3c0.9,0,1.5,0.3,1.9,0.8c0.3,0.6,0.5,1.3,0.5,2.3c0,1.1-0.2,2-0.5,2.6
			s-0.9,0.9-1.7,0.9c-0.6,0-1.1-0.2-1.4-0.5c-0.3-0.3-0.5-0.8-0.6-1.3h0.8C428.6,450.7,428.7,451,428.9,451.2z M430.8,446.8
			c-0.3-0.3-0.6-0.5-1.1-0.5c-0.4,0-0.8,0.1-1,0.4s-0.4,0.6-0.4,1.1c0,0.5,0.1,0.8,0.4,1.1s0.6,0.4,1,0.4c0.3,0,0.5-0.1,0.7-0.2
			c0.2-0.1,0.4-0.3,0.6-0.5c0.1-0.2,0.2-0.5,0.2-0.8C431.2,447.4,431.1,447.1,430.8,446.8z"/>
	</g>
	<g class="st1">
		<path class="st2" d="M485.9,449.4c0.6-0.7,0.9-1.3,0.9-1.9c0-0.4-0.1-0.6-0.3-0.9c-0.2-0.2-0.5-0.3-0.9-0.3c-0.4,0-0.7,0.1-1,0.4
			c-0.2,0.3-0.3,0.6-0.4,1.1h-0.8c0-0.7,0.3-1.3,0.7-1.6c0.4-0.4,0.9-0.6,1.5-0.6c0.6,0,1.1,0.2,1.4,0.5c0.3,0.3,0.5,0.8,0.5,1.3
			c0,0.5-0.2,1-0.5,1.5c-0.3,0.5-0.7,1-1.2,1.4c-0.5,0.4-0.9,0.8-1.4,1.1h3.2v0.7h-4.4v-0.6C484.5,450.8,485.3,450.1,485.9,449.4z"
			/>
		<path class="st2" d="M488.7,448.9c0-1,0.2-1.8,0.5-2.4c0.3-0.6,0.9-0.8,1.7-0.8s1.4,0.3,1.8,0.9s0.5,1.4,0.5,2.4
			c0,1-0.2,1.8-0.5,2.4s-0.9,0.9-1.8,0.9s-1.4-0.3-1.7-0.9S488.7,449.9,488.7,448.9z M492.4,448.9c0-0.5,0-0.9-0.1-1.3
			s-0.2-0.6-0.4-0.8s-0.5-0.3-0.9-0.3c-0.4,0-0.7,0.1-0.9,0.3c-0.2,0.2-0.4,0.5-0.4,0.8s-0.1,0.8-0.1,1.3c0,0.5,0,1,0.1,1.3
			c0.1,0.4,0.2,0.6,0.4,0.8c0.2,0.2,0.5,0.3,0.9,0.3c0.4,0,0.7-0.1,0.9-0.3s0.4-0.5,0.4-0.8C492.4,449.8,492.4,449.4,492.4,448.9z"
			/>
		<path class="st2" d="M493.8,446.5v-0.8h1.8v6.3h-0.9v-5.6H493.8z"/>
		<path class="st2" d="M496.8,448.9c0-1,0.2-1.8,0.5-2.4c0.3-0.6,0.9-0.8,1.7-0.8s1.4,0.3,1.8,0.9c0.3,0.6,0.5,1.4,0.5,2.4
			c0,1-0.2,1.8-0.5,2.4c-0.3,0.6-0.9,0.9-1.8,0.9s-1.4-0.3-1.7-0.9S496.8,449.9,496.8,448.9z M500.5,448.9c0-0.5,0-0.9-0.1-1.3
			c-0.1-0.3-0.2-0.6-0.4-0.8c-0.2-0.2-0.5-0.3-0.9-0.3c-0.4,0-0.7,0.1-0.9,0.3s-0.4,0.5-0.4,0.8c-0.1,0.3-0.1,0.8-0.1,1.3
			c0,0.5,0,1,0.1,1.3c0.1,0.4,0.2,0.6,0.4,0.8s0.5,0.3,0.9,0.3c0.4,0,0.7-0.1,0.9-0.3c0.2-0.2,0.4-0.5,0.4-0.8
			C500.5,449.8,500.5,449.4,500.5,448.9z"/>
	</g>
	<g class="st1">
		<path class="st2" d="M558.1,449.4c0.6-0.7,0.9-1.3,0.9-1.9c0-0.4-0.1-0.6-0.3-0.9c-0.2-0.2-0.5-0.3-0.9-0.3c-0.4,0-0.7,0.1-1,0.4
			c-0.2,0.3-0.3,0.6-0.4,1.1h-0.8c0-0.7,0.3-1.3,0.7-1.6c0.4-0.4,0.9-0.6,1.5-0.6c0.6,0,1.1,0.2,1.4,0.5c0.3,0.3,0.5,0.8,0.5,1.3
			c0,0.5-0.2,1-0.5,1.5c-0.3,0.5-0.7,1-1.2,1.4c-0.5,0.4-0.9,0.8-1.4,1.1h3.2v0.7h-4.4v-0.6C556.6,450.8,557.5,450.1,558.1,449.4z"
			/>
		<path class="st2" d="M560.9,448.9c0-1,0.2-1.8,0.5-2.4c0.3-0.6,0.9-0.8,1.7-0.8s1.4,0.3,1.8,0.9s0.5,1.4,0.5,2.4
			c0,1-0.2,1.8-0.5,2.4s-0.9,0.9-1.8,0.9s-1.4-0.3-1.7-0.9S560.9,449.9,560.9,448.9z M564.6,448.9c0-0.5,0-0.9-0.1-1.3
			s-0.2-0.6-0.4-0.8s-0.5-0.3-0.9-0.3c-0.4,0-0.7,0.1-0.9,0.3c-0.2,0.2-0.4,0.5-0.4,0.8s-0.1,0.8-0.1,1.3c0,0.5,0,1,0.1,1.3
			c0.1,0.4,0.2,0.6,0.4,0.8c0.2,0.2,0.5,0.3,0.9,0.3c0.4,0,0.7-0.1,0.9-0.3s0.4-0.5,0.4-0.8C564.5,449.8,564.6,449.4,564.6,448.9z"
			/>
		<path class="st2" d="M566,446.5v-0.8h1.8v6.3H567v-5.6H566z"/>
		<path class="st2" d="M568.6,446.5v-0.8h1.8v6.3h-0.9v-5.6H568.6z"/>
	</g>
	<g class="st1">
		<path class="st2" d="M627.4,449.4c0.6-0.7,0.9-1.3,0.9-1.9c0-0.4-0.1-0.6-0.3-0.9c-0.2-0.2-0.5-0.3-0.9-0.3c-0.4,0-0.7,0.1-1,0.4
			c-0.2,0.3-0.3,0.6-0.4,1.1H625c0-0.7,0.3-1.3,0.7-1.6c0.4-0.4,0.9-0.6,1.5-0.6c0.6,0,1.1,0.2,1.4,0.5c0.3,0.3,0.5,0.8,0.5,1.3
			c0,0.5-0.2,1-0.5,1.5c-0.3,0.5-0.7,1-1.2,1.4c-0.5,0.4-0.9,0.8-1.4,1.1h3.2v0.7h-4.4v-0.6C626,450.8,626.8,450.1,627.4,449.4z"/>
		<path class="st2" d="M630.2,448.9c0-1,0.2-1.8,0.5-2.4c0.3-0.6,0.9-0.8,1.7-0.8s1.4,0.3,1.8,0.9c0.3,0.6,0.5,1.4,0.5,2.4
			c0,1-0.2,1.8-0.5,2.4c-0.3,0.6-0.9,0.9-1.8,0.9s-1.4-0.3-1.7-0.9S630.2,449.9,630.2,448.9z M633.9,448.9c0-0.5,0-0.9-0.1-1.3
			c-0.1-0.3-0.2-0.6-0.4-0.8s-0.5-0.3-0.9-0.3c-0.4,0-0.7,0.1-0.9,0.3s-0.4,0.5-0.4,0.8c-0.1,0.3-0.1,0.8-0.1,1.3c0,0.5,0,1,0.1,1.3
			c0.1,0.4,0.2,0.6,0.4,0.8s0.5,0.3,0.9,0.3c0.4,0,0.7-0.1,0.9-0.3s0.4-0.5,0.4-0.8C633.8,449.8,633.9,449.4,633.9,448.9z"/>
		<path class="st2" d="M635.3,446.5v-0.8h1.8v6.3h-0.9v-5.6H635.3z"/>
		<path class="st2" d="M640.6,449.4c0.6-0.7,0.9-1.3,0.9-1.9c0-0.4-0.1-0.6-0.3-0.9c-0.2-0.2-0.5-0.3-0.9-0.3c-0.4,0-0.7,0.1-1,0.4
			c-0.2,0.3-0.3,0.6-0.4,1.1h-0.8c0-0.7,0.3-1.3,0.7-1.6c0.4-0.4,0.9-0.6,1.5-0.6c0.6,0,1.1,0.2,1.4,0.5c0.3,0.3,0.5,0.8,0.5,1.3
			c0,0.5-0.2,1-0.5,1.5c-0.3,0.5-0.7,1-1.2,1.4c-0.5,0.4-0.9,0.8-1.4,1.1h3.2v0.7h-4.4v-0.6C639.2,450.8,640,450.1,640.6,449.4z"/>
	</g>
	<g class="st1">
		<path class="st2" d="M697.9,449.4c0.6-0.7,0.9-1.3,0.9-1.9c0-0.4-0.1-0.6-0.3-0.9c-0.2-0.2-0.5-0.3-0.9-0.3c-0.4,0-0.7,0.1-1,0.4
			c-0.2,0.3-0.3,0.6-0.4,1.1h-0.8c0-0.7,0.3-1.3,0.7-1.6c0.4-0.4,0.9-0.6,1.5-0.6c0.6,0,1.1,0.2,1.4,0.5c0.3,0.3,0.5,0.8,0.5,1.3
			c0,0.5-0.2,1-0.5,1.5c-0.3,0.5-0.7,1-1.2,1.4c-0.5,0.4-0.9,0.8-1.4,1.1h3.2v0.7h-4.4v-0.6C696.5,450.8,697.3,450.1,697.9,449.4z"
			/>
		<path class="st2" d="M700.7,448.9c0-1,0.2-1.8,0.5-2.4c0.3-0.6,0.9-0.8,1.7-0.8c0.8,0,1.4,0.3,1.8,0.9s0.5,1.4,0.5,2.4
			c0,1-0.2,1.8-0.5,2.4s-0.9,0.9-1.8,0.9c-0.8,0-1.4-0.3-1.7-0.9C700.9,450.7,700.7,449.9,700.7,448.9z M704.4,448.9
			c0-0.5,0-0.9-0.1-1.3s-0.2-0.6-0.4-0.8s-0.5-0.3-0.9-0.3c-0.4,0-0.7,0.1-0.9,0.3s-0.4,0.5-0.4,0.8s-0.1,0.8-0.1,1.3
			c0,0.5,0,1,0.1,1.3c0.1,0.4,0.2,0.6,0.4,0.8s0.5,0.3,0.9,0.3c0.4,0,0.7-0.1,0.9-0.3s0.4-0.5,0.4-0.8
			C704.4,449.8,704.4,449.4,704.4,448.9z"/>
		<path class="st2" d="M705.8,446.5v-0.8h1.8v6.3h-0.9v-5.6H705.8z"/>
		<path class="st2" d="M712.1,445.8c0.3,0.1,0.5,0.3,0.7,0.6c0.1,0.3,0.2,0.5,0.2,0.9c0,0.4-0.1,0.7-0.3,1c-0.2,0.3-0.6,0.4-1,0.5
			v0.1c0.5,0.1,0.8,0.3,1.1,0.6s0.4,0.6,0.4,1c0,0.5-0.2,0.9-0.5,1.3c-0.3,0.3-0.8,0.5-1.5,0.5s-1.2-0.2-1.6-0.5
			c-0.4-0.3-0.6-0.8-0.7-1.5h0.8c0.1,0.4,0.2,0.7,0.5,0.9c0.2,0.2,0.6,0.4,1,0.4c0.4,0,0.7-0.1,0.9-0.3s0.3-0.5,0.3-0.8
			c0-0.4-0.2-0.7-0.5-0.9c-0.3-0.2-0.7-0.3-1.3-0.3h-0.2v-0.7h0.2c1.1,0,1.7-0.4,1.7-1.1c0-0.3-0.1-0.6-0.3-0.8
			c-0.2-0.2-0.5-0.3-0.8-0.3s-0.7,0.1-0.9,0.3s-0.4,0.5-0.4,0.9h-0.8c0-0.6,0.3-1.1,0.6-1.4c0.4-0.3,0.9-0.5,1.5-0.5
			C711.4,445.6,711.8,445.7,712.1,445.8z"/>
	</g>
	<g class="st1">
		<path class="st2" d="M768.3,449.4c0.6-0.7,0.9-1.3,0.9-1.9c0-0.4-0.1-0.6-0.3-0.9c-0.2-0.2-0.5-0.3-0.9-0.3c-0.4,0-0.7,0.1-1,0.4
			c-0.2,0.3-0.3,0.6-0.4,1.1h-0.8c0-0.7,0.3-1.3,0.7-1.6c0.4-0.4,0.9-0.6,1.5-0.6c0.6,0,1.1,0.2,1.4,0.5c0.3,0.3,0.5,0.8,0.5,1.3
			c0,0.5-0.2,1-0.5,1.5c-0.3,0.5-0.7,1-1.2,1.4c-0.5,0.4-0.9,0.8-1.4,1.1h3.2v0.7h-4.4v-0.6C766.9,450.8,767.7,450.1,768.3,449.4z"
			/>
		<path class="st2" d="M771.1,448.9c0-1,0.2-1.8,0.5-2.4c0.3-0.6,0.9-0.8,1.7-0.8c0.8,0,1.4,0.3,1.8,0.9s0.5,1.4,0.5,2.4
			c0,1-0.2,1.8-0.5,2.4s-0.9,0.9-1.8,0.9c-0.8,0-1.4-0.3-1.7-0.9C771.2,450.7,771.1,449.9,771.1,448.9z M774.8,448.9
			c0-0.5,0-0.9-0.1-1.3s-0.2-0.6-0.4-0.8s-0.5-0.3-0.9-0.3c-0.4,0-0.7,0.1-0.9,0.3s-0.4,0.5-0.4,0.8s-0.1,0.8-0.1,1.3
			c0,0.5,0,1,0.1,1.3c0.1,0.4,0.2,0.6,0.4,0.8s0.5,0.3,0.9,0.3c0.4,0,0.7-0.1,0.9-0.3s0.4-0.5,0.4-0.8
			C774.7,449.8,774.8,449.4,774.8,448.9z"/>
		<path class="st2" d="M776.2,446.5v-0.8h1.8v6.3h-0.9v-5.6H776.2z"/>
		<path class="st2" d="M779,450.6V450l3.3-4.2h0.9v4.2h0.9v0.7h-0.9v1.5h-0.8v-1.5H779z M782.3,446.7l-2.5,3.2h2.5V446.7z"/>
	</g>
	<g class="st1">
		<path class="st2" d="M828,449.4c0.6-0.7,0.9-1.3,0.9-1.9c0-0.4-0.1-0.6-0.3-0.9c-0.2-0.2-0.5-0.3-0.9-0.3c-0.4,0-0.7,0.1-1,0.4
			c-0.2,0.3-0.3,0.6-0.4,1.1h-0.8c0-0.7,0.3-1.3,0.7-1.6c0.4-0.4,0.9-0.6,1.5-0.6c0.6,0,1.1,0.2,1.4,0.5c0.3,0.3,0.5,0.8,0.5,1.3
			c0,0.5-0.2,1-0.5,1.5c-0.3,0.5-0.7,1-1.2,1.4c-0.5,0.4-0.9,0.8-1.4,1.1h3.2v0.7h-4.4v-0.6C826.5,450.8,827.4,450.1,828,449.4z"/>
		<path class="st2" d="M830.8,448.9c0-1,0.2-1.8,0.5-2.4c0.3-0.6,0.9-0.8,1.7-0.8c0.8,0,1.4,0.3,1.8,0.9s0.5,1.4,0.5,2.4
			c0,1-0.2,1.8-0.5,2.4s-0.9,0.9-1.8,0.9c-0.8,0-1.4-0.3-1.7-0.9C830.9,450.7,830.8,449.9,830.8,448.9z M834.5,448.9
			c0-0.5,0-0.9-0.1-1.3s-0.2-0.6-0.4-0.8s-0.5-0.3-0.9-0.3c-0.4,0-0.7,0.1-0.9,0.3s-0.4,0.5-0.4,0.8s-0.1,0.8-0.1,1.3
			c0,0.5,0,1,0.1,1.3c0.1,0.4,0.2,0.6,0.4,0.8s0.5,0.3,0.9,0.3c0.4,0,0.7-0.1,0.9-0.3s0.4-0.5,0.4-0.8
			C834.4,449.8,834.5,449.4,834.5,448.9z"/>
		<path class="st2" d="M835.9,446.5v-0.8h1.8v6.3h-0.9v-5.6H835.9z"/>
		<path class="st2" d="M843.2,446.4h-3.3v2.1c0.2-0.2,0.4-0.4,0.6-0.5s0.6-0.2,0.9-0.2c0.5,0,0.8,0.1,1.1,0.3
			c0.3,0.2,0.5,0.4,0.7,0.7c0.1,0.3,0.2,0.7,0.2,1c0,0.7-0.2,1.2-0.5,1.6s-0.9,0.6-1.6,0.6c-0.6,0-1.2-0.2-1.6-0.5
			c-0.4-0.3-0.6-0.8-0.7-1.4h0.8c0.1,0.4,0.2,0.7,0.5,0.9c0.2,0.2,0.5,0.3,0.9,0.3c0.5,0,0.8-0.1,1-0.4c0.2-0.3,0.4-0.6,0.4-1.1
			c0-0.4-0.1-0.8-0.4-1s-0.6-0.4-1-0.4c-0.3,0-0.6,0.1-0.8,0.2c-0.2,0.1-0.4,0.3-0.5,0.5h-0.8v-3.6h4V446.4z"/>
	</g>
</g>
<path class="st3" d="M493.9,83.6c35.3,0,35.3-35.1,70.5-35.1c35.2,0,35.3,10.6,70.5,10.6c35.4,0,35.4,2.2,70.7,2.2
	s35.4,11.9,70.6,11.9c35.3,0,35.3-6.8,70.5-6.8v36.2c-35.3,0-35.3-6.8-70.5-6.8c-35.3,0-35.3,11.9-70.5,11.9
	c-35.4,0-35.4,2.2-70.7,2.2s-35.3,10.6-70.5,10.6s-35.2-35-70.5-35v-1.9H493.9z"/>
<g class="st1">
	<path class="st2" d="M501.1,24v3.7h-1.2v-9.2h2.9c1,0,1.8,0.2,2.4,0.7c0.5,0.5,0.8,1.2,0.8,2c0,0.9-0.3,1.5-0.8,2
		c-0.5,0.5-1.3,0.7-2.3,0.7H501.1z M504.3,22.6c0.3-0.3,0.5-0.7,0.5-1.3c0-0.6-0.2-1-0.5-1.3s-0.8-0.4-1.6-0.4h-1.6V23h1.6
		C503.4,23,503.9,22.9,504.3,22.6z"/>
	<path class="st2" d="M508.5,24v3.7h-1.2v-9.2h2.9c1,0,1.8,0.2,2.4,0.7c0.5,0.5,0.8,1.2,0.8,2c0,0.9-0.3,1.5-0.8,2
		c-0.5,0.5-1.3,0.7-2.3,0.7H508.5z M511.7,22.6c0.3-0.3,0.5-0.7,0.5-1.3c0-0.6-0.2-1-0.5-1.3s-0.8-0.4-1.6-0.4h-1.6V23h1.6
		C510.8,23,511.4,22.9,511.7,22.6z"/>
	<path class="st2" d="M521.6,19.3c0.7,0.6,1.2,1.3,1.5,2.3h-1.2c-0.2-0.6-0.6-1.1-1.1-1.4c-0.5-0.4-1.2-0.5-1.9-0.5
		c-0.6,0-1.1,0.1-1.6,0.4s-0.8,0.7-1.1,1.2s-0.4,1.2-0.4,1.9c0,0.7,0.1,1.3,0.4,1.9c0.3,0.5,0.6,1,1.1,1.2c0.5,0.3,1,0.4,1.6,0.4
		c0.8,0,1.4-0.2,1.9-0.5c0.5-0.4,0.9-0.8,1.1-1.4h1.2c-0.3,1-0.8,1.7-1.5,2.3c-0.7,0.5-1.7,0.8-2.8,0.8c-0.9,0-1.6-0.2-2.3-0.6
		c-0.7-0.4-1.2-0.9-1.5-1.7c-0.4-0.7-0.6-1.5-0.6-2.4c0-0.9,0.2-1.7,0.6-2.4c0.4-0.7,0.9-1.3,1.5-1.7c0.7-0.4,1.4-0.6,2.3-0.6
		C519.9,18.5,520.8,18.7,521.6,19.3z"/>
	<path class="st2" d="M529.5,27.7l-2.4-3.7h-1.3v3.7h-1.2v-9.2h3c1,0,1.8,0.2,2.3,0.7c0.5,0.5,0.8,1.2,0.8,2c0,0.7-0.2,1.3-0.6,1.8
		s-1,0.7-1.8,0.9l2.5,3.8H529.5z M525.8,23.1h1.7c1.3,0,2-0.6,2-1.8s-0.7-1.8-2-1.8h-1.7V23.1z"/>
</g>
<path class="st3" d="M846.9,166.6c-35.3,0-35.3,11.8-70.5,11.8c-35.3,0-35.3,15.7-70.5,15.7c-35.4,0-35.4-12.7-70.7-12.7
	s-35.3-11-70.5-11s-35.3-5.7-70.5-5.7s-35.3,3.7-70.5,3.7c-35.4,0-35.4-5-70.7-5s-35.3-1.6-70.5-1.6c-70.5,0-70.5-0.4-141.1-0.4
	c-35.4,0-35.4,0.6-70.7,0.6s-35.3-0.2-70.5-0.2v-0.9c35.3,0,35.3-0.2,70.5-0.2c35.4,0,35.4,0.6,70.7,0.6c70.5,0,70.5-0.4,141.1-0.4
	c35.3,0,35.3-1.6,70.5-1.6c35.4,0,35.4-5,70.7-5s35.3,3.7,70.5,3.7s35.3-5.7,70.5-5.7s35.3-11,70.5-11c35.4,0,35.4-12.7,70.7-12.7
	s35.3,15.7,70.5,15.7c35.3,0,35.3,11.8,70.5,11.8"/>
<g class="st1">
	<path class="st2" d="M7,138.6h3.2v0.9H5.8v-9.2H7V138.6z"/>
	<path class="st2" d="M18.6,137.4c-0.4,0.7-0.9,1.2-1.6,1.6s-1.6,0.6-2.6,0.6h-2.9v-9.2h2.9c1,0,1.9,0.2,2.6,0.6s1.3,0.9,1.6,1.6
		c0.4,0.7,0.6,1.5,0.6,2.4C19.2,135.9,19,136.7,18.6,137.4z M17,137.6c0.6-0.6,0.9-1.5,0.9-2.6s-0.3-2-0.9-2.6
		c-0.6-0.6-1.5-0.9-2.7-0.9h-1.6v7.1h1.6C15.5,138.5,16.4,138.2,17,137.6z"/>
	<path class="st2" d="M27.6,131.1c0.7,0.6,1.2,1.3,1.5,2.3h-1.2c-0.2-0.6-0.6-1.1-1.1-1.4c-0.5-0.4-1.2-0.5-1.9-0.5
		c-0.6,0-1.1,0.1-1.6,0.4c-0.5,0.3-0.8,0.7-1.1,1.2s-0.4,1.2-0.4,1.9c0,0.7,0.1,1.3,0.4,1.9c0.3,0.5,0.6,1,1.1,1.2
		c0.5,0.3,1,0.4,1.6,0.4c0.8,0,1.4-0.2,1.9-0.5c0.5-0.4,0.9-0.8,1.1-1.4h1.2c-0.3,1-0.8,1.7-1.5,2.3c-0.7,0.5-1.7,0.8-2.8,0.8
		c-0.9,0-1.6-0.2-2.3-0.6s-1.2-0.9-1.5-1.7c-0.4-0.7-0.6-1.5-0.6-2.4c0-0.9,0.2-1.7,0.6-2.4c0.4-0.7,0.9-1.3,1.5-1.7
		c0.7-0.4,1.4-0.6,2.3-0.6C25.9,130.3,26.9,130.6,27.6,131.1z"/>
	<path class="st2" d="M35.9,130.4v1h-4v3.2h3.4v0.9h-3.4v4.1h-1.2v-9.2H35.9z"/>
</g>
<path class="st3" d="M846.9,246.3c-35.3,0-35.3-0.8-70.5-0.8c-35.3,0-35.3-4.4-70.5-4.4c-35.4,0-35.4,8-70.7,8s-35.3-2-70.5-2
	s-35.3-5.7-70.5-5.7v-5.6c35.3,0,35.3-5.7,70.5-5.7s35.3-2,70.5-2c35.4,0,35.4,8,70.7,8s35.3-4.4,70.5-4.4c35.3,0,35.3-0.8,70.5-0.8
	"/>
<path class="st3" d="M846.9,317.5c-35.3,0-35.3,8.1-70.5,8.1c-35.3,0-35.3-8.6-70.5-8.6c-35.4,0-35.4,3.9-70.7,3.9
	s-35.3-1.2-70.5-1.2s-35.3-3.3-70.5-3.3s-35.3,2.9-70.5,2.9c-35.4,0-35.4-2.9-70.7-2.9s-35.3,3-70.5,3S247.2,316,212,316v-0.9
	c35.3,0,35.3-3.4,70.5-3.4s35.3,3,70.5,3c35.4,0,35.4-2.9,70.7-2.9s35.3,2.9,70.5,2.9s35.3-3.3,70.5-3.3s35.3-1.2,70.5-1.2
	c35.4,0,35.4,3.9,70.7,3.9s35.3-8.6,70.5-8.6c35.3,0,35.3,8.1,70.5,8.1"/>
<g class="st1">
	<path class="st2" d="M223,289.3c-0.2,0.4-0.5,0.7-0.9,0.9c-0.4,0.2-0.9,0.4-1.6,0.4c-0.6,0-1.1-0.1-1.6-0.3
		c-0.5-0.2-0.8-0.5-1.1-0.9c-0.3-0.4-0.4-0.8-0.5-1.3h1.3c0,0.3,0.1,0.5,0.3,0.8c0.2,0.2,0.4,0.5,0.6,0.6s0.6,0.2,1,0.2
		c0.5,0,0.9-0.1,1.2-0.4c0.3-0.3,0.4-0.6,0.4-1.1c0-0.4-0.1-0.7-0.3-0.9c-0.2-0.2-0.4-0.4-0.7-0.6c-0.3-0.1-0.7-0.3-1.2-0.4
		c-0.6-0.2-1-0.4-1.4-0.5c-0.4-0.2-0.6-0.4-0.9-0.8c-0.2-0.3-0.4-0.8-0.4-1.3c0-0.5,0.1-0.9,0.3-1.3c0.2-0.4,0.6-0.6,1-0.8
		c0.4-0.2,0.9-0.3,1.5-0.3c0.9,0,1.6,0.2,2.1,0.7c0.5,0.4,0.8,1,0.9,1.7h-1.3c-0.1-0.4-0.3-0.7-0.6-1c-0.3-0.3-0.7-0.4-1.2-0.4
		c-0.5,0-0.9,0.1-1.1,0.4c-0.3,0.2-0.4,0.6-0.4,1c0,0.4,0.1,0.6,0.3,0.9c0.2,0.2,0.4,0.4,0.7,0.5c0.3,0.1,0.7,0.3,1.1,0.4
		c0.6,0.2,1.1,0.4,1.4,0.5c0.4,0.2,0.7,0.4,0.9,0.8c0.3,0.4,0.4,0.8,0.4,1.4C223.3,288.6,223.2,289,223,289.3z"/>
	<path class="st2" d="M231.7,282.1c0.7,0.6,1.2,1.3,1.5,2.3H232c-0.2-0.6-0.6-1.1-1.1-1.4c-0.5-0.4-1.2-0.5-1.9-0.5
		c-0.6,0-1.1,0.1-1.6,0.4c-0.5,0.3-0.8,0.7-1.1,1.2s-0.4,1.2-0.4,1.9c0,0.7,0.1,1.3,0.4,1.9c0.3,0.5,0.6,1,1.1,1.2
		c0.5,0.3,1,0.4,1.6,0.4c0.8,0,1.4-0.2,1.9-0.5c0.5-0.4,0.9-0.8,1.1-1.4h1.2c-0.3,1-0.8,1.7-1.5,2.3c-0.7,0.5-1.7,0.8-2.8,0.8
		c-0.9,0-1.6-0.2-2.3-0.6s-1.2-0.9-1.5-1.7c-0.4-0.7-0.6-1.5-0.6-2.4c0-0.9,0.2-1.7,0.6-2.4c0.4-0.7,0.9-1.3,1.5-1.7
		c0.7-0.4,1.4-0.6,2.3-0.6C230.1,281.2,231,281.5,231.7,282.1z"/>
	<path class="st2" d="M241.6,282.1c0.7,0.6,1.2,1.3,1.5,2.3h-1.2c-0.2-0.6-0.6-1.1-1.1-1.4c-0.5-0.4-1.2-0.5-1.9-0.5
		c-0.6,0-1.1,0.1-1.6,0.4c-0.5,0.3-0.8,0.7-1.1,1.2s-0.4,1.2-0.4,1.9c0,0.7,0.1,1.3,0.4,1.9c0.3,0.5,0.6,1,1.1,1.2
		c0.5,0.3,1,0.4,1.6,0.4c0.8,0,1.4-0.2,1.9-0.5c0.5-0.4,0.9-0.8,1.1-1.4h1.2c-0.3,1-0.8,1.7-1.5,2.3c-0.7,0.5-1.7,0.8-2.8,0.8
		c-0.9,0-1.6-0.2-2.3-0.6s-1.2-0.9-1.5-1.7c-0.4-0.7-0.6-1.5-0.6-2.4c0-0.9,0.2-1.7,0.6-2.4c0.4-0.7,0.9-1.3,1.5-1.7
		c0.7-0.4,1.4-0.6,2.3-0.6C240,281.2,240.9,281.5,241.6,282.1z"/>
	<path class="st2" d="M249.9,281.3v1h-4v3.2h3.4v0.9h-3.4v4.1h-1.2v-9.2H249.9z"/>
</g>
<path class="st3" d="M635.1,391.9c35.4,0,35.4-11.5,70.7-11.5s35.3,2.4,70.5,2.4c35.3,0,35.3-1.3,70.5-1.3v22.2
	c-35.3,0-35.3-1.3-70.5-1.3c-35.3,0-35.3,2.4-70.5,2.4c-35.4,0-35.4-11.5-70.7-11.5V391.9z"/>
<g class="st1">
	<path class="st2" d="M646.4,357.9h-4l-0.8,2.1h-1.3l3.4-9h1.3l3.4,9h-1.3L646.4,357.9z M646,357l-1.7-4.6l-1.7,4.6H646z"/>
	<path class="st2" d="M655.1,358.9c-0.2,0.4-0.5,0.7-0.9,0.9s-0.9,0.4-1.6,0.4c-0.6,0-1.1-0.1-1.6-0.3c-0.5-0.2-0.8-0.5-1.1-0.9
		c-0.3-0.4-0.4-0.8-0.5-1.3h1.3c0,0.3,0.1,0.5,0.3,0.8s0.4,0.5,0.7,0.6c0.3,0.2,0.6,0.2,1,0.2c0.5,0,0.9-0.1,1.2-0.4
		s0.4-0.6,0.4-1.1c0-0.4-0.1-0.7-0.3-0.9s-0.4-0.4-0.7-0.6c-0.3-0.1-0.7-0.3-1.2-0.4c-0.6-0.2-1-0.4-1.4-0.5
		c-0.4-0.2-0.7-0.4-0.9-0.8c-0.2-0.3-0.4-0.8-0.4-1.3c0-0.5,0.1-0.9,0.3-1.3c0.2-0.4,0.6-0.6,1-0.8c0.4-0.2,0.9-0.3,1.5-0.3
		c0.9,0,1.6,0.2,2.1,0.7c0.5,0.4,0.8,1,0.9,1.7h-1.3c-0.1-0.4-0.3-0.7-0.6-1s-0.7-0.4-1.2-0.4c-0.5,0-0.9,0.1-1.1,0.4
		c-0.3,0.2-0.4,0.6-0.4,1c0,0.4,0.1,0.6,0.3,0.9s0.4,0.4,0.7,0.5s0.7,0.3,1.1,0.4c0.6,0.2,1.1,0.4,1.4,0.5s0.7,0.4,0.9,0.8
		c0.3,0.3,0.4,0.8,0.4,1.4C655.4,358.1,655.3,358.5,655.1,358.9z"/>
	<path class="st2" d="M662.4,357.9h-4l-0.8,2.1h-1.3l3.4-9h1.3l3.4,9h-1.3L662.4,357.9z M662,357l-1.7-4.6l-1.7,4.6H662z"/>
	<path class="st2" d="M666.8,356.3v3.7h-1.2v-9.2h2.9c1,0,1.8,0.2,2.4,0.7c0.5,0.5,0.8,1.2,0.8,2c0,0.9-0.3,1.5-0.8,2
		c-0.5,0.5-1.3,0.7-2.3,0.7H666.8z M670,354.9c0.3-0.3,0.5-0.7,0.5-1.3c0-0.6-0.2-1-0.5-1.3s-0.8-0.4-1.6-0.4h-1.6v3.5h1.6
		C669.1,355.3,669.6,355.2,670,354.9z"/>
</g>
<line class="st4" x1="-0.2" y1="433.5" x2="-0.2" y2="0"/>
<line class="st5" x1="70.4" y1="433.5" x2="70.4" y2="0"/>
<line class="st5" x1="141.2" y1="433.5" x2="141.2" y2="0"/>
<line class="st5" x1="211.7" y1="433.5" x2="211.7" y2="0"/>
<line class="st5" x1="282.1" y1="433.5" x2="282.1" y2="0"/>
<line class="st5" x1="352.8" y1="433.5" x2="352.8" y2="0"/>
<line class="st5" x1="423.4" y1="433.5" x2="423.4" y2="0"/>
<line class="st5" x1="493.9" y1="433.5" x2="493.9" y2="0"/>
<line class="st5" x1="564.5" y1="433.5" x2="564.5" y2="0"/>
<line class="st5" x1="635.1" y1="433.5" x2="635.1" y2="0"/>
<line class="st5" x1="705.8" y1="433.5" x2="705.8" y2="0"/>
<line class="st5" x1="776.4" y1="433.5" x2="776.4" y2="0"/>
<line class="st4" x1="846.9" y1="433.5" x2="846.9" y2="0"/>
<g>
	<path class="st2" d="M845.8,1v431.5H0.8V1H845.8 M846.8,0h-847v433.5h847V0L846.8,0z"/>
</g>
<g class="st1">
	<path class="st2" d="M505.3,206h-4l-0.8,2.1h-1.3l3.4-9h1.3l3.4,9h-1.3L505.3,206z M505,205.1l-1.7-4.6l-1.7,4.6H505z"/>
	<path class="st2" d="M513.7,198.9v1h-4v3.2h3.4v0.9h-3.4v4.1h-1.2v-9.2H513.7z"/>
</g>
<g>
	<rect x="496.9" y="30.7" class="st0" width="176.1" height="14.9"/>
	<g class="st1">
		<path class="st2" d="M500.3,38.4v2.3h-0.7v-5.6h1.8c0.6,0,1.1,0.2,1.4,0.5c0.3,0.3,0.5,0.7,0.5,1.2c0,0.5-0.2,0.9-0.5,1.2
			s-0.8,0.4-1.4,0.4H500.3z M502.2,37.5c0.2-0.2,0.3-0.5,0.3-0.8c0-0.4-0.1-0.6-0.3-0.8c-0.2-0.2-0.5-0.3-1-0.3h-1v2.2h1
			C501.7,37.8,502,37.7,502.2,37.5z"/>
		<path class="st2" d="M504.1,34.7c0.1-0.1,0.2-0.1,0.4-0.1c0.1,0,0.3,0,0.4,0.1c0.1,0.1,0.1,0.2,0.1,0.3c0,0.1,0,0.2-0.1,0.3
			c-0.1,0.1-0.2,0.1-0.4,0.1c-0.1,0-0.3,0-0.4-0.1c-0.1-0.1-0.1-0.2-0.1-0.3C504,34.9,504,34.8,504.1,34.7z M504.8,36.3v4.4h-0.7
			v-4.4H504.8z"/>
		<path class="st2" d="M506.7,34.8v5.9H506v-5.9H506.7z"/>
		<path class="st2" d="M511,36.5c0.3,0.2,0.6,0.4,0.8,0.8c0.2,0.3,0.3,0.7,0.3,1.2c0,0.5-0.1,0.9-0.3,1.2s-0.5,0.6-0.8,0.8
			s-0.7,0.3-1.1,0.3c-0.4,0-0.8-0.1-1.1-0.3c-0.3-0.2-0.6-0.4-0.8-0.8c-0.2-0.3-0.3-0.7-0.3-1.2c0-0.5,0.1-0.9,0.3-1.2
			c0.2-0.3,0.5-0.6,0.8-0.8c0.3-0.2,0.7-0.3,1.1-0.3C510.3,36.3,510.7,36.4,511,36.5z M509.2,37.1c-0.2,0.1-0.4,0.3-0.5,0.5
			c-0.1,0.2-0.2,0.5-0.2,0.9c0,0.4,0.1,0.6,0.2,0.9c0.1,0.2,0.3,0.4,0.5,0.5c0.2,0.1,0.5,0.2,0.7,0.2s0.5-0.1,0.7-0.2
			s0.4-0.3,0.5-0.5c0.1-0.2,0.2-0.5,0.2-0.9c0-0.4-0.1-0.7-0.2-0.9c-0.1-0.2-0.3-0.4-0.5-0.5s-0.5-0.2-0.7-0.2S509.4,37,509.2,37.1z
			"/>
		<path class="st2" d="M515.1,40.1v0.6h-0.5c-0.4,0-0.8-0.1-1-0.3c-0.2-0.2-0.3-0.6-0.3-1.1v-2.4h-0.7v-0.6h0.7v-1.1h0.7v1.1h1.1
			v0.6H514v2.4c0,0.3,0.1,0.5,0.2,0.6c0.1,0.1,0.3,0.2,0.5,0.2H515.1z"/>
		<path class="st2" d="M518.7,38.4v2.3H518v-5.6h1.8c0.6,0,1.1,0.2,1.4,0.5c0.3,0.3,0.5,0.7,0.5,1.2c0,0.5-0.2,0.9-0.5,1.2
			c-0.3,0.3-0.8,0.4-1.4,0.4H518.7z M520.7,37.5c0.2-0.2,0.3-0.5,0.3-0.8c0-0.4-0.1-0.6-0.3-0.8c-0.2-0.2-0.5-0.3-1-0.3h-1v2.2h1
			C520.2,37.8,520.5,37.7,520.7,37.5z"/>
		<path class="st2" d="M523.9,36.5c0.3-0.2,0.6-0.3,1-0.3V37h-0.2c-0.4,0-0.7,0.1-1,0.3c-0.3,0.2-0.4,0.6-0.4,1v2.3h-0.7v-4.4h0.7
			v0.9C523.4,36.9,523.6,36.7,523.9,36.5z"/>
		<path class="st2" d="M528.8,36.5c0.3,0.2,0.6,0.4,0.8,0.8c0.2,0.3,0.3,0.7,0.3,1.2c0,0.5-0.1,0.9-0.3,1.2
			c-0.2,0.3-0.5,0.6-0.8,0.8c-0.3,0.2-0.7,0.3-1.1,0.3c-0.4,0-0.8-0.1-1.1-0.3c-0.3-0.2-0.6-0.4-0.8-0.8s-0.3-0.7-0.3-1.2
			c0-0.5,0.1-0.9,0.3-1.2c0.2-0.3,0.5-0.6,0.8-0.8c0.3-0.2,0.7-0.3,1.1-0.3C528,36.3,528.4,36.4,528.8,36.5z M526.9,37.1
			c-0.2,0.1-0.4,0.3-0.5,0.5c-0.1,0.2-0.2,0.5-0.2,0.9c0,0.4,0.1,0.6,0.2,0.9c0.1,0.2,0.3,0.4,0.5,0.5s0.5,0.2,0.7,0.2
			c0.3,0,0.5-0.1,0.7-0.2c0.2-0.1,0.4-0.3,0.5-0.5c0.1-0.2,0.2-0.5,0.2-0.9c0-0.4-0.1-0.7-0.2-0.9c-0.1-0.2-0.3-0.4-0.5-0.5
			c-0.2-0.1-0.5-0.2-0.7-0.2C527.4,36.9,527.1,37,526.9,37.1z"/>
		<path class="st2" d="M533.7,36.6c0.3,0.2,0.5,0.5,0.6,0.9v-1.1h0.7v4.5c0,0.4-0.1,0.8-0.3,1.1c-0.2,0.3-0.4,0.6-0.7,0.7
			c-0.3,0.2-0.7,0.3-1.1,0.3c-0.6,0-1.1-0.1-1.4-0.4s-0.6-0.7-0.7-1.2h0.7c0.1,0.3,0.2,0.5,0.5,0.7s0.5,0.3,0.9,0.3
			c0.4,0,0.7-0.1,1-0.4c0.3-0.3,0.4-0.6,0.4-1.1v-1.2c-0.1,0.4-0.3,0.6-0.6,0.9c-0.3,0.2-0.7,0.3-1.1,0.3c-0.4,0-0.7-0.1-1-0.3
			c-0.3-0.2-0.5-0.4-0.7-0.8s-0.3-0.7-0.3-1.2c0-0.5,0.1-0.9,0.3-1.2c0.2-0.3,0.4-0.6,0.7-0.8c0.3-0.2,0.7-0.3,1-0.3
			C533,36.3,533.4,36.4,533.7,36.6z M531.7,37.3c-0.3,0.3-0.4,0.7-0.4,1.2c0,0.5,0.1,0.9,0.4,1.2c0.3,0.3,0.6,0.4,1.1,0.4
			c0.3,0,0.5-0.1,0.8-0.2c0.2-0.1,0.4-0.3,0.5-0.6c0.1-0.2,0.2-0.5,0.2-0.8c0-0.3-0.1-0.6-0.2-0.8c-0.1-0.2-0.3-0.4-0.5-0.6
			c-0.2-0.1-0.5-0.2-0.8-0.2C532.3,36.9,532,37.1,531.7,37.3z"/>
		<path class="st2" d="M537.5,36.5c0.3-0.2,0.6-0.3,1-0.3V37h-0.2c-0.4,0-0.7,0.1-1,0.3c-0.3,0.2-0.4,0.6-0.4,1v2.3h-0.7v-4.4h0.7
			v0.9C537,36.9,537.2,36.7,537.5,36.5z"/>
		<path class="st2" d="M542.1,36.6c0.3,0.2,0.5,0.5,0.6,0.9v-1.1h0.7v4.4h-0.7v-1.1c-0.1,0.4-0.3,0.6-0.6,0.9
			c-0.3,0.2-0.7,0.3-1.1,0.3c-0.4,0-0.7-0.1-1-0.3c-0.3-0.2-0.5-0.4-0.7-0.8S539,39,539,38.5c0-0.5,0.1-0.9,0.3-1.2
			c0.2-0.3,0.4-0.6,0.7-0.8c0.3-0.2,0.7-0.3,1-0.3C541.5,36.3,541.8,36.4,542.1,36.6z M540.2,37.3c-0.3,0.3-0.4,0.7-0.4,1.2
			c0,0.5,0.1,0.9,0.4,1.2s0.6,0.4,1.1,0.4c0.3,0,0.5-0.1,0.8-0.2c0.2-0.1,0.4-0.3,0.5-0.6c0.1-0.2,0.2-0.5,0.2-0.8
			c0-0.3-0.1-0.6-0.2-0.8c-0.1-0.2-0.3-0.4-0.5-0.6c-0.2-0.1-0.5-0.2-0.8-0.2C540.8,36.9,540.4,37.1,540.2,37.3z"/>
		<path class="st2" d="M551.3,36.7c0.3,0.3,0.5,0.8,0.5,1.4v2.6H551v-2.5c0-0.4-0.1-0.8-0.3-1c-0.2-0.2-0.5-0.3-0.9-0.3
			c-0.4,0-0.7,0.1-0.9,0.4c-0.2,0.3-0.3,0.6-0.3,1.1v2.3h-0.7v-2.5c0-0.4-0.1-0.8-0.3-1c-0.2-0.2-0.5-0.3-0.9-0.3
			c-0.4,0-0.7,0.1-0.9,0.4c-0.2,0.3-0.3,0.6-0.3,1.1v2.3h-0.7v-4.4h0.7v1c0.1-0.3,0.3-0.6,0.6-0.8c0.3-0.2,0.6-0.3,0.9-0.3
			c0.4,0,0.7,0.1,1,0.3s0.5,0.5,0.6,0.8c0.1-0.4,0.3-0.6,0.6-0.8c0.3-0.2,0.6-0.3,1-0.3C550.5,36.2,551,36.4,551.3,36.7z"/>
		<path class="st2" d="M559.5,36.7c0.3,0.3,0.5,0.8,0.5,1.4v2.6h-0.7v-2.5c0-0.4-0.1-0.8-0.3-1c-0.2-0.2-0.5-0.3-0.9-0.3
			c-0.4,0-0.7,0.1-0.9,0.4c-0.2,0.3-0.3,0.6-0.3,1.1v2.3h-0.7v-2.5c0-0.4-0.1-0.8-0.3-1c-0.2-0.2-0.5-0.3-0.9-0.3
			c-0.4,0-0.7,0.1-0.9,0.4c-0.2,0.3-0.3,0.6-0.3,1.1v2.3h-0.7v-4.4h0.7v1c0.1-0.3,0.3-0.6,0.6-0.8c0.3-0.2,0.6-0.3,0.9-0.3
			c0.4,0,0.7,0.1,1,0.3c0.3,0.2,0.5,0.5,0.6,0.8c0.1-0.4,0.3-0.6,0.6-0.8s0.6-0.3,1-0.3C558.8,36.2,559.2,36.4,559.5,36.7z"/>
		<path class="st2" d="M565.1,38.7h-3.5c0,0.5,0.2,0.9,0.4,1.1c0.3,0.3,0.6,0.4,1,0.4c0.4,0,0.6-0.1,0.9-0.3
			c0.2-0.2,0.4-0.4,0.4-0.7h0.8c-0.1,0.3-0.2,0.6-0.4,0.8s-0.4,0.4-0.7,0.6c-0.3,0.1-0.6,0.2-1,0.2c-0.4,0-0.8-0.1-1.1-0.3
			c-0.3-0.2-0.6-0.4-0.8-0.8s-0.3-0.7-0.3-1.2c0-0.5,0.1-0.9,0.3-1.2c0.2-0.3,0.4-0.6,0.8-0.8c0.3-0.2,0.7-0.3,1.1-0.3
			c0.4,0,0.8,0.1,1.1,0.3s0.6,0.4,0.7,0.7c0.2,0.3,0.3,0.6,0.3,1C565.1,38.4,565.1,38.6,565.1,38.7z M564.2,37.5
			c-0.1-0.2-0.3-0.4-0.5-0.5c-0.2-0.1-0.4-0.2-0.7-0.2c-0.4,0-0.7,0.1-1,0.4s-0.4,0.6-0.4,1.1h2.8C564.4,38,564.4,37.7,564.2,37.5z"
			/>
		<path class="st2" d="M569.2,35.5c-0.2,0.1-0.2,0.4-0.2,0.7v0.1h1V37h-1v3.8h-0.7V37h-0.6v-0.6h0.6v-0.2c0-1,0.6-1.6,1.8-1.5v0.6
			C569.6,35.3,569.3,35.3,569.2,35.5z"/>
		<path class="st2" d="M573.9,36.5c0.3,0.2,0.6,0.4,0.8,0.8c0.2,0.3,0.3,0.7,0.3,1.2c0,0.5-0.1,0.9-0.3,1.2
			c-0.2,0.3-0.5,0.6-0.8,0.8c-0.3,0.2-0.7,0.3-1.1,0.3s-0.8-0.1-1.1-0.3c-0.3-0.2-0.6-0.4-0.8-0.8c-0.2-0.3-0.3-0.7-0.3-1.2
			c0-0.5,0.1-0.9,0.3-1.2c0.2-0.3,0.5-0.6,0.8-0.8c0.3-0.2,0.7-0.3,1.1-0.3S573.6,36.4,573.9,36.5z M572.1,37.1
			c-0.2,0.1-0.4,0.3-0.5,0.5c-0.1,0.2-0.2,0.5-0.2,0.9c0,0.4,0.1,0.6,0.2,0.9c0.1,0.2,0.3,0.4,0.5,0.5c0.2,0.1,0.5,0.2,0.7,0.2
			c0.3,0,0.5-0.1,0.7-0.2c0.2-0.1,0.4-0.3,0.5-0.5c0.1-0.2,0.2-0.5,0.2-0.9c0-0.4-0.1-0.7-0.2-0.9c-0.1-0.2-0.3-0.4-0.5-0.5
			c-0.2-0.1-0.5-0.2-0.7-0.2C572.5,36.9,572.3,37,572.1,37.1z"/>
		<path class="st2" d="M577.3,36.5c0.3-0.2,0.6-0.3,1-0.3V37h-0.2c-0.4,0-0.7,0.1-1,0.3c-0.3,0.2-0.4,0.6-0.4,1v2.3h-0.7v-4.4h0.7
			v0.9C576.8,36.9,577,36.7,577.3,36.5z"/>
		<path class="st2" d="M585.2,35.5c0.4,0.3,0.8,0.8,0.9,1.4h-0.8c-0.1-0.4-0.4-0.7-0.7-0.9c-0.3-0.2-0.7-0.3-1.2-0.3
			c-0.4,0-0.7,0.1-1,0.3c-0.3,0.2-0.5,0.4-0.7,0.8c-0.2,0.3-0.3,0.7-0.3,1.2c0,0.4,0.1,0.8,0.3,1.2c0.2,0.3,0.4,0.6,0.7,0.8
			c0.3,0.2,0.6,0.3,1,0.3c0.5,0,0.9-0.1,1.2-0.3c0.3-0.2,0.6-0.5,0.7-0.9h0.8c-0.2,0.6-0.5,1-0.9,1.4c-0.4,0.3-1,0.5-1.7,0.5
			c-0.5,0-1-0.1-1.4-0.4c-0.4-0.2-0.7-0.6-0.9-1s-0.3-0.9-0.3-1.5c0-0.6,0.1-1.1,0.3-1.5c0.2-0.4,0.5-0.8,0.9-1
			c0.4-0.2,0.9-0.4,1.4-0.4C584.2,35,584.7,35.2,585.2,35.5z"/>
		<path class="st2" d="M587.8,34.8v5.9h-0.7v-5.9H587.8z"/>
		<path class="st2" d="M589,34.7c0.1-0.1,0.2-0.1,0.4-0.1c0.1,0,0.3,0,0.4,0.1s0.1,0.2,0.1,0.3c0,0.1,0,0.2-0.1,0.3
			c-0.1,0.1-0.2,0.1-0.4,0.1c-0.1,0-0.3,0-0.4-0.1c-0.1-0.1-0.1-0.2-0.1-0.3C588.9,34.9,588.9,34.8,589,34.7z M589.7,36.3v4.4H589
			v-4.4H589.7z"/>
		<path class="st2" d="M597.5,36.7c0.3,0.3,0.5,0.8,0.5,1.4v2.6h-0.7v-2.5c0-0.4-0.1-0.8-0.3-1c-0.2-0.2-0.5-0.3-0.9-0.3
			c-0.4,0-0.7,0.1-0.9,0.4c-0.2,0.3-0.3,0.6-0.3,1.1v2.3h-0.7v-2.5c0-0.4-0.1-0.8-0.3-1c-0.2-0.2-0.5-0.3-0.9-0.3
			c-0.4,0-0.7,0.1-0.9,0.4c-0.2,0.3-0.3,0.6-0.3,1.1v2.3h-0.7v-4.4h0.7v1c0.1-0.3,0.3-0.6,0.6-0.8c0.3-0.2,0.6-0.3,0.9-0.3
			c0.4,0,0.7,0.1,1,0.3c0.3,0.2,0.5,0.5,0.6,0.8c0.1-0.4,0.3-0.6,0.6-0.8s0.6-0.3,1-0.3C596.8,36.2,597.2,36.4,597.5,36.7z"/>
		<path class="st2" d="M602,36.6c0.3,0.2,0.5,0.5,0.6,0.9v-1.1h0.7v4.4h-0.7v-1.1c-0.1,0.4-0.3,0.6-0.6,0.9
			c-0.3,0.2-0.7,0.3-1.1,0.3c-0.4,0-0.7-0.1-1-0.3s-0.5-0.4-0.7-0.8c-0.2-0.3-0.3-0.7-0.3-1.2c0-0.5,0.1-0.9,0.3-1.2
			c0.2-0.3,0.4-0.6,0.7-0.8s0.7-0.3,1-0.3C601.3,36.3,601.7,36.4,602,36.6z M600,37.3c-0.3,0.3-0.4,0.7-0.4,1.2
			c0,0.5,0.1,0.9,0.4,1.2c0.3,0.3,0.6,0.4,1.1,0.4c0.3,0,0.5-0.1,0.8-0.2c0.2-0.1,0.4-0.3,0.5-0.6c0.1-0.2,0.2-0.5,0.2-0.8
			c0-0.3-0.1-0.6-0.2-0.8s-0.3-0.4-0.5-0.6c-0.2-0.1-0.5-0.2-0.8-0.2C600.7,36.9,600.3,37.1,600,37.3z"/>
		<path class="st2" d="M606.6,40.1v0.6h-0.5c-0.4,0-0.8-0.1-1-0.3c-0.2-0.2-0.3-0.6-0.3-1.1v-2.4h-0.7v-0.6h0.7v-1.1h0.7v1.1h1.1
			v0.6h-1.1v2.4c0,0.3,0.1,0.5,0.2,0.6c0.1,0.1,0.3,0.2,0.5,0.2H606.6z"/>
		<path class="st2" d="M611.5,38.7H608c0,0.5,0.2,0.9,0.4,1.1s0.6,0.4,1,0.4c0.4,0,0.6-0.1,0.9-0.3c0.2-0.2,0.4-0.4,0.4-0.7h0.8
			c-0.1,0.3-0.2,0.6-0.4,0.8s-0.4,0.4-0.7,0.6c-0.3,0.1-0.6,0.2-1,0.2c-0.4,0-0.8-0.1-1.1-0.3c-0.3-0.2-0.6-0.4-0.8-0.8
			s-0.3-0.7-0.3-1.2c0-0.5,0.1-0.9,0.3-1.2c0.2-0.3,0.4-0.6,0.8-0.8c0.3-0.2,0.7-0.3,1.1-0.3c0.4,0,0.8,0.1,1.1,0.3s0.6,0.4,0.7,0.7
			c0.2,0.3,0.3,0.6,0.3,1C611.5,38.4,611.5,38.6,611.5,38.7z M610.6,37.5c-0.1-0.2-0.3-0.4-0.5-0.5c-0.2-0.1-0.4-0.2-0.7-0.2
			c-0.4,0-0.7,0.1-1,0.4s-0.4,0.6-0.4,1.1h2.8C610.8,38,610.8,37.7,610.6,37.5z"/>
		<path class="st2" d="M617.3,36.6c0.3,0.2,0.5,0.5,0.6,0.9v-1.1h0.7v4.4H618v-1.1c-0.1,0.4-0.3,0.6-0.6,0.9
			c-0.3,0.2-0.7,0.3-1.1,0.3c-0.4,0-0.7-0.1-1-0.3s-0.5-0.4-0.7-0.8c-0.2-0.3-0.3-0.7-0.3-1.2c0-0.5,0.1-0.9,0.3-1.2
			c0.2-0.3,0.4-0.6,0.7-0.8s0.7-0.3,1-0.3C616.7,36.3,617,36.4,617.3,36.6z M615.4,37.3c-0.3,0.3-0.4,0.7-0.4,1.2
			c0,0.5,0.1,0.9,0.4,1.2c0.3,0.3,0.6,0.4,1.1,0.4c0.3,0,0.5-0.1,0.8-0.2c0.2-0.1,0.4-0.3,0.5-0.6c0.1-0.2,0.2-0.5,0.2-0.8
			c0-0.3-0.1-0.6-0.2-0.8s-0.3-0.4-0.5-0.6c-0.2-0.1-0.5-0.2-0.8-0.2C616,36.9,615.7,37.1,615.4,37.3z"/>
		<path class="st2" d="M623.4,36.7c0.3,0.3,0.5,0.8,0.5,1.4v2.6h-0.7v-2.5c0-0.4-0.1-0.8-0.3-1c-0.2-0.2-0.5-0.4-0.9-0.4
			c-0.4,0-0.7,0.1-1,0.4s-0.4,0.6-0.4,1.1v2.3h-0.7v-4.4h0.7v1c0.1-0.4,0.3-0.6,0.6-0.8c0.3-0.2,0.6-0.3,1-0.3
			C622.7,36.2,623.1,36.4,623.4,36.7z"/>
		<path class="st2" d="M627.9,36.6c0.3,0.2,0.5,0.5,0.6,0.9v-2.6h0.7v5.9h-0.7v-1.1c-0.1,0.4-0.3,0.6-0.6,0.9
			c-0.3,0.2-0.7,0.3-1.1,0.3c-0.4,0-0.7-0.1-1-0.3c-0.3-0.2-0.5-0.4-0.7-0.8s-0.3-0.7-0.3-1.2c0-0.5,0.1-0.9,0.3-1.2
			c0.2-0.3,0.4-0.6,0.7-0.8c0.3-0.2,0.7-0.3,1-0.3C627.2,36.3,627.6,36.4,627.9,36.6z M625.9,37.3c-0.3,0.3-0.4,0.7-0.4,1.2
			c0,0.5,0.1,0.9,0.4,1.2c0.3,0.3,0.6,0.4,1.1,0.4c0.3,0,0.5-0.1,0.8-0.2c0.2-0.1,0.4-0.3,0.5-0.6c0.1-0.2,0.2-0.5,0.2-0.8
			c0-0.3-0.1-0.6-0.2-0.8c-0.1-0.2-0.3-0.4-0.5-0.6c-0.2-0.1-0.5-0.2-0.8-0.2C626.6,36.9,626.2,37.1,625.9,37.3z"/>
		<path class="st2" d="M635.4,40.7l-1.5-2.3h-0.8v2.3h-0.7v-5.6h1.9c0.6,0,1.1,0.2,1.4,0.5c0.3,0.3,0.5,0.7,0.5,1.2
			c0,0.5-0.1,0.8-0.4,1.1c-0.3,0.3-0.6,0.5-1.1,0.5l1.5,2.3H635.4z M633.1,37.9h1.1c0.8,0,1.2-0.4,1.2-1.1s-0.4-1.1-1.2-1.1h-1.1
			V37.9z"/>
		<path class="st2" d="M641,38.7h-3.5c0,0.5,0.2,0.9,0.4,1.1s0.6,0.4,1,0.4c0.4,0,0.6-0.1,0.9-0.3c0.2-0.2,0.4-0.4,0.4-0.7h0.8
			c-0.1,0.3-0.2,0.6-0.4,0.8s-0.4,0.4-0.7,0.6c-0.3,0.1-0.6,0.2-1,0.2c-0.4,0-0.8-0.1-1.1-0.3c-0.3-0.2-0.6-0.4-0.8-0.8
			s-0.3-0.7-0.3-1.2c0-0.5,0.1-0.9,0.3-1.2c0.2-0.3,0.4-0.6,0.8-0.8c0.3-0.2,0.7-0.3,1.1-0.3c0.4,0,0.8,0.1,1.1,0.3s0.6,0.4,0.7,0.7
			c0.2,0.3,0.3,0.6,0.3,1C641.1,38.4,641.1,38.6,641,38.7z M640.2,37.5c-0.1-0.2-0.3-0.4-0.5-0.5c-0.2-0.1-0.4-0.2-0.7-0.2
			c-0.4,0-0.7,0.1-1,0.4s-0.4,0.6-0.4,1.1h2.8C640.3,38,640.3,37.7,640.2,37.5z"/>
		<path class="st2" d="M644.6,36.6c0.3,0.3,0.5,0.6,0.5,1h-0.7c0-0.3-0.1-0.5-0.3-0.6s-0.4-0.3-0.7-0.3c-0.3,0-0.5,0.1-0.6,0.2
			c-0.1,0.1-0.2,0.3-0.2,0.5c0,0.2,0,0.3,0.1,0.4c0.1,0.1,0.2,0.2,0.4,0.2c0.1,0,0.3,0.1,0.6,0.2c0.3,0.1,0.6,0.2,0.8,0.2
			s0.4,0.2,0.5,0.4c0.1,0.2,0.2,0.4,0.2,0.7c0,0.4-0.1,0.6-0.4,0.9c-0.3,0.2-0.6,0.3-1.1,0.3c-0.5,0-0.9-0.1-1.3-0.4
			c-0.3-0.2-0.5-0.6-0.6-1h0.7c0,0.3,0.1,0.5,0.3,0.6s0.5,0.2,0.8,0.2c0.2,0,0.4-0.1,0.6-0.2c0.1-0.1,0.2-0.3,0.2-0.5
			c0-0.2-0.1-0.3-0.2-0.4c-0.1-0.1-0.2-0.2-0.4-0.2c-0.1-0.1-0.4-0.1-0.6-0.2c-0.3-0.1-0.6-0.1-0.8-0.2c-0.2-0.1-0.4-0.2-0.5-0.4
			c-0.1-0.2-0.2-0.4-0.2-0.7c0-0.4,0.1-0.7,0.4-0.9c0.3-0.2,0.6-0.3,1.1-0.3C643.9,36.3,644.3,36.4,644.6,36.6z"/>
		<path class="st2" d="M646.2,34.7c0.1-0.1,0.2-0.1,0.4-0.1c0.1,0,0.3,0,0.4,0.1s0.1,0.2,0.1,0.3c0,0.1,0,0.2-0.1,0.3
			c-0.1,0.1-0.2,0.1-0.4,0.1c-0.2,0-0.3,0-0.4-0.1c-0.1-0.1-0.1-0.2-0.1-0.3C646,34.9,646.1,34.8,646.2,34.7z M646.9,36.3v4.4h-0.7
			v-4.4H646.9z"/>
		<path class="st2" d="M648.8,34.8v5.9h-0.7v-5.9H648.8z"/>
		<path class="st2" d="M650,34.7c0.1-0.1,0.2-0.1,0.4-0.1c0.1,0,0.3,0,0.4,0.1s0.1,0.2,0.1,0.3c0,0.1,0,0.2-0.1,0.3
			c-0.1,0.1-0.2,0.1-0.4,0.1c-0.1,0-0.3,0-0.4-0.1c-0.1-0.1-0.1-0.2-0.1-0.3C649.8,34.9,649.9,34.8,650,34.7z M650.7,36.3v4.4h-0.7
			v-4.4H650.7z"/>
		<path class="st2" d="M655.9,38.7h-3.5c0,0.5,0.2,0.9,0.4,1.1s0.6,0.4,1,0.4c0.4,0,0.6-0.1,0.9-0.3c0.2-0.2,0.4-0.4,0.4-0.7h0.8
			c-0.1,0.3-0.2,0.6-0.4,0.8s-0.4,0.4-0.7,0.6c-0.3,0.1-0.6,0.2-1,0.2c-0.4,0-0.8-0.1-1.1-0.3c-0.3-0.2-0.6-0.4-0.8-0.8
			s-0.3-0.7-0.3-1.2c0-0.5,0.1-0.9,0.3-1.2c0.2-0.3,0.4-0.6,0.8-0.8c0.3-0.2,0.7-0.3,1.1-0.3c0.4,0,0.8,0.1,1.1,0.3s0.6,0.4,0.7,0.7
			c0.2,0.3,0.3,0.6,0.3,1C655.9,38.4,655.9,38.6,655.9,38.7z M655,37.5c-0.1-0.2-0.3-0.4-0.5-0.5c-0.2-0.1-0.4-0.2-0.7-0.2
			c-0.4,0-0.7,0.1-1,0.4s-0.4,0.6-0.4,1.1h2.8C655.2,38,655.1,37.7,655,37.5z"/>
		<path class="st2" d="M660.4,36.7c0.3,0.3,0.5,0.8,0.5,1.4v2.6h-0.7v-2.5c0-0.4-0.1-0.8-0.3-1s-0.5-0.4-0.9-0.4
			c-0.4,0-0.7,0.1-1,0.4c-0.2,0.3-0.4,0.6-0.4,1.1v2.3h-0.7v-4.4h0.7v1c0.1-0.4,0.3-0.6,0.6-0.8c0.3-0.2,0.6-0.3,1-0.3
			C659.7,36.2,660.1,36.4,660.4,36.7z"/>
		<path class="st2" d="M665.3,36.7c0.4,0.3,0.6,0.7,0.7,1.2h-0.8c-0.1-0.3-0.2-0.6-0.4-0.7s-0.5-0.3-0.9-0.3c-0.3,0-0.5,0.1-0.7,0.2
			s-0.4,0.3-0.5,0.5c-0.1,0.2-0.2,0.5-0.2,0.9c0,0.4,0.1,0.7,0.2,0.9c0.1,0.2,0.3,0.4,0.5,0.5s0.4,0.2,0.7,0.2
			c0.4,0,0.6-0.1,0.9-0.3c0.2-0.2,0.4-0.4,0.4-0.7h0.8c-0.1,0.5-0.3,0.9-0.7,1.2c-0.4,0.3-0.8,0.4-1.4,0.4c-0.4,0-0.8-0.1-1.1-0.3
			c-0.3-0.2-0.6-0.4-0.8-0.8s-0.3-0.7-0.3-1.2c0-0.5,0.1-0.9,0.3-1.2c0.2-0.3,0.4-0.6,0.8-0.8c0.3-0.2,0.7-0.3,1.1-0.3
			C664.5,36.3,664.9,36.4,665.3,36.7z"/>
		<path class="st2" d="M671,38.7h-3.5c0,0.5,0.2,0.9,0.4,1.1s0.6,0.4,1,0.4c0.4,0,0.6-0.1,0.9-0.3c0.2-0.2,0.4-0.4,0.4-0.7h0.8
			c-0.1,0.3-0.2,0.6-0.4,0.8s-0.4,0.4-0.7,0.6c-0.3,0.1-0.6,0.2-1,0.2c-0.4,0-0.8-0.1-1.1-0.3c-0.3-0.2-0.6-0.4-0.8-0.8
			s-0.3-0.7-0.3-1.2c0-0.5,0.1-0.9,0.3-1.2c0.2-0.3,0.4-0.6,0.8-0.8c0.3-0.2,0.7-0.3,1.1-0.3c0.4,0,0.8,0.1,1.1,0.3s0.6,0.4,0.7,0.7
			c0.2,0.3,0.3,0.6,0.3,1C671,38.4,671,38.6,671,38.7z M670.1,37.5c-0.1-0.2-0.3-0.4-0.5-0.5c-0.2-0.1-0.4-0.2-0.7-0.2
			c-0.4,0-0.7,0.1-1,0.4s-0.4,0.6-0.4,1.1h2.8C670.3,38,670.2,37.7,670.1,37.5z"/>
	</g>
</g>
<g>
	<rect x="496.9" y="211.1" class="st0" width="70.7" height="14.9"/>
	<g class="st1">
		<path class="st2" d="M502.9,219.8h-2.5l-0.5,1.3h-0.8l2.1-5.5h0.8l2.1,5.5h-0.8L502.9,219.8z M502.7,219.2l-1-2.8l-1,2.8H502.7z"
			/>
		<path class="st2" d="M507.7,217c0.3,0.2,0.5,0.5,0.6,0.9v-2.6h0.7v5.9h-0.7V220c-0.1,0.4-0.3,0.6-0.6,0.9
			c-0.3,0.2-0.7,0.3-1.1,0.3c-0.4,0-0.7-0.1-1-0.3s-0.5-0.4-0.7-0.8c-0.2-0.3-0.3-0.7-0.3-1.2c0-0.5,0.1-0.9,0.3-1.2
			c0.2-0.3,0.4-0.6,0.7-0.8s0.7-0.3,1-0.3C507.1,216.7,507.4,216.8,507.7,217z M505.8,217.7c-0.3,0.3-0.4,0.7-0.4,1.2
			c0,0.5,0.1,0.9,0.4,1.2s0.6,0.4,1.1,0.4c0.3,0,0.5-0.1,0.8-0.2c0.2-0.1,0.4-0.3,0.5-0.6c0.1-0.2,0.2-0.5,0.2-0.8
			c0-0.3-0.1-0.6-0.2-0.8s-0.3-0.4-0.5-0.6c-0.2-0.1-0.5-0.2-0.8-0.2C506.4,217.3,506.1,217.4,505.8,217.7z"/>
		<path class="st2" d="M513.1,217c0.3,0.2,0.5,0.5,0.6,0.9v-1.1h0.7v4.4h-0.7V220c-0.1,0.4-0.3,0.6-0.6,0.9
			c-0.3,0.2-0.7,0.3-1.1,0.3c-0.4,0-0.7-0.1-1-0.3c-0.3-0.2-0.5-0.4-0.7-0.8c-0.2-0.3-0.3-0.7-0.3-1.2c0-0.5,0.1-0.9,0.3-1.2
			c0.2-0.3,0.4-0.6,0.7-0.8c0.3-0.2,0.7-0.3,1-0.3C512.5,216.7,512.8,216.8,513.1,217z M511.2,217.7c-0.3,0.3-0.4,0.7-0.4,1.2
			c0,0.5,0.1,0.9,0.4,1.2c0.3,0.3,0.6,0.4,1.1,0.4c0.3,0,0.5-0.1,0.8-0.2c0.2-0.1,0.4-0.3,0.5-0.6c0.1-0.2,0.2-0.5,0.2-0.8
			c0-0.3-0.1-0.6-0.2-0.8s-0.3-0.4-0.5-0.6c-0.2-0.1-0.5-0.2-0.8-0.2C511.8,217.3,511.5,217.4,511.2,217.7z"/>
		<path class="st2" d="M519.1,216.9c0.3,0.2,0.5,0.4,0.7,0.8c0.2,0.3,0.3,0.7,0.3,1.2c0,0.5-0.1,0.9-0.3,1.2s-0.4,0.6-0.7,0.8
			s-0.7,0.3-1,0.3c-0.4,0-0.8-0.1-1.1-0.3c-0.3-0.2-0.5-0.5-0.6-0.9v3.2h-0.7v-6.5h0.7v1.1c0.1-0.4,0.3-0.6,0.6-0.9s0.7-0.3,1.1-0.3
			C518.5,216.7,518.8,216.7,519.1,216.9z M517.1,217.5c-0.2,0.1-0.4,0.3-0.5,0.6s-0.2,0.5-0.2,0.8c0,0.3,0.1,0.6,0.2,0.8
			c0.1,0.2,0.3,0.4,0.5,0.6c0.2,0.1,0.5,0.2,0.8,0.2c0.5,0,0.8-0.1,1.1-0.4s0.4-0.7,0.4-1.2c0-0.5-0.1-0.9-0.4-1.2s-0.6-0.4-1.1-0.4
			C517.6,217.3,517.3,217.4,517.1,217.5z"/>
		<path class="st2" d="M523.1,220.5v0.6h-0.5c-0.4,0-0.8-0.1-1-0.3c-0.2-0.2-0.3-0.6-0.3-1.1v-2.4h-0.7v-0.6h0.7v-1.1h0.7v1.1h1.1
			v0.6H522v2.4c0,0.3,0.1,0.5,0.2,0.6c0.1,0.1,0.3,0.2,0.5,0.2H523.1z"/>
		<path class="st2" d="M526.9,217c0.3,0.2,0.5,0.5,0.6,0.9v-1.1h0.7v4.4h-0.7V220c-0.1,0.4-0.3,0.6-0.6,0.9
			c-0.3,0.2-0.7,0.3-1.1,0.3c-0.4,0-0.7-0.1-1-0.3c-0.3-0.2-0.5-0.4-0.7-0.8c-0.2-0.3-0.3-0.7-0.3-1.2c0-0.5,0.1-0.9,0.3-1.2
			c0.2-0.3,0.4-0.6,0.7-0.8c0.3-0.2,0.7-0.3,1-0.3C526.2,216.7,526.6,216.8,526.9,217z M525,217.7c-0.3,0.3-0.4,0.7-0.4,1.2
			c0,0.5,0.1,0.9,0.4,1.2c0.3,0.3,0.6,0.4,1.1,0.4c0.3,0,0.5-0.1,0.8-0.2c0.2-0.1,0.4-0.3,0.5-0.6c0.1-0.2,0.2-0.5,0.2-0.8
			c0-0.3-0.1-0.6-0.2-0.8s-0.3-0.4-0.5-0.6c-0.2-0.1-0.5-0.2-0.8-0.2C525.6,217.3,525.2,217.4,525,217.7z"/>
		<path class="st2" d="M531.5,220.5v0.6H531c-0.4,0-0.8-0.1-1-0.3c-0.2-0.2-0.3-0.6-0.3-1.1v-2.4H529v-0.6h0.7v-1.1h0.7v1.1h1.1v0.6
			h-1.1v2.4c0,0.3,0.1,0.5,0.2,0.6c0.1,0.1,0.3,0.2,0.5,0.2H531.5z"/>
		<path class="st2" d="M532.4,215.1c0.1-0.1,0.2-0.1,0.4-0.1s0.3,0,0.4,0.1s0.1,0.2,0.1,0.3c0,0.1,0,0.2-0.1,0.3
			c-0.1,0.1-0.2,0.1-0.4,0.1s-0.3,0-0.4-0.1c-0.1-0.1-0.1-0.2-0.1-0.3C532.3,215.3,532.3,215.2,532.4,215.1z M533.1,216.7v4.4h-0.7
			v-4.4H533.1z"/>
		<path class="st2" d="M537.4,216.9c0.3,0.2,0.6,0.4,0.8,0.8c0.2,0.3,0.3,0.7,0.3,1.2c0,0.5-0.1,0.9-0.3,1.2
			c-0.2,0.3-0.5,0.6-0.8,0.8c-0.3,0.2-0.7,0.3-1.1,0.3c-0.4,0-0.8-0.1-1.1-0.3c-0.3-0.2-0.6-0.4-0.8-0.8c-0.2-0.3-0.3-0.7-0.3-1.2
			c0-0.5,0.1-0.9,0.3-1.2c0.2-0.3,0.5-0.6,0.8-0.8c0.3-0.2,0.7-0.3,1.1-0.3C536.7,216.7,537.1,216.7,537.4,216.9z M535.6,217.5
			c-0.2,0.1-0.4,0.3-0.5,0.5c-0.1,0.2-0.2,0.5-0.2,0.9c0,0.4,0.1,0.6,0.2,0.9c0.1,0.2,0.3,0.4,0.5,0.5c0.2,0.1,0.5,0.2,0.7,0.2
			c0.3,0,0.5-0.1,0.7-0.2s0.4-0.3,0.5-0.5c0.1-0.2,0.2-0.5,0.2-0.9c0-0.4-0.1-0.7-0.2-0.9c-0.1-0.2-0.3-0.4-0.5-0.5
			s-0.5-0.2-0.7-0.2C536,217.3,535.8,217.4,535.6,217.5z"/>
		<path class="st2" d="M543,217.1c0.3,0.3,0.5,0.8,0.5,1.4v2.6h-0.7v-2.5c0-0.4-0.1-0.8-0.3-1c-0.2-0.2-0.5-0.4-0.9-0.4
			c-0.4,0-0.7,0.1-1,0.4c-0.2,0.3-0.4,0.6-0.4,1.1v2.3h-0.7v-4.4h0.7v1c0.1-0.4,0.3-0.6,0.6-0.8c0.3-0.2,0.6-0.3,1-0.3
			C542.3,216.6,542.7,216.8,543,217.1z"/>
		<path class="st2" d="M549.7,215.5v0.6h-2.5v2h2.1v0.6h-2.1v2.5h-0.7v-5.6H549.7z"/>
		<path class="st2" d="M554.5,216.7v4.4h-0.7v-1c-0.1,0.4-0.3,0.6-0.6,0.8s-0.6,0.3-1,0.3c-0.5,0-0.9-0.2-1.2-0.5
			c-0.3-0.3-0.5-0.8-0.5-1.4v-2.6h0.7v2.5c0,0.4,0.1,0.8,0.3,1s0.5,0.4,0.9,0.4c0.4,0,0.7-0.1,1-0.4s0.4-0.6,0.4-1.1v-2.3H554.5z"/>
		<path class="st2" d="M559.2,217.1c0.3,0.3,0.5,0.8,0.5,1.4v2.6H559v-2.5c0-0.4-0.1-0.8-0.3-1c-0.2-0.2-0.5-0.4-0.9-0.4
			c-0.4,0-0.7,0.1-1,0.4s-0.4,0.6-0.4,1.1v2.3h-0.7v-4.4h0.7v1c0.1-0.4,0.3-0.6,0.6-0.8c0.3-0.2,0.6-0.3,1-0.3
			C558.5,216.6,558.9,216.8,559.2,217.1z"/>
		<path class="st2" d="M563.7,217c0.3,0.2,0.5,0.5,0.6,0.9v-2.6h0.7v5.9h-0.7V220c-0.1,0.4-0.3,0.6-0.6,0.9
			c-0.3,0.2-0.7,0.3-1.1,0.3c-0.4,0-0.7-0.1-1-0.3c-0.3-0.2-0.5-0.4-0.7-0.8c-0.2-0.3-0.3-0.7-0.3-1.2c0-0.5,0.1-0.9,0.3-1.2
			c0.2-0.3,0.4-0.6,0.7-0.8c0.3-0.2,0.7-0.3,1-0.3C563.1,216.7,563.4,216.8,563.7,217z M561.8,217.7c-0.3,0.3-0.4,0.7-0.4,1.2
			c0,0.5,0.1,0.9,0.4,1.2c0.3,0.3,0.6,0.4,1.1,0.4c0.3,0,0.5-0.1,0.8-0.2c0.2-0.1,0.4-0.3,0.5-0.6c0.1-0.2,0.2-0.5,0.2-0.8
			c0-0.3-0.1-0.6-0.2-0.8s-0.3-0.4-0.5-0.6c-0.2-0.1-0.5-0.2-0.8-0.2C562.4,217.3,562,217.4,561.8,217.7z"/>
	</g>
</g>
<g>
	<rect x="214.5" y="293.5" class="st0" width="119" height="14.9"/>
	<g class="st1">
		<path class="st2" d="M220.5,302.8c-0.1,0.2-0.3,0.4-0.6,0.6c-0.3,0.1-0.6,0.2-1,0.2c-0.4,0-0.7-0.1-1-0.2
			c-0.3-0.1-0.5-0.3-0.7-0.6c-0.2-0.2-0.3-0.5-0.3-0.8h0.8c0,0.2,0.1,0.3,0.2,0.5c0.1,0.2,0.2,0.3,0.4,0.4c0.2,0.1,0.4,0.1,0.6,0.1
			c0.3,0,0.6-0.1,0.7-0.3c0.2-0.2,0.3-0.4,0.3-0.7c0-0.2-0.1-0.4-0.2-0.6c-0.1-0.1-0.3-0.3-0.4-0.3c-0.2-0.1-0.4-0.2-0.7-0.3
			c-0.4-0.1-0.6-0.2-0.9-0.3c-0.2-0.1-0.4-0.3-0.6-0.5c-0.2-0.2-0.2-0.5-0.2-0.8c0-0.3,0.1-0.6,0.2-0.8c0.1-0.2,0.3-0.4,0.6-0.5
			c0.3-0.1,0.6-0.2,0.9-0.2c0.6,0,1,0.1,1.3,0.4c0.3,0.3,0.5,0.6,0.6,1h-0.8c0-0.2-0.2-0.4-0.3-0.6c-0.2-0.2-0.4-0.3-0.8-0.3
			c-0.3,0-0.5,0.1-0.7,0.2c-0.2,0.2-0.3,0.4-0.3,0.6c0,0.2,0.1,0.4,0.2,0.5c0.1,0.1,0.3,0.2,0.4,0.3c0.2,0.1,0.4,0.2,0.7,0.3
			c0.4,0.1,0.7,0.2,0.9,0.3c0.2,0.1,0.4,0.3,0.6,0.5c0.2,0.2,0.2,0.5,0.2,0.9C220.7,302.3,220.7,302.6,220.5,302.8z"/>
		<path class="st2" d="M225.2,299.3c0.3,0.2,0.5,0.4,0.7,0.8c0.2,0.3,0.3,0.7,0.3,1.2s-0.1,0.9-0.3,1.2c-0.2,0.3-0.4,0.6-0.7,0.8
			c-0.3,0.2-0.7,0.3-1,0.3c-0.4,0-0.8-0.1-1.1-0.3c-0.3-0.2-0.5-0.5-0.6-0.9v3.2h-0.7v-6.5h0.7v1.1c0.1-0.4,0.3-0.6,0.6-0.9
			c0.3-0.2,0.7-0.3,1.1-0.3C224.5,299.1,224.9,299.1,225.2,299.3z M223.1,299.9c-0.2,0.1-0.4,0.3-0.5,0.6c-0.1,0.2-0.2,0.5-0.2,0.8
			s0.1,0.6,0.2,0.8s0.3,0.4,0.5,0.6c0.2,0.1,0.5,0.2,0.8,0.2c0.5,0,0.8-0.1,1.1-0.4c0.3-0.3,0.4-0.7,0.4-1.2s-0.1-0.9-0.4-1.2
			c-0.3-0.3-0.6-0.4-1.1-0.4C223.6,299.7,223.4,299.8,223.1,299.9z"/>
		<path class="st2" d="M231.1,301.5h-3.5c0,0.5,0.2,0.9,0.4,1.1c0.3,0.3,0.6,0.4,1,0.4c0.4,0,0.6-0.1,0.9-0.3
			c0.2-0.2,0.4-0.4,0.4-0.7h0.8c-0.1,0.3-0.2,0.6-0.4,0.8s-0.4,0.4-0.7,0.6c-0.3,0.1-0.6,0.2-1,0.2c-0.4,0-0.8-0.1-1.1-0.3
			c-0.3-0.2-0.6-0.4-0.8-0.8c-0.2-0.3-0.3-0.7-0.3-1.2s0.1-0.9,0.3-1.2c0.2-0.3,0.4-0.6,0.8-0.8c0.3-0.2,0.7-0.3,1.1-0.3
			c0.4,0,0.8,0.1,1.1,0.3s0.6,0.4,0.7,0.7s0.3,0.6,0.3,1C231.1,301.2,231.1,301.4,231.1,301.5z M230.2,300.3
			c-0.1-0.2-0.3-0.4-0.5-0.5c-0.2-0.1-0.4-0.2-0.7-0.2c-0.4,0-0.7,0.1-1,0.4s-0.4,0.6-0.4,1.1h2.8
			C230.4,300.8,230.4,300.5,230.2,300.3z"/>
		<path class="st2" d="M235.4,299.5c0.4,0.3,0.6,0.7,0.7,1.2h-0.8c-0.1-0.3-0.2-0.6-0.4-0.7c-0.2-0.2-0.5-0.3-0.9-0.3
			c-0.3,0-0.5,0.1-0.7,0.2c-0.2,0.1-0.4,0.3-0.5,0.5c-0.1,0.2-0.2,0.5-0.2,0.9s0.1,0.7,0.2,0.9c0.1,0.2,0.3,0.4,0.5,0.5
			c0.2,0.1,0.4,0.2,0.7,0.2c0.4,0,0.6-0.1,0.9-0.3s0.4-0.4,0.4-0.7h0.8c-0.1,0.5-0.3,0.9-0.7,1.2c-0.4,0.3-0.8,0.4-1.4,0.4
			c-0.4,0-0.8-0.1-1.1-0.3c-0.3-0.2-0.6-0.4-0.8-0.8c-0.2-0.3-0.3-0.7-0.3-1.2s0.1-0.9,0.3-1.2c0.2-0.3,0.4-0.6,0.8-0.8
			c0.3-0.2,0.7-0.3,1.1-0.3C234.6,299.1,235,299.2,235.4,299.5z"/>
		<path class="st2" d="M237.1,297.5c0.1-0.1,0.2-0.1,0.4-0.1c0.1,0,0.3,0,0.4,0.1c0.1,0.1,0.1,0.2,0.1,0.3s0,0.2-0.1,0.3
			s-0.2,0.1-0.4,0.1c-0.1,0-0.3,0-0.4-0.1c-0.1-0.1-0.1-0.2-0.1-0.3S237,297.6,237.1,297.5z M237.8,299.1v4.4H237v-4.4H237.8z"/>
		<path class="st2" d="M241.8,299.4c0.3,0.2,0.5,0.5,0.6,0.9v-1.1h0.7v4.4h-0.7v-1.1c-0.1,0.4-0.3,0.6-0.6,0.9
			c-0.3,0.2-0.7,0.3-1.1,0.3c-0.4,0-0.7-0.1-1-0.3c-0.3-0.2-0.5-0.4-0.7-0.8c-0.2-0.3-0.3-0.7-0.3-1.2s0.1-0.9,0.3-1.2
			c0.2-0.3,0.4-0.6,0.7-0.8c0.3-0.2,0.7-0.3,1-0.3C241.2,299.1,241.5,299.2,241.8,299.4z M239.9,300.1c-0.3,0.3-0.4,0.7-0.4,1.2
			s0.1,0.9,0.4,1.2c0.3,0.3,0.6,0.4,1.1,0.4c0.3,0,0.5-0.1,0.8-0.2c0.2-0.1,0.4-0.3,0.5-0.6s0.2-0.5,0.2-0.8s-0.1-0.6-0.2-0.8
			c-0.1-0.2-0.3-0.4-0.5-0.6c-0.2-0.1-0.5-0.2-0.8-0.2C240.5,299.7,240.1,299.8,239.9,300.1z"/>
		<path class="st2" d="M245.1,297.6v5.9h-0.7v-5.9H245.1z"/>
		<path class="st2" d="M252.4,298.3c0.4,0.3,0.8,0.8,0.9,1.4h-0.8c-0.1-0.4-0.4-0.7-0.7-0.9s-0.7-0.3-1.2-0.3c-0.4,0-0.7,0.1-1,0.3
			c-0.3,0.2-0.5,0.4-0.7,0.8c-0.2,0.3-0.3,0.7-0.3,1.2c0,0.4,0.1,0.8,0.3,1.2c0.2,0.3,0.4,0.6,0.7,0.8c0.3,0.2,0.6,0.3,1,0.3
			c0.5,0,0.9-0.1,1.2-0.3c0.3-0.2,0.6-0.5,0.7-0.9h0.8c-0.2,0.6-0.5,1-0.9,1.4c-0.4,0.3-1,0.5-1.7,0.5c-0.5,0-1-0.1-1.4-0.4
			c-0.4-0.2-0.7-0.6-0.9-1c-0.2-0.4-0.3-0.9-0.3-1.5c0-0.6,0.1-1.1,0.3-1.5c0.2-0.4,0.5-0.8,0.9-1c0.4-0.2,0.9-0.4,1.4-0.4
			C251.4,297.8,252,298,252.4,298.3z"/>
		<path class="st2" d="M255,297.6v5.9h-0.7v-5.9H255z"/>
		<path class="st2" d="M256.2,297.5c0.1-0.1,0.2-0.1,0.4-0.1c0.1,0,0.3,0,0.4,0.1c0.1,0.1,0.1,0.2,0.1,0.3s0,0.2-0.1,0.3
			s-0.2,0.1-0.4,0.1c-0.1,0-0.3,0-0.4-0.1c-0.1-0.1-0.1-0.2-0.1-0.3S256.1,297.6,256.2,297.5z M256.9,299.1v4.4h-0.7v-4.4H256.9z"/>
		<path class="st2" d="M264.7,299.5c0.3,0.3,0.5,0.8,0.5,1.4v2.6h-0.7V301c0-0.4-0.1-0.8-0.3-1c-0.2-0.2-0.5-0.3-0.9-0.3
			c-0.4,0-0.7,0.1-0.9,0.4s-0.3,0.6-0.3,1.1v2.3h-0.7V301c0-0.4-0.1-0.8-0.3-1c-0.2-0.2-0.5-0.3-0.9-0.3c-0.4,0-0.7,0.1-0.9,0.4
			s-0.3,0.6-0.3,1.1v2.3h-0.7v-4.4h0.7v1c0.1-0.3,0.3-0.6,0.6-0.8c0.3-0.2,0.6-0.3,0.9-0.3c0.4,0,0.7,0.1,1,0.3
			c0.3,0.2,0.5,0.5,0.6,0.8c0.1-0.4,0.3-0.6,0.6-0.8c0.3-0.2,0.6-0.3,1-0.3C264,299,264.4,299.2,264.7,299.5z"/>
		<path class="st2" d="M269.2,299.4c0.3,0.2,0.5,0.5,0.6,0.9v-1.1h0.7v4.4h-0.7v-1.1c-0.1,0.4-0.3,0.6-0.6,0.9
			c-0.3,0.2-0.7,0.3-1.1,0.3c-0.4,0-0.7-0.1-1-0.3c-0.3-0.2-0.5-0.4-0.7-0.8c-0.2-0.3-0.3-0.7-0.3-1.2s0.1-0.9,0.3-1.2
			c0.2-0.3,0.4-0.6,0.7-0.8c0.3-0.2,0.7-0.3,1-0.3C268.6,299.1,268.9,299.2,269.2,299.4z M267.3,300.1c-0.3,0.3-0.4,0.7-0.4,1.2
			s0.1,0.9,0.4,1.2c0.3,0.3,0.6,0.4,1.1,0.4c0.3,0,0.5-0.1,0.8-0.2c0.2-0.1,0.4-0.3,0.5-0.6s0.2-0.5,0.2-0.8s-0.1-0.6-0.2-0.8
			c-0.1-0.2-0.3-0.4-0.5-0.6c-0.2-0.1-0.5-0.2-0.8-0.2C267.9,299.7,267.5,299.8,267.3,300.1z"/>
		<path class="st2" d="M273.8,302.9v0.6h-0.5c-0.4,0-0.8-0.1-1-0.3c-0.2-0.2-0.3-0.6-0.3-1.1v-2.4h-0.7v-0.6h0.7V298h0.7v1.1h1.1
			v0.6h-1.1v2.4c0,0.3,0.1,0.5,0.2,0.6c0.1,0.1,0.3,0.2,0.5,0.2H273.8z"/>
		<path class="st2" d="M278.7,301.5h-3.5c0,0.5,0.2,0.9,0.4,1.1c0.3,0.3,0.6,0.4,1,0.4c0.4,0,0.6-0.1,0.9-0.3
			c0.2-0.2,0.4-0.4,0.4-0.7h0.8c-0.1,0.3-0.2,0.6-0.4,0.8s-0.4,0.4-0.7,0.6c-0.3,0.1-0.6,0.2-1,0.2c-0.4,0-0.8-0.1-1.1-0.3
			c-0.3-0.2-0.6-0.4-0.8-0.8c-0.2-0.3-0.3-0.7-0.3-1.2s0.1-0.9,0.3-1.2c0.2-0.3,0.4-0.6,0.8-0.8c0.3-0.2,0.7-0.3,1.1-0.3
			c0.4,0,0.8,0.1,1.1,0.3s0.6,0.4,0.7,0.7s0.3,0.6,0.3,1C278.8,301.2,278.7,301.4,278.7,301.5z M277.9,300.3
			c-0.1-0.2-0.3-0.4-0.5-0.5c-0.2-0.1-0.4-0.2-0.7-0.2c-0.4,0-0.7,0.1-1,0.4s-0.4,0.6-0.4,1.1h2.8C278,300.8,278,300.5,277.9,300.3z
			"/>
		<path class="st2" d="M285.9,298.3c0.4,0.3,0.8,0.8,0.9,1.4H286c-0.1-0.4-0.4-0.7-0.7-0.9s-0.7-0.3-1.2-0.3c-0.4,0-0.7,0.1-1,0.3
			c-0.3,0.2-0.5,0.4-0.7,0.8c-0.2,0.3-0.3,0.7-0.3,1.2c0,0.4,0.1,0.8,0.3,1.2c0.2,0.3,0.4,0.6,0.7,0.8c0.3,0.2,0.6,0.3,1,0.3
			c0.5,0,0.9-0.1,1.2-0.3c0.3-0.2,0.6-0.5,0.7-0.9h0.8c-0.2,0.6-0.5,1-0.9,1.4c-0.4,0.3-1,0.5-1.7,0.5c-0.5,0-1-0.1-1.4-0.4
			c-0.4-0.2-0.7-0.6-0.9-1c-0.2-0.4-0.3-0.9-0.3-1.5c0-0.6,0.1-1.1,0.3-1.5c0.2-0.4,0.5-0.8,0.9-1c0.4-0.2,0.9-0.4,1.4-0.4
			C284.9,297.8,285.4,298,285.9,298.3z"/>
		<path class="st2" d="M291.3,299.5c0.3,0.3,0.5,0.8,0.5,1.4v2.6h-0.7V301c0-0.4-0.1-0.8-0.3-1s-0.5-0.4-0.9-0.4
			c-0.4,0-0.7,0.1-1,0.4c-0.2,0.3-0.4,0.6-0.4,1.1v2.3h-0.7v-5.9h0.7v2.6c0.1-0.4,0.3-0.6,0.6-0.8c0.3-0.2,0.6-0.3,1-0.3
			C290.6,299,291,299.2,291.3,299.5z"/>
		<path class="st2" d="M295.8,299.4c0.3,0.2,0.5,0.5,0.6,0.9v-1.1h0.7v4.4h-0.7v-1.1c-0.1,0.4-0.3,0.6-0.6,0.9
			c-0.3,0.2-0.7,0.3-1.1,0.3c-0.4,0-0.7-0.1-1-0.3c-0.3-0.2-0.5-0.4-0.7-0.8c-0.2-0.3-0.3-0.7-0.3-1.2s0.1-0.9,0.3-1.2
			c0.2-0.3,0.4-0.6,0.7-0.8c0.3-0.2,0.7-0.3,1-0.3C295.2,299.1,295.5,299.2,295.8,299.4z M293.9,300.1c-0.3,0.3-0.4,0.7-0.4,1.2
			s0.1,0.9,0.4,1.2c0.3,0.3,0.6,0.4,1.1,0.4c0.3,0,0.5-0.1,0.8-0.2c0.2-0.1,0.4-0.3,0.5-0.6s0.2-0.5,0.2-0.8s-0.1-0.6-0.2-0.8
			c-0.1-0.2-0.3-0.4-0.5-0.6c-0.2-0.1-0.5-0.2-0.8-0.2C294.5,299.7,294.1,299.8,293.9,300.1z"/>
		<path class="st2" d="M301.9,299.5c0.3,0.3,0.5,0.8,0.5,1.4v2.6h-0.7V301c0-0.4-0.1-0.8-0.3-1s-0.5-0.4-0.9-0.4
			c-0.4,0-0.7,0.1-1,0.4c-0.2,0.3-0.4,0.6-0.4,1.1v2.3h-0.7v-4.4h0.7v1c0.1-0.4,0.3-0.6,0.6-0.8c0.3-0.2,0.6-0.3,1-0.3
			C301.1,299,301.6,299.2,301.9,299.5z"/>
		<path class="st2" d="M306.3,299.4c0.3,0.2,0.5,0.5,0.6,0.9v-1.1h0.7v4.5c0,0.4-0.1,0.8-0.3,1.1c-0.2,0.3-0.4,0.6-0.7,0.7
			c-0.3,0.2-0.7,0.3-1.1,0.3c-0.6,0-1.1-0.1-1.4-0.4c-0.4-0.3-0.6-0.7-0.7-1.2h0.7c0.1,0.3,0.2,0.5,0.5,0.7c0.2,0.2,0.5,0.3,0.9,0.3
			c0.4,0,0.7-0.1,1-0.4c0.3-0.3,0.4-0.6,0.4-1.1v-1.2c-0.1,0.4-0.3,0.6-0.6,0.9c-0.3,0.2-0.7,0.3-1.1,0.3c-0.4,0-0.7-0.1-1-0.3
			c-0.3-0.2-0.5-0.4-0.7-0.8c-0.2-0.3-0.3-0.7-0.3-1.2s0.1-0.9,0.3-1.2c0.2-0.3,0.4-0.6,0.7-0.8c0.3-0.2,0.7-0.3,1-0.3
			C305.7,299.1,306.1,299.2,306.3,299.4z M304.4,300.1c-0.3,0.3-0.4,0.7-0.4,1.2s0.1,0.9,0.4,1.2c0.3,0.3,0.6,0.4,1.1,0.4
			c0.3,0,0.5-0.1,0.8-0.2c0.2-0.1,0.4-0.3,0.5-0.6s0.2-0.5,0.2-0.8s-0.1-0.6-0.2-0.8c-0.1-0.2-0.3-0.4-0.5-0.6
			c-0.2-0.1-0.5-0.2-0.8-0.2C305,299.7,304.7,299.8,304.4,300.1z"/>
		<path class="st2" d="M312.9,301.5h-3.5c0,0.5,0.2,0.9,0.4,1.1c0.3,0.3,0.6,0.4,1,0.4c0.4,0,0.6-0.1,0.9-0.3
			c0.2-0.2,0.4-0.4,0.4-0.7h0.8c-0.1,0.3-0.2,0.6-0.4,0.8s-0.4,0.4-0.7,0.6c-0.3,0.1-0.6,0.2-1,0.2c-0.4,0-0.8-0.1-1.1-0.3
			c-0.3-0.2-0.6-0.4-0.8-0.8c-0.2-0.3-0.3-0.7-0.3-1.2s0.1-0.9,0.3-1.2c0.2-0.3,0.4-0.6,0.8-0.8c0.3-0.2,0.7-0.3,1.1-0.3
			c0.4,0,0.8,0.1,1.1,0.3s0.6,0.4,0.7,0.7s0.3,0.6,0.3,1C312.9,301.2,312.9,301.4,312.9,301.5z M312,300.3c-0.1-0.2-0.3-0.4-0.5-0.5
			c-0.2-0.1-0.4-0.2-0.7-0.2c-0.4,0-0.7,0.1-1,0.4s-0.4,0.6-0.4,1.1h2.8C312.2,300.8,312.1,300.5,312,300.3z"/>
		<path class="st2" d="M319,297.9v0.6h-2.5v2h2.1v0.6h-2.1v2.5h-0.7v-5.6H319z"/>
		<path class="st2" d="M323.8,299.1v4.4h-0.7v-1c-0.1,0.4-0.3,0.6-0.6,0.8c-0.3,0.2-0.6,0.3-1,0.3c-0.5,0-0.9-0.2-1.2-0.5
			c-0.3-0.3-0.5-0.8-0.5-1.4v-2.6h0.7v2.5c0,0.4,0.1,0.8,0.3,1c0.2,0.2,0.5,0.4,0.9,0.4c0.4,0,0.7-0.1,1-0.4
			c0.2-0.3,0.4-0.6,0.4-1.1v-2.3H323.8z"/>
		<path class="st2" d="M328.5,299.5c0.3,0.3,0.5,0.8,0.5,1.4v2.6h-0.7V301c0-0.4-0.1-0.8-0.3-1s-0.5-0.4-0.9-0.4
			c-0.4,0-0.7,0.1-1,0.4c-0.2,0.3-0.4,0.6-0.4,1.1v2.3H325v-4.4h0.7v1c0.1-0.4,0.3-0.6,0.6-0.8c0.3-0.2,0.6-0.3,1-0.3
			C327.8,299,328.2,299.2,328.5,299.5z"/>
		<path class="st2" d="M333,299.4c0.3,0.2,0.5,0.5,0.6,0.9v-2.6h0.7v5.9h-0.7v-1.1c-0.1,0.4-0.3,0.6-0.6,0.9
			c-0.3,0.2-0.7,0.3-1.1,0.3c-0.4,0-0.7-0.1-1-0.3c-0.3-0.2-0.5-0.4-0.7-0.8c-0.2-0.3-0.3-0.7-0.3-1.2s0.1-0.9,0.3-1.2
			c0.2-0.3,0.4-0.6,0.7-0.8c0.3-0.2,0.7-0.3,1-0.3C332.3,299.1,332.7,299.2,333,299.4z M331,300.1c-0.3,0.3-0.4,0.7-0.4,1.2
			s0.1,0.9,0.4,1.2c0.3,0.3,0.6,0.4,1.1,0.4c0.3,0,0.5-0.1,0.8-0.2c0.2-0.1,0.4-0.3,0.5-0.6s0.2-0.5,0.2-0.8s-0.1-0.6-0.2-0.8
			c-0.1-0.2-0.3-0.4-0.5-0.6c-0.2-0.1-0.5-0.2-0.8-0.2C331.7,299.7,331.3,299.8,331,300.1z"/>
	</g>
</g>
<g>
	<rect x="2.8" y="142.6" class="st0" width="132.3" height="14.9"/>
	<g class="st1">
		<path class="st2" d="M6.2,152h2v0.6H5.4v-5.6h0.7V152z"/>
		<path class="st2" d="M12.9,150.5H9.4c0,0.5,0.2,0.9,0.4,1.1c0.3,0.3,0.6,0.4,1,0.4c0.4,0,0.6-0.1,0.9-0.3s0.4-0.4,0.4-0.7h0.8
			c-0.1,0.3-0.2,0.6-0.4,0.8s-0.4,0.4-0.7,0.6c-0.3,0.1-0.6,0.2-1,0.2c-0.4,0-0.8-0.1-1.1-0.3c-0.3-0.2-0.6-0.4-0.8-0.8
			s-0.3-0.7-0.3-1.2c0-0.5,0.1-0.9,0.3-1.2c0.2-0.3,0.4-0.6,0.8-0.8c0.3-0.2,0.7-0.3,1.1-0.3c0.4,0,0.8,0.1,1.1,0.3s0.6,0.4,0.7,0.7
			c0.2,0.3,0.3,0.6,0.3,1C12.9,150.3,12.9,150.4,12.9,150.5z M12,149.4c-0.1-0.2-0.3-0.4-0.5-0.5c-0.2-0.1-0.4-0.2-0.7-0.2
			c-0.4,0-0.7,0.1-1,0.4s-0.4,0.6-0.4,1.1h2.8C12.2,149.8,12.2,149.6,12,149.4z"/>
		<path class="st2" d="M16.8,148.4c0.3,0.2,0.5,0.5,0.6,0.9v-1.1h0.7v4.4h-0.7v-1.1c-0.1,0.4-0.3,0.6-0.6,0.9
			c-0.3,0.2-0.7,0.3-1.1,0.3c-0.4,0-0.7-0.1-1-0.3c-0.3-0.2-0.5-0.4-0.7-0.8s-0.3-0.7-0.3-1.2c0-0.5,0.1-0.9,0.3-1.2
			c0.2-0.3,0.4-0.6,0.7-0.8c0.3-0.2,0.7-0.3,1-0.3C16.1,148.1,16.5,148.2,16.8,148.4z M14.8,149.2c-0.3,0.3-0.4,0.7-0.4,1.2
			c0,0.5,0.1,0.9,0.4,1.2c0.3,0.3,0.6,0.4,1.1,0.4c0.3,0,0.5-0.1,0.8-0.2c0.2-0.1,0.4-0.3,0.5-0.6c0.1-0.2,0.2-0.5,0.2-0.8
			c0-0.3-0.1-0.6-0.2-0.8s-0.3-0.4-0.5-0.6c-0.2-0.1-0.5-0.2-0.8-0.2C15.5,148.8,15.1,148.9,14.8,149.2z"/>
		<path class="st2" d="M21.9,148.5c0.3,0.3,0.5,0.6,0.5,1h-0.7c0-0.3-0.1-0.5-0.3-0.6s-0.4-0.3-0.7-0.3c-0.3,0-0.5,0.1-0.6,0.2
			c-0.1,0.1-0.2,0.3-0.2,0.5c0,0.2,0,0.3,0.1,0.4s0.2,0.2,0.4,0.2c0.1,0,0.3,0.1,0.6,0.2c0.3,0.1,0.6,0.2,0.8,0.2s0.4,0.2,0.5,0.4
			c0.1,0.2,0.2,0.4,0.2,0.7c0,0.4-0.1,0.6-0.4,0.9c-0.3,0.2-0.6,0.3-1.1,0.3c-0.5,0-0.9-0.1-1.3-0.4c-0.3-0.2-0.5-0.6-0.6-1h0.7
			c0,0.3,0.1,0.5,0.3,0.6c0.2,0.2,0.5,0.2,0.8,0.2c0.3,0,0.4-0.1,0.6-0.2c0.1-0.1,0.2-0.3,0.2-0.5c0-0.2-0.1-0.3-0.2-0.4
			c-0.1-0.1-0.2-0.2-0.4-0.2c-0.1-0.1-0.4-0.1-0.6-0.2c-0.3-0.1-0.6-0.1-0.8-0.2c-0.2-0.1-0.4-0.2-0.5-0.4c-0.1-0.2-0.2-0.4-0.2-0.7
			c0-0.4,0.1-0.7,0.4-0.9c0.3-0.2,0.6-0.3,1.1-0.3C21.2,148.1,21.6,148.2,21.9,148.5z"/>
		<path class="st2" d="M25.5,151.9v0.6H25c-0.4,0-0.8-0.1-1-0.3c-0.2-0.2-0.3-0.6-0.3-1.1v-2.4H23v-0.6h0.7v-1.1h0.7v1.1h1.1v0.6
			h-1.1v2.4c0,0.3,0.1,0.5,0.2,0.6c0.1,0.1,0.3,0.2,0.5,0.2H25.5z"/>
		<path class="st2" d="M32.8,151.2c-0.2,0.4-0.6,0.8-1,1c-0.4,0.2-1,0.3-1.6,0.3h-1.8v-5.6h1.8c0.6,0,1.2,0.1,1.6,0.3s0.8,0.6,1,1
			c0.2,0.4,0.3,0.9,0.3,1.5C33.1,150.3,33,150.8,32.8,151.2z M31.8,151.3c0.4-0.4,0.6-0.9,0.6-1.6c0-0.7-0.2-1.2-0.6-1.6
			c-0.4-0.4-1-0.6-1.7-0.6h-1v4.3h1C30.9,151.9,31.4,151.7,31.8,151.3z"/>
		<path class="st2" d="M38.1,150.5h-3.5c0,0.5,0.2,0.9,0.4,1.1c0.3,0.3,0.6,0.4,1,0.4c0.4,0,0.6-0.1,0.9-0.3s0.4-0.4,0.4-0.7h0.8
			c-0.1,0.3-0.2,0.6-0.4,0.8s-0.4,0.4-0.7,0.6c-0.3,0.1-0.6,0.2-1,0.2c-0.4,0-0.8-0.1-1.1-0.3c-0.3-0.2-0.6-0.4-0.8-0.8
			s-0.3-0.7-0.3-1.2c0-0.5,0.1-0.9,0.3-1.2c0.2-0.3,0.4-0.6,0.8-0.8c0.3-0.2,0.7-0.3,1.1-0.3c0.4,0,0.8,0.1,1.1,0.3s0.6,0.4,0.7,0.7
			c0.2,0.3,0.3,0.6,0.3,1C38.2,150.3,38.2,150.4,38.1,150.5z M37.3,149.4c-0.1-0.2-0.3-0.4-0.5-0.5c-0.2-0.1-0.4-0.2-0.7-0.2
			c-0.4,0-0.7,0.1-1,0.4s-0.4,0.6-0.4,1.1h2.8C37.4,149.8,37.4,149.6,37.3,149.4z"/>
		<path class="st2" d="M40.8,151.8l1.4-3.6H43l-1.7,4.4h-0.9l-1.7-4.4h0.8L40.8,151.8z"/>
		<path class="st2" d="M47.7,150.5h-3.5c0,0.5,0.2,0.9,0.4,1.1c0.3,0.3,0.6,0.4,1,0.4c0.4,0,0.6-0.1,0.9-0.3s0.4-0.4,0.4-0.7h0.8
			c-0.1,0.3-0.2,0.6-0.4,0.8s-0.4,0.4-0.7,0.6c-0.3,0.1-0.6,0.2-1,0.2c-0.4,0-0.8-0.1-1.1-0.3c-0.3-0.2-0.6-0.4-0.8-0.8
			s-0.3-0.7-0.3-1.2c0-0.5,0.1-0.9,0.3-1.2c0.2-0.3,0.4-0.6,0.8-0.8c0.3-0.2,0.7-0.3,1.1-0.3c0.4,0,0.8,0.1,1.1,0.3s0.6,0.4,0.7,0.7
			c0.2,0.3,0.3,0.6,0.3,1C47.7,150.3,47.7,150.4,47.7,150.5z M46.8,149.4c-0.1-0.2-0.3-0.4-0.5-0.5c-0.2-0.1-0.4-0.2-0.7-0.2
			c-0.4,0-0.7,0.1-1,0.4s-0.4,0.6-0.4,1.1H47C47,149.8,46.9,149.6,46.8,149.4z"/>
		<path class="st2" d="M49.4,146.6v5.9h-0.7v-5.9H49.4z"/>
		<path class="st2" d="M53.7,148.4c0.3,0.2,0.6,0.4,0.8,0.8c0.2,0.3,0.3,0.7,0.3,1.2c0,0.5-0.1,0.9-0.3,1.2
			c-0.2,0.3-0.5,0.6-0.8,0.8c-0.3,0.2-0.7,0.3-1.1,0.3c-0.4,0-0.8-0.1-1.1-0.3c-0.3-0.2-0.6-0.4-0.8-0.8c-0.2-0.3-0.3-0.7-0.3-1.2
			c0-0.5,0.1-0.9,0.3-1.2c0.2-0.3,0.5-0.6,0.8-0.8c0.3-0.2,0.7-0.3,1.1-0.3C53,148.1,53.4,148.2,53.7,148.4z M51.8,148.9
			c-0.2,0.1-0.4,0.3-0.5,0.5c-0.1,0.2-0.2,0.5-0.2,0.9c0,0.4,0.1,0.6,0.2,0.9c0.1,0.2,0.3,0.4,0.5,0.5s0.5,0.2,0.7,0.2
			c0.3,0,0.5-0.1,0.7-0.2c0.2-0.1,0.4-0.3,0.5-0.5c0.1-0.2,0.2-0.5,0.2-0.9c0-0.4-0.1-0.7-0.2-0.9c-0.1-0.2-0.3-0.4-0.5-0.5
			c-0.2-0.1-0.5-0.2-0.7-0.2C52.3,148.8,52.1,148.8,51.8,148.9z"/>
		<path class="st2" d="M59.2,148.4c0.3,0.2,0.5,0.4,0.7,0.8c0.2,0.3,0.3,0.7,0.3,1.2c0,0.5-0.1,0.9-0.3,1.2
			c-0.2,0.3-0.4,0.6-0.7,0.8c-0.3,0.2-0.7,0.3-1,0.3c-0.4,0-0.8-0.1-1.1-0.3c-0.3-0.2-0.5-0.5-0.6-0.9v3.2h-0.7v-6.5h0.7v1.1
			c0.1-0.4,0.3-0.6,0.6-0.9c0.3-0.2,0.7-0.3,1.1-0.3C58.5,148.1,58.9,148.2,59.2,148.4z M57.2,149c-0.2,0.1-0.4,0.3-0.5,0.6
			s-0.2,0.5-0.2,0.8c0,0.3,0.1,0.6,0.2,0.8c0.1,0.2,0.3,0.4,0.5,0.6c0.2,0.1,0.5,0.2,0.8,0.2c0.5,0,0.8-0.1,1.1-0.4
			c0.3-0.3,0.4-0.7,0.4-1.2c0-0.5-0.1-0.9-0.4-1.2c-0.3-0.3-0.6-0.4-1.1-0.4C57.6,148.8,57.4,148.8,57.2,149z"/>
		<path class="st2" d="M65.1,150.5h-3.5c0,0.5,0.2,0.9,0.4,1.1c0.3,0.3,0.6,0.4,1,0.4c0.4,0,0.6-0.1,0.9-0.3s0.4-0.4,0.4-0.7h0.8
			c-0.1,0.3-0.2,0.6-0.4,0.8s-0.4,0.4-0.7,0.6c-0.3,0.1-0.6,0.2-1,0.2c-0.4,0-0.8-0.1-1.1-0.3c-0.3-0.2-0.6-0.4-0.8-0.8
			s-0.3-0.7-0.3-1.2c0-0.5,0.1-0.9,0.3-1.2c0.2-0.3,0.4-0.6,0.8-0.8c0.3-0.2,0.7-0.3,1.1-0.3c0.4,0,0.8,0.1,1.1,0.3s0.6,0.4,0.7,0.7
			c0.2,0.3,0.3,0.6,0.3,1C65.1,150.3,65.1,150.4,65.1,150.5z M64.2,149.4c-0.1-0.2-0.3-0.4-0.5-0.5c-0.2-0.1-0.4-0.2-0.7-0.2
			c-0.4,0-0.7,0.1-1,0.4s-0.4,0.6-0.4,1.1h2.8C64.4,149.8,64.4,149.6,64.2,149.4z"/>
		<path class="st2" d="M69,148.4c0.3,0.2,0.5,0.5,0.6,0.9v-2.6h0.7v5.9h-0.7v-1.1c-0.1,0.4-0.3,0.6-0.6,0.9
			c-0.3,0.2-0.7,0.3-1.1,0.3c-0.4,0-0.7-0.1-1-0.3c-0.3-0.2-0.5-0.4-0.7-0.8s-0.3-0.7-0.3-1.2c0-0.5,0.1-0.9,0.3-1.2
			c0.2-0.3,0.4-0.6,0.7-0.8c0.3-0.2,0.7-0.3,1-0.3C68.3,148.1,68.7,148.2,69,148.4z M67,149.2c-0.3,0.3-0.4,0.7-0.4,1.2
			c0,0.5,0.1,0.9,0.4,1.2c0.3,0.3,0.6,0.4,1.1,0.4c0.3,0,0.5-0.1,0.8-0.2c0.2-0.1,0.4-0.3,0.5-0.6c0.1-0.2,0.2-0.5,0.2-0.8
			c0-0.3-0.1-0.6-0.2-0.8s-0.3-0.4-0.5-0.6c-0.2-0.1-0.5-0.2-0.8-0.2C67.6,148.8,67.3,148.9,67,149.2z"/>
		<path class="st2" d="M77.7,147.4c0.4,0.3,0.8,0.8,0.9,1.4h-0.8c-0.1-0.4-0.4-0.7-0.7-0.9c-0.3-0.2-0.7-0.3-1.2-0.3
			c-0.4,0-0.7,0.1-1,0.3s-0.5,0.4-0.7,0.8c-0.2,0.3-0.3,0.7-0.3,1.2c0,0.4,0.1,0.8,0.3,1.2c0.2,0.3,0.4,0.6,0.7,0.8s0.6,0.3,1,0.3
			c0.5,0,0.9-0.1,1.2-0.3s0.6-0.5,0.7-0.9h0.8c-0.2,0.6-0.5,1-0.9,1.4c-0.4,0.3-1,0.5-1.7,0.5c-0.5,0-1-0.1-1.4-0.4
			c-0.4-0.2-0.7-0.6-0.9-1s-0.3-0.9-0.3-1.5c0-0.6,0.1-1.1,0.3-1.5c0.2-0.4,0.5-0.8,0.9-1c0.4-0.2,0.9-0.4,1.4-0.4
			C76.6,146.9,77.2,147,77.7,147.4z"/>
		<path class="st2" d="M82.7,148.4c0.3,0.2,0.6,0.4,0.8,0.8c0.2,0.3,0.3,0.7,0.3,1.2c0,0.5-0.1,0.9-0.3,1.2
			c-0.2,0.3-0.5,0.6-0.8,0.8c-0.3,0.2-0.7,0.3-1.1,0.3c-0.4,0-0.8-0.1-1.1-0.3c-0.3-0.2-0.6-0.4-0.8-0.8c-0.2-0.3-0.3-0.7-0.3-1.2
			c0-0.5,0.1-0.9,0.3-1.2c0.2-0.3,0.5-0.6,0.8-0.8c0.3-0.2,0.7-0.3,1.1-0.3C82,148.1,82.4,148.2,82.7,148.4z M80.8,148.9
			c-0.2,0.1-0.4,0.3-0.5,0.5c-0.1,0.2-0.2,0.5-0.2,0.9c0,0.4,0.1,0.6,0.2,0.9c0.1,0.2,0.3,0.4,0.5,0.5s0.5,0.2,0.7,0.2
			c0.3,0,0.5-0.1,0.7-0.2c0.2-0.1,0.4-0.3,0.5-0.5c0.1-0.2,0.2-0.5,0.2-0.9c0-0.4-0.1-0.7-0.2-0.9c-0.1-0.2-0.3-0.4-0.5-0.5
			c-0.2-0.1-0.5-0.2-0.7-0.2C81.3,148.8,81.1,148.8,80.8,148.9z"/>
		<path class="st2" d="M88.6,148.2v4.4h-0.7v-1c-0.1,0.4-0.3,0.6-0.6,0.8c-0.3,0.2-0.6,0.3-1,0.3c-0.5,0-0.9-0.2-1.2-0.5
			c-0.3-0.3-0.5-0.8-0.5-1.4v-2.6h0.7v2.5c0,0.4,0.1,0.8,0.3,1c0.2,0.2,0.5,0.4,0.9,0.4c0.4,0,0.7-0.1,1-0.4
			c0.2-0.3,0.4-0.6,0.4-1.1v-2.3H88.6z"/>
		<path class="st2" d="M93.3,148.6c0.3,0.3,0.5,0.8,0.5,1.4v2.6h-0.7v-2.5c0-0.4-0.1-0.8-0.3-1s-0.5-0.4-0.9-0.4
			c-0.4,0-0.7,0.1-1,0.4c-0.2,0.3-0.4,0.6-0.4,1.1v2.3h-0.7v-4.4h0.7v1c0.1-0.4,0.3-0.6,0.6-0.8c0.3-0.2,0.6-0.3,1-0.3
			C92.6,148.1,93,148.3,93.3,148.6z"/>
		<path class="st2" d="M97,151.9v0.6h-0.5c-0.4,0-0.8-0.1-1-0.3c-0.2-0.2-0.3-0.6-0.3-1.1v-2.4h-0.7v-0.6h0.7v-1.1h0.7v1.1H97v0.6
			h-1.1v2.4c0,0.3,0.1,0.5,0.2,0.6c0.1,0.1,0.3,0.2,0.5,0.2H97z"/>
		<path class="st2" d="M99.3,148.4c0.3-0.2,0.6-0.3,1-0.3v0.8H100c-0.4,0-0.7,0.1-1,0.3c-0.3,0.2-0.4,0.6-0.4,1v2.3h-0.7v-4.4h0.7
			v0.9C98.8,148.8,99,148.5,99.3,148.4z"/>
		<path class="st2" d="M101,146.6c0.1-0.1,0.2-0.1,0.4-0.1c0.1,0,0.3,0,0.4,0.1s0.1,0.2,0.1,0.3c0,0.1,0,0.2-0.1,0.3
			c-0.1,0.1-0.2,0.1-0.4,0.1c-0.1,0-0.3,0-0.4-0.1c-0.1-0.1-0.1-0.2-0.1-0.3C100.8,146.7,100.9,146.6,101,146.6z M101.7,148.2v4.4
			H101v-4.4H101.7z"/>
		<path class="st2" d="M106.9,150.5h-3.5c0,0.5,0.2,0.9,0.4,1.1c0.3,0.3,0.6,0.4,1,0.4c0.4,0,0.6-0.1,0.9-0.3s0.4-0.4,0.4-0.7h0.8
			c-0.1,0.3-0.2,0.6-0.4,0.8s-0.4,0.4-0.7,0.6c-0.3,0.1-0.6,0.2-1,0.2c-0.4,0-0.8-0.1-1.1-0.3c-0.3-0.2-0.6-0.4-0.8-0.8
			s-0.3-0.7-0.3-1.2c0-0.5,0.1-0.9,0.3-1.2c0.2-0.3,0.4-0.6,0.8-0.8c0.3-0.2,0.7-0.3,1.1-0.3c0.4,0,0.8,0.1,1.1,0.3s0.6,0.4,0.7,0.7
			c0.2,0.3,0.3,0.6,0.3,1C106.9,150.3,106.9,150.4,106.9,150.5z M106,149.4c-0.1-0.2-0.3-0.4-0.5-0.5c-0.2-0.1-0.4-0.2-0.7-0.2
			c-0.4,0-0.7,0.1-1,0.4s-0.4,0.6-0.4,1.1h2.8C106.2,149.8,106.1,149.6,106,149.4z"/>
		<path class="st2" d="M110.4,148.5c0.3,0.3,0.5,0.6,0.5,1h-0.7c0-0.3-0.1-0.5-0.3-0.6s-0.4-0.3-0.7-0.3c-0.3,0-0.5,0.1-0.6,0.2
			c-0.1,0.1-0.2,0.3-0.2,0.5c0,0.2,0,0.3,0.1,0.4s0.2,0.2,0.4,0.2c0.1,0,0.3,0.1,0.6,0.2c0.3,0.1,0.6,0.2,0.8,0.2s0.4,0.2,0.5,0.4
			c0.1,0.2,0.2,0.4,0.2,0.7c0,0.4-0.1,0.6-0.4,0.9c-0.3,0.2-0.6,0.3-1.1,0.3c-0.5,0-0.9-0.1-1.3-0.4c-0.3-0.2-0.5-0.6-0.6-1h0.7
			c0,0.3,0.1,0.5,0.3,0.6c0.2,0.2,0.5,0.2,0.8,0.2c0.3,0,0.4-0.1,0.6-0.2c0.1-0.1,0.2-0.3,0.2-0.5c0-0.2-0.1-0.3-0.2-0.4
			c-0.1-0.1-0.2-0.2-0.4-0.2c-0.1-0.1-0.4-0.1-0.6-0.2c-0.3-0.1-0.6-0.1-0.8-0.2c-0.2-0.1-0.4-0.2-0.5-0.4c-0.1-0.2-0.2-0.4-0.2-0.7
			c0-0.4,0.1-0.7,0.4-0.9c0.3-0.2,0.6-0.3,1.1-0.3C109.7,148.1,110.1,148.2,110.4,148.5z"/>
		<path class="st2" d="M117.2,146.9v0.6h-2.5v2h2.1v0.6h-2.1v2.5H114v-5.6H117.2z"/>
		<path class="st2" d="M121.9,148.2v4.4h-0.7v-1c-0.1,0.4-0.3,0.6-0.6,0.8c-0.3,0.2-0.6,0.3-1,0.3c-0.5,0-0.9-0.2-1.2-0.5
			c-0.3-0.3-0.5-0.8-0.5-1.4v-2.6h0.7v2.5c0,0.4,0.1,0.8,0.3,1c0.2,0.2,0.5,0.4,0.9,0.4c0.4,0,0.7-0.1,1-0.4
			c0.2-0.3,0.4-0.6,0.4-1.1v-2.3H121.9z"/>
		<path class="st2" d="M126.7,148.6c0.3,0.3,0.5,0.8,0.5,1.4v2.6h-0.7v-2.5c0-0.4-0.1-0.8-0.3-1s-0.5-0.4-0.9-0.4
			c-0.4,0-0.7,0.1-1,0.4c-0.2,0.3-0.4,0.6-0.4,1.1v2.3h-0.7v-4.4h0.7v1c0.1-0.4,0.3-0.6,0.6-0.8c0.3-0.2,0.6-0.3,1-0.3
			C125.9,148.1,126.3,148.3,126.7,148.6z"/>
		<path class="st2" d="M131.1,148.4c0.3,0.2,0.5,0.5,0.6,0.9v-2.6h0.7v5.9h-0.7v-1.1c-0.1,0.4-0.3,0.6-0.6,0.9
			c-0.3,0.2-0.7,0.3-1.1,0.3c-0.4,0-0.7-0.1-1-0.3c-0.3-0.2-0.5-0.4-0.7-0.8s-0.3-0.7-0.3-1.2c0-0.5,0.1-0.9,0.3-1.2
			c0.2-0.3,0.4-0.6,0.7-0.8c0.3-0.2,0.7-0.3,1-0.3C130.5,148.1,130.8,148.2,131.1,148.4z M129.2,149.2c-0.3,0.3-0.4,0.7-0.4,1.2
			c0,0.5,0.1,0.9,0.4,1.2c0.3,0.3,0.6,0.4,1.1,0.4c0.3,0,0.5-0.1,0.8-0.2c0.2-0.1,0.4-0.3,0.5-0.6c0.1-0.2,0.2-0.5,0.2-0.8
			c0-0.3-0.1-0.6-0.2-0.8s-0.3-0.4-0.5-0.6c-0.2-0.1-0.5-0.2-0.8-0.2C129.8,148.8,129.4,148.9,129.2,149.2z"/>
	</g>
</g>
<g>
	<rect x="638.1" y="363" class="st0" width="206.9" height="14.9"/>
	<g class="st1">
		<path class="st2" d="M643.9,371.7h-2.5L641,373h-0.8l2.1-5.5h0.8l2.1,5.5h-0.8L643.9,371.7z M643.7,371.2l-1-2.8l-1,2.8H643.7z"/>
		<path class="st2" d="M648.8,368.9c0.3,0.2,0.5,0.5,0.6,0.9v-2.6h0.7v5.9h-0.7v-1.1c-0.1,0.4-0.3,0.6-0.6,0.9
			c-0.3,0.2-0.7,0.3-1.1,0.3c-0.4,0-0.7-0.1-1-0.3c-0.3-0.2-0.5-0.4-0.7-0.8c-0.2-0.3-0.3-0.7-0.3-1.2c0-0.5,0.1-0.9,0.3-1.2
			c0.2-0.3,0.4-0.6,0.7-0.8c0.3-0.2,0.7-0.3,1-0.3C648.2,368.6,648.5,368.7,648.8,368.9z M646.9,369.7c-0.3,0.3-0.4,0.7-0.4,1.2
			c0,0.5,0.1,0.9,0.4,1.2c0.3,0.3,0.6,0.4,1.1,0.4c0.3,0,0.5-0.1,0.8-0.2c0.2-0.1,0.4-0.3,0.5-0.6c0.1-0.2,0.2-0.5,0.2-0.8
			c0-0.3-0.1-0.6-0.2-0.8s-0.3-0.4-0.5-0.6c-0.2-0.1-0.5-0.2-0.8-0.2C647.5,369.2,647.1,369.4,646.9,369.7z"/>
		<path class="st2" d="M654.2,368.9c0.3,0.2,0.5,0.5,0.6,0.9v-1.1h0.7v4.4h-0.7v-1.1c-0.1,0.4-0.3,0.6-0.6,0.9
			c-0.3,0.2-0.7,0.3-1.1,0.3c-0.4,0-0.7-0.1-1-0.3s-0.5-0.4-0.7-0.8c-0.2-0.3-0.3-0.7-0.3-1.2c0-0.5,0.1-0.9,0.3-1.2
			c0.2-0.3,0.4-0.6,0.7-0.8s0.7-0.3,1-0.3C653.6,368.6,653.9,368.7,654.2,368.9z M652.3,369.7c-0.3,0.3-0.4,0.7-0.4,1.2
			c0,0.5,0.1,0.9,0.4,1.2s0.6,0.4,1.1,0.4c0.3,0,0.5-0.1,0.8-0.2c0.2-0.1,0.4-0.3,0.5-0.6c0.1-0.2,0.2-0.5,0.2-0.8
			c0-0.3-0.1-0.6-0.2-0.8s-0.3-0.4-0.5-0.6c-0.2-0.1-0.5-0.2-0.8-0.2C652.9,369.2,652.5,369.4,652.3,369.7z"/>
		<path class="st2" d="M660.2,368.8c0.3,0.2,0.5,0.4,0.7,0.8c0.2,0.3,0.3,0.7,0.3,1.2c0,0.5-0.1,0.9-0.3,1.2
			c-0.2,0.3-0.4,0.6-0.7,0.8c-0.3,0.2-0.7,0.3-1,0.3c-0.4,0-0.8-0.1-1.1-0.3c-0.3-0.2-0.5-0.5-0.6-0.9v3.2h-0.7v-6.5h0.7v1.1
			c0.1-0.4,0.3-0.6,0.6-0.9c0.3-0.2,0.7-0.3,1.1-0.3C659.5,368.6,659.9,368.7,660.2,368.8z M658.2,369.4c-0.2,0.1-0.4,0.3-0.5,0.6
			s-0.2,0.5-0.2,0.8c0,0.3,0.1,0.6,0.2,0.8c0.1,0.2,0.3,0.4,0.5,0.6c0.2,0.1,0.5,0.2,0.8,0.2c0.5,0,0.8-0.1,1.1-0.4
			c0.3-0.3,0.4-0.7,0.4-1.2c0-0.5-0.1-0.9-0.4-1.2c-0.3-0.3-0.6-0.4-1.1-0.4C658.6,369.2,658.4,369.3,658.2,369.4z"/>
		<path class="st2" d="M664.2,372.4v0.6h-0.5c-0.4,0-0.8-0.1-1-0.3c-0.2-0.2-0.3-0.6-0.3-1.1v-2.4h-0.7v-0.6h0.7v-1.1h0.7v1.1h1.1
			v0.6h-1.1v2.4c0,0.3,0.1,0.5,0.2,0.6c0.1,0.1,0.3,0.2,0.5,0.2H664.2z"/>
		<path class="st2" d="M668,368.9c0.3,0.2,0.5,0.5,0.6,0.9v-1.1h0.7v4.4h-0.7v-1.1c-0.1,0.4-0.3,0.6-0.6,0.9
			c-0.3,0.2-0.7,0.3-1.1,0.3c-0.4,0-0.7-0.1-1-0.3s-0.5-0.4-0.7-0.8c-0.2-0.3-0.3-0.7-0.3-1.2c0-0.5,0.1-0.9,0.3-1.2
			c0.2-0.3,0.4-0.6,0.7-0.8s0.7-0.3,1-0.3C667.3,368.6,667.7,368.7,668,368.9z M666,369.7c-0.3,0.3-0.4,0.7-0.4,1.2
			c0,0.5,0.1,0.9,0.4,1.2s0.6,0.4,1.1,0.4c0.3,0,0.5-0.1,0.8-0.2c0.2-0.1,0.4-0.3,0.5-0.6c0.1-0.2,0.2-0.5,0.2-0.8
			c0-0.3-0.1-0.6-0.2-0.8s-0.3-0.4-0.5-0.6c-0.2-0.1-0.5-0.2-0.8-0.2C666.7,369.2,666.3,369.4,666,369.7z"/>
		<path class="st2" d="M672.6,372.4v0.6H672c-0.4,0-0.8-0.1-1-0.3c-0.2-0.2-0.3-0.6-0.3-1.1v-2.4H670v-0.6h0.7v-1.1h0.7v1.1h1.1v0.6
			h-1.1v2.4c0,0.3,0.1,0.5,0.2,0.6c0.1,0.1,0.3,0.2,0.5,0.2H672.6z"/>
		<path class="st2" d="M673.5,367c0.1-0.1,0.2-0.1,0.4-0.1c0.1,0,0.3,0,0.4,0.1s0.1,0.2,0.1,0.3c0,0.1,0,0.2-0.1,0.3
			c-0.1,0.1-0.2,0.1-0.4,0.1c-0.1,0-0.3,0-0.4-0.1c-0.1-0.1-0.1-0.2-0.1-0.3C673.3,367.2,673.4,367.1,673.5,367z M674.2,368.6v4.4
			h-0.7v-4.4H674.2z"/>
		<path class="st2" d="M678.5,368.8c0.3,0.2,0.6,0.4,0.8,0.8c0.2,0.3,0.3,0.7,0.3,1.2c0,0.5-0.1,0.9-0.3,1.2s-0.5,0.6-0.8,0.8
			s-0.7,0.3-1.1,0.3s-0.8-0.1-1.1-0.3s-0.6-0.4-0.8-0.8s-0.3-0.7-0.3-1.2c0-0.5,0.1-0.9,0.3-1.2c0.2-0.3,0.5-0.6,0.8-0.8
			s0.7-0.3,1.1-0.3S678.2,368.7,678.5,368.8z M676.6,369.4c-0.2,0.1-0.4,0.3-0.5,0.5c-0.1,0.2-0.2,0.5-0.2,0.9
			c0,0.4,0.1,0.6,0.2,0.9c0.1,0.2,0.3,0.4,0.5,0.5c0.2,0.1,0.5,0.2,0.7,0.2s0.5-0.1,0.7-0.2c0.2-0.1,0.4-0.3,0.5-0.5
			c0.1-0.2,0.2-0.5,0.2-0.9c0-0.4-0.1-0.7-0.2-0.9c-0.1-0.2-0.3-0.4-0.5-0.5c-0.2-0.1-0.5-0.2-0.7-0.2S676.9,369.3,676.6,369.4z"/>
		<path class="st2" d="M684.1,369.1c0.3,0.3,0.5,0.8,0.5,1.4v2.6h-0.7v-2.5c0-0.4-0.1-0.8-0.3-1c-0.2-0.2-0.5-0.4-0.9-0.4
			c-0.4,0-0.7,0.1-1,0.4s-0.4,0.6-0.4,1.1v2.3h-0.7v-4.4h0.7v1c0.1-0.4,0.3-0.6,0.6-0.8c0.3-0.2,0.6-0.3,1-0.3
			C683.3,368.6,683.7,368.7,684.1,369.1z"/>
		<path class="st2" d="M688.8,367.8c-0.2,0.1-0.2,0.4-0.2,0.7v0.1h1v0.6h-1v3.8h-0.7v-3.8h-0.6v-0.6h0.6v-0.2c0-1,0.6-1.6,1.8-1.5
			v0.6C689.2,367.6,688.9,367.7,688.8,367.8z"/>
		<path class="st2" d="M693.5,368.8c0.3,0.2,0.6,0.4,0.8,0.8c0.2,0.3,0.3,0.7,0.3,1.2c0,0.5-0.1,0.9-0.3,1.2s-0.5,0.6-0.8,0.8
			s-0.7,0.3-1.1,0.3s-0.8-0.1-1.1-0.3s-0.6-0.4-0.8-0.8s-0.3-0.7-0.3-1.2c0-0.5,0.1-0.9,0.3-1.2c0.2-0.3,0.5-0.6,0.8-0.8
			s0.7-0.3,1.1-0.3S693.2,368.7,693.5,368.8z M691.6,369.4c-0.2,0.1-0.4,0.3-0.5,0.5c-0.1,0.2-0.2,0.5-0.2,0.9
			c0,0.4,0.1,0.6,0.2,0.9c0.1,0.2,0.3,0.4,0.5,0.5c0.2,0.1,0.5,0.2,0.7,0.2s0.5-0.1,0.7-0.2c0.2-0.1,0.4-0.3,0.5-0.5
			c0.1-0.2,0.2-0.5,0.2-0.9c0-0.4-0.1-0.7-0.2-0.9c-0.1-0.2-0.3-0.4-0.5-0.5c-0.2-0.1-0.5-0.2-0.7-0.2S691.9,369.3,691.6,369.4z"/>
		<path class="st2" d="M696.9,368.8c0.3-0.2,0.6-0.3,1-0.3v0.8h-0.2c-0.4,0-0.7,0.1-1,0.3c-0.3,0.2-0.4,0.6-0.4,1v2.3h-0.7v-4.4h0.7
			v0.9C696.4,369.2,696.6,369,696.9,368.8z"/>
		<path class="st2" d="M703.9,372.3c-0.1,0.2-0.3,0.4-0.6,0.6c-0.3,0.1-0.6,0.2-1,0.2c-0.4,0-0.7-0.1-1-0.2
			c-0.3-0.1-0.5-0.3-0.7-0.6c-0.2-0.2-0.3-0.5-0.3-0.8h0.8c0,0.2,0.1,0.3,0.2,0.5c0.1,0.2,0.2,0.3,0.4,0.4c0.2,0.1,0.4,0.1,0.6,0.1
			c0.3,0,0.6-0.1,0.7-0.3s0.3-0.4,0.3-0.7c0-0.2-0.1-0.4-0.2-0.6s-0.3-0.3-0.4-0.3c-0.2-0.1-0.4-0.2-0.7-0.3
			c-0.4-0.1-0.6-0.2-0.9-0.3c-0.2-0.1-0.4-0.3-0.6-0.5s-0.2-0.5-0.2-0.8c0-0.3,0.1-0.6,0.2-0.8c0.1-0.2,0.3-0.4,0.6-0.5
			c0.3-0.1,0.6-0.2,0.9-0.2c0.6,0,1,0.1,1.3,0.4c0.3,0.3,0.5,0.6,0.6,1h-0.8c0-0.2-0.2-0.4-0.3-0.6s-0.4-0.3-0.8-0.3
			c-0.3,0-0.5,0.1-0.7,0.2c-0.2,0.2-0.3,0.4-0.3,0.6c0,0.2,0.1,0.4,0.2,0.5c0.1,0.1,0.3,0.2,0.4,0.3c0.2,0.1,0.4,0.2,0.7,0.3
			c0.4,0.1,0.7,0.2,0.9,0.3c0.2,0.1,0.4,0.3,0.6,0.5c0.2,0.2,0.2,0.5,0.2,0.9C704.1,371.8,704.1,372.1,703.9,372.3z"/>
		<path class="st2" d="M711.7,369.1c0.3,0.3,0.5,0.8,0.5,1.4v2.6h-0.7v-2.5c0-0.4-0.1-0.8-0.3-1c-0.2-0.2-0.5-0.3-0.9-0.3
			c-0.4,0-0.7,0.1-0.9,0.4c-0.2,0.3-0.3,0.6-0.3,1.1v2.3h-0.7v-2.5c0-0.4-0.1-0.8-0.3-1c-0.2-0.2-0.5-0.3-0.9-0.3
			c-0.4,0-0.7,0.1-0.9,0.4c-0.2,0.3-0.3,0.6-0.3,1.1v2.3h-0.7v-4.4h0.7v1c0.1-0.3,0.3-0.6,0.6-0.8c0.3-0.2,0.6-0.3,0.9-0.3
			c0.4,0,0.7,0.1,1,0.3c0.3,0.2,0.5,0.5,0.6,0.8c0.1-0.4,0.3-0.6,0.6-0.8c0.3-0.2,0.6-0.3,1-0.3C711,368.6,711.4,368.7,711.7,369.1z
			"/>
		<path class="st2" d="M716.2,368.9c0.3,0.2,0.5,0.5,0.6,0.9v-1.1h0.7v4.4h-0.7v-1.1c-0.1,0.4-0.3,0.6-0.6,0.9
			c-0.3,0.2-0.7,0.3-1.1,0.3c-0.4,0-0.7-0.1-1-0.3s-0.5-0.4-0.7-0.8c-0.2-0.3-0.3-0.7-0.3-1.2c0-0.5,0.1-0.9,0.3-1.2
			c0.2-0.3,0.4-0.6,0.7-0.8s0.7-0.3,1-0.3C715.6,368.6,715.9,368.7,716.2,368.9z M714.3,369.7c-0.3,0.3-0.4,0.7-0.4,1.2
			c0,0.5,0.1,0.9,0.4,1.2s0.6,0.4,1.1,0.4c0.3,0,0.5-0.1,0.8-0.2c0.2-0.1,0.4-0.3,0.5-0.6c0.1-0.2,0.2-0.5,0.2-0.8
			c0-0.3-0.1-0.6-0.2-0.8s-0.3-0.4-0.5-0.6c-0.2-0.1-0.5-0.2-0.8-0.2C714.9,369.2,714.5,369.4,714.3,369.7z"/>
		<path class="st2" d="M719.5,367.1v5.9h-0.7v-5.9H719.5z"/>
		<path class="st2" d="M721.3,367.1v5.9h-0.7v-5.9H721.3z"/>
		<path class="st2" d="M726.1,369.1c0.3,0.3,0.5,0.8,0.5,1.4v2.6h-0.7v-2.5c0-0.4-0.1-0.8-0.3-1c-0.2-0.2-0.5-0.4-0.9-0.4
			c-0.4,0-0.7,0.1-1,0.4c-0.2,0.3-0.4,0.6-0.4,1.1v2.3h-0.7v-5.9h0.7v2.6c0.1-0.4,0.3-0.6,0.6-0.8c0.3-0.2,0.6-0.3,1-0.3
			C725.3,368.6,725.8,368.7,726.1,369.1z"/>
		<path class="st2" d="M730.8,368.8c0.3,0.2,0.6,0.4,0.8,0.8c0.2,0.3,0.3,0.7,0.3,1.2c0,0.5-0.1,0.9-0.3,1.2
			c-0.2,0.3-0.5,0.6-0.8,0.8c-0.3,0.2-0.7,0.3-1.1,0.3c-0.4,0-0.8-0.1-1.1-0.3c-0.3-0.2-0.6-0.4-0.8-0.8c-0.2-0.3-0.3-0.7-0.3-1.2
			c0-0.5,0.1-0.9,0.3-1.2c0.2-0.3,0.5-0.6,0.8-0.8c0.3-0.2,0.7-0.3,1.1-0.3C730.1,368.6,730.4,368.7,730.8,368.8z M728.9,369.4
			c-0.2,0.1-0.4,0.3-0.5,0.5c-0.1,0.2-0.2,0.5-0.2,0.9c0,0.4,0.1,0.6,0.2,0.9c0.1,0.2,0.3,0.4,0.5,0.5c0.2,0.1,0.5,0.2,0.7,0.2
			c0.3,0,0.5-0.1,0.7-0.2s0.4-0.3,0.5-0.5c0.1-0.2,0.2-0.5,0.2-0.9c0-0.4-0.1-0.7-0.2-0.9c-0.1-0.2-0.3-0.4-0.5-0.5
			s-0.5-0.2-0.7-0.2C729.4,369.2,729.1,369.3,728.9,369.4z"/>
		<path class="st2" d="M733.5,367.1v5.9h-0.7v-5.9H733.5z"/>
		<path class="st2" d="M737.6,368.9c0.3,0.2,0.5,0.5,0.6,0.9v-2.6h0.7v5.9h-0.7v-1.1c-0.1,0.4-0.3,0.6-0.6,0.9
			c-0.3,0.2-0.7,0.3-1.1,0.3c-0.4,0-0.7-0.1-1-0.3c-0.3-0.2-0.5-0.4-0.7-0.8c-0.2-0.3-0.3-0.7-0.3-1.2c0-0.5,0.1-0.9,0.3-1.2
			c0.2-0.3,0.4-0.6,0.7-0.8c0.3-0.2,0.7-0.3,1-0.3C736.9,368.6,737.3,368.7,737.6,368.9z M735.6,369.7c-0.3,0.3-0.4,0.7-0.4,1.2
			c0,0.5,0.1,0.9,0.4,1.2c0.3,0.3,0.6,0.4,1.1,0.4c0.3,0,0.5-0.1,0.8-0.2c0.2-0.1,0.4-0.3,0.5-0.6c0.1-0.2,0.2-0.5,0.2-0.8
			c0-0.3-0.1-0.6-0.2-0.8s-0.3-0.4-0.5-0.6c-0.2-0.1-0.5-0.2-0.8-0.2C736.3,369.2,735.9,369.4,735.6,369.7z"/>
		<path class="st2" d="M744.1,371h-3.5c0,0.5,0.2,0.9,0.4,1.1s0.6,0.4,1,0.4c0.4,0,0.6-0.1,0.9-0.3s0.4-0.4,0.4-0.7h0.8
			c-0.1,0.3-0.2,0.6-0.4,0.8c-0.2,0.2-0.4,0.4-0.7,0.6c-0.3,0.1-0.6,0.2-1,0.2c-0.4,0-0.8-0.1-1.1-0.3c-0.3-0.2-0.6-0.4-0.8-0.8
			c-0.2-0.3-0.3-0.7-0.3-1.2c0-0.5,0.1-0.9,0.3-1.2c0.2-0.3,0.4-0.6,0.8-0.8c0.3-0.2,0.7-0.3,1.1-0.3c0.4,0,0.8,0.1,1.1,0.3
			s0.6,0.4,0.7,0.7c0.2,0.3,0.3,0.6,0.3,1C744.1,370.7,744.1,370.9,744.1,371z M743.2,369.8c-0.1-0.2-0.3-0.4-0.5-0.5
			c-0.2-0.1-0.4-0.2-0.7-0.2c-0.4,0-0.7,0.1-1,0.4c-0.3,0.2-0.4,0.6-0.4,1.1h2.8C743.4,370.3,743.4,370,743.2,369.8z"/>
		<path class="st2" d="M746.4,368.8c0.3-0.2,0.6-0.3,1-0.3v0.8h-0.2c-0.4,0-0.7,0.1-1,0.3c-0.3,0.2-0.4,0.6-0.4,1v2.3h-0.7v-4.4h0.7
			v0.9C746,369.2,746.2,369,746.4,368.8z"/>
		<path class="st2" d="M753.4,371.7H751l-0.5,1.3h-0.8l2.1-5.5h0.8l2.1,5.5h-0.8L753.4,371.7z M753.2,371.2l-1-2.8l-1,2.8H753.2z"/>
		<path class="st2" d="M758.3,368.9c0.3,0.2,0.5,0.5,0.6,0.9v-1.1h0.7v4.5c0,0.4-0.1,0.8-0.3,1.1c-0.2,0.3-0.4,0.6-0.7,0.7
			c-0.3,0.2-0.7,0.3-1.1,0.3c-0.6,0-1.1-0.1-1.4-0.4s-0.6-0.7-0.7-1.2h0.7c0.1,0.3,0.2,0.5,0.5,0.7s0.5,0.3,0.9,0.3
			c0.4,0,0.7-0.1,1-0.4c0.3-0.3,0.4-0.6,0.4-1.1v-1.2c-0.1,0.4-0.3,0.6-0.6,0.9c-0.3,0.2-0.7,0.3-1.1,0.3c-0.4,0-0.7-0.1-1-0.3
			s-0.5-0.4-0.7-0.8c-0.2-0.3-0.3-0.7-0.3-1.2c0-0.5,0.1-0.9,0.3-1.2c0.2-0.3,0.4-0.6,0.7-0.8s0.7-0.3,1-0.3
			C757.7,368.6,758,368.7,758.3,368.9z M756.4,369.7c-0.3,0.3-0.4,0.7-0.4,1.2c0,0.5,0.1,0.9,0.4,1.2s0.6,0.4,1.1,0.4
			c0.3,0,0.5-0.1,0.8-0.2c0.2-0.1,0.4-0.3,0.5-0.6c0.1-0.2,0.2-0.5,0.2-0.8c0-0.3-0.1-0.6-0.2-0.8s-0.3-0.4-0.5-0.6
			c-0.2-0.1-0.5-0.2-0.8-0.2C757,369.2,756.6,369.4,756.4,369.7z"/>
		<path class="st2" d="M762.2,368.8c0.3-0.2,0.6-0.3,1-0.3v0.8h-0.2c-0.4,0-0.7,0.1-1,0.3c-0.3,0.2-0.4,0.6-0.4,1v2.3h-0.7v-4.4h0.7
			v0.9C761.7,369.2,761.9,369,762.2,368.8z"/>
		<path class="st2" d="M763.9,367c0.1-0.1,0.2-0.1,0.4-0.1c0.1,0,0.3,0,0.4,0.1s0.1,0.2,0.1,0.3c0,0.1,0,0.2-0.1,0.3
			c-0.1,0.1-0.2,0.1-0.4,0.1c-0.1,0-0.3,0-0.4-0.1c-0.1-0.1-0.1-0.2-0.1-0.3C763.8,367.2,763.8,367.1,763.9,367z M764.6,368.6v4.4
			h-0.7v-4.4H764.6z"/>
		<path class="st2" d="M769.1,369c0.4,0.3,0.6,0.7,0.7,1.2H769c-0.1-0.3-0.2-0.6-0.4-0.7s-0.5-0.3-0.9-0.3c-0.3,0-0.5,0.1-0.7,0.2
			c-0.2,0.1-0.4,0.3-0.5,0.5c-0.1,0.2-0.2,0.5-0.2,0.9c0,0.4,0.1,0.7,0.2,0.9c0.1,0.2,0.3,0.4,0.5,0.5c0.2,0.1,0.4,0.2,0.7,0.2
			c0.4,0,0.6-0.1,0.9-0.3c0.2-0.2,0.4-0.4,0.4-0.7h0.8c-0.1,0.5-0.3,0.9-0.7,1.2s-0.8,0.4-1.4,0.4c-0.4,0-0.8-0.1-1.1-0.3
			s-0.6-0.4-0.8-0.8c-0.2-0.3-0.3-0.7-0.3-1.2c0-0.5,0.1-0.9,0.3-1.2c0.2-0.3,0.4-0.6,0.8-0.8s0.7-0.3,1.1-0.3
			C768.3,368.6,768.8,368.7,769.1,369z"/>
		<path class="st2" d="M774.7,368.6v4.4h-0.7v-1c-0.1,0.4-0.3,0.6-0.6,0.8s-0.6,0.3-1,0.3c-0.5,0-0.9-0.2-1.2-0.5
			c-0.3-0.3-0.5-0.8-0.5-1.4v-2.6h0.7v2.5c0,0.4,0.1,0.8,0.3,1s0.5,0.4,0.9,0.4c0.4,0,0.7-0.1,1-0.4s0.4-0.6,0.4-1.1v-2.3H774.7z"/>
		<path class="st2" d="M776.6,367.1v5.9h-0.7v-5.9H776.6z"/>
		<path class="st2" d="M779.8,372.4v0.6h-0.5c-0.4,0-0.8-0.1-1-0.3c-0.2-0.2-0.3-0.6-0.3-1.1v-2.4h-0.7v-0.6h0.7v-1.1h0.7v1.1h1.1
			v0.6h-1.1v2.4c0,0.3,0.1,0.5,0.2,0.6c0.1,0.1,0.3,0.2,0.5,0.2H779.8z"/>
		<path class="st2" d="M784.6,368.6v4.4h-0.7v-1c-0.1,0.4-0.3,0.6-0.6,0.8c-0.3,0.2-0.6,0.3-1,0.3c-0.5,0-0.9-0.2-1.2-0.5
			s-0.5-0.8-0.5-1.4v-2.6h0.7v2.5c0,0.4,0.1,0.8,0.3,1c0.2,0.2,0.5,0.4,0.9,0.4c0.4,0,0.7-0.1,1-0.4c0.2-0.3,0.4-0.6,0.4-1.1v-2.3
			H784.6z"/>
		<path class="st2" d="M787.1,368.8c0.3-0.2,0.6-0.3,1-0.3v0.8h-0.2c-0.4,0-0.7,0.1-1,0.3c-0.3,0.2-0.4,0.6-0.4,1v2.3h-0.7v-4.4h0.7
			v0.9C786.6,369.2,786.9,369,787.1,368.8z"/>
		<path class="st2" d="M792.9,371h-3.5c0,0.5,0.2,0.9,0.4,1.1c0.3,0.3,0.6,0.4,1,0.4c0.4,0,0.6-0.1,0.9-0.3s0.4-0.4,0.4-0.7h0.8
			c-0.1,0.3-0.2,0.6-0.4,0.8c-0.2,0.2-0.4,0.4-0.7,0.6c-0.3,0.1-0.6,0.2-1,0.2c-0.4,0-0.8-0.1-1.1-0.3s-0.6-0.4-0.8-0.8
			c-0.2-0.3-0.3-0.7-0.3-1.2c0-0.5,0.1-0.9,0.3-1.2c0.2-0.3,0.4-0.6,0.8-0.8s0.7-0.3,1.1-0.3c0.4,0,0.8,0.1,1.1,0.3s0.6,0.4,0.7,0.7
			c0.2,0.3,0.3,0.6,0.3,1C792.9,370.7,792.9,370.9,792.9,371z M792,369.8c-0.1-0.2-0.3-0.4-0.5-0.5c-0.2-0.1-0.4-0.2-0.7-0.2
			c-0.4,0-0.7,0.1-1,0.4c-0.3,0.2-0.4,0.6-0.4,1.1h2.8C792.2,370.3,792.1,370,792,369.8z"/>
		<path class="st2" d="M796.5,370.8v2.3h-0.7v-5.6h1.8c0.6,0,1.1,0.2,1.4,0.5c0.3,0.3,0.5,0.7,0.5,1.2c0,0.5-0.2,0.9-0.5,1.2
			c-0.3,0.3-0.8,0.4-1.4,0.4H796.5z M798.5,369.9c0.2-0.2,0.3-0.5,0.3-0.8c0-0.4-0.1-0.6-0.3-0.8c-0.2-0.2-0.5-0.3-1-0.3h-1v2.2h1
			C798,370.1,798.3,370.1,798.5,369.9z"/>
		<path class="st2" d="M801.7,368.8c0.3-0.2,0.6-0.3,1-0.3v0.8h-0.2c-0.4,0-0.7,0.1-1,0.3c-0.3,0.2-0.4,0.6-0.4,1v2.3h-0.7v-4.4h0.7
			v0.9C801.3,369.2,801.5,369,801.7,368.8z"/>
		<path class="st2" d="M806.6,368.8c0.3,0.2,0.6,0.4,0.8,0.8c0.2,0.3,0.3,0.7,0.3,1.2c0,0.5-0.1,0.9-0.3,1.2s-0.5,0.6-0.8,0.8
			s-0.7,0.3-1.1,0.3s-0.8-0.1-1.1-0.3s-0.6-0.4-0.8-0.8s-0.3-0.7-0.3-1.2c0-0.5,0.1-0.9,0.3-1.2c0.2-0.3,0.5-0.6,0.8-0.8
			s0.7-0.3,1.1-0.3S806.2,368.7,806.6,368.8z M804.7,369.4c-0.2,0.1-0.4,0.3-0.5,0.5c-0.1,0.2-0.2,0.5-0.2,0.9
			c0,0.4,0.1,0.6,0.2,0.9c0.1,0.2,0.3,0.4,0.5,0.5c0.2,0.1,0.5,0.2,0.7,0.2s0.5-0.1,0.7-0.2c0.2-0.1,0.4-0.3,0.5-0.5
			c0.1-0.2,0.2-0.5,0.2-0.9c0-0.4-0.1-0.7-0.2-0.9c-0.1-0.2-0.3-0.4-0.5-0.5c-0.2-0.1-0.5-0.2-0.7-0.2S804.9,369.3,804.7,369.4z"/>
		<path class="st2" d="M811.5,368.9c0.3,0.2,0.5,0.5,0.6,0.9v-1.1h0.7v4.5c0,0.4-0.1,0.8-0.3,1.1c-0.2,0.3-0.4,0.6-0.7,0.7
			c-0.3,0.2-0.7,0.3-1.1,0.3c-0.6,0-1.1-0.1-1.4-0.4s-0.6-0.7-0.7-1.2h0.7c0.1,0.3,0.2,0.5,0.5,0.7s0.5,0.3,0.9,0.3
			c0.4,0,0.7-0.1,1-0.4c0.3-0.3,0.4-0.6,0.4-1.1v-1.2c-0.1,0.4-0.3,0.6-0.6,0.9c-0.3,0.2-0.7,0.3-1.1,0.3c-0.4,0-0.7-0.1-1-0.3
			s-0.5-0.4-0.7-0.8c-0.2-0.3-0.3-0.7-0.3-1.2c0-0.5,0.1-0.9,0.3-1.2c0.2-0.3,0.4-0.6,0.7-0.8s0.7-0.3,1-0.3
			C810.8,368.6,811.2,368.7,811.5,368.9z M809.5,369.7c-0.3,0.3-0.4,0.7-0.4,1.2c0,0.5,0.1,0.9,0.4,1.2s0.6,0.4,1.1,0.4
			c0.3,0,0.5-0.1,0.8-0.2c0.2-0.1,0.4-0.3,0.5-0.6c0.1-0.2,0.2-0.5,0.2-0.8c0-0.3-0.1-0.6-0.2-0.8s-0.3-0.4-0.5-0.6
			c-0.2-0.1-0.5-0.2-0.8-0.2C810.2,369.2,809.8,369.4,809.5,369.7z"/>
		<path class="st2" d="M815.4,368.8c0.3-0.2,0.6-0.3,1-0.3v0.8h-0.2c-0.4,0-0.7,0.1-1,0.3c-0.3,0.2-0.4,0.6-0.4,1v2.3H814v-4.4h0.7
			v0.9C814.9,369.2,815.1,369,815.4,368.8z"/>
		<path class="st2" d="M819.9,368.9c0.3,0.2,0.5,0.5,0.6,0.9v-1.1h0.7v4.4h-0.7v-1.1c-0.1,0.4-0.3,0.6-0.6,0.9
			c-0.3,0.2-0.7,0.3-1.1,0.3c-0.4,0-0.7-0.1-1-0.3s-0.5-0.4-0.7-0.8c-0.2-0.3-0.3-0.7-0.3-1.2c0-0.5,0.1-0.9,0.3-1.2
			c0.2-0.3,0.4-0.6,0.7-0.8s0.7-0.3,1-0.3C819.3,368.6,819.7,368.7,819.9,368.9z M818,369.7c-0.3,0.3-0.4,0.7-0.4,1.2
			c0,0.5,0.1,0.9,0.4,1.2s0.6,0.4,1.1,0.4c0.3,0,0.5-0.1,0.8-0.2c0.2-0.1,0.4-0.3,0.5-0.6c0.1-0.2,0.2-0.5,0.2-0.8
			c0-0.3-0.1-0.6-0.2-0.8s-0.3-0.4-0.5-0.6c-0.2-0.1-0.5-0.2-0.8-0.2C818.6,369.2,818.3,369.4,818,369.7z"/>
		<path class="st2" d="M829.1,369.1c0.3,0.3,0.5,0.8,0.5,1.4v2.6h-0.7v-2.5c0-0.4-0.1-0.8-0.3-1c-0.2-0.2-0.5-0.3-0.9-0.3
			c-0.4,0-0.7,0.1-0.9,0.4c-0.2,0.3-0.3,0.6-0.3,1.1v2.3h-0.7v-2.5c0-0.4-0.1-0.8-0.3-1c-0.2-0.2-0.5-0.3-0.9-0.3
			c-0.4,0-0.7,0.1-0.9,0.4c-0.2,0.3-0.3,0.6-0.3,1.1v2.3h-0.7v-4.4h0.7v1c0.1-0.3,0.3-0.6,0.6-0.8c0.3-0.2,0.6-0.3,0.9-0.3
			c0.4,0,0.7,0.1,1,0.3c0.3,0.2,0.5,0.5,0.6,0.8c0.1-0.4,0.3-0.6,0.6-0.8c0.3-0.2,0.6-0.3,1-0.3
			C828.4,368.6,828.8,368.7,829.1,369.1z"/>
		<path class="st2" d="M837.3,369.1c0.3,0.3,0.5,0.8,0.5,1.4v2.6h-0.7v-2.5c0-0.4-0.1-0.8-0.3-1c-0.2-0.2-0.5-0.3-0.9-0.3
			c-0.4,0-0.7,0.1-0.9,0.4c-0.2,0.3-0.3,0.6-0.3,1.1v2.3h-0.7v-2.5c0-0.4-0.1-0.8-0.3-1c-0.2-0.2-0.5-0.3-0.9-0.3
			c-0.4,0-0.7,0.1-0.9,0.4c-0.2,0.3-0.3,0.6-0.3,1.1v2.3h-0.7v-4.4h0.7v1c0.1-0.3,0.3-0.6,0.6-0.8c0.3-0.2,0.6-0.3,0.9-0.3
			c0.4,0,0.7,0.1,1,0.3s0.5,0.5,0.6,0.8c0.1-0.4,0.3-0.6,0.6-0.8s0.6-0.3,1-0.3C836.6,368.6,837,368.7,837.3,369.1z"/>
		<path class="st2" d="M842.9,371h-3.5c0,0.5,0.2,0.9,0.4,1.1c0.3,0.3,0.6,0.4,1,0.4c0.4,0,0.6-0.1,0.9-0.3s0.4-0.4,0.4-0.7h0.8
			c-0.1,0.3-0.2,0.6-0.4,0.8c-0.2,0.2-0.4,0.4-0.7,0.6c-0.3,0.1-0.6,0.2-1,0.2c-0.4,0-0.8-0.1-1.1-0.3s-0.6-0.4-0.8-0.8
			c-0.2-0.3-0.3-0.7-0.3-1.2c0-0.5,0.1-0.9,0.3-1.2c0.2-0.3,0.4-0.6,0.8-0.8s0.7-0.3,1.1-0.3c0.4,0,0.8,0.1,1.1,0.3s0.6,0.4,0.7,0.7
			c0.2,0.3,0.3,0.6,0.3,1C843,370.7,843,370.9,842.9,371z M842.1,369.8c-0.1-0.2-0.3-0.4-0.5-0.5c-0.2-0.1-0.4-0.2-0.7-0.2
			c-0.4,0-0.7,0.1-1,0.4c-0.3,0.2-0.4,0.6-0.4,1.1h2.8C842.2,370.3,842.2,370,842.1,369.8z"/>
	</g>
</g>
</svg>
