<?xml version="1.0" encoding="utf-8"?>
<!-- Generator: Adobe Illustrator 22.1.0, SVG Export Plug-In . SVG Version: 6.00 Build 0)  -->
<svg version="1.1" id="Livello_1" xmlns="http://www.w3.org/2000/svg" xmlns:xlink="http://www.w3.org/1999/xlink" x="0px" y="0px"
	 viewBox="0 0 1280 800" style="enable-background:new 0 0 1280 800;" xml:space="preserve">
<style type="text/css">
	.st0{fill:#EDEDED;}
	.st1{fill:#FF475C;}
	.st2{opacity:0.2;fill:#F5F5F5;enable-background:new    ;}
	.st3{opacity:0.3;fill:#FF475C;enable-background:new    ;}
	.st4{fill:#F5F5F5;}
	.st5{fill:#FF4A60;}
</style>
<g>
	<g>
		<path class="st0" d="M864.8,85.7c1-0.8,2.3-1.2,3.8-1.2s2.8,0.4,3.7,1.2c0.9,0.8,1.4,1.8,1.4,3.1c0,0.9-0.2,1.7-0.7,2.4
			c-0.5,0.7-1.1,1.1-1.8,1.3v0.1c0.9,0.3,1.6,0.8,2.1,1.5s0.7,1.7,0.7,2.9c0,1.2-0.5,2.3-1.4,3.2c-0.9,0.9-2.2,1.3-3.9,1.3
			s-3-0.4-4.1-1.3c-1.1-0.8-1.6-2-1.7-3.6h2.5c0.1,0.8,0.4,1.5,0.9,2c0.6,0.5,1.3,0.8,2.2,0.8s1.7-0.3,2.2-0.8s0.7-1.2,0.7-2
			c0-1.1-0.3-1.8-1-2.3c-0.7-0.4-1.7-0.7-3.1-0.7h-0.6v-2.1h0.6c2.5,0,3.8-0.9,3.8-2.5c0-0.7-0.2-1.3-0.7-1.7
			c-0.5-0.4-1.1-0.6-2-0.6s-1.5,0.2-2,0.6s-0.7,1-0.8,1.6h-2.5C863.2,87.5,863.8,86.4,864.8,85.7z"/>
		<path class="st0" d="M882.8,85.7c1-0.8,2.3-1.2,3.8-1.2c1.6,0,2.8,0.4,3.7,1.2c0.9,0.8,1.4,1.8,1.4,3.1c0,0.9-0.3,1.7-0.8,2.4
			c-0.5,0.7-1.1,1.1-1.8,1.3v0.1c0.9,0.3,1.6,0.8,2.1,1.5s0.7,1.7,0.7,2.9c0,1.2-0.5,2.3-1.4,3.2c-0.9,0.9-2.2,1.3-3.9,1.3
			s-3-0.4-4.1-1.3c-1.1-0.8-1.6-2-1.7-3.6h2.5c0.1,0.8,0.4,1.5,0.9,2c0.6,0.5,1.3,0.8,2.2,0.8s1.7-0.3,2.2-0.8s0.8-1.2,0.8-2
			c0-1.1-0.3-1.8-1-2.3c-0.7-0.4-1.7-0.7-3.1-0.7h-0.6v-2.1h0.6c2.5,0,3.8-0.9,3.8-2.5c0-0.7-0.2-1.3-0.7-1.7
			c-0.5-0.4-1.1-0.6-2-0.6s-1.5,0.2-2,0.6s-0.7,1-0.8,1.6h-2.5C881.3,87.5,881.8,86.4,882.8,85.7z"/>
		<path class="st0" d="M905.4,86.6c-1.2,0-2.1,0.5-2.7,1.4c-0.6,0.9-0.9,2.4-0.9,4.6c0.4-0.7,1-1.2,1.7-1.5s1.6-0.5,2.5-0.5
			c1.5,0,2.7,0.5,3.7,1.5c0.9,1,1.4,2.3,1.4,3.9c0,1.7-0.5,3-1.4,4c-1,1-2.3,1.5-4,1.5c-2.3,0-4-0.8-4.8-2.4c-0.5-0.8-0.8-1.7-1-2.7
			s-0.3-2.2-0.3-3.6c0-5.5,2-8.3,5.9-8.3c1.5,0,2.7,0.4,3.6,1.2c0.9,0.8,1.4,1.8,1.5,3h-2.4C907.8,87.3,906.9,86.6,905.4,86.6z
			 M908.6,96c0-1-0.3-1.8-0.8-2.4s-1.3-0.9-2.3-0.9s-1.8,0.3-2.4,0.8c-0.6,0.6-1,1.4-1,2.4s0.3,1.9,0.9,2.5c0.6,0.6,1.4,0.9,2.4,0.9
			s1.8-0.3,2.3-0.9C908.3,97.8,908.6,97,908.6,96z"/>
		<path class="st0" d="M919.9,85.7c1-0.8,2.3-1.2,3.8-1.2c1.6,0,2.8,0.4,3.7,1.2c0.9,0.8,1.4,1.8,1.4,3.1c0,0.9-0.3,1.7-0.8,2.4
			c-0.5,0.7-1.1,1.1-1.8,1.3v0.1c0.9,0.3,1.6,0.8,2.1,1.5s0.7,1.7,0.7,2.9c0,1.2-0.5,2.3-1.4,3.2c-0.9,0.9-2.2,1.3-3.9,1.3
			s-3-0.4-4.1-1.3c-1.1-0.8-1.6-2-1.7-3.6h2.5c0.1,0.8,0.4,1.5,0.9,2c0.6,0.5,1.3,0.8,2.2,0.8s1.7-0.3,2.2-0.8s0.8-1.2,0.8-2
			c0-1.1-0.3-1.8-1-2.3c-0.7-0.4-1.7-0.7-3.1-0.7H922v-2.1h0.6c2.5,0,3.8-0.9,3.8-2.5c0-0.7-0.2-1.3-0.7-1.7c-0.5-0.4-1.1-0.6-2-0.6
			s-1.5,0.2-2,0.6s-0.7,1-0.8,1.6h-2.5C918.4,87.5,918.9,86.4,919.9,85.7z"/>
		<path class="st0" d="M958.7,96.9c0,1.2-0.4,2.2-1.3,3.1c-0.9,0.9-2,1.4-3.5,1.5v1.8h-1.3v-1.8c-1.5-0.1-2.6-0.5-3.5-1.3
			s-1.3-1.8-1.3-3h2.8c0.1,1.3,0.8,2,2.1,2.2v-5c-1.4-0.3-2.3-0.6-2.9-1c-0.7-0.4-1.1-0.8-1.4-1.3c-0.4-0.6-0.5-1.4-0.5-2.2
			c0-1.3,0.4-2.3,1.3-3.2c0.9-0.8,2.1-1.3,3.5-1.4v-1.8h1.3v1.8c1.4,0.1,2.5,0.5,3.3,1.2s1.3,1.7,1.4,3h-2.8c0-0.5-0.2-0.9-0.6-1.3
			c-0.3-0.4-0.8-0.6-1.3-0.7v4.9c1.4,0.3,2.4,0.6,2.9,0.9c0.7,0.4,1.2,0.8,1.3,1.2C958.5,95.3,958.7,96.1,958.7,96.9z M951,88.3
			c-0.4,0.4-0.6,0.9-0.6,1.6s0.2,1.2,0.6,1.5c0.4,0.3,0.9,0.6,1.6,0.8v-4.6C951.9,87.7,951.4,87.9,951,88.3z M955.5,98.6
			c0.4-0.4,0.6-1,0.6-1.6s-0.2-1.1-0.6-1.4c-0.4-0.3-0.9-0.6-1.6-0.8v4.7C954.6,99.3,955.1,99.1,955.5,98.6z"/>
		<path class="st0" d="M981.3,88.9v2c0.8-1.5,2.2-2.2,4-2.2c1,0,1.8,0.2,2.6,0.7s1.3,1.1,1.7,2c0.4-0.8,1-1.5,1.8-2s1.7-0.7,2.6-0.7
			c1.4,0,2.6,0.5,3.5,1.4s1.4,2.2,1.4,3.9v7.4h-2.6v-7c0-1.1-0.3-2-0.8-2.6c-0.6-0.6-1.3-0.9-2.3-0.9s-1.7,0.3-2.3,0.9
			s-0.8,1.5-0.8,2.6v7h-2.6v-7c0-1.1-0.3-2-0.8-2.6c-0.6-0.6-1.3-0.9-2.3-0.9s-1.7,0.3-2.3,0.9s-0.9,1.5-0.9,2.6v7h-2.6V88.9H981.3z
			"/>
		<path class="st0" d="M1006.8,101.4V84.6h2.6v16.8C1009.4,101.4,1006.8,101.4,1006.8,101.4z"/>
		<path class="st0" d="M1019.9,88.9v2c0.8-1.5,2.2-2.2,4-2.2c1.4,0,2.6,0.5,3.5,1.4s1.4,2.2,1.4,3.9v7.4h-2.6v-7
			c0-1.1-0.3-2-0.8-2.6c-0.6-0.6-1.3-0.9-2.3-0.9c-1,0-1.7,0.3-2.3,0.9s-0.9,1.5-0.9,2.6v7h-2.6V88.9H1019.9z"/>
	</g>
</g>
<g>
	<g>
		<path class="st1" d="M864.8,213c1-0.8,2.3-1.2,3.8-1.2s2.8,0.4,3.7,1.2s1.4,1.8,1.4,3.1c0,0.9-0.2,1.7-0.7,2.4s-1.1,1.1-1.8,1.3
			v0.1c0.9,0.3,1.6,0.8,2.1,1.5s0.7,1.7,0.7,2.9s-0.5,2.3-1.4,3.2s-2.2,1.3-3.9,1.3s-3-0.4-4.1-1.3c-1.1-0.8-1.6-2-1.7-3.6h2.5
			c0.1,0.8,0.4,1.5,0.9,2c0.6,0.5,1.3,0.8,2.2,0.8s1.7-0.3,2.2-0.8s0.7-1.2,0.7-2c0-1.1-0.3-1.8-1-2.3c-0.7-0.4-1.7-0.7-3.1-0.7
			h-0.6v-2.1h0.6c2.5,0,3.8-0.9,3.8-2.5c0-0.7-0.2-1.3-0.7-1.7s-1.1-0.6-2-0.6s-1.5,0.2-2,0.6c-0.5,0.4-0.7,1-0.8,1.6h-2.5
			C863.2,214.9,863.8,213.8,864.8,213z"/>
		<path class="st1" d="M882.8,213c1-0.8,2.3-1.2,3.8-1.2c1.6,0,2.8,0.4,3.7,1.2s1.4,1.8,1.4,3.1c0,0.9-0.3,1.7-0.8,2.4
			s-1.1,1.1-1.8,1.3v0.1c0.9,0.3,1.6,0.8,2.1,1.5s0.7,1.7,0.7,2.9s-0.5,2.3-1.4,3.2s-2.2,1.3-3.9,1.3s-3-0.4-4.1-1.3
			c-1.1-0.8-1.6-2-1.7-3.6h2.5c0.1,0.8,0.4,1.5,0.9,2c0.6,0.5,1.3,0.8,2.2,0.8s1.7-0.3,2.2-0.8s0.8-1.2,0.8-2c0-1.1-0.3-1.8-1-2.3
			c-0.7-0.4-1.7-0.7-3.1-0.7h-0.6v-2.1h0.6c2.5,0,3.8-0.9,3.8-2.5c0-0.7-0.2-1.3-0.7-1.7s-1.1-0.6-2-0.6s-1.5,0.2-2,0.6
			c-0.5,0.4-0.7,1-0.8,1.6h-2.5C881.3,214.9,881.8,213.8,882.8,213z"/>
		<path class="st1" d="M901,228.8V215h-2.1v-2.4h4.7v16.1L901,228.8L901,228.8z"/>
		<path class="st1" d="M919.6,228.8v-3.4h-8.2v-2l7.6-10.9h3.1v10.6h2.1v2.2h-2.1v3.4L919.6,228.8L919.6,228.8z M919.7,223.1v-8
			l-5.4,8H919.7z"/>
		<path class="st1" d="M953.3,224.3c0,1.2-0.4,2.2-1.3,3.1c-0.9,0.9-2,1.4-3.5,1.5v1.8h-1.3v-1.8c-1.5-0.1-2.6-0.5-3.5-1.3
			s-1.3-1.8-1.3-3h2.8c0.1,1.3,0.8,2,2.1,2.2v-5c-1.4-0.3-2.3-0.6-2.9-1c-0.7-0.4-1.2-0.8-1.4-1.3c-0.4-0.6-0.5-1.4-0.5-2.2
			c0-1.3,0.4-2.3,1.3-3.2c0.9-0.8,2.1-1.3,3.5-1.4V211h1.3v1.8c1.4,0.1,2.5,0.5,3.3,1.2s1.3,1.7,1.4,3h-2.8c0-0.5-0.2-0.9-0.6-1.3
			c-0.3-0.4-0.8-0.6-1.3-0.7v4.9c1.4,0.3,2.4,0.6,2.9,0.9c0.7,0.4,1.2,0.8,1.3,1.2C953.1,222.7,953.3,223.5,953.3,224.3z
			 M945.5,215.7c-0.4,0.4-0.6,0.9-0.6,1.6c0,0.7,0.2,1.2,0.6,1.5c0.4,0.3,0.9,0.6,1.6,0.8V215C946.5,215,945.9,215.3,945.5,215.7z
			 M950.1,226c0.4-0.4,0.6-1,0.6-1.6s-0.2-1.1-0.6-1.4c-0.4-0.3-0.9-0.6-1.6-0.8v4.7C949.1,226.7,949.7,226.4,950.1,226z"/>
		<path class="st1" d="M975.9,216.3v2c0.8-1.5,2.2-2.2,4-2.2c1,0,1.8,0.2,2.6,0.7s1.3,1.1,1.7,2c0.4-0.8,1-1.5,1.8-2
			s1.7-0.7,2.6-0.7c1.4,0,2.6,0.5,3.5,1.4s1.4,2.2,1.4,3.9v7.4H991v-7c0-1.1-0.3-2-0.8-2.6c-0.6-0.6-1.3-0.9-2.3-0.9
			s-1.7,0.3-2.3,0.9c-0.6,0.6-0.8,1.5-0.8,2.6v7h-2.6v-7c0-1.1-0.3-2-0.8-2.6c-0.6-0.6-1.3-0.9-2.3-0.9s-1.7,0.3-2.3,0.9
			c-0.6,0.6-0.9,1.5-0.9,2.6v7h-2.6v-12.5L975.9,216.3L975.9,216.3z"/>
		<path class="st1" d="M1001.4,228.8V212h2.6v16.8H1001.4z"/>
		<path class="st1" d="M1014.5,216.3v2c0.8-1.5,2.2-2.2,4-2.2c1.4,0,2.6,0.5,3.5,1.4s1.4,2.2,1.4,3.9v7.4h-2.6v-7
			c0-1.1-0.3-2-0.8-2.6c-0.6-0.6-1.3-0.9-2.3-0.9s-1.7,0.3-2.3,0.9c-0.6,0.6-0.9,1.5-0.9,2.6v7h-2.6v-12.5L1014.5,216.3
			L1014.5,216.3z"/>
	</g>
</g>
<g>
	<g>
		<path class="st1" d="M863,471.1v-1.9c0.4-0.3,0.9-0.8,1.7-1.4c0.7-0.6,1.3-1.1,1.7-1.4s0.9-0.8,1.4-1.3c0.6-0.5,1-1,1.3-1.4
			s0.6-0.8,1-1.3c0.6-0.9,0.9-1.8,0.9-2.6c0-1.9-0.9-2.8-2.7-2.8c-0.9,0-1.6,0.3-2.1,0.9s-0.8,1.3-0.8,2.3H863c0-1.7,0.6-3,1.6-4
			c1-0.9,2.3-1.4,3.9-1.4s2.8,0.4,3.8,1.3c0.9,0.9,1.4,2.1,1.4,3.5c0,1.1-0.3,2.2-0.9,3.2c-0.3,0.5-0.6,1-0.9,1.4
			c-0.3,0.4-0.7,0.9-1.2,1.4s-0.9,0.9-1.2,1.2c-0.3,0.3-0.7,0.7-1.3,1.2s-1,0.9-1.2,1.1h7.2v2.2H863V471.1z"/>
		<path class="st1" d="M880.4,454.9h10.9v1.9l-6.3,14.5h-2.8l6.6-14.3h-8.4V454.9z"/>
		<path class="st1" d="M904.2,456.5c-1.2,0-2.1,0.5-2.7,1.4c-0.6,0.9-0.9,2.4-0.9,4.6c0.4-0.7,1-1.2,1.7-1.5
			c0.8-0.4,1.6-0.5,2.4-0.5c1.5,0,2.7,0.5,3.7,1.5c0.9,1,1.4,2.3,1.4,3.9c0,1.7-0.5,3-1.4,4c-1,1-2.3,1.5-4,1.5
			c-2.3,0-4-0.8-4.8-2.4c-0.5-0.8-0.8-1.7-1-2.7s-0.3-2.2-0.3-3.6c0-5.5,2-8.3,5.9-8.3c1.5,0,2.7,0.4,3.6,1.2c0.9,0.8,1.4,1.8,1.5,3
			H907C906.6,457.2,905.7,456.5,904.2,456.5z M907.4,465.9c0-1-0.3-1.8-0.8-2.4s-1.3-0.9-2.3-0.9s-1.8,0.3-2.4,0.8
			c-0.6,0.6-1,1.4-1,2.4s0.3,1.9,0.9,2.5c0.6,0.6,1.4,0.9,2.4,0.9s1.8-0.3,2.4-0.9C907.1,467.7,907.4,466.9,907.4,465.9z"/>
		<path class="st1" d="M925.1,471.3v-3.4h-8.2v-2l7.6-10.9h3.1v10.6h2.1v2.2h-2.1v3.4L925.1,471.3L925.1,471.3z M925.2,465.6v-8
			l-5.4,8H925.2z"/>
		<path class="st1" d="M958.7,466.8c0,1.2-0.4,2.2-1.3,3.1c-0.9,0.9-2,1.4-3.5,1.5v1.8h-1.3v-1.8c-1.5-0.1-2.6-0.5-3.5-1.3
			s-1.3-1.8-1.3-3h2.8c0.1,1.3,0.8,2,2.1,2.2v-5c-1.4-0.3-2.3-0.6-2.9-1c-0.7-0.4-1.2-0.8-1.4-1.3c-0.4-0.6-0.5-1.4-0.5-2.2
			c0-1.3,0.4-2.3,1.3-3.2c0.9-0.8,2.1-1.3,3.5-1.4v-1.8h1.3v1.8c1.4,0.1,2.5,0.5,3.3,1.2s1.3,1.7,1.4,3h-2.8c0-0.5-0.2-0.9-0.6-1.3
			c-0.3-0.4-0.8-0.6-1.3-0.7v4.9c1.4,0.3,2.4,0.6,2.9,0.9c0.7,0.4,1.2,0.8,1.3,1.2C958.5,465.3,958.7,466,958.7,466.8z M951,458.2
			c-0.4,0.4-0.6,0.9-0.6,1.6s0.2,1.2,0.6,1.5c0.4,0.3,0.9,0.6,1.6,0.8v-4.6C951.9,457.6,951.4,457.8,951,458.2z M955.5,468.6
			c0.4-0.4,0.6-1,0.6-1.6s-0.2-1.1-0.6-1.4c-0.4-0.3-0.9-0.6-1.6-0.8v4.7C954.6,469.3,955.2,469,955.5,468.6z"/>
		<path class="st1" d="M981.3,458.8v2c0.8-1.5,2.2-2.2,4-2.2c1,0,1.8,0.2,2.6,0.7s1.3,1.1,1.7,2c0.4-0.8,1-1.5,1.8-2
			s1.7-0.7,2.6-0.7c1.4,0,2.6,0.5,3.5,1.4s1.4,2.2,1.4,3.9v7.4h-2.6v-7c0-1.1-0.3-2-0.8-2.6c-0.6-0.6-1.3-0.9-2.3-0.9
			s-1.7,0.3-2.3,0.9s-0.8,1.5-0.8,2.6v7h-2.6v-7c0-1.1-0.3-2-0.8-2.6c-0.6-0.6-1.3-0.9-2.3-0.9s-1.7,0.3-2.3,0.9s-0.9,1.5-0.9,2.6v7
			h-2.6v-12.5L981.3,458.8L981.3,458.8z"/>
		<path class="st1" d="M1006.9,471.3v-16.8h2.6v16.8H1006.9z"/>
		<path class="st1" d="M1020,458.8v2c0.8-1.5,2.2-2.2,4-2.2c1.4,0,2.6,0.5,3.5,1.4s1.4,2.2,1.4,3.9v7.4h-2.6v-7c0-1.1-0.3-2-0.8-2.6
			s-1.3-0.9-2.3-0.9s-1.7,0.3-2.3,0.9s-0.9,1.5-0.9,2.6v7h-2.6v-12.5L1020,458.8L1020,458.8z"/>
	</g>
</g>
<g>
	<g>
		<path class="st0" d="M863.6,748.5c0-1.3,0.5-2.3,1.4-3.2s2.3-1.3,4-1.3s3.1,0.4,4,1.3c0.9,0.9,1.4,1.9,1.4,3.2
			c0,0.8-0.2,1.6-0.6,2.2c-0.4,0.6-1,1.1-1.7,1.5c0.9,0.3,1.5,0.9,2,1.6c0.5,0.7,0.7,1.6,0.7,2.6c0,1.5-0.5,2.8-1.6,3.7
			s-2.5,1.4-4.2,1.4s-3.1-0.5-4.2-1.4c-1.1-0.9-1.6-2.2-1.6-3.7c0-1,0.2-1.9,0.7-2.6c0.5-0.7,1.2-1.2,2-1.6
			C864.4,751.5,863.6,750.2,863.6,748.5z M872.4,756.3c0-0.9-0.3-1.6-0.9-2.2c-0.6-0.5-1.4-0.8-2.4-0.8s-1.8,0.2-2.5,0.7
			c-0.6,0.5-0.9,1.2-0.9,2.2c0,0.9,0.3,1.7,0.9,2.2c0.6,0.6,1.4,0.8,2.5,0.8c1,0,1.9-0.3,2.5-0.8C872.1,758,872.4,757.2,872.4,756.3
			z M872,748.8c0-0.8-0.3-1.4-0.8-1.9s-1.3-0.7-2.2-0.7s-1.6,0.2-2.2,0.7c-0.5,0.5-0.8,1.1-0.8,1.9c0,0.8,0.3,1.5,0.8,1.9
			c0.6,0.5,1.3,0.7,2.1,0.7s1.6-0.2,2.1-0.7C871.8,750.2,872,749.6,872,748.8z"/>
		<path class="st0" d="M888.4,758.9c1.1,0,1.9-0.4,2.4-1.3c0.5-0.8,0.7-2.3,0.7-4.3c-0.4,0.5-0.9,0.9-1.5,1.2
			c-0.7,0.3-1.4,0.4-2.1,0.4c-1.5,0-2.8-0.5-3.8-1.4s-1.5-2.2-1.5-3.9s0.5-3,1.5-4s2.3-1.5,4-1.5c2.1,0,3.5,0.7,4.4,2.1
			c0.9,1.4,1.3,3.5,1.3,6.4s-0.4,5-1.2,6.4s-2.2,2.1-4.3,2.1c-1.6,0-2.9-0.4-3.7-1.3c-0.9-0.8-1.4-1.9-1.5-3.2h2.4
			C885.7,758.2,886.7,758.9,888.4,758.9z M885.1,749.6c0,0.9,0.3,1.7,0.8,2.3s1.3,0.9,2.3,0.9s1.8-0.3,2.3-0.9
			c0.5-0.6,0.8-1.3,0.8-2.3s-0.3-1.8-0.8-2.4c-0.6-0.6-1.3-0.9-2.3-0.9s-1.7,0.3-2.3,0.9C885.4,747.8,885.1,748.6,885.1,749.6z"/>
		<path class="st0" d="M901.6,748.5c0-1.3,0.5-2.3,1.4-3.2s2.3-1.3,4-1.3s3.1,0.4,4,1.3c0.9,0.9,1.4,1.9,1.4,3.2
			c0,0.8-0.2,1.6-0.6,2.2c-0.4,0.6-1,1.1-1.7,1.5c0.9,0.3,1.5,0.9,2,1.6c0.5,0.7,0.7,1.6,0.7,2.6c0,1.5-0.5,2.8-1.6,3.7
			s-2.5,1.4-4.2,1.4s-3.1-0.5-4.2-1.4c-1.1-0.9-1.6-2.2-1.6-3.7c0-1,0.2-1.9,0.7-2.6c0.5-0.7,1.2-1.2,2-1.6
			C902.4,751.5,901.6,750.2,901.6,748.5z M910.4,756.3c0-0.9-0.3-1.6-0.9-2.2s-1.4-0.8-2.4-0.8s-1.8,0.2-2.5,0.7
			c-0.6,0.5-0.9,1.2-0.9,2.2c0,0.9,0.3,1.7,0.9,2.2c0.6,0.6,1.4,0.8,2.5,0.8c1,0,1.9-0.3,2.5-0.8C910.1,758,910.4,757.2,910.4,756.3
			z M910,748.8c0-0.8-0.3-1.4-0.8-1.9s-1.3-0.7-2.2-0.7s-1.6,0.2-2.2,0.7c-0.5,0.5-0.8,1.1-0.8,1.9c0,0.8,0.3,1.5,0.8,1.9
			c0.6,0.5,1.3,0.7,2.1,0.7c0.9,0,1.6-0.2,2.1-0.7C909.7,750.2,910,749.6,910,748.8z"/>
		<path class="st0" d="M942.5,756.6c0,1.2-0.4,2.2-1.3,3.1c-0.9,0.9-2,1.4-3.5,1.5v1.8h-1.3v-1.8c-1.5-0.1-2.6-0.5-3.5-1.3
			s-1.3-1.8-1.3-3h2.8c0.1,1.3,0.8,2,2.1,2.2v-5c-1.4-0.3-2.3-0.6-2.9-1c-0.7-0.4-1.2-0.8-1.4-1.3c-0.4-0.6-0.5-1.4-0.5-2.2
			c0-1.3,0.4-2.3,1.3-3.2c0.9-0.8,2.1-1.3,3.5-1.4v-1.8h1.3v1.8c1.4,0.1,2.5,0.5,3.3,1.2s1.3,1.7,1.4,3h-2.8c0-0.5-0.2-0.9-0.6-1.3
			c-0.3-0.4-0.8-0.6-1.3-0.7v4.9c1.4,0.3,2.4,0.6,2.9,0.9c0.7,0.4,1.2,0.8,1.3,1.2C942.3,755.1,942.5,755.8,942.5,756.6z M934.8,748
			c-0.4,0.4-0.6,0.9-0.6,1.6s0.2,1.2,0.6,1.5c0.4,0.3,0.9,0.6,1.6,0.8v-4.6C935.7,747.4,935.2,747.6,934.8,748z M939.3,758.3
			c0.4-0.4,0.6-1,0.6-1.6s-0.2-1.1-0.6-1.4c-0.4-0.3-0.9-0.6-1.6-0.8v4.7C938.4,759,938.9,758.8,939.3,758.3z"/>
		<path class="st0" d="M965.1,748.6v2c0.8-1.5,2.2-2.2,4-2.2c1,0,1.8,0.2,2.6,0.7s1.3,1.1,1.7,2c0.4-0.8,1-1.5,1.8-2
			s1.7-0.7,2.6-0.7c1.4,0,2.6,0.5,3.5,1.4s1.4,2.2,1.4,3.9v7.4h-2.6v-7c0-1.1-0.3-2-0.8-2.6c-0.6-0.6-1.3-0.9-2.3-0.9
			s-1.7,0.3-2.3,0.9c-0.6,0.6-0.8,1.5-0.8,2.6v7h-2.6v-7c0-1.1-0.3-2-0.8-2.6c-0.6-0.6-1.3-0.9-2.3-0.9s-1.7,0.3-2.3,0.9
			c-0.6,0.6-0.9,1.5-0.9,2.6v7h-2.6v-12.5L965.1,748.6L965.1,748.6z"/>
		<path class="st0" d="M990.6,761.1v-16.8h2.6v16.8H990.6z"/>
		<path class="st0" d="M1003.8,748.6v2c0.8-1.5,2.2-2.2,4-2.2c1.4,0,2.6,0.5,3.5,1.4s1.4,2.2,1.4,3.9v7.4h-2.6v-7
			c0-1.1-0.3-2-0.8-2.6c-0.6-0.6-1.3-0.9-2.3-0.9s-1.7,0.3-2.3,0.9c-0.6,0.6-0.9,1.5-0.9,2.6v7h-2.6v-12.5L1003.8,748.6
			L1003.8,748.6z"/>
	</g>
</g>
<g>
	<polygon class="st2" points="564.5,758.3 418.7,758.3 271.6,437.7 711.7,436.2 	"/>
	<polygon class="st2" points="756.2,199 227.1,199 220.6,66.3 762.7,66.3 	"/>
	<polygon class="st3" points="711.7,436.2 271.5,436.2 227.1,199 755.3,199 	"/>
	<ellipse class="st1" cx="491.6" cy="199" rx="264.5" ry="43.9"/>
	<ellipse class="st4" cx="491.6" cy="66.3" rx="271" ry="45"/>
	<ellipse class="st1" cx="491.6" cy="436.2" rx="220.1" ry="47.8"/>
	<ellipse class="st4" cx="491.6" cy="758.3" rx="72.9" ry="15.8"/>
</g>
<g>
	<rect x="491.1" y="108.1" class="st4" width="571.5" height="2"/>
</g>
<g>
	<rect x="491.1" y="240.8" class="st5" width="571.5" height="2"/>
</g>
<g>
	<rect x="491.1" y="481.7" class="st5" width="571.5" height="2"/>
</g>
<g>
	<rect x="491.1" y="771.8" class="st4" width="571.5" height="2"/>
</g>
<g>
	<path class="st0" d="M875,64.3c-0.4,0.7-1,1.2-1.8,1.6c-0.8,0.4-1.7,0.6-2.8,0.6c-1.1,0-2.1-0.2-2.9-0.6c-0.9-0.4-1.6-0.9-2.1-1.6
		c-0.5-0.7-0.8-1.5-0.9-2.5h3.3c0.1,0.6,0.3,1.2,0.8,1.6c0.4,0.4,1,0.6,1.7,0.6c0.6,0,1.1-0.2,1.5-0.5c0.3-0.3,0.5-0.8,0.5-1.3
		c0-0.5-0.1-0.9-0.4-1.2s-0.6-0.6-1.1-0.8c-0.4-0.2-1-0.4-1.8-0.7c-1-0.3-1.8-0.6-2.4-1c-0.6-0.3-1.1-0.8-1.6-1.4
		c-0.4-0.6-0.6-1.4-0.6-2.4c0-1.3,0.5-2.4,1.4-3.2c1-0.8,2.2-1.2,3.8-1.2c1.6,0,3,0.4,3.9,1.2c1,0.8,1.5,1.8,1.7,3.2H872
		c-0.1-0.6-0.3-1-0.7-1.4c-0.4-0.4-0.9-0.5-1.6-0.5c-0.6,0-1,0.2-1.4,0.5c-0.4,0.3-0.5,0.7-0.5,1.3c0,0.5,0.1,0.8,0.4,1.1
		c0.3,0.3,0.6,0.5,1,0.7c0.4,0.2,1,0.4,1.7,0.6c1,0.4,1.8,0.7,2.4,1c0.6,0.3,1.2,0.8,1.6,1.4s0.7,1.4,0.7,2.4
		C875.6,62.9,875.4,63.7,875,64.3z"/>
	<path class="st0" d="M892.9,50.9v2.5h-4.3v13.1h-3.1V53.3h-4.3v-2.5H892.9z"/>
	<path class="st0" d="M908.5,63.3h-6.2l-1.1,3.1h-3.3l5.7-15.4h3.5l5.7,15.4h-3.3L908.5,63.3z M907.6,60.9l-2.3-6.6l-2.3,6.6H907.6z
		"/>
	<path class="st0" d="M929.8,59.7c0.6,0.7,0.8,1.5,0.8,2.5c0,1.3-0.4,2.3-1.3,3.1c-0.9,0.8-2.1,1.1-3.8,1.1h-6.7V50.9h6.5
		c1.6,0,2.8,0.3,3.6,1c0.8,0.7,1.3,1.7,1.3,2.9c0,1-0.3,1.8-0.8,2.4c-0.5,0.6-1.2,1-2,1.2C928.5,58.6,929.2,59,929.8,59.7z
		 M922,57.4h2.8c0.8,0,1.4-0.2,1.8-0.5c0.4-0.3,0.6-0.8,0.6-1.5c0-0.6-0.2-1.1-0.6-1.5c-0.4-0.4-1-0.5-1.8-0.5H922V57.4z
		 M926.8,63.3c0.4-0.4,0.7-0.9,0.7-1.6c0-0.7-0.2-1.2-0.7-1.6s-1.1-0.6-1.9-0.6H922v4.3h2.9C925.8,63.9,926.4,63.7,926.8,63.3z"/>
	<path class="st0" d="M940.3,50.9v15.5h-3.1V50.9H940.3z"/>
	<path class="st0" d="M950.6,64h5.2v2.4h-8.3V50.9h3.1V64z"/>
	<path class="st0" d="M965.2,50.9v15.5h-3.1V50.9H965.2z"/>
	<path class="st0" d="M983,50.9v2.5h-4.3v13.1h-3.1V53.3h-4.3v-2.5H983z"/>
	<path class="st0" d="M992.2,50.9v15.5h-3.1V50.9H992.2z"/>
</g>
<g>
	<path class="st1" d="M877.7,189.9c-0.6,1.2-1.6,2.1-2.8,2.7c-1.2,0.7-2.7,1-4.4,1H865v-15.5h5.5c1.7,0,3.1,0.3,4.4,1
		c1.2,0.6,2.2,1.5,2.8,2.7s1,2.5,1,4.1C878.6,187.4,878.3,188.7,877.7,189.9z M874.1,189.5c0.9-0.9,1.4-2.1,1.4-3.7
		c0-1.6-0.5-2.8-1.4-3.7c-0.9-0.9-2.2-1.3-3.9-1.3h-2.2v10.1h2.2C871.9,190.8,873.2,190.4,874.1,189.5z"/>
	<path class="st1" d="M888.5,180.5v4h5.5v2.4h-5.5v4.2h6.2v2.5h-9.3v-15.5h9.3v2.5H888.5z"/>
	<path class="st1" d="M904.4,187.8v5.8h-3.1v-15.5h5.7c1.8,0,3.2,0.4,4.1,1.3s1.4,2.1,1.4,3.6c0,1.5-0.5,2.7-1.4,3.5
		c-1,0.9-2.3,1.3-4.1,1.3H904.4z M909.4,183c0-0.8-0.2-1.4-0.6-1.8c-0.4-0.4-1.1-0.6-2.1-0.6h-2.2v4.8h2.2
		C908.4,185.3,909.4,184.6,909.4,183z"/>
	<path class="st1" d="M930.2,178.9c1.2,0.7,2.1,1.6,2.8,2.8c0.7,1.2,1,2.6,1,4.1s-0.3,2.9-1,4.1c-0.7,1.2-1.6,2.2-2.8,2.8
		c-1.2,0.7-2.5,1-3.9,1c-1.5,0-2.8-0.3-3.9-1c-1.2-0.7-2.1-1.6-2.8-2.8c-0.7-1.2-1-2.6-1-4.1s0.3-2.9,1-4.1c0.7-1.2,1.6-2.2,2.8-2.8
		c1.2-0.7,2.5-1,3.9-1C927.7,177.8,929,178.2,930.2,178.9z M923.8,181.3c-0.7,0.4-1.2,1-1.6,1.8s-0.6,1.7-0.6,2.7
		c0,1,0.2,1.9,0.6,2.7c0.4,0.8,0.9,1.4,1.6,1.8c0.7,0.4,1.5,0.6,2.4,0.6c0.9,0,1.7-0.2,2.4-0.6c0.7-0.4,1.2-1,1.6-1.8
		c0.4-0.8,0.6-1.7,0.6-2.7c0-1-0.2-1.9-0.6-2.7s-0.9-1.4-1.6-1.8s-1.5-0.6-2.4-0.6C925.3,180.7,924.5,180.9,923.8,181.3z"/>
	<path class="st1" d="M950.8,191.5c-0.4,0.7-1,1.2-1.8,1.6c-0.8,0.4-1.7,0.6-2.8,0.6c-1.1,0-2.1-0.2-2.9-0.6
		c-0.9-0.4-1.6-0.9-2.1-1.6c-0.5-0.7-0.8-1.5-0.9-2.5h3.3c0.1,0.6,0.3,1.2,0.8,1.6c0.4,0.4,1,0.6,1.7,0.6c0.6,0,1.1-0.2,1.5-0.5
		c0.3-0.3,0.5-0.8,0.5-1.3c0-0.5-0.1-0.9-0.4-1.2s-0.6-0.6-1.1-0.8c-0.4-0.2-1-0.4-1.8-0.7c-1-0.3-1.8-0.6-2.4-1
		c-0.6-0.3-1.1-0.8-1.6-1.4c-0.4-0.6-0.6-1.4-0.6-2.4c0-1.3,0.5-2.4,1.4-3.2c1-0.8,2.2-1.2,3.8-1.2c1.6,0,3,0.4,3.9,1.2
		c1,0.8,1.5,1.8,1.7,3.2h-3.3c-0.1-0.6-0.3-1-0.7-1.4c-0.4-0.4-0.9-0.5-1.6-0.5c-0.6,0-1,0.2-1.4,0.5c-0.4,0.3-0.5,0.7-0.5,1.3
		c0,0.5,0.1,0.8,0.4,1.1c0.3,0.3,0.6,0.5,1,0.7c0.4,0.2,1,0.4,1.7,0.6c1,0.4,1.8,0.7,2.4,1c0.6,0.3,1.2,0.8,1.6,1.4s0.7,1.4,0.7,2.4
		C951.4,190.1,951.2,190.9,950.8,191.5z"/>
	<path class="st1" d="M961.2,178.1v15.5h-3.1v-15.5H961.2z"/>
	<path class="st1" d="M978.9,178.1v2.5h-4.3v13.1h-3.1v-13.1h-4.3v-2.5H978.9z"/>
	<path class="st1" d="M994.5,190.5h-6.2l-1.1,3.1h-3.3l5.7-15.4h3.5l5.7,15.4h-3.3L994.5,190.5z M993.7,188.1l-2.3-6.6l-2.3,6.6
		H993.7z"/>
	<path class="st1" d="M1015.5,178.1v2.5h-4.3v13.1h-3.1v-13.1h-4.3v-2.5H1015.5z"/>
	<path class="st1" d="M1024.7,178.1v15.5h-3.1v-15.5H1024.7z"/>
</g>
<g>
	<path class="st1" d="M874.4,433h-6.2l-1.1,3.1h-3.3l5.7-15.4h3.5l5.7,15.4h-3.3L874.4,433z M873.6,430.6l-2.3-6.6l-2.3,6.6H873.6z"
		/>
	<path class="st1" d="M887.9,430.3v5.8h-3.1v-15.5h5.7c1.8,0,3.2,0.4,4.1,1.3s1.4,2.1,1.4,3.6c0,1.5-0.5,2.7-1.4,3.5
		c-1,0.9-2.3,1.3-4.1,1.3H887.9z M892.9,425.5c0-0.8-0.2-1.4-0.6-1.8c-0.4-0.4-1.1-0.6-2.1-0.6h-2.2v4.8h2.2
		C892,427.8,892.9,427.1,892.9,425.5z"/>
	<path class="st1" d="M905.6,430.3v5.8h-3.1v-15.5h5.7c1.8,0,3.2,0.4,4.1,1.3s1.4,2.1,1.4,3.6c0,1.5-0.5,2.7-1.4,3.5
		c-1,0.9-2.3,1.3-4.1,1.3H905.6z M910.5,425.5c0-0.8-0.2-1.4-0.6-1.8c-0.4-0.4-1.1-0.6-2.1-0.6h-2.2v4.8h2.2
		C909.6,427.8,910.5,427.1,910.5,425.5z"/>
	<path class="st1" d="M928.2,436.1l-3.6-6h-1.4v6h-3.1v-15.5h5.9c1.8,0,3.2,0.4,4.1,1.3s1.4,2,1.4,3.5c0,1.2-0.3,2.2-1,2.9
		s-1.6,1.3-2.8,1.6l3.9,6.2H928.2z M923.2,427.9h2.6c1.8,0,2.7-0.8,2.7-2.4c0-0.7-0.2-1.3-0.6-1.7s-1.1-0.6-2-0.6h-2.6V427.9z"/>
	<path class="st1" d="M949.3,421.4c1.2,0.7,2.1,1.6,2.8,2.8c0.7,1.2,1,2.6,1,4.1s-0.3,2.9-1,4.1c-0.7,1.2-1.6,2.2-2.8,2.8
		s-2.5,1-3.9,1c-1.5,0-2.8-0.3-3.9-1s-2.1-1.6-2.8-2.8c-0.7-1.2-1-2.6-1-4.1s0.3-2.9,1-4.1c0.7-1.2,1.6-2.2,2.8-2.8
		c1.2-0.7,2.5-1,3.9-1C946.8,420.3,948.1,420.7,949.3,421.4z M942.9,423.8c-0.7,0.4-1.2,1-1.6,1.8c-0.4,0.8-0.6,1.7-0.6,2.7
		s0.2,1.9,0.6,2.7c0.4,0.8,0.9,1.4,1.6,1.8c0.7,0.4,1.5,0.6,2.4,0.6c0.9,0,1.7-0.2,2.4-0.6c0.7-0.4,1.2-1,1.6-1.8
		c0.4-0.8,0.6-1.7,0.6-2.7s-0.2-1.9-0.6-2.7c-0.4-0.8-0.9-1.4-1.6-1.8c-0.7-0.4-1.5-0.6-2.4-0.6
		C944.4,423.2,943.6,423.4,942.9,423.8z"/>
	<path class="st1" d="M962,420.6l4.2,12.3l4.2-12.3h3.3l-5.5,15.5h-4l-5.5-15.5H962z"/>
	<path class="st1" d="M989.2,433H983l-1.1,3.1h-3.3l5.7-15.4h3.5l5.7,15.4h-3.3L989.2,433z M988.4,430.6l-2.3-6.6l-2.3,6.6H988.4z"
		/>
	<path class="st1" d="M1010.2,420.6v2.5h-4.3v13.1h-3.1V423h-4.3v-2.5H1010.2z"/>
	<path class="st1" d="M1019.4,420.6v15.5h-3.1v-15.5H1019.4z"/>
</g>
<g>
	<path class="st0" d="M867.1,710.7l4.2,12.3l4.2-12.3h3.3l-5.5,15.5h-4l-5.5-15.5H867.1z"/>
	<path class="st0" d="M888,713.1v4h5.5v2.4H888v4.2h6.2v2.5h-9.3v-15.5h9.3v2.5H888z"/>
	<path class="st0" d="M908.9,726.2l-3.6-6h-1.4v6h-3.1v-15.5h5.9c1.8,0,3.2,0.4,4.1,1.3s1.4,2,1.4,3.5c0,1.2-0.3,2.2-1,2.9
		s-1.6,1.3-2.8,1.6l3.9,6.2H908.9z M903.9,718h2.6c1.8,0,2.7-0.8,2.7-2.4c0-0.7-0.2-1.3-0.6-1.7s-1.1-0.6-2-0.6h-2.6V718z"/>
	<path class="st0" d="M928.8,724.1c-0.4,0.7-1,1.2-1.8,1.6s-1.7,0.6-2.8,0.6c-1.1,0-2.1-0.2-2.9-0.6c-0.9-0.4-1.6-0.9-2.1-1.6
		c-0.5-0.7-0.8-1.5-0.9-2.5h3.3c0.1,0.6,0.3,1.2,0.8,1.6c0.4,0.4,1,0.6,1.7,0.6c0.6,0,1.1-0.2,1.5-0.5c0.3-0.3,0.5-0.8,0.5-1.3
		c0-0.5-0.1-0.9-0.4-1.2s-0.6-0.6-1.1-0.8c-0.4-0.2-1-0.4-1.8-0.7c-1-0.3-1.8-0.6-2.4-1c-0.6-0.3-1.1-0.8-1.6-1.4s-0.6-1.4-0.6-2.4
		c0-1.3,0.5-2.4,1.4-3.2c1-0.8,2.2-1.2,3.8-1.2c1.6,0,3,0.4,3.9,1.2c1,0.8,1.5,1.8,1.7,3.2h-3.3c-0.1-0.6-0.3-1-0.7-1.4
		c-0.4-0.4-0.9-0.5-1.6-0.5c-0.6,0-1,0.2-1.4,0.5c-0.4,0.3-0.5,0.7-0.5,1.3c0,0.5,0.1,0.8,0.4,1.1c0.3,0.3,0.6,0.5,1,0.7
		c0.4,0.2,1,0.4,1.7,0.6c1,0.4,1.8,0.7,2.4,1c0.6,0.3,1.2,0.8,1.6,1.4s0.7,1.4,0.7,2.4C929.4,722.7,929.2,723.5,928.8,724.1z"/>
	<path class="st0" d="M945.6,723.1h-6.2l-1.1,3.1H935l5.7-15.4h3.5l5.7,15.4h-3.3L945.6,723.1z M944.8,720.7l-2.3-6.6l-2.3,6.6
		H944.8z"/>
	<path class="st0" d="M966.6,710.7v2.5h-4.3v13.1h-3.1v-13.1h-4.3v-2.5H966.6z"/>
	<path class="st0" d="M975.8,710.7v15.5h-3.1v-15.5H975.8z"/>
</g>
</svg>
