<?xml version="1.0" encoding="utf-8"?>
<!-- Generator: Adobe Illustrator 22.1.0, SVG Export Plug-In . SVG Version: 6.00 Build 0)  -->
<svg version="1.1" id="Livello_1" xmlns="http://www.w3.org/2000/svg" xmlns:xlink="http://www.w3.org/1999/xlink" x="0px" y="0px"
	 viewBox="0 0 465.3 194.9" style="enable-background:new 0 0 465.3 194.9;" xml:space="preserve">
<style type="text/css">
	.st0{enable-background:new    ;}
	.st1{font-family:'Poppins-Regular';}
	.st2{font-size:10px;}
	.st3{font-size:5.5622px;}
	.st4{fill:#1357CA;}
	.st5{fill:#345BBE;}
	.st6{fill:#5D58AF;}
	.st7{fill:#8053A1;}
	.st8{fill:#49B7D9;}
	.st9{fill:#73B3D6;}
	.st10{fill:#94B0D3;}
	.st11{fill:#B3AACE;}
	.st12{fill:#3DA6D8;}
	.st13{fill:#4CBDDD;}
	.st14{fill:#45A1D2;}
	.st15{fill:#6B9DCC;}
	.st16{fill:#8D98C6;}
	.st17{fill:#AE93BF;}
	.st18{fill:#2D8ED4;}
	.st19{fill:#408BCC;}
	.st20{fill:#6586C3;}
	.st21{fill:#8B85BB;}
	.st22{fill:#AC7AAF;}
	.st23{fill:#1775CF;}
	.st24{fill:#3973C5;}
	.st25{fill:#626FB9;}
	.st26{fill:#866AAD;}
	.st27{fill:#A964A0;}
	.st28{fill:#A64C93;}
	.st29{fill:#CC4481;}
	.st30{fill:#ED4B72;}
	.st31{fill:#ED495E;}
	.st32{fill:#D1A5CA;}
	.st33{fill:#EF9DC4;}
	.st34{fill:#F195BE;}
	.st35{fill:#FF96BF;}
	.st36{fill:#CE8CB7;}
	.st37{fill:#EF85B0;}
	.st38{fill:#EF79A5;}
	.st39{fill:#FF79A5;}
	.st40{fill:#66EAEA;}
	.st41{fill:#84E7EC;}
	.st42{fill:#A4E3F0;}
	.st43{fill:#BFDFF2;}
	.st44{fill:#5AD4E0;}
	.st45{fill:#6CF3E6;}
	.st46{fill:#57CFE0;}
	.st47{fill:#77CADF;}
	.st48{fill:#99C5DF;}
	.st49{fill:#B6C0DD;}
	.st50{fill:#DADAF6;}
	.st51{fill:#F4D7F9;}
	.st52{fill:#F7D1FC;}
	.st53{fill:#FFD1FC;}
	.st54{fill:#D5BADB;}
	.st55{fill:#F0B6DB;}
	.st56{fill:#F3AED7;}
	.st57{fill:#FFB1DB;}
	.st58{fill:#CC75A6;}
	.st59{fill:#EE6C9B;}
	.st60{fill:#ED5D8D;}
	.st61{fill:#FF5D8D;}
	.st62{fill:#CC5C94;}
	.st63{fill:#ED5285;}
	.st64{fill:#ED4C74;}
	.st65{fill:#FF4B74;}
	.st66{fill:#FF495D;}
	.st67{fill:none;stroke:#333333;stroke-miterlimit:10;}
	.st68{opacity:0.6;fill:none;stroke:#303030;stroke-width:0.3;stroke-miterlimit:10;enable-background:new    ;}
	.st69{fill:none;stroke:#303030;stroke-width:1.4;stroke-miterlimit:10;}
	.st70{fill:#FF4A60;}
	.st71{font-family:'CrimsonText-SemiBold';}
	.st72{font-size:12px;}
</style>
<g class="st0">
	<path d="M28.9,119.5c0.2-0.2,0.4-0.4,0.7-0.5c0.3-0.1,0.7-0.2,1.1-0.2s0.8,0.1,1.2,0.3c0.3,0.2,0.6,0.4,0.8,0.8
		c0.3,0.6,0.5,1.5,0.5,2.6c0,1.4-0.2,2.4-0.7,3c-0.4,0.5-1,0.7-1.8,0.7c-1.4,0-2.2-0.8-2.4-2.5c0-0.3-0.1-0.7-0.1-1.2s0-0.8,0.1-1.2
		c0-0.3,0.1-0.7,0.2-1C28.5,119.9,28.7,119.7,28.9,119.5z M32,120.5c-0.1-0.3-0.3-0.5-0.5-0.7c-0.2-0.1-0.5-0.2-0.8-0.2
		s-0.6,0.1-0.8,0.2c-0.2,0.1-0.4,0.2-0.5,0.4c-0.1,0.2-0.2,0.4-0.3,0.6c-0.1,0.3-0.1,0.5-0.1,0.8c0,0.2,0,0.5,0,0.9
		c0,0.3,0,0.6,0,0.9c0,0.2,0.1,0.5,0.1,0.8c0.1,0.3,0.2,0.5,0.3,0.6c0.1,0.2,0.3,0.3,0.5,0.4s0.4,0.2,0.7,0.2c0.3,0,0.5-0.1,0.7-0.2
		s0.4-0.2,0.5-0.4c0.1-0.2,0.2-0.4,0.3-0.7c0.1-0.4,0.2-0.9,0.2-1.5s0-1-0.1-1.2C32.2,121,32.1,120.8,32,120.5z"/>
</g>
<text transform="matrix(1 0 0 1 29.7901 49.325)" class="st1 st2">1</text>
<g class="st0">
	<path d="M113.8,122.8V122h4v0.8H113.8z"/>
	<path d="M120.1,126.1v-6.3h-0.8V119h1.7v7.1H120.1z"/>
</g>
<g>
	<text transform="matrix(1 0 0 1 98.6495 112.3273)" class="st1 st3">-1</text>
	<rect x="36.8" y="42.2" class="st4" width="12.2" height="8.1"/>
	<rect x="36.8" y="50.3" class="st5" width="12.2" height="8.1"/>
	<rect x="36.8" y="58.5" class="st6" width="12.2" height="8.1"/>
	<rect x="36.8" y="66.6" class="st7" width="12.2" height="8.1"/>
	<rect x="85.2" y="50.3" class="st8" width="12.3" height="8.1"/>
	<rect x="85.2" y="58.5" class="st9" width="12.3" height="8.1"/>
	<rect x="85.2" y="66.6" class="st10" width="12.4" height="8.1"/>
	<rect x="85.2" y="74.7" class="st11" width="12.3" height="8.2"/>
	<rect x="73.1" y="42.2" class="st12" width="12.2" height="8.1"/>
	<rect x="85.2" y="42.2" class="st13" width="12.3" height="8.1"/>
	<rect x="73.1" y="50.3" class="st14" width="12.2" height="8.1"/>
	<rect x="73.1" y="58.5" class="st15" width="12.2" height="8.1"/>
	<rect x="73.1" y="66.6" class="st16" width="12.2" height="8.1"/>
	<rect x="73.1" y="74.7" class="st17" width="12.2" height="8.2"/>
	<rect x="61.1" y="42.2" class="st18" width="12" height="8.1"/>
	<rect x="61.1" y="50.3" class="st19" width="12" height="8.1"/>
	<rect x="61.1" y="58.5" class="st20" width="12" height="8.1"/>
	<rect x="61.1" y="66.6" class="st21" width="12" height="8.1"/>
	<rect x="61.1" y="74.7" class="st22" width="12" height="8.2"/>
	<rect x="48.9" y="42.2" class="st23" width="12.2" height="8.1"/>
	<rect x="48.9" y="50.3" class="st24" width="12.2" height="8.1"/>
	<rect x="48.9" y="58.5" class="st25" width="12.2" height="8.1"/>
	<rect x="48.9" y="66.6" class="st26" width="12.2" height="8.1"/>
	<rect x="48.9" y="74.7" class="st27" width="12.2" height="8.2"/>
	<rect x="36.8" y="74.7" class="st28" width="12.2" height="8.2"/>
	<rect x="36.8" y="83" class="st29" width="12.2" height="8.1"/>
	<rect x="36.8" y="91.1" class="st30" width="12.2" height="8.1"/>
	<rect x="36.8" y="99.2" class="st31" width="12.2" height="8.1"/>
	<rect x="85.2" y="83" class="st32" width="12.3" height="8.1"/>
	<rect x="85.2" y="91.1" class="st33" width="12.3" height="8.1"/>
	<rect x="85.2" y="99.2" class="st34" width="12.3" height="8.1"/>
	<rect x="85.2" y="107.4" class="st35" width="12.3" height="8.1"/>
	<rect x="73.1" y="83" class="st36" width="12.2" height="8.1"/>
	<rect x="73.1" y="91.1" class="st37" width="12.2" height="8.1"/>
	<rect x="73.1" y="99.2" class="st38" width="12.2" height="8.1"/>
	<rect x="73.1" y="107.4" class="st39" width="12.2" height="8.1"/>
	<rect x="109.2" y="50.3" class="st40" width="11.7" height="8.1"/>
	<rect x="109.2" y="58.5" class="st41" width="11.7" height="8.1"/>
	<rect x="109.2" y="66.6" class="st42" width="11.7" height="8.1"/>
	<rect x="109.2" y="74.7" class="st43" width="11.7" height="8.2"/>
	<rect x="97.6" y="42.2" class="st44" width="11.7" height="8.1"/>
	<rect x="109.2" y="42.2" class="st45" width="11.7" height="8.1"/>
	<rect x="97.6" y="50.3" class="st46" width="11.7" height="8.1"/>
	<rect x="97.6" y="58.5" class="st47" width="11.7" height="8.1"/>
	<rect x="97.6" y="66.6" class="st48" width="11.7" height="8.1"/>
	<rect x="97.6" y="74.7" class="st49" width="11.7" height="8.2"/>
	<rect x="109.2" y="83" class="st50" width="11.7" height="8.1"/>
	<rect x="109.2" y="91.1" class="st51" width="11.7" height="8.1"/>
	<rect x="109.2" y="99.2" class="st52" width="11.7" height="8.1"/>
	<rect x="109.2" y="107.4" class="st53" width="11.7" height="8.1"/>
	<rect x="97.6" y="83" class="st54" width="11.7" height="8.1"/>
	<rect x="97.6" y="91.1" class="st55" width="11.7" height="8.1"/>
	<rect x="97.6" y="99.2" class="st56" width="11.7" height="8.1"/>
	<rect x="97.6" y="107.4" class="st57" width="11.7" height="8.1"/>
	<rect x="61.1" y="83" class="st58" width="12" height="8.1"/>
	<rect x="61.1" y="91.1" class="st59" width="12" height="8.1"/>
	<rect x="61.1" y="99.2" class="st60" width="12" height="8.1"/>
	<rect x="61.1" y="107.4" class="st61" width="12" height="8.1"/>
	<rect x="48.9" y="83" class="st62" width="12.2" height="8.1"/>
	<rect x="48.9" y="91.1" class="st63" width="12.2" height="8.1"/>
	<rect x="48.9" y="99.2" class="st64" width="12.2" height="8.1"/>
	<rect x="48.9" y="107.4" class="st65" width="12.2" height="8.1"/>
	<rect x="36.8" y="107.4" class="st66" width="12.2" height="8.1"/>
</g>
<polygon class="st67" points="60.9,99.2 60.9,107.4 48.8,107.4 36.9,107.4 37.3,74.8 48.8,74.7 60.9,74.7 "/>
<line class="st68" x1="289.4" y1="112.2" x2="358.1" y2="112.2"/>
<line class="st68" x1="280.2" y1="102.2" x2="357.2" y2="102.2"/>
<line class="st68" x1="270.2" y1="92.2" x2="357.2" y2="92.2"/>
<line class="st68" x1="260" y1="82.2" x2="357.2" y2="82.2"/>
<line class="st68" x1="260.5" y1="72.2" x2="357.2" y2="72.2"/>
<line class="st68" x1="270.2" y1="62.2" x2="357.2" y2="62.2"/>
<line class="st68" x1="280.2" y1="52.2" x2="357.2" y2="52.2"/>
<line class="st68" x1="290.2" y1="42.2" x2="357.2" y2="42.2"/>
<polygon id="Niger_4_" class="st69" points="290.2,42.2 324.7,76.6 289.5,111.7 255.1,77.3 "/>
<polygon id="Niger_3_" class="st69" points="353.6,102.7 358.1,107.2 353.5,111.8 349,107.2 "/>
<text transform="matrix(1 0 0 1 37 20.6998)" class="st70 st71 st72">Matrice Preparazione-vulnerabilità</text>
<text transform="matrix(1 0 0 1 255.0998 20.6997)" class="st70 st71 st72">Quantità di fondi</text>
<text transform="matrix(1 0 0 1 372.6 42.1998)" class="st1 st2">120 - 145 $ mln</text>
<text transform="matrix(1 0 0 1 372.6 82.2001)" class="st1 st2">60 - 85 $ mln</text>
<text transform="matrix(1 0 0 1 372.6 112.1999)" class="st1 st2">0 - 25 $ mln</text>
<text transform="matrix(1 0 0 1 40.0998 137.4998)" class="st1 st2">Meno vulnerabili</text>
<text transform="matrix(1 0 0 1 36.7999 163.4998)"><tspan x="0" y="0" class="st1 st2">* L’area selezionata si</tspan><tspan x="0" y="12" class="st1 st2">riferisce ai Paesi mostrati</tspan></text>
<text transform="matrix(6.123234e-17 -1 1 6.123234e-17 22.7153 87.0493)" class="st1 st2">Più pronti</text>
</svg>
