<?xml version="1.0" encoding="utf-8"?>
<!-- Generator: Adobe Illustrator 22.1.0, SVG Export Plug-In . SVG Version: 6.00 Build 0)  -->
<svg version="1.1" id="Livello_1" xmlns="http://www.w3.org/2000/svg" xmlns:xlink="http://www.w3.org/1999/xlink" x="0px" y="0px"
	 viewBox="0 0 465.3 194.9" style="enable-background:new 0 0 465.3 194.9;" xml:space="preserve">
<style type="text/css">
	.st0{enable-background:new    ;}
	.st1{fill:#1357CA;}
	.st2{fill:#345BBE;}
	.st3{fill:#5D58AF;}
	.st4{fill:#8053A1;}
	.st5{fill:#49B7D9;}
	.st6{fill:#73B3D6;}
	.st7{fill:#94B0D3;}
	.st8{fill:#B3AACE;}
	.st9{fill:#3DA6D8;}
	.st10{fill:#4CBDDD;}
	.st11{fill:#45A1D2;}
	.st12{fill:#6B9DCC;}
	.st13{fill:#8D98C6;}
	.st14{fill:#AE93BF;}
	.st15{fill:#2D8ED4;}
	.st16{fill:#408BCC;}
	.st17{fill:#6586C3;}
	.st18{fill:#8B85BB;}
	.st19{fill:#AC7AAF;}
	.st20{fill:#1775CF;}
	.st21{fill:#3973C5;}
	.st22{fill:#626FB9;}
	.st23{fill:#866AAD;}
	.st24{fill:#A964A0;}
	.st25{fill:#A64C93;}
	.st26{fill:#CC4481;}
	.st27{fill:#ED4B72;}
	.st28{fill:#ED495E;}
	.st29{fill:#D1A5CA;}
	.st30{fill:#EF9DC4;}
	.st31{fill:#F195BE;}
	.st32{fill:#FF96BF;}
	.st33{fill:#CE8CB7;}
	.st34{fill:#EF85B0;}
	.st35{fill:#EF79A5;}
	.st36{fill:#FF79A5;}
	.st37{fill:#66EAEA;}
	.st38{fill:#84E7EC;}
	.st39{fill:#A4E3F0;}
	.st40{fill:#BFDFF2;}
	.st41{fill:#5AD4E0;}
	.st42{fill:#6CF3E6;}
	.st43{fill:#57CFE0;}
	.st44{fill:#77CADF;}
	.st45{fill:#99C5DF;}
	.st46{fill:#B6C0DD;}
	.st47{fill:#DADAF6;}
	.st48{fill:#F4D7F9;}
	.st49{fill:#F7D1FC;}
	.st50{fill:#FFD1FC;}
	.st51{fill:#D5BADB;}
	.st52{fill:#F0B6DB;}
	.st53{fill:#F3AED7;}
	.st54{fill:#FFB1DB;}
	.st55{fill:#CC75A6;}
	.st56{fill:#EE6C9B;}
	.st57{fill:#ED5D8D;}
	.st58{fill:#FF5D8D;}
	.st59{fill:#CC5C94;}
	.st60{fill:#ED5285;}
	.st61{fill:#ED4C74;}
	.st62{fill:#FF4B74;}
	.st63{fill:#FF495D;}
	.st64{fill:#333333;}
	.st65{opacity:0.6;enable-background:new    ;}
	.st66{fill:#303030;}
	.st67{fill:#FF4A60;}
</style>
<g class="st0">
	<g>
		<path d="M28.9,119.5c0.2-0.2,0.4-0.4,0.7-0.5c0.3-0.1,0.7-0.2,1.1-0.2s0.8,0.1,1.2,0.3c0.3,0.2,0.6,0.4,0.8,0.8
			c0.3,0.6,0.5,1.5,0.5,2.6c0,1.4-0.2,2.4-0.7,3c-0.4,0.5-1,0.7-1.8,0.7c-1.4,0-2.2-0.8-2.4-2.5c0-0.3-0.1-0.7-0.1-1.2
			s0-0.8,0.1-1.2c0-0.3,0.1-0.7,0.2-1C28.5,119.9,28.7,119.7,28.9,119.5z M32,120.5c-0.1-0.3-0.3-0.5-0.5-0.7
			c-0.2-0.1-0.5-0.2-0.8-0.2s-0.6,0.1-0.8,0.2c-0.2,0.1-0.4,0.2-0.5,0.4c-0.1,0.2-0.2,0.4-0.3,0.6c-0.1,0.3-0.1,0.5-0.1,0.8
			c0,0.2,0,0.5,0,0.9c0,0.3,0,0.6,0,0.9c0,0.2,0.1,0.5,0.1,0.8c0.1,0.3,0.2,0.5,0.3,0.6c0.1,0.2,0.3,0.3,0.5,0.4s0.4,0.2,0.7,0.2
			c0.3,0,0.5-0.1,0.7-0.2s0.4-0.2,0.5-0.4c0.1-0.2,0.2-0.4,0.3-0.7c0.1-0.4,0.2-0.9,0.2-1.5s0-1-0.1-1.2
			C32.2,121,32.1,120.8,32,120.5z"/>
	</g>
</g>
<g class="st0">
	<path d="M29.9,43.1v-0.8h2v7h-1v-6.2H29.9z"/>
</g>
<g class="st0">
	<g>
		<path d="M113.8,122.8V122h4v0.8H113.8z"/>
	</g>
	<g>
		<path d="M120.1,126.1v-6.3h-0.8V119h1.7v7.1H120.1z"/>
	</g>
</g>
<g>
	<g class="st0">
		<path d="M100.8,110.1v0.4h-2.2v-0.4H100.8z"/>
		<path d="M101.5,108.9v-0.5h1.1v3.9H102v-3.4H101.5z"/>
	</g>
	<g>
		<rect x="36.8" y="42.2" class="st1" width="12.2" height="8.1"/>
	</g>
	<g>
		<rect x="36.8" y="50.3" class="st2" width="12.2" height="8.1"/>
	</g>
	<g>
		<rect x="36.8" y="58.5" class="st3" width="12.2" height="8.1"/>
	</g>
	<g>
		<rect x="36.8" y="66.6" class="st4" width="12.2" height="8.1"/>
	</g>
	<g>
		<rect x="85.2" y="50.3" class="st5" width="12.3" height="8.1"/>
	</g>
	<g>
		<rect x="85.2" y="58.5" class="st6" width="12.3" height="8.1"/>
	</g>
	<g>
		<rect x="85.2" y="66.6" class="st7" width="12.4" height="8.1"/>
	</g>
	<g>
		<rect x="85.2" y="74.7" class="st8" width="12.3" height="8.2"/>
	</g>
	<g>
		<rect x="73.1" y="42.2" class="st9" width="12.2" height="8.1"/>
	</g>
	<g>
		<rect x="85.2" y="42.2" class="st10" width="12.3" height="8.1"/>
	</g>
	<g>
		<rect x="73.1" y="50.3" class="st11" width="12.2" height="8.1"/>
	</g>
	<g>
		<rect x="73.1" y="58.5" class="st12" width="12.2" height="8.1"/>
	</g>
	<g>
		<rect x="73.1" y="66.6" class="st13" width="12.2" height="8.1"/>
	</g>
	<g>
		<rect x="73.1" y="74.7" class="st14" width="12.2" height="8.2"/>
	</g>
	<g>
		<rect x="61.1" y="42.2" class="st15" width="12" height="8.1"/>
	</g>
	<g>
		<rect x="61.1" y="50.3" class="st16" width="12" height="8.1"/>
	</g>
	<g>
		<rect x="61.1" y="58.5" class="st17" width="12" height="8.1"/>
	</g>
	<g>
		<rect x="61.1" y="66.6" class="st18" width="12" height="8.1"/>
	</g>
	<g>
		<rect x="61.1" y="74.7" class="st19" width="12" height="8.2"/>
	</g>
	<g>
		<rect x="48.9" y="42.2" class="st20" width="12.2" height="8.1"/>
	</g>
	<g>
		<rect x="48.9" y="50.3" class="st21" width="12.2" height="8.1"/>
	</g>
	<g>
		<rect x="48.9" y="58.5" class="st22" width="12.2" height="8.1"/>
	</g>
	<g>
		<rect x="48.9" y="66.6" class="st23" width="12.2" height="8.1"/>
	</g>
	<g>
		<rect x="48.9" y="74.7" class="st24" width="12.2" height="8.2"/>
	</g>
	<g>
		<rect x="36.8" y="74.7" class="st25" width="12.2" height="8.2"/>
	</g>
	<g>
		<rect x="36.8" y="83" class="st26" width="12.2" height="8.1"/>
	</g>
	<g>
		<rect x="36.8" y="91.1" class="st27" width="12.2" height="8.1"/>
	</g>
	<g>
		<rect x="36.8" y="99.2" class="st28" width="12.2" height="8.1"/>
	</g>
	<g>
		<rect x="85.2" y="83" class="st29" width="12.3" height="8.1"/>
	</g>
	<g>
		<rect x="85.2" y="91.1" class="st30" width="12.3" height="8.1"/>
	</g>
	<g>
		<rect x="85.2" y="99.2" class="st31" width="12.3" height="8.1"/>
	</g>
	<g>
		<rect x="85.2" y="107.4" class="st32" width="12.3" height="8.1"/>
	</g>
	<g>
		<rect x="73.1" y="83" class="st33" width="12.2" height="8.1"/>
	</g>
	<g>
		<rect x="73.1" y="91.1" class="st34" width="12.2" height="8.1"/>
	</g>
	<g>
		<rect x="73.1" y="99.2" class="st35" width="12.2" height="8.1"/>
	</g>
	<g>
		<rect x="73.1" y="107.4" class="st36" width="12.2" height="8.1"/>
	</g>
	<g>
		<rect x="109.2" y="50.3" class="st37" width="11.7" height="8.1"/>
	</g>
	<g>
		<rect x="109.2" y="58.5" class="st38" width="11.7" height="8.1"/>
	</g>
	<g>
		<rect x="109.2" y="66.6" class="st39" width="11.7" height="8.1"/>
	</g>
	<g>
		<rect x="109.2" y="74.7" class="st40" width="11.7" height="8.2"/>
	</g>
	<g>
		<rect x="97.6" y="42.2" class="st41" width="11.7" height="8.1"/>
	</g>
	<g>
		<rect x="109.2" y="42.2" class="st42" width="11.7" height="8.1"/>
	</g>
	<g>
		<rect x="97.6" y="50.3" class="st43" width="11.7" height="8.1"/>
	</g>
	<g>
		<rect x="97.6" y="58.5" class="st44" width="11.7" height="8.1"/>
	</g>
	<g>
		<rect x="97.6" y="66.6" class="st45" width="11.7" height="8.1"/>
	</g>
	<g>
		<rect x="97.6" y="74.7" class="st46" width="11.7" height="8.2"/>
	</g>
	<g>
		<rect x="109.2" y="83" class="st47" width="11.7" height="8.1"/>
	</g>
	<g>
		<rect x="109.2" y="91.1" class="st48" width="11.7" height="8.1"/>
	</g>
	<g>
		<rect x="109.2" y="99.2" class="st49" width="11.7" height="8.1"/>
	</g>
	<g>
		<rect x="109.2" y="107.4" class="st50" width="11.7" height="8.1"/>
	</g>
	<g>
		<rect x="97.6" y="83" class="st51" width="11.7" height="8.1"/>
	</g>
	<g>
		<rect x="97.6" y="91.1" class="st52" width="11.7" height="8.1"/>
	</g>
	<g>
		<rect x="97.6" y="99.2" class="st53" width="11.7" height="8.1"/>
	</g>
	<g>
		<rect x="97.6" y="107.4" class="st54" width="11.7" height="8.1"/>
	</g>
	<g>
		<rect x="61.1" y="83" class="st55" width="12" height="8.1"/>
	</g>
	<g>
		<rect x="61.1" y="91.1" class="st56" width="12" height="8.1"/>
	</g>
	<g>
		<rect x="61.1" y="99.2" class="st57" width="12" height="8.1"/>
	</g>
	<g>
		<rect x="61.1" y="107.4" class="st58" width="12" height="8.1"/>
	</g>
	<g>
		<rect x="48.9" y="83" class="st59" width="12.2" height="8.1"/>
	</g>
	<g>
		<rect x="48.9" y="91.1" class="st60" width="12.2" height="8.1"/>
	</g>
	<g>
		<rect x="48.9" y="99.2" class="st61" width="12.2" height="8.1"/>
	</g>
	<g>
		<rect x="48.9" y="107.4" class="st62" width="12.2" height="8.1"/>
	</g>
	<g>
		<rect x="36.8" y="107.4" class="st63" width="12.2" height="8.1"/>
	</g>
</g>
<g>
	<path class="st64" d="M61.4,107.9h-25l0.4-33.6l12-0.1h12.6V107.9z M37.4,106.9h23V75.2H48.8l-11,0.1L37.4,106.9z"/>
</g>
<g class="st65">
	<rect x="289.4" y="112" class="st66" width="68.7" height="0.3"/>
</g>
<g class="st65">
	<rect x="280.2" y="102" class="st66" width="77" height="0.3"/>
</g>
<g class="st65">
	<rect x="270.2" y="92.1" class="st66" width="87" height="0.3"/>
</g>
<g class="st65">
	<rect x="260" y="82.1" class="st66" width="97.2" height="0.3"/>
</g>
<g class="st65">
	<rect x="260.5" y="72.1" class="st66" width="96.7" height="0.3"/>
</g>
<g class="st65">
	<rect x="270.2" y="62.1" class="st66" width="87" height="0.3"/>
</g>
<g class="st65">
	<rect x="280.2" y="52.1" class="st66" width="77" height="0.3"/>
</g>
<g class="st65">
	<rect x="290.2" y="42.1" class="st66" width="67" height="0.3"/>
</g>
<g id="Niger_4_">
	<path class="st66" d="M289.5,112.7l-35.4-35.4l36.1-36.1l35.5,35.4L289.5,112.7z M256.1,77.3l33.4,33.4l34.2-34.1l-33.5-33.4
		L256.1,77.3z"/>
</g>
<g id="Niger_3_">
	<path class="st66" d="M353.5,112.8l-5.5-5.6l5.6-5.5l5.5,5.5L353.5,112.8z M350,107.2l3.5,3.6l3.6-3.6l-3.5-3.5L350,107.2z"/>
</g>
<g>
	<path class="st67" d="M39.1,13c0,0,0.4,0,1.1-0.1c0.1,0.2,0.2,0.6,0.5,1.2s0.6,1.3,0.9,2.2s0.7,1.5,0.9,2.1c0,0,0,0,0,0s0,0,0,0
		c0.7-1.6,1.2-3,1.6-4.1l0.4-1.4c0.2,0,0.6,0,1,0c0.3,0,0.8,0,1.4-0.1c0,0,0,0.1,0,0.2c0,0.1,0,0.2,0,0.2h0c-0.2,0-0.4,0.1-0.6,0.2
		c-0.1,0.1-0.2,0.3-0.2,0.6c0,0.7,0.1,2.3,0.2,4.8c0,0.4,0.1,0.8,0.2,1.1c0,0.1,0.1,0.1,0.3,0.2s0.3,0.1,0.4,0.1c0,0,0,0.1,0,0.2
		c0,0.1,0,0.1,0,0.2c-0.9,0-1.4-0.1-1.4-0.1c-0.2,0-0.3,0-0.5,0s-0.4,0-0.6,0s-0.4,0-0.5,0c0,0,0-0.1,0-0.2c0-0.1,0-0.2,0-0.2
		c0.1,0,0.2,0,0.4-0.1s0.3-0.1,0.3-0.2c0.1-0.1,0.1-0.2,0.1-0.4V19L45,15.5c0-0.5-0.1-0.7-0.1-0.7c0,0,0,0-0.1,0.1l-2.2,5.5
		c-0.1,0.3-0.3,0.4-0.4,0.4c0,0-0.1,0-0.1,0l-2.6-6.3c-0.1,1.9-0.1,3.7-0.2,5.2c0,0.2,0,0.3,0,0.4c0,0.1,0.2,0.2,0.5,0.2
		s0.5,0.1,0.6,0.1c0,0,0,0.1,0,0.2c0,0.1,0,0.1,0,0.2c-0.9,0-1.4-0.1-1.5-0.1c-0.2,0-0.5,0-0.8,0s-0.6,0-0.6,0c0,0,0-0.1,0-0.2
		c0-0.1,0-0.2,0-0.2c0.1,0,0.3,0,0.6-0.1s0.4-0.2,0.5-0.3c0.1-0.1,0.1-0.4,0.1-0.8c0-0.6,0-1.3,0.1-2.1s0.1-1.5,0.1-2.1s0-0.9,0-1.1
		c0-0.1,0-0.3,0-0.3c0-0.1-0.2-0.1-0.4-0.2s-0.4-0.1-0.5-0.1c0,0,0-0.1,0-0.2c0-0.1,0-0.1,0-0.2c0.1,0,0.3,0,0.6,0S38.9,13,39.1,13z
		"/>
	<path class="st67" d="M50.5,15.5c0.5,0,0.8,0.1,1.1,0.4s0.4,0.7,0.4,1.3v2.3c0,0.2,0,0.3,0.1,0.4s0.2,0.1,0.3,0.1s0.2-0.1,0.4-0.2
		c0,0,0.1,0.1,0.1,0.1c0,0.2,0,0.3-0.1,0.4c-0.1,0.1-0.3,0.2-0.5,0.3s-0.4,0.2-0.6,0.2s-0.4-0.1-0.5-0.2s-0.3-0.3-0.3-0.4
		c0,0,0,0-0.1,0.1s-0.1,0.1-0.2,0.2s-0.2,0.1-0.3,0.2s-0.2,0.1-0.4,0.2s-0.3,0.1-0.5,0.1c-0.4,0-0.7-0.1-1-0.3S48,19.9,48,19.6
		c0-0.2,0-0.4,0.1-0.5s0.2-0.3,0.3-0.4s0.3-0.2,0.5-0.3s0.4-0.2,0.5-0.2s0.3-0.1,0.6-0.2s0.4-0.1,0.5-0.2c0.1,0,0.1-0.1,0.1-0.2
		v-0.6c0-0.3-0.1-0.5-0.2-0.6s-0.3-0.2-0.5-0.2c-0.2,0-0.4,0.1-0.6,0.2s-0.2,0.3-0.2,0.6c0,0.2-0.1,0.3-0.2,0.3s-0.2,0.1-0.4,0.1
		c-0.3,0-0.5-0.1-0.6-0.3c0-0.4,0.3-0.7,0.8-1.1S49.9,15.5,50.5,15.5z M49.9,20c0.2,0,0.4-0.1,0.5-0.2s0.2-0.2,0.2-0.4v-1.2
		c-0.1,0-0.2,0.1-0.3,0.1s-0.3,0.1-0.4,0.1s-0.2,0.1-0.3,0.2s-0.2,0.2-0.3,0.3s-0.1,0.2-0.1,0.3c0,0.2,0.1,0.4,0.2,0.6
		S49.8,20,49.9,20z"/>
	<path class="st67" d="M54,16.3h-0.7c-0.1,0-0.1-0.1-0.1-0.3c0-0.1,0-0.1,0-0.1c0.3-0.1,0.6-0.3,0.9-0.6c0.1-0.1,0.2-0.2,0.3-0.3
		s0.3-0.3,0.4-0.5c0.1,0,0.2,0,0.2,0s0.1,0,0.1,0.1v1.1c0.2,0,0.5,0,0.8,0s0.6,0,0.6,0c0.1,0,0.1,0,0.1,0.1c0,0.2,0,0.4-0.1,0.5
		h-1.4v2.8c0,0.3,0.1,0.6,0.2,0.7s0.3,0.2,0.6,0.2c0.1,0,0.2,0,0.2,0s0.2,0,0.2-0.1s0.1,0,0.2-0.1s0.1,0,0.1,0c0,0,0.1,0,0.1,0.1
		s0.1,0.1,0,0.2c0,0.1-0.2,0.2-0.5,0.4s-0.6,0.2-0.8,0.2c-0.4,0-0.8-0.1-1-0.4S54,19.7,54,19.2V16.3z"/>
	<path class="st67" d="M60.8,15.5c0.4,0,0.8,0.1,1,0.4c0,0.7-0.2,1-0.6,1c-0.1,0-0.3-0.1-0.5-0.2s-0.3-0.2-0.5-0.2
		c-0.2,0-0.4,0.1-0.6,0.4s-0.2,0.5-0.2,0.8V19c0,0.5,0,0.8,0.1,1.1c0,0.1,0.1,0.1,0.3,0.2s0.3,0.1,0.4,0.1c0,0,0,0.1,0,0.2
		s0,0.2,0,0.2c-0.1,0-0.3,0-0.6,0s-0.6,0-0.8,0c-0.2,0-0.5,0-0.8,0s-0.6,0-0.6,0c0,0,0-0.1,0-0.2s0-0.2,0-0.2c0.1,0,0.2,0,0.4-0.1
		s0.3-0.1,0.3-0.2c0.1-0.2,0.1-0.5,0.1-0.9v-1.9c0-0.4-0.1-0.6-0.2-0.8c-0.1-0.1-0.2-0.1-0.3-0.2s-0.2-0.1-0.3-0.1s-0.1,0-0.1,0
		c0-0.2,0-0.3,0.1-0.4c0.4,0,1-0.1,1.9-0.4c0.1,0,0.1,0,0.1,0c0,0,0.1,0,0.1,0.1s0,0.1,0,0.1s0,0.1,0,0.2s0,0.2,0,0.2s0,0.1,0,0.2
		c0.1-0.2,0.3-0.4,0.6-0.6S60.6,15.5,60.8,15.5z"/>
	<path class="st67" d="M64.5,19c0,0.5,0,0.8,0.1,1.1c0,0.1,0.1,0.1,0.3,0.2s0.3,0.1,0.4,0.1c0,0,0,0.1,0.1,0.2s0,0.2,0,0.2
		c-0.1,0-0.3,0-0.6,0s-0.6,0-0.8,0c-0.2,0-0.5,0-0.8,0s-0.6,0-0.6,0c0,0,0-0.1,0-0.2s0-0.2,0-0.2c0.1,0,0.2,0,0.4-0.1
		s0.3-0.1,0.3-0.2c0.1-0.2,0.1-0.5,0.1-0.9v-1.9c0-0.4-0.1-0.6-0.2-0.8c-0.1-0.1-0.2-0.1-0.3-0.2s-0.2-0.1-0.3-0.1s-0.1,0-0.1,0
		c0-0.2,0-0.3,0.1-0.4c0.2,0,0.5-0.1,0.9-0.1s0.7-0.1,0.9-0.2c0,0,0,0,0.1,0c0,0,0.1,0,0.1,0.1s0,0.1,0,0.1c-0.1,0.5-0.1,0.8-0.1,1
		V19z M63.3,14.1c-0.1-0.1-0.2-0.3-0.2-0.5s0.1-0.4,0.2-0.5s0.3-0.2,0.5-0.2s0.4,0.1,0.5,0.2s0.2,0.3,0.2,0.5s-0.1,0.4-0.2,0.5
		s-0.3,0.2-0.5,0.2S63.5,14.3,63.3,14.1z"/>
	<path class="st67" d="M68.5,15.5c0.4,0,0.8,0.1,1.1,0.2s0.6,0.3,0.7,0.5c0,0.3,0,0.5-0.1,0.7s-0.2,0.3-0.4,0.3
		c-0.1,0-0.3,0-0.4-0.1s-0.2-0.2-0.3-0.4c-0.2-0.4-0.4-0.5-0.8-0.5c-0.3,0-0.6,0.2-0.8,0.5s-0.3,0.8-0.3,1.3c0,0.7,0.1,1.2,0.4,1.6
		s0.7,0.5,1.1,0.5c0.1,0,0.2,0,0.3,0s0.2,0,0.3-0.1s0.2-0.1,0.2-0.1s0.1-0.1,0.2-0.1s0.1-0.1,0.2-0.1s0.1-0.1,0.2-0.2
		c0,0,0,0,0.1,0.1s0,0.1,0,0.1c0,0.1,0,0.2-0.1,0.2c-0.1,0.2-0.3,0.4-0.7,0.6s-0.7,0.3-1.1,0.3c-0.7,0-1.3-0.3-1.8-0.8
		s-0.7-1.1-0.7-1.9c0-0.7,0.2-1.3,0.7-1.8S67.7,15.5,68.5,15.5z"/>
	<path class="st67" d="M73.5,15.5c0.4,0,0.7,0.1,1,0.2s0.5,0.3,0.7,0.6s0.3,0.5,0.4,0.7s0.1,0.5,0.1,0.7c0,0.2,0,0.3-0.1,0.3
		s-0.2,0.1-0.4,0.1h-2.8c-0.1,0-0.1,0-0.1,0.1c0,0.3,0.1,0.6,0.2,0.8s0.3,0.5,0.5,0.7s0.5,0.3,0.9,0.3c0.1,0,0.2,0,0.3,0
		s0.2,0,0.3-0.1s0.2-0.1,0.2-0.1s0.1-0.1,0.2-0.1s0.1-0.1,0.2-0.1s0.1-0.1,0.2-0.2c0,0,0,0,0.1,0.1s0,0.1,0,0.1c0,0.1,0,0.2-0.1,0.2
		c-0.1,0.2-0.3,0.4-0.7,0.6s-0.7,0.3-1.2,0.3c-0.7,0-1.3-0.3-1.8-0.8S71,18.9,71,18.2c0-0.8,0.2-1.4,0.7-1.9S72.8,15.5,73.5,15.5z
		 M73.4,16.1c-0.2,0-0.4,0.1-0.5,0.2s-0.3,0.2-0.3,0.4s-0.1,0.3-0.2,0.4s-0.1,0.3-0.1,0.3c0,0.1,0,0.1,0.1,0.1h1.9
		c0.1,0,0.1-0.1,0.1-0.2c0-0.3-0.1-0.6-0.3-0.8S73.7,16.1,73.4,16.1z"/>
	<path class="st67" d="M80.2,13c0.2,0,0.5,0,0.8,0s0.6,0,0.8,0s0.5,0,0.7,0.1s0.5,0.1,0.7,0.2s0.4,0.2,0.6,0.4s0.3,0.4,0.4,0.6
		s0.2,0.5,0.2,0.8c0,0.4-0.1,0.7-0.3,1.1s-0.5,0.7-0.9,0.9s-0.8,0.4-1.3,0.4c-0.2,0-0.3,0-0.5-0.1s-0.3-0.1-0.3-0.2c0,0,0-0.1,0-0.1
		s0-0.1,0-0.2s0-0.1,0-0.1c0.2,0.1,0.4,0.1,0.7,0.1c0.4,0,0.7-0.2,0.9-0.5s0.3-0.7,0.3-1.2c0-0.5-0.1-0.9-0.3-1.2s-0.5-0.5-1-0.5
		c-0.3,0-0.6,0-0.7,0.1c-0.1,0-0.1,0.5-0.1,1.2V19c0,0.5,0,0.8,0.1,1c0,0.1,0.2,0.2,0.4,0.2s0.4,0.1,0.5,0.1c0,0,0,0.1,0,0.2
		c0,0.1,0,0.2,0,0.2c-0.9,0-1.4-0.1-1.7-0.1c-0.2,0-0.4,0-0.7,0s-0.5,0-0.6,0l-0.2,0c0,0,0-0.1,0-0.2c0-0.1,0-0.2,0-0.2
		c0.1,0,0.3,0,0.5-0.1s0.3-0.1,0.3-0.2c0-0.1,0.1-0.5,0.1-1.1v-4.4c0-0.4,0-0.8-0.1-1c0-0.1-0.1-0.1-0.3-0.2s-0.4-0.1-0.5-0.1
		c0,0,0-0.1,0-0.2s0-0.2,0-0.2C79.5,13,80,13,80.2,13z"/>
	<path class="st67" d="M88.5,15.5c0.4,0,0.8,0.1,1,0.4c0,0.7-0.2,1-0.6,1c-0.1,0-0.3-0.1-0.5-0.2s-0.3-0.2-0.5-0.2
		c-0.2,0-0.4,0.1-0.6,0.4s-0.2,0.5-0.2,0.8V19c0,0.5,0,0.8,0.1,1.1c0,0.1,0.1,0.1,0.3,0.2s0.3,0.1,0.4,0.1c0,0,0,0.1,0,0.2
		s0,0.2,0,0.2c-0.1,0-0.3,0-0.6,0s-0.6,0-0.8,0c-0.2,0-0.5,0-0.8,0s-0.6,0-0.6,0c0,0,0-0.1,0-0.2s0-0.2,0-0.2c0.1,0,0.2,0,0.4-0.1
		s0.3-0.1,0.3-0.2c0.1-0.2,0.1-0.5,0.1-0.9v-1.9c0-0.4-0.1-0.6-0.2-0.8c-0.1-0.1-0.2-0.1-0.3-0.2s-0.2-0.1-0.3-0.1s-0.1,0-0.1,0
		c0-0.2,0-0.3,0.1-0.4c0.4,0,1-0.1,1.9-0.4c0.1,0,0.1,0,0.1,0c0,0,0.1,0,0.1,0.1s0,0.1,0,0.1s0,0.1,0,0.2s0,0.2,0,0.2s0,0.1,0,0.2
		c0.1-0.2,0.3-0.4,0.6-0.6S88.2,15.5,88.5,15.5z"/>
	<path class="st67" d="M92.5,15.5c0.4,0,0.7,0.1,1,0.2s0.5,0.3,0.7,0.6s0.3,0.5,0.4,0.7s0.1,0.5,0.1,0.7c0,0.2,0,0.3-0.1,0.3
		s-0.2,0.1-0.4,0.1h-2.8c-0.1,0-0.1,0-0.1,0.1c0,0.3,0.1,0.6,0.2,0.8s0.3,0.5,0.5,0.7s0.5,0.3,0.9,0.3c0.1,0,0.2,0,0.3,0
		s0.2,0,0.3-0.1s0.2-0.1,0.2-0.1s0.1-0.1,0.2-0.1s0.1-0.1,0.2-0.1s0.1-0.1,0.2-0.2c0,0,0,0,0.1,0.1s0,0.1,0,0.1c0,0.1,0,0.2-0.1,0.2
		c-0.1,0.2-0.3,0.4-0.7,0.6s-0.7,0.3-1.2,0.3c-0.7,0-1.3-0.3-1.8-0.8S90,18.9,90,18.2c0-0.8,0.2-1.4,0.7-1.9S91.8,15.5,92.5,15.5z
		 M92.4,16.1c-0.2,0-0.4,0.1-0.5,0.2s-0.3,0.2-0.3,0.4s-0.1,0.3-0.2,0.4s-0.1,0.3-0.1,0.3c0,0.1,0,0.1,0.1,0.1h1.9
		c0.1,0,0.1-0.1,0.1-0.2c0-0.3-0.1-0.6-0.3-0.8S92.7,16.1,92.4,16.1z"/>
	<path class="st67" d="M98.4,15.5c0.5,0,0.9,0.1,1.3,0.4s0.7,0.6,0.9,0.9s0.3,0.8,0.3,1.1c0,0.8-0.3,1.5-0.8,2s-1.2,0.8-1.9,0.8
		c-0.2,0-0.5-0.1-0.8-0.2c0,0,0,0.1,0,0.2v0.8c0,0.5,0,0.8,0.1,1.1c0,0.1,0.1,0.1,0.3,0.2s0.3,0.1,0.4,0.1c0,0,0,0.1,0,0.2
		s0,0.2,0,0.2c-0.1,0-0.3,0-0.6,0s-0.6,0-0.8,0c-0.2,0-0.5,0-0.8,0s-0.6,0-0.6,0c0,0,0-0.1,0-0.2s0-0.2,0-0.2c0.1,0,0.2,0,0.4-0.1
		s0.3-0.1,0.3-0.2c0-0.2,0.1-0.5,0.1-0.8v-4.5c0-0.4-0.1-0.6-0.2-0.8c-0.1-0.1-0.1-0.1-0.3-0.2s-0.2-0.1-0.3-0.1s-0.1,0-0.1,0
		c0-0.2,0-0.3,0.1-0.4c0.6-0.1,1.2-0.2,1.7-0.3c0.1,0,0.2-0.1,0.2-0.1c0,0,0,0.1,0,0.2c0,0,0,0.1,0,0.1c0.1-0.1,0.3-0.2,0.5-0.3
		S98.2,15.5,98.4,15.5z M98.1,16.2c-0.3,0-0.5,0.1-0.6,0.2s-0.2,0.3-0.2,0.6v2.4c0,0.3,0.1,0.5,0.3,0.6s0.4,0.2,0.7,0.2
		c0.4,0,0.7-0.2,0.9-0.5s0.4-0.8,0.4-1.4c0-0.6-0.1-1.2-0.4-1.6S98.5,16.2,98.1,16.2z"/>
	<path class="st67" d="M104,15.5c0.5,0,0.8,0.1,1.1,0.4s0.4,0.7,0.4,1.3v2.3c0,0.2,0,0.3,0.1,0.4s0.2,0.1,0.3,0.1s0.2-0.1,0.4-0.2
		c0,0,0.1,0.1,0.1,0.1c0,0.2,0,0.3-0.1,0.4c-0.1,0.1-0.3,0.2-0.5,0.3s-0.4,0.2-0.6,0.2s-0.4-0.1-0.5-0.2s-0.3-0.3-0.3-0.4
		c0,0,0,0-0.1,0.1s-0.1,0.1-0.2,0.2s-0.2,0.1-0.3,0.2s-0.2,0.1-0.4,0.2s-0.3,0.1-0.5,0.1c-0.4,0-0.7-0.1-1-0.3s-0.4-0.5-0.4-0.9
		c0-0.2,0-0.4,0.1-0.5s0.2-0.3,0.3-0.4s0.3-0.2,0.5-0.3s0.4-0.2,0.5-0.2s0.3-0.1,0.6-0.2s0.4-0.1,0.5-0.2c0.1,0,0.1-0.1,0.1-0.2
		v-0.6c0-0.3-0.1-0.5-0.2-0.6s-0.3-0.2-0.5-0.2c-0.2,0-0.4,0.1-0.6,0.2s-0.2,0.3-0.2,0.6c0,0.2-0.1,0.3-0.2,0.3s-0.2,0.1-0.4,0.1
		c-0.3,0-0.5-0.1-0.6-0.3c0-0.4,0.3-0.7,0.8-1.1S103.4,15.5,104,15.5z M103.4,20c0.2,0,0.4-0.1,0.5-0.2s0.2-0.2,0.2-0.4v-1.2
		c-0.1,0-0.2,0.1-0.3,0.1s-0.3,0.1-0.4,0.1s-0.2,0.1-0.3,0.2s-0.2,0.2-0.3,0.3s-0.1,0.2-0.1,0.3c0,0.2,0.1,0.4,0.2,0.6
		S103.2,20,103.4,20z"/>
	<path class="st67" d="M110.2,15.5c0.4,0,0.8,0.1,1,0.4c0,0.7-0.2,1-0.6,1c-0.1,0-0.3-0.1-0.5-0.2s-0.3-0.2-0.5-0.2
		c-0.2,0-0.4,0.1-0.6,0.4s-0.2,0.5-0.2,0.8V19c0,0.5,0,0.8,0.1,1.1c0,0.1,0.1,0.1,0.3,0.2s0.3,0.1,0.4,0.1c0,0,0,0.1,0,0.2
		s0,0.2,0,0.2c-0.1,0-0.3,0-0.6,0s-0.6,0-0.8,0c-0.2,0-0.5,0-0.8,0s-0.6,0-0.6,0c0,0,0-0.1,0-0.2s0-0.2,0-0.2c0.1,0,0.2,0,0.4-0.1
		s0.3-0.1,0.3-0.2c0.1-0.2,0.1-0.5,0.1-0.9v-1.9c0-0.4-0.1-0.6-0.2-0.8c-0.1-0.1-0.2-0.1-0.3-0.2s-0.2-0.1-0.3-0.1s-0.1,0-0.1,0
		c0-0.2,0-0.3,0.1-0.4c0.4,0,1-0.1,1.9-0.4c0.1,0,0.1,0,0.1,0c0,0,0.1,0,0.1,0.1s0,0.1,0,0.1s0,0.1,0,0.2s0,0.2,0,0.2s0,0.1,0,0.2
		c0.1-0.2,0.3-0.4,0.6-0.6S110,15.5,110.2,15.5z"/>
	<path class="st67" d="M114.3,15.5c0.5,0,0.8,0.1,1.1,0.4s0.4,0.7,0.4,1.3v2.3c0,0.2,0,0.3,0.1,0.4s0.2,0.1,0.3,0.1s0.2-0.1,0.4-0.2
		c0,0,0.1,0.1,0.1,0.1c0,0.2,0,0.3-0.1,0.4c-0.1,0.1-0.3,0.2-0.5,0.3s-0.4,0.2-0.6,0.2s-0.4-0.1-0.5-0.2s-0.3-0.3-0.3-0.4
		c0,0,0,0-0.1,0.1s-0.1,0.1-0.2,0.2s-0.2,0.1-0.3,0.2s-0.2,0.1-0.4,0.2s-0.3,0.1-0.5,0.1c-0.4,0-0.7-0.1-1-0.3s-0.4-0.5-0.4-0.9
		c0-0.2,0-0.4,0.1-0.5s0.2-0.3,0.3-0.4s0.3-0.2,0.5-0.3s0.4-0.2,0.5-0.2s0.3-0.1,0.6-0.2s0.4-0.1,0.5-0.2c0.1,0,0.1-0.1,0.1-0.2
		v-0.6c0-0.3-0.1-0.5-0.2-0.6s-0.3-0.2-0.5-0.2c-0.2,0-0.4,0.1-0.6,0.2s-0.2,0.3-0.2,0.6c0,0.2-0.1,0.3-0.2,0.3s-0.2,0.1-0.4,0.1
		c-0.3,0-0.5-0.1-0.6-0.3c0-0.4,0.3-0.7,0.8-1.1S113.7,15.5,114.3,15.5z M113.8,20c0.2,0,0.4-0.1,0.5-0.2s0.2-0.2,0.2-0.4v-1.2
		c-0.1,0-0.2,0.1-0.3,0.1s-0.3,0.1-0.4,0.1s-0.2,0.1-0.3,0.2s-0.2,0.2-0.3,0.3s-0.1,0.2-0.1,0.3c0,0.2,0.1,0.4,0.2,0.6
		S113.6,20,113.8,20z"/>
	<path class="st67" d="M118.7,20.1C118.7,20.1,118.7,20.1,118.7,20.1c0.1,0.1,0.1,0.1,0.1,0.1h1.1c0.6,0,1-0.3,1.2-0.9
		c0-0.1,0.1-0.1,0.2-0.1s0.2,0,0.2,0.1l-0.2,1.5h-4c-0.2-0.1-0.2-0.2-0.2-0.3c0,0,0,0,0,0l2.7-4.1l-1.2,0c-0.1,0-0.2,0-0.2,0
		s-0.1,0-0.2,0.1s-0.1,0.1-0.2,0.1s-0.1,0.1-0.1,0.1s-0.1,0.1-0.1,0.1s-0.1,0.1-0.1,0.1s0,0.1-0.1,0.1s0,0.1,0,0.1
		c0,0-0.1,0.1-0.3,0.1c-0.1,0-0.1,0-0.1,0c0,0,0-0.2,0.1-0.6s0.1-0.7,0.1-0.9c0.5,0,0.8,0.1,1.1,0.1h1.4c0.5,0,1,0,1.5-0.1
		c0,0,0,0.1,0,0.3l-2.7,4C118.7,20,118.7,20,118.7,20.1z"/>
	<path class="st67" d="M124.3,19c0,0.5,0,0.8,0.1,1.1c0,0.1,0.1,0.1,0.3,0.2s0.3,0.1,0.4,0.1c0,0,0,0.1,0.1,0.2s0,0.2,0,0.2
		c-0.1,0-0.3,0-0.6,0s-0.6,0-0.8,0c-0.2,0-0.5,0-0.8,0s-0.6,0-0.6,0c0,0,0-0.1,0-0.2s0-0.2,0-0.2c0.1,0,0.2,0,0.4-0.1
		s0.3-0.1,0.3-0.2c0.1-0.2,0.1-0.5,0.1-0.9v-1.9c0-0.4-0.1-0.6-0.2-0.8c-0.1-0.1-0.2-0.1-0.3-0.2s-0.2-0.1-0.3-0.1s-0.1,0-0.1,0
		c0-0.2,0-0.3,0.1-0.4c0.2,0,0.5-0.1,0.9-0.1s0.7-0.1,0.9-0.2c0,0,0,0,0.1,0c0,0,0.1,0,0.1,0.1s0,0.1,0,0.1c-0.1,0.5-0.1,0.8-0.1,1
		V19z M123.1,14.1c-0.1-0.1-0.2-0.3-0.2-0.5s0.1-0.4,0.2-0.5s0.3-0.2,0.5-0.2s0.4,0.1,0.5,0.2s0.2,0.3,0.2,0.5s-0.1,0.4-0.2,0.5
		s-0.3,0.2-0.5,0.2S123.2,14.3,123.1,14.1z"/>
	<path class="st67" d="M128.3,15.5c0.7,0,1.4,0.3,1.9,0.8s0.8,1.1,0.8,1.9s-0.3,1.3-0.8,1.9s-1.1,0.8-1.9,0.8s-1.4-0.3-1.9-0.8
		s-0.8-1.1-0.8-1.9c0-0.7,0.3-1.4,0.8-1.9S127.6,15.5,128.3,15.5z M128.2,16.1c-0.4,0-0.7,0.2-0.9,0.5s-0.3,0.8-0.3,1.3
		c0,0.6,0.1,1.2,0.4,1.7s0.6,0.7,1.1,0.7c0.4,0,0.7-0.2,0.9-0.5s0.3-0.8,0.3-1.3c0-0.4-0.1-0.8-0.2-1.1s-0.3-0.6-0.5-0.9
		S128.5,16.1,128.2,16.1z"/>
	<path class="st67" d="M135.5,15.5c1,0,1.5,0.8,1.5,2.4V19c0,0.5,0,0.8,0.1,1.1c0,0.1,0.1,0.1,0.3,0.2s0.3,0.1,0.4,0.1
		c0,0,0,0.1,0,0.2s0,0.2,0,0.2c0,0-0.3,0-0.6,0s-0.6,0-0.8,0c-0.2,0-0.4,0-0.8,0s-0.5,0-0.6,0c0,0,0-0.1,0-0.2s0-0.2,0-0.2
		c0.1,0,0.2,0,0.4-0.1s0.3-0.1,0.3-0.2c0.1-0.2,0.1-0.5,0.1-0.9v-1.1c0-0.6-0.1-1.1-0.3-1.4s-0.5-0.4-0.8-0.4
		c-0.2,0-0.5,0.1-0.7,0.2s-0.3,0.3-0.3,0.4v2c0,0.5,0,0.8,0.1,1.1c0,0.1,0.1,0.1,0.3,0.2s0.3,0.1,0.4,0.1c0,0,0,0.1,0.1,0.2
		s0,0.2,0,0.2c-0.1,0-0.3,0-0.6,0s-0.6,0-0.8,0c-0.2,0-0.5,0-0.8,0s-0.6,0-0.6,0c0,0,0-0.1,0-0.2s0-0.2,0-0.2c0.1,0,0.2,0,0.4-0.1
		s0.3-0.1,0.3-0.2c0.1-0.2,0.1-0.5,0.1-0.9v-1.9c0-0.4-0.1-0.6-0.2-0.8c-0.1-0.1-0.2-0.1-0.3-0.2s-0.2-0.1-0.3-0.1s-0.1,0-0.1,0
		c0-0.2,0-0.3,0.1-0.4c0.4,0,1-0.1,1.9-0.4c0,0,0,0,0,0s0,0,0,0s0,0,0,0c0,0,0.1,0,0.1,0.1s0,0.1,0,0.1c0,0.2,0,0.4,0,0.4
		c0,0,0,0.1,0,0.1c0,0,0,0,0.1,0c0.2-0.2,0.4-0.4,0.7-0.5S135.2,15.5,135.5,15.5z"/>
	<path class="st67" d="M140.9,15.5c0.4,0,0.7,0.1,1,0.2s0.5,0.3,0.7,0.6s0.3,0.5,0.4,0.7s0.1,0.5,0.1,0.7c0,0.2,0,0.3-0.1,0.3
		s-0.2,0.1-0.4,0.1h-2.8c-0.1,0-0.1,0-0.1,0.1c0,0.3,0.1,0.6,0.2,0.8s0.3,0.5,0.5,0.7s0.5,0.3,0.9,0.3c0.1,0,0.2,0,0.3,0
		s0.2,0,0.3-0.1s0.2-0.1,0.2-0.1s0.1-0.1,0.2-0.1s0.1-0.1,0.2-0.1s0.1-0.1,0.2-0.2c0,0,0,0,0.1,0.1s0,0.1,0,0.1c0,0.1,0,0.2-0.1,0.2
		c-0.1,0.2-0.3,0.4-0.7,0.6s-0.7,0.3-1.2,0.3c-0.7,0-1.3-0.3-1.8-0.8s-0.7-1.1-0.7-1.8c0-0.8,0.2-1.4,0.7-1.9S140.2,15.5,140.9,15.5
		z M140.8,16.1c-0.2,0-0.4,0.1-0.5,0.2s-0.3,0.2-0.3,0.4s-0.1,0.3-0.2,0.4s-0.1,0.3-0.1,0.3c0,0.1,0,0.1,0.1,0.1h1.9
		c0.1,0,0.1-0.1,0.1-0.2c0-0.3-0.1-0.6-0.3-0.8S141.1,16.1,140.8,16.1z"/>
	<path class="st67" d="M143.6,18.3c0-0.4,0-0.7,0.1-0.7h0l2.8-0.1h0c0,0,0.1,0,0.1,0.1c0,0.2,0,0.3,0,0.4s-0.1,0.2-0.1,0.2l0,0
		l-2.8,0.1c0,0,0,0,0,0S143.7,18.4,143.6,18.3C143.6,18.3,143.6,18.3,143.6,18.3z"/>
	<path class="st67" d="M151.7,16.3c-0.1-0.2-0.4-0.3-0.8-0.3c0,0,0-0.1,0-0.2s0-0.2,0-0.2c0.1,0,0.3,0,0.6,0s0.5,0,0.7,0
		s0.4,0,0.7,0s0.5,0,0.6,0c0,0,0,0.1,0,0.2c0,0.1,0,0.2-0.1,0.2c-0.1,0-0.3,0-0.5,0.1s-0.3,0.2-0.4,0.3l-2,4.1
		c0,0.1-0.1,0.1-0.2,0.2s-0.1,0.1-0.2,0.1c-0.1,0-0.1,0-0.1-0.1c-0.2-0.4-0.4-0.8-0.6-1.5s-0.5-1.1-0.7-1.6s-0.4-0.9-0.7-1.5
		c-0.1-0.2-0.3-0.3-0.8-0.3c0,0,0-0.1,0-0.2c0-0.1,0-0.2,0-0.2c0.1,0,0.3,0,0.6,0s0.6,0,0.8,0s0.5,0,0.8,0s0.6,0,0.6,0
		c0,0,0,0.1,0,0.2s0,0.2-0.1,0.2c-0.1,0-0.2,0-0.4,0.1s-0.3,0.1-0.3,0.2c0,0.1,0,0.1,0,0.1l1.2,2.7l1.1-2.3
		C151.8,16.5,151.8,16.3,151.7,16.3z"/>
	<path class="st67" d="M159.1,16.8v2.3c0,0.4,0,0.6,0.1,0.8c0,0,0.1,0.1,0.1,0.1s0.1,0,0.2,0s0.1,0,0.2,0s0.1,0,0.1,0c0,0,0,0,0,0.1
		c0,0,0,0.1,0,0.2s0,0.1-0.1,0.1c-0.1,0-0.2,0-0.4,0s-0.3,0.1-0.5,0.1s-0.3,0.1-0.4,0.1s-0.3,0.1-0.5,0.1c-0.1,0-0.1-0.1-0.1-0.2
		v-0.5c0,0,0-0.1,0-0.1c-0.2,0.2-0.4,0.4-0.7,0.5s-0.6,0.2-0.9,0.2c-0.3,0-0.5-0.1-0.7-0.2s-0.4-0.3-0.5-0.5s-0.2-0.4-0.2-0.7
		s-0.1-0.5-0.1-0.7v-1.3c0-0.4-0.1-0.6-0.2-0.8c-0.1-0.1-0.2-0.1-0.3-0.2s-0.2-0.1-0.3-0.1s-0.1,0-0.1,0c0-0.2,0-0.3,0.1-0.4
		c0.2,0,0.5-0.1,1-0.1s0.7-0.1,0.9-0.2c0,0,0,0,0,0s0,0,0,0c0,0,0.1,0,0.1,0.1s0,0.1,0,0.1c-0.1,0.5-0.1,0.9-0.1,1v1.4
		c0,0.6,0.1,1,0.3,1.3s0.4,0.4,0.8,0.4c0.2,0,0.5-0.1,0.6-0.2s0.3-0.3,0.3-0.4v-1.9c0-0.4-0.1-0.6-0.2-0.8c-0.1-0.1-0.2-0.1-0.3-0.2
		s-0.2-0.1-0.3-0.1s-0.1,0-0.1,0c0-0.2,0-0.3,0.1-0.4c0.2,0,0.5-0.1,0.9-0.1s0.7-0.1,0.9-0.2c0,0,0,0,0.1,0c0,0,0.1,0,0.1,0.1
		s0,0.1,0,0.1C159.1,16.3,159.1,16.6,159.1,16.8z"/>
	<path class="st67" d="M162.5,19c0,0.5,0,0.8,0.1,1.1c0,0.1,0.1,0.1,0.3,0.2s0.3,0.1,0.4,0.1c0,0,0,0.1,0,0.2s0,0.2,0,0.2
		c-0.1,0-0.3,0-0.4,0s-0.3,0-0.5,0s-0.3,0-0.4,0c-0.1,0-0.3,0-0.4,0s-0.3,0-0.5,0s-0.3,0-0.4,0c0,0,0-0.1,0-0.2s0-0.2,0-0.2
		c0.1,0,0.2,0,0.4-0.1s0.3-0.1,0.3-0.2c0.1-0.3,0.1-0.6,0.1-0.9v-4.9c0-0.3,0-0.6-0.1-0.8c0-0.1-0.2-0.2-0.6-0.2h-0.1
		c0,0-0.1,0-0.1-0.1c0-0.1,0-0.2,0.1-0.2c0.2,0,0.5-0.1,0.7-0.1s0.4-0.1,0.5-0.1s0.3-0.1,0.4-0.1s0.2-0.1,0.3-0.1l0.1,0h0
		c0,0,0.1,0,0.1,0.1s0.1,0.1,0.1,0.1c-0.1,0.3-0.1,0.7-0.1,1.1V19z"/>
	<path class="st67" d="M167.7,15.5c1,0,1.5,0.8,1.5,2.4V19c0,0.5,0,0.8,0.1,1.1c0,0.1,0.1,0.1,0.3,0.2s0.3,0.1,0.4,0.1
		c0,0,0,0.1,0,0.2s0,0.2,0,0.2c0,0-0.3,0-0.6,0s-0.6,0-0.8,0c-0.2,0-0.4,0-0.8,0s-0.5,0-0.6,0c0,0,0-0.1,0-0.2s0-0.2,0-0.2
		c0.1,0,0.2,0,0.4-0.1s0.3-0.1,0.3-0.2c0.1-0.2,0.1-0.5,0.1-0.9v-1.1c0-0.6-0.1-1.1-0.3-1.4s-0.5-0.4-0.8-0.4
		c-0.2,0-0.5,0.1-0.7,0.2S166,16.9,166,17v2c0,0.5,0,0.8,0.1,1.1c0,0.1,0.1,0.1,0.3,0.2s0.3,0.1,0.4,0.1c0,0,0,0.1,0.1,0.2
		s0,0.2,0,0.2c-0.1,0-0.3,0-0.6,0s-0.6,0-0.8,0c-0.2,0-0.5,0-0.8,0s-0.6,0-0.6,0c0,0,0-0.1,0-0.2s0-0.2,0-0.2c0.1,0,0.2,0,0.4-0.1
		s0.3-0.1,0.3-0.2c0.1-0.2,0.1-0.5,0.1-0.9v-1.9c0-0.4-0.1-0.6-0.2-0.8c-0.1-0.1-0.2-0.1-0.3-0.2s-0.2-0.1-0.3-0.1s-0.1,0-0.1,0
		c0-0.2,0-0.3,0.1-0.4c0.4,0,1-0.1,1.9-0.4c0,0,0,0,0,0s0,0,0,0s0,0,0,0c0,0,0.1,0,0.1,0.1s0,0.1,0,0.1c0,0.2,0,0.4,0,0.4
		c0,0,0,0.1,0,0.1c0,0,0,0,0.1,0c0.2-0.2,0.4-0.4,0.7-0.5S167.4,15.5,167.7,15.5z"/>
	<path class="st67" d="M173.2,15.5c0.4,0,0.7,0.1,1,0.2s0.5,0.3,0.7,0.6s0.3,0.5,0.4,0.7s0.1,0.5,0.1,0.7c0,0.2,0,0.3-0.1,0.3
		s-0.2,0.1-0.4,0.1h-2.8c-0.1,0-0.1,0-0.1,0.1c0,0.3,0.1,0.6,0.2,0.8s0.3,0.5,0.5,0.7s0.5,0.3,0.9,0.3c0.1,0,0.2,0,0.3,0
		s0.2,0,0.3-0.1s0.2-0.1,0.2-0.1s0.1-0.1,0.2-0.1s0.1-0.1,0.2-0.1s0.1-0.1,0.2-0.2c0,0,0,0,0.1,0.1s0,0.1,0,0.1c0,0.1,0,0.2-0.1,0.2
		c-0.1,0.2-0.3,0.4-0.7,0.6s-0.7,0.3-1.2,0.3c-0.7,0-1.3-0.3-1.8-0.8s-0.7-1.1-0.7-1.8c0-0.8,0.2-1.4,0.7-1.9S172.5,15.5,173.2,15.5
		z M173.1,16.1c-0.2,0-0.4,0.1-0.5,0.2s-0.3,0.2-0.3,0.4s-0.1,0.3-0.2,0.4s-0.1,0.3-0.1,0.3c0,0.1,0,0.1,0.1,0.1h1.9
		c0.1,0,0.1-0.1,0.1-0.2c0-0.3-0.1-0.6-0.3-0.8S173.4,16.1,173.1,16.1z"/>
	<path class="st67" d="M179.3,15.5c0.4,0,0.8,0.1,1,0.4c0,0.7-0.2,1-0.6,1c-0.1,0-0.3-0.1-0.5-0.2s-0.3-0.2-0.5-0.2
		c-0.2,0-0.4,0.1-0.6,0.4s-0.2,0.5-0.2,0.8V19c0,0.5,0,0.8,0.1,1.1c0,0.1,0.1,0.1,0.3,0.2s0.3,0.1,0.4,0.1c0,0,0,0.1,0,0.2
		s0,0.2,0,0.2c-0.1,0-0.3,0-0.6,0s-0.6,0-0.8,0c-0.2,0-0.5,0-0.8,0s-0.6,0-0.6,0c0,0,0-0.1,0-0.2s0-0.2,0-0.2c0.1,0,0.2,0,0.4-0.1
		s0.3-0.1,0.3-0.2c0.1-0.2,0.1-0.5,0.1-0.9v-1.9c0-0.4-0.1-0.6-0.2-0.8c-0.1-0.1-0.2-0.1-0.3-0.2s-0.2-0.1-0.3-0.1s-0.1,0-0.1,0
		c0-0.2,0-0.3,0.1-0.4c0.4,0,1-0.1,1.9-0.4c0.1,0,0.1,0,0.1,0c0,0,0.1,0,0.1,0.1s0,0.1,0,0.1s0,0.1,0,0.2s0,0.2,0,0.2s0,0.1,0,0.2
		c0.1-0.2,0.3-0.4,0.6-0.6S179.1,15.5,179.3,15.5z"/>
	<path class="st67" d="M183.4,15.5c0.5,0,0.8,0.1,1.1,0.4s0.4,0.7,0.4,1.3v2.3c0,0.2,0,0.3,0.1,0.4s0.2,0.1,0.3,0.1s0.2-0.1,0.4-0.2
		c0,0,0.1,0.1,0.1,0.1c0,0.2,0,0.3-0.1,0.4c-0.1,0.1-0.3,0.2-0.5,0.3s-0.4,0.2-0.6,0.2s-0.4-0.1-0.5-0.2s-0.3-0.3-0.3-0.4
		c0,0,0,0-0.1,0.1s-0.1,0.1-0.2,0.2s-0.2,0.1-0.3,0.2s-0.2,0.1-0.4,0.2s-0.3,0.1-0.5,0.1c-0.4,0-0.7-0.1-1-0.3s-0.4-0.5-0.4-0.9
		c0-0.2,0-0.4,0.1-0.5s0.2-0.3,0.3-0.4s0.3-0.2,0.5-0.3s0.4-0.2,0.5-0.2s0.3-0.1,0.6-0.2s0.4-0.1,0.5-0.2c0.1,0,0.1-0.1,0.1-0.2
		v-0.6c0-0.3-0.1-0.5-0.2-0.6s-0.3-0.2-0.5-0.2c-0.2,0-0.4,0.1-0.6,0.2s-0.2,0.3-0.2,0.6c0,0.2-0.1,0.3-0.2,0.3s-0.2,0.1-0.4,0.1
		c-0.3,0-0.5-0.1-0.6-0.3c0-0.4,0.3-0.7,0.8-1.1S182.8,15.5,183.4,15.5z M182.8,20c0.2,0,0.4-0.1,0.5-0.2s0.2-0.2,0.2-0.4v-1.2
		c-0.1,0-0.2,0.1-0.3,0.1s-0.3,0.1-0.4,0.1s-0.2,0.1-0.3,0.2s-0.2,0.2-0.3,0.3s-0.1,0.2-0.1,0.3c0,0.2,0.1,0.4,0.2,0.6
		S182.6,20,182.8,20z"/>
	<path class="st67" d="M189.2,15.5c0.5,0,0.9,0.1,1.3,0.4s0.7,0.6,0.9,0.9s0.3,0.8,0.3,1.2c0,0.8-0.3,1.4-0.8,2s-1.2,0.8-1.9,0.8
		c-0.3,0-0.6,0-0.9-0.1s-0.4-0.1-0.6-0.1c-0.1,0-0.2,0-0.3,0.1s-0.2,0.1-0.2,0.1s-0.1,0-0.2-0.1s-0.1-0.1-0.1-0.1c0,0,0-0.1,0-0.2
		s0-0.3,0.1-0.5s0-0.5,0-0.7v-4.8c0-0.3,0-0.6-0.1-0.8c0-0.1-0.2-0.2-0.6-0.2h-0.1c0,0-0.1-0.1-0.1-0.2s0-0.2,0.1-0.2
		c0.2,0,0.5-0.1,0.7-0.1s0.4-0.1,0.5-0.1s0.3-0.1,0.4-0.1s0.2-0.1,0.3-0.1h0c0,0,0.1,0,0.1,0.1s0.1,0.1,0.1,0.1
		c-0.1,0.3-0.1,0.7-0.1,1.1v1.9v0c0,0,0,0,0,0.1s0,0,0,0.1s0,0,0,0s0,0,0,0c0.1-0.1,0.3-0.2,0.5-0.2S189,15.5,189.2,15.5z
		 M188.9,16.2c-0.3,0-0.5,0.1-0.6,0.2s-0.2,0.3-0.2,0.5v2.5c0,0.3,0.1,0.5,0.3,0.6s0.5,0.2,0.7,0.2c0.4,0,0.7-0.2,0.9-0.6
		s0.3-0.8,0.3-1.3c0-0.7-0.1-1.2-0.4-1.6S189.4,16.2,188.9,16.2z"/>
	<path class="st67" d="M194.4,19c0,0.5,0,0.8,0.1,1.1c0,0.1,0.1,0.1,0.3,0.2s0.3,0.1,0.4,0.1c0,0,0,0.1,0.1,0.2s0,0.2,0,0.2
		c-0.1,0-0.3,0-0.6,0s-0.6,0-0.8,0c-0.2,0-0.5,0-0.8,0s-0.6,0-0.6,0c0,0,0-0.1,0-0.2s0-0.2,0-0.2c0.1,0,0.2,0,0.4-0.1
		s0.3-0.1,0.3-0.2c0.1-0.2,0.1-0.5,0.1-0.9v-1.9c0-0.4-0.1-0.6-0.2-0.8c-0.1-0.1-0.2-0.1-0.3-0.2s-0.2-0.1-0.3-0.1s-0.1,0-0.1,0
		c0-0.2,0-0.3,0.1-0.4c0.2,0,0.5-0.1,0.9-0.1s0.7-0.1,0.9-0.2c0,0,0,0,0.1,0c0,0,0.1,0,0.1,0.1s0,0.1,0,0.1c-0.1,0.5-0.1,0.8-0.1,1
		V19z M193.2,14.1c-0.1-0.1-0.2-0.3-0.2-0.5s0.1-0.4,0.2-0.5s0.3-0.2,0.5-0.2s0.4,0.1,0.5,0.2s0.2,0.3,0.2,0.5s-0.1,0.4-0.2,0.5
		s-0.3,0.2-0.5,0.2S193.4,14.3,193.2,14.1z"/>
	<path class="st67" d="M197.9,19c0,0.5,0,0.8,0.1,1.1c0,0.1,0.1,0.1,0.3,0.2s0.3,0.1,0.4,0.1c0,0,0,0.1,0,0.2s0,0.2,0,0.2
		c-0.1,0-0.3,0-0.4,0s-0.3,0-0.5,0s-0.3,0-0.4,0c-0.1,0-0.3,0-0.4,0s-0.3,0-0.5,0s-0.3,0-0.4,0c0,0,0-0.1,0-0.2s0-0.2,0-0.2
		c0.1,0,0.2,0,0.4-0.1s0.3-0.1,0.3-0.2c0.1-0.3,0.1-0.6,0.1-0.9v-4.9c0-0.3,0-0.6-0.1-0.8c0-0.1-0.2-0.2-0.6-0.2h-0.1
		c0,0-0.1,0-0.1-0.1c0-0.1,0-0.2,0.1-0.2c0.2,0,0.5-0.1,0.7-0.1s0.4-0.1,0.5-0.1s0.3-0.1,0.4-0.1s0.2-0.1,0.3-0.1l0.1,0h0
		c0,0,0.1,0,0.1,0.1s0.1,0.1,0.1,0.1c-0.1,0.3-0.1,0.7-0.1,1.1V19z"/>
	<path class="st67" d="M201.4,19c0,0.5,0,0.8,0.1,1.1c0,0.1,0.1,0.1,0.3,0.2s0.3,0.1,0.4,0.1c0,0,0,0.1,0.1,0.2s0,0.2,0,0.2
		c-0.1,0-0.3,0-0.6,0s-0.6,0-0.8,0c-0.2,0-0.5,0-0.8,0s-0.6,0-0.6,0c0,0,0-0.1,0-0.2s0-0.2,0-0.2c0.1,0,0.2,0,0.4-0.1
		s0.3-0.1,0.3-0.2c0.1-0.2,0.1-0.5,0.1-0.9v-1.9c0-0.4-0.1-0.6-0.2-0.8c-0.1-0.1-0.2-0.1-0.3-0.2s-0.2-0.1-0.3-0.1s-0.1,0-0.1,0
		c0-0.2,0-0.3,0.1-0.4c0.2,0,0.5-0.1,0.9-0.1s0.7-0.1,0.9-0.2c0,0,0,0,0.1,0c0,0,0.1,0,0.1,0.1s0,0.1,0,0.1c-0.1,0.5-0.1,0.8-0.1,1
		V19z M200.2,14.1c-0.1-0.1-0.2-0.3-0.2-0.5s0.1-0.4,0.2-0.5s0.3-0.2,0.5-0.2s0.4,0.1,0.5,0.2s0.2,0.3,0.2,0.5s-0.1,0.4-0.2,0.5
		s-0.3,0.2-0.5,0.2S200.3,14.3,200.2,14.1z"/>
	<path class="st67" d="M203.5,16.3h-0.7c-0.1,0-0.1-0.1-0.1-0.3c0-0.1,0-0.1,0-0.1c0.3-0.1,0.6-0.3,0.9-0.6c0.1-0.1,0.2-0.2,0.3-0.3
		s0.3-0.3,0.4-0.5c0.1,0,0.2,0,0.2,0s0.1,0,0.1,0.1v1.1c0.2,0,0.5,0,0.8,0s0.6,0,0.6,0c0.1,0,0.1,0,0.1,0.1c0,0.2,0,0.4-0.1,0.5
		h-1.4v2.8c0,0.3,0.1,0.6,0.2,0.7s0.3,0.2,0.6,0.2c0.1,0,0.2,0,0.2,0s0.2,0,0.2-0.1s0.1,0,0.2-0.1s0.1,0,0.1,0c0,0,0.1,0,0.1,0.1
		s0.1,0.1,0,0.2c0,0.1-0.2,0.2-0.5,0.4s-0.6,0.2-0.8,0.2c-0.4,0-0.8-0.1-1-0.4s-0.4-0.7-0.4-1.2V16.3z"/>
	<path class="st67" d="M209.4,15.5c0.5,0,0.8,0.1,1.1,0.4s0.4,0.7,0.4,1.3v2.3c0,0.2,0,0.3,0.1,0.4s0.2,0.1,0.3,0.1s0.2-0.1,0.4-0.2
		c0,0,0.1,0.1,0.1,0.1c0,0.2,0,0.3-0.1,0.4c-0.1,0.1-0.3,0.2-0.5,0.3s-0.4,0.2-0.6,0.2s-0.4-0.1-0.5-0.2s-0.3-0.3-0.3-0.4
		c0,0,0,0-0.1,0.1s-0.1,0.1-0.2,0.2s-0.2,0.1-0.3,0.2s-0.2,0.1-0.4,0.2s-0.3,0.1-0.5,0.1c-0.4,0-0.7-0.1-1-0.3s-0.4-0.5-0.4-0.9
		c0-0.2,0-0.4,0.1-0.5s0.2-0.3,0.3-0.4s0.3-0.2,0.5-0.3s0.4-0.2,0.5-0.2s0.3-0.1,0.6-0.2s0.4-0.1,0.5-0.2c0.1,0,0.1-0.1,0.1-0.2
		v-0.6c0-0.3-0.1-0.5-0.2-0.6s-0.3-0.2-0.5-0.2c-0.2,0-0.4,0.1-0.6,0.2s-0.2,0.3-0.2,0.6c0,0.2-0.1,0.3-0.2,0.3s-0.2,0.1-0.4,0.1
		c-0.3,0-0.5-0.1-0.6-0.3c0-0.4,0.3-0.7,0.8-1.1S208.8,15.5,209.4,15.5z M207.4,13.2c0,0,0-0.1,0-0.1s0.1-0.1,0.2-0.1
		s0.2-0.1,0.3-0.1c0.2,0,0.3,0,0.4,0.1c0.1,0.2,0.3,0.4,0.5,0.6s0.3,0.5,0.4,0.7s0.2,0.3,0.2,0.3c0,0,0,0.1-0.1,0.1
		s-0.1,0.1-0.1,0.1c-0.1,0-0.4-0.2-1-0.7S207.4,13.4,207.4,13.2z M208.9,20c0.2,0,0.4-0.1,0.5-0.2s0.2-0.2,0.2-0.4v-1.2
		c-0.1,0-0.2,0.1-0.3,0.1s-0.3,0.1-0.4,0.1s-0.2,0.1-0.3,0.2s-0.2,0.2-0.3,0.3s-0.1,0.2-0.1,0.3c0,0.2,0.1,0.4,0.2,0.6
		S208.7,20,208.9,20z"/>
</g>
<g>
	<path class="st67" d="M262.9,21.6c0.1,0,0.3,0,0.4,0s0.2,0,0.3-0.1s0.1,0,0.1,0c0.1,0,0.1,0.1,0.1,0.2v0.1
		c-0.7,0.4-1.4,0.5-2.1,0.5c-0.3,0-0.6-0.1-0.9-0.2s-0.6-0.3-0.9-0.5s-0.6-0.4-0.9-0.6s-0.6-0.3-0.9-0.4c-0.3-0.1-0.6-0.2-0.9-0.4
		s-0.6-0.5-0.9-0.8s-0.5-0.7-0.7-1.2s-0.3-1-0.3-1.5c0-0.7,0.2-1.4,0.5-2s0.8-1.1,1.4-1.4s1.2-0.5,1.9-0.5s1.3,0.2,1.9,0.5
		s1,0.8,1.4,1.4s0.5,1.3,0.5,2c0,0.5-0.1,1-0.3,1.5s-0.4,0.9-0.7,1.2s-0.6,0.6-0.8,0.8s-0.6,0.3-0.8,0.4c0.2,0.1,0.4,0.2,0.7,0.4
		s0.5,0.3,0.6,0.3s0.3,0.1,0.6,0.2S262.6,21.6,262.9,21.6z M258.9,13.5c-0.7,0-1.2,0.3-1.6,0.9s-0.5,1.3-0.5,2.2
		c0,0.6,0.1,1.1,0.2,1.7s0.4,1,0.8,1.4s0.9,0.6,1.4,0.6c0.7,0,1.2-0.3,1.5-0.9s0.6-1.3,0.6-2.2c0-0.4,0-0.9-0.1-1.3
		s-0.2-0.8-0.4-1.1s-0.5-0.6-0.8-0.8S259.4,13.5,258.9,13.5z"/>
	<path class="st67" d="M269.3,16.8v2.3c0,0.4,0,0.6,0.1,0.8c0,0,0.1,0.1,0.1,0.1s0.1,0,0.2,0s0.1,0,0.2,0s0.1,0,0.1,0c0,0,0,0,0,0.1
		c0,0,0,0.1,0,0.2s0,0.1-0.1,0.1c-0.1,0-0.2,0-0.4,0s-0.3,0.1-0.5,0.1s-0.3,0.1-0.4,0.1s-0.3,0.1-0.5,0.1c-0.1,0-0.1-0.1-0.1-0.2
		v-0.5c0,0,0-0.1,0-0.1c-0.2,0.2-0.4,0.4-0.7,0.5s-0.6,0.2-0.9,0.2c-0.3,0-0.5-0.1-0.7-0.2s-0.4-0.3-0.5-0.5s-0.2-0.4-0.2-0.7
		s-0.1-0.5-0.1-0.7v-1.3c0-0.4-0.1-0.6-0.2-0.8c-0.1-0.1-0.2-0.1-0.3-0.2s-0.2-0.1-0.3-0.1s-0.1,0-0.1,0c0-0.2,0-0.3,0.1-0.4
		c0.2,0,0.5-0.1,1-0.1s0.7-0.1,0.9-0.2c0,0,0,0,0,0s0,0,0,0c0,0,0.1,0,0.1,0.1s0,0.1,0,0.1c-0.1,0.5-0.1,0.9-0.1,1v1.4
		c0,0.6,0.1,1,0.3,1.3s0.4,0.4,0.8,0.4c0.2,0,0.5-0.1,0.6-0.2s0.3-0.3,0.3-0.4v-1.9c0-0.4-0.1-0.6-0.2-0.8c-0.1-0.1-0.2-0.1-0.3-0.2
		s-0.2-0.1-0.3-0.1s-0.1,0-0.1,0c0-0.2,0-0.3,0.1-0.4c0.2,0,0.5-0.1,0.9-0.1s0.7-0.1,0.9-0.2c0,0,0,0,0.1,0c0,0,0.1,0,0.1,0.1
		s0,0.1,0,0.1C269.3,16.3,269.3,16.6,269.3,16.8z"/>
	<path class="st67" d="M273.1,15.5c0.5,0,0.8,0.1,1.1,0.4s0.4,0.7,0.4,1.3v2.3c0,0.2,0,0.3,0.1,0.4s0.2,0.1,0.3,0.1s0.2-0.1,0.4-0.2
		c0,0,0.1,0.1,0.1,0.1c0,0.2,0,0.3-0.1,0.4c-0.1,0.1-0.3,0.2-0.5,0.3s-0.4,0.2-0.6,0.2s-0.4-0.1-0.5-0.2s-0.3-0.3-0.3-0.4
		c0,0,0,0-0.1,0.1s-0.1,0.1-0.2,0.2s-0.2,0.1-0.3,0.2s-0.2,0.1-0.4,0.2s-0.3,0.1-0.5,0.1c-0.4,0-0.7-0.1-1-0.3s-0.4-0.5-0.4-0.9
		c0-0.2,0-0.4,0.1-0.5s0.2-0.3,0.3-0.4s0.3-0.2,0.5-0.3s0.4-0.2,0.5-0.2s0.3-0.1,0.6-0.2s0.4-0.1,0.5-0.2c0.1,0,0.1-0.1,0.1-0.2
		v-0.6c0-0.3-0.1-0.5-0.2-0.6s-0.3-0.2-0.5-0.2c-0.2,0-0.4,0.1-0.6,0.2s-0.2,0.3-0.2,0.6c0,0.2-0.1,0.3-0.2,0.3s-0.2,0.1-0.4,0.1
		c-0.3,0-0.5-0.1-0.6-0.3c0-0.4,0.3-0.7,0.8-1.1S272.5,15.5,273.1,15.5z M272.6,20c0.2,0,0.4-0.1,0.5-0.2s0.2-0.2,0.2-0.4v-1.2
		c-0.1,0-0.2,0.1-0.3,0.1s-0.3,0.1-0.4,0.1s-0.2,0.1-0.3,0.2s-0.2,0.2-0.3,0.3s-0.1,0.2-0.1,0.3c0,0.2,0.1,0.4,0.2,0.6
		S272.4,20,272.6,20z"/>
	<path class="st67" d="M279.8,15.5c1,0,1.5,0.8,1.5,2.4V19c0,0.5,0,0.8,0.1,1.1c0,0.1,0.1,0.1,0.3,0.2s0.3,0.1,0.4,0.1
		c0,0,0,0.1,0,0.2s0,0.2,0,0.2c0,0-0.3,0-0.6,0s-0.6,0-0.8,0c-0.2,0-0.4,0-0.8,0s-0.5,0-0.6,0c0,0,0-0.1,0-0.2s0-0.2,0-0.2
		c0.1,0,0.2,0,0.4-0.1s0.3-0.1,0.3-0.2c0.1-0.2,0.1-0.5,0.1-0.9v-1.1c0-0.6-0.1-1.1-0.3-1.4s-0.5-0.4-0.8-0.4
		c-0.2,0-0.5,0.1-0.7,0.2S278,16.9,278,17v2c0,0.5,0,0.8,0.1,1.1c0,0.1,0.1,0.1,0.3,0.2s0.3,0.1,0.4,0.1c0,0,0,0.1,0.1,0.2
		s0,0.2,0,0.2c-0.1,0-0.3,0-0.6,0s-0.6,0-0.8,0c-0.2,0-0.5,0-0.8,0s-0.6,0-0.6,0c0,0,0-0.1,0-0.2s0-0.2,0-0.2c0.1,0,0.2,0,0.4-0.1
		s0.3-0.1,0.3-0.2c0.1-0.2,0.1-0.5,0.1-0.9v-1.9c0-0.4-0.1-0.6-0.2-0.8c-0.1-0.1-0.2-0.1-0.3-0.2s-0.2-0.1-0.3-0.1s-0.1,0-0.1,0
		c0-0.2,0-0.3,0.1-0.4c0.4,0,1-0.1,1.9-0.4c0,0,0,0,0,0s0,0,0,0s0,0,0,0c0,0,0.1,0,0.1,0.1s0,0.1,0,0.1c0,0.2,0,0.4,0,0.4
		c0,0,0,0.1,0,0.1c0,0,0,0,0.1,0c0.2-0.2,0.4-0.4,0.7-0.5S279.5,15.5,279.8,15.5z"/>
	<path class="st67" d="M283.5,16.3h-0.7c-0.1,0-0.1-0.1-0.1-0.3c0-0.1,0-0.1,0-0.1c0.3-0.1,0.6-0.3,0.9-0.6c0.1-0.1,0.2-0.2,0.3-0.3
		s0.3-0.3,0.4-0.5c0.1,0,0.2,0,0.2,0s0.1,0,0.1,0.1v1.1c0.2,0,0.5,0,0.8,0s0.6,0,0.6,0c0.1,0,0.1,0,0.1,0.1c0,0.2,0,0.4-0.1,0.5
		h-1.4v2.8c0,0.3,0.1,0.6,0.2,0.7s0.3,0.2,0.6,0.2c0.1,0,0.2,0,0.2,0s0.2,0,0.2-0.1s0.1,0,0.2-0.1s0.1,0,0.1,0c0,0,0.1,0,0.1,0.1
		s0.1,0.1,0,0.2c0,0.1-0.2,0.2-0.5,0.4s-0.6,0.2-0.8,0.2c-0.4,0-0.8-0.1-1-0.4s-0.4-0.7-0.4-1.2V16.3z"/>
	<path class="st67" d="M289,19c0,0.5,0,0.8,0.1,1.1c0,0.1,0.1,0.1,0.3,0.2s0.3,0.1,0.4,0.1c0,0,0,0.1,0.1,0.2s0,0.2,0,0.2
		c-0.1,0-0.3,0-0.6,0s-0.6,0-0.8,0c-0.2,0-0.5,0-0.8,0s-0.6,0-0.6,0c0,0,0-0.1,0-0.2s0-0.2,0-0.2c0.1,0,0.2,0,0.4-0.1
		s0.3-0.1,0.3-0.2c0.1-0.2,0.1-0.5,0.1-0.9v-1.9c0-0.4-0.1-0.6-0.2-0.8c-0.1-0.1-0.2-0.1-0.3-0.2s-0.2-0.1-0.3-0.1s-0.1,0-0.1,0
		c0-0.2,0-0.3,0.1-0.4c0.2,0,0.5-0.1,0.9-0.1s0.7-0.1,0.9-0.2c0,0,0,0,0.1,0c0,0,0.1,0,0.1,0.1s0,0.1,0,0.1c-0.1,0.5-0.1,0.8-0.1,1
		V19z M287.7,14.1c-0.1-0.1-0.2-0.3-0.2-0.5s0.1-0.4,0.2-0.5s0.3-0.2,0.5-0.2s0.4,0.1,0.5,0.2s0.2,0.3,0.2,0.5s-0.1,0.4-0.2,0.5
		s-0.3,0.2-0.5,0.2S287.9,14.3,287.7,14.1z"/>
	<path class="st67" d="M291.1,16.3h-0.7c-0.1,0-0.1-0.1-0.1-0.3c0-0.1,0-0.1,0-0.1c0.3-0.1,0.6-0.3,0.9-0.6c0.1-0.1,0.2-0.2,0.3-0.3
		s0.3-0.3,0.4-0.5c0.1,0,0.2,0,0.2,0s0.1,0,0.1,0.1v1.1c0.2,0,0.5,0,0.8,0s0.6,0,0.6,0c0.1,0,0.1,0,0.1,0.1c0,0.2,0,0.4-0.1,0.5
		h-1.4v2.8c0,0.3,0.1,0.6,0.2,0.7s0.3,0.2,0.6,0.2c0.1,0,0.2,0,0.2,0s0.2,0,0.2-0.1s0.1,0,0.2-0.1s0.1,0,0.1,0c0,0,0.1,0,0.1,0.1
		s0.1,0.1,0,0.2c0,0.1-0.2,0.2-0.5,0.4s-0.6,0.2-0.8,0.2c-0.4,0-0.8-0.1-1-0.4s-0.4-0.7-0.4-1.2V16.3z"/>
	<path class="st67" d="M297,15.5c0.5,0,0.8,0.1,1.1,0.4s0.4,0.7,0.4,1.3v2.3c0,0.2,0,0.3,0.1,0.4s0.2,0.1,0.3,0.1s0.2-0.1,0.4-0.2
		c0,0,0.1,0.1,0.1,0.1c0,0.2,0,0.3-0.1,0.4c-0.1,0.1-0.3,0.2-0.5,0.3s-0.4,0.2-0.6,0.2s-0.4-0.1-0.5-0.2s-0.3-0.3-0.3-0.4
		c0,0,0,0-0.1,0.1s-0.1,0.1-0.2,0.2s-0.2,0.1-0.3,0.2s-0.2,0.1-0.4,0.2s-0.3,0.1-0.5,0.1c-0.4,0-0.7-0.1-1-0.3s-0.4-0.5-0.4-0.9
		c0-0.2,0-0.4,0.1-0.5s0.2-0.3,0.3-0.4s0.3-0.2,0.5-0.3s0.4-0.2,0.5-0.2s0.3-0.1,0.6-0.2s0.4-0.1,0.5-0.2c0.1,0,0.1-0.1,0.1-0.2
		v-0.6c0-0.3-0.1-0.5-0.2-0.6s-0.3-0.2-0.5-0.2c-0.2,0-0.4,0.1-0.6,0.2s-0.2,0.3-0.2,0.6c0,0.2-0.1,0.3-0.2,0.3s-0.2,0.1-0.4,0.1
		c-0.3,0-0.5-0.1-0.6-0.3c0-0.4,0.3-0.7,0.8-1.1S296.4,15.5,297,15.5z M295,13.2c0,0,0-0.1,0-0.1s0.1-0.1,0.2-0.1s0.2-0.1,0.3-0.1
		c0.2,0,0.3,0,0.4,0.1c0.1,0.2,0.3,0.4,0.5,0.6s0.3,0.5,0.4,0.7s0.2,0.3,0.2,0.3c0,0,0,0.1-0.1,0.1s-0.1,0.1-0.1,0.1
		c-0.1,0-0.4-0.2-1-0.7S295,13.4,295,13.2z M296.4,20c0.2,0,0.4-0.1,0.5-0.2s0.2-0.2,0.2-0.4v-1.2c-0.1,0-0.2,0.1-0.3,0.1
		s-0.3,0.1-0.4,0.1s-0.2,0.1-0.3,0.2s-0.2,0.2-0.3,0.3s-0.1,0.2-0.1,0.3c0,0.2,0.1,0.4,0.2,0.6S296.2,20,296.4,20z"/>
	<path class="st67" d="M304.9,15.5c0.3,0,0.6,0.1,0.9,0.2c0,0,0.1-0.1,0.1-0.2v-1.1c0-0.3,0-0.6-0.1-0.8c0-0.1-0.2-0.2-0.6-0.2H305
		c0,0-0.1-0.1-0.1-0.2s0-0.2,0.1-0.2c0.2,0,0.5-0.1,0.7-0.1s0.4-0.1,0.6-0.1s0.3-0.1,0.4-0.1s0.2-0.1,0.2-0.1s0.1,0,0.1,0h0
		c0,0,0.1,0,0.1,0.1s0,0.1,0,0.1c-0.1,0.3-0.1,0.7-0.1,1.1V19c0,0.4,0,0.6,0.1,0.9c0,0.1,0,0.1,0.1,0.1s0.1,0.1,0.2,0.1s0.2,0,0.2,0
		s0.1,0,0.1,0c0,0,0,0.1,0,0.1c0,0.2,0,0.2-0.1,0.2c-0.1,0-0.2,0-0.4,0s-0.3,0-0.5,0.1s-0.3,0.1-0.5,0.1s-0.3,0.1-0.5,0.1
		c0,0-0.1-0.1-0.1-0.2v-0.2c0,0,0,0,0,0s0,0,0,0c-0.4,0.3-0.8,0.4-1.2,0.4c-0.6,0-1.2-0.2-1.7-0.7s-0.7-1-0.7-1.8
		c0-0.8,0.3-1.4,0.8-2S304.1,15.5,304.9,15.5z M304.8,16.1c-0.4,0-0.7,0.2-0.9,0.5s-0.3,0.8-0.3,1.4c0,0.7,0.1,1.2,0.4,1.6
		s0.6,0.6,1,0.6c0.3,0,0.5-0.1,0.6-0.2s0.2-0.3,0.2-0.5v-2.5c0-0.1,0-0.2,0-0.2s-0.1-0.2-0.1-0.3s-0.2-0.2-0.3-0.2
		S305,16.1,304.8,16.1z"/>
	<path class="st67" d="M310.4,19c0,0.5,0,0.8,0.1,1.1c0,0.1,0.1,0.1,0.3,0.2s0.3,0.1,0.4,0.1c0,0,0,0.1,0.1,0.2s0,0.2,0,0.2
		c-0.1,0-0.3,0-0.6,0s-0.6,0-0.8,0c-0.2,0-0.5,0-0.8,0s-0.6,0-0.6,0c0,0,0-0.1,0-0.2s0-0.2,0-0.2c0.1,0,0.2,0,0.4-0.1
		s0.3-0.1,0.3-0.2c0.1-0.2,0.1-0.5,0.1-0.9v-1.9c0-0.4-0.1-0.6-0.2-0.8c-0.1-0.1-0.2-0.1-0.3-0.2s-0.2-0.1-0.3-0.1s-0.1,0-0.1,0
		c0-0.2,0-0.3,0.1-0.4c0.2,0,0.5-0.1,0.9-0.1s0.7-0.1,0.9-0.2c0,0,0,0,0.1,0c0,0,0.1,0,0.1,0.1s0,0.1,0,0.1c-0.1,0.5-0.1,0.8-0.1,1
		V19z M309.2,14.1c-0.1-0.1-0.2-0.3-0.2-0.5s0.1-0.4,0.2-0.5s0.3-0.2,0.5-0.2s0.4,0.1,0.5,0.2s0.2,0.3,0.2,0.5s-0.1,0.4-0.2,0.5
		s-0.3,0.2-0.5,0.2S309.3,14.3,309.2,14.1z"/>
	<path class="st67" d="M317.6,12.6c0.3,0,0.6,0,0.8,0.1s0.4,0.2,0.4,0.3c0,0.2,0,0.5-0.1,0.7s-0.2,0.3-0.4,0.3
		c-0.1,0-0.3-0.1-0.4-0.2s-0.2-0.3-0.3-0.4s-0.3-0.2-0.4-0.2c-0.2,0-0.4,0.1-0.5,0.3s-0.2,0.4-0.3,0.7s-0.1,0.6-0.1,0.9v0.5
		c0,0,0,0,0,0s0,0,0,0h1.3c0,0,0.1,0,0.1,0s0,0,0,0.1c0,0.2,0,0.4-0.1,0.5h-1.2c0,0-0.1,0-0.1,0.1V19c0,0.5,0,0.8,0.1,1.1
		c0,0.1,0.1,0.1,0.3,0.2s0.3,0.1,0.4,0.1c0,0,0,0.1,0,0.2s0,0.2,0,0.2c0,0-0.2,0-0.6,0s-0.6,0-0.8,0s-0.5,0-0.8,0s-0.5,0-0.6,0
		c0,0,0-0.1,0-0.1s0-0.1,0-0.2s0-0.1,0-0.1c0.1,0,0.2,0,0.4-0.1s0.3-0.1,0.3-0.2c0.1-0.3,0.1-0.6,0.1-1v-2.7c0-0.1,0-0.1-0.1-0.1
		h-0.7c0,0,0,0,0-0.1c0-0.1,0.1-0.2,0.2-0.3s0.2-0.2,0.4-0.2h0.2c0,0,0.1,0,0.1-0.1v-0.1c0-0.8,0.2-1.5,0.7-2.1S317,12.6,317.6,12.6
		z"/>
	<path class="st67" d="M321,15.5c0.7,0,1.4,0.3,1.9,0.8s0.8,1.1,0.8,1.9s-0.3,1.3-0.8,1.9s-1.1,0.8-1.9,0.8s-1.4-0.3-1.9-0.8
		s-0.8-1.1-0.8-1.9c0-0.7,0.3-1.4,0.8-1.9S320.3,15.5,321,15.5z M320.9,16.1c-0.4,0-0.7,0.2-0.9,0.5s-0.3,0.8-0.3,1.3
		c0,0.6,0.1,1.2,0.4,1.7s0.6,0.7,1.1,0.7c0.4,0,0.7-0.2,0.9-0.5s0.3-0.8,0.3-1.3c0-0.4-0.1-0.8-0.2-1.1s-0.3-0.6-0.5-0.9
		S321.2,16.1,320.9,16.1z"/>
	<path class="st67" d="M328.2,15.5c1,0,1.5,0.8,1.5,2.4V19c0,0.5,0,0.8,0.1,1.1c0,0.1,0.1,0.1,0.3,0.2s0.3,0.1,0.4,0.1
		c0,0,0,0.1,0,0.2s0,0.2,0,0.2c0,0-0.3,0-0.6,0s-0.6,0-0.8,0c-0.2,0-0.4,0-0.8,0s-0.5,0-0.6,0c0,0,0-0.1,0-0.2s0-0.2,0-0.2
		c0.1,0,0.2,0,0.4-0.1s0.3-0.1,0.3-0.2c0.1-0.2,0.1-0.5,0.1-0.9v-1.1c0-0.6-0.1-1.1-0.3-1.4s-0.5-0.4-0.8-0.4
		c-0.2,0-0.5,0.1-0.7,0.2s-0.3,0.3-0.3,0.4v2c0,0.5,0,0.8,0.1,1.1c0,0.1,0.1,0.1,0.3,0.2s0.3,0.1,0.4,0.1c0,0,0,0.1,0.1,0.2
		s0,0.2,0,0.2c-0.1,0-0.3,0-0.6,0s-0.6,0-0.8,0c-0.2,0-0.5,0-0.8,0s-0.6,0-0.6,0c0,0,0-0.1,0-0.2s0-0.2,0-0.2c0.1,0,0.2,0,0.4-0.1
		s0.3-0.1,0.3-0.2c0.1-0.2,0.1-0.5,0.1-0.9v-1.9c0-0.4-0.1-0.6-0.2-0.8c-0.1-0.1-0.2-0.1-0.3-0.2s-0.2-0.1-0.3-0.1s-0.1,0-0.1,0
		c0-0.2,0-0.3,0.1-0.4c0.4,0,1-0.1,1.9-0.4c0,0,0,0,0,0s0,0,0,0s0,0,0,0c0,0,0.1,0,0.1,0.1s0,0.1,0,0.1c0,0.2,0,0.4,0,0.4
		c0,0,0,0.1,0,0.1c0,0,0,0,0.1,0c0.2-0.2,0.4-0.4,0.7-0.5S327.9,15.5,328.2,15.5z"/>
	<path class="st67" d="M333.8,15.5c0.3,0,0.6,0.1,0.9,0.2c0,0,0.1-0.1,0.1-0.2v-1.1c0-0.3,0-0.6-0.1-0.8c0-0.1-0.2-0.2-0.6-0.2H334
		c0,0-0.1-0.1-0.1-0.2s0-0.2,0.1-0.2c0.2,0,0.5-0.1,0.7-0.1s0.4-0.1,0.6-0.1s0.3-0.1,0.4-0.1s0.2-0.1,0.2-0.1s0.1,0,0.1,0h0
		c0,0,0.1,0,0.1,0.1s0,0.1,0,0.1c-0.1,0.3-0.1,0.7-0.1,1.1V19c0,0.4,0,0.6,0.1,0.9c0,0.1,0,0.1,0.1,0.1s0.1,0.1,0.2,0.1s0.2,0,0.2,0
		s0.1,0,0.1,0c0,0,0,0.1,0,0.1c0,0.2,0,0.2-0.1,0.2c-0.1,0-0.2,0-0.4,0s-0.3,0-0.5,0.1s-0.3,0.1-0.5,0.1s-0.3,0.1-0.5,0.1
		c0,0-0.1-0.1-0.1-0.2v-0.2c0,0,0,0,0,0s0,0,0,0c-0.4,0.3-0.8,0.4-1.2,0.4c-0.6,0-1.2-0.2-1.7-0.7s-0.7-1-0.7-1.8
		c0-0.8,0.3-1.4,0.8-2S333.1,15.5,333.8,15.5z M333.7,16.1c-0.4,0-0.7,0.2-0.9,0.5c-0.2,0.4-0.3,0.8-0.3,1.4c0,0.7,0.1,1.2,0.4,1.6
		c0.2,0.4,0.6,0.6,1,0.6c0.3,0,0.5-0.1,0.6-0.2s0.2-0.3,0.2-0.5v-2.5c0-0.1,0-0.2,0-0.2s-0.1-0.2-0.1-0.3s-0.2-0.2-0.3-0.2
		S333.9,16.1,333.7,16.1z"/>
	<path class="st67" d="M339.4,19c0,0.5,0,0.8,0.1,1.1c0,0.1,0.1,0.1,0.3,0.2s0.3,0.1,0.4,0.1c0,0,0,0.1,0.1,0.2s0,0.2,0,0.2
		c-0.1,0-0.3,0-0.6,0s-0.6,0-0.8,0c-0.2,0-0.5,0-0.8,0s-0.6,0-0.6,0c0,0,0-0.1,0-0.2s0-0.2,0-0.2c0.1,0,0.2,0,0.4-0.1
		s0.3-0.1,0.3-0.2c0.1-0.2,0.1-0.5,0.1-0.9v-1.9c0-0.4-0.1-0.6-0.2-0.8c-0.1-0.1-0.2-0.1-0.3-0.2s-0.2-0.1-0.3-0.1s-0.1,0-0.1,0
		c0-0.2,0-0.3,0.1-0.4c0.2,0,0.5-0.1,0.9-0.1s0.7-0.1,0.9-0.2c0,0,0,0,0.1,0c0,0,0.1,0,0.1,0.1s0,0.1,0,0.1c-0.1,0.5-0.1,0.8-0.1,1
		V19z M338.1,14.1c-0.1-0.1-0.2-0.3-0.2-0.5s0.1-0.4,0.2-0.5s0.3-0.2,0.5-0.2s0.4,0.1,0.5,0.2s0.2,0.3,0.2,0.5s-0.1,0.4-0.2,0.5
		s-0.3,0.2-0.5,0.2S338.3,14.3,338.1,14.1z"/>
</g>
<g>
	<path d="M372.7,36v-0.8h2v7h-1V36H372.7z"/>
	<path d="M378.6,39.2c0.7-0.8,1-1.4,1-2.1c0-0.4-0.1-0.7-0.3-1s-0.5-0.4-1-0.4c-0.5,0-0.8,0.1-1.1,0.4c-0.2,0.3-0.4,0.7-0.4,1.2H376
		c0-0.8,0.3-1.4,0.7-1.8c0.4-0.4,1-0.6,1.7-0.6c0.7,0,1.2,0.2,1.6,0.5c0.4,0.4,0.6,0.9,0.6,1.5c0,0.5-0.2,1.1-0.5,1.6
		c-0.3,0.6-0.8,1.1-1.3,1.5c-0.5,0.5-1,0.9-1.6,1.2h3.6v0.8h-4.8v-0.7C377,40.7,377.9,40,378.6,39.2z"/>
	<path d="M381.7,38.6c0-1.1,0.2-2,0.6-2.6c0.4-0.6,1-0.9,1.9-0.9c0.9,0,1.6,0.3,1.9,0.9c0.4,0.6,0.6,1.5,0.6,2.6
		c0,1.1-0.2,2-0.6,2.6s-1,0.9-1.9,0.9c-0.9,0-1.6-0.3-1.9-0.9C381.9,40.6,381.7,39.8,381.7,38.6z M385.8,38.6c0-0.6,0-1.1-0.1-1.4
		s-0.2-0.7-0.5-0.9s-0.6-0.3-1-0.3c-0.4,0-0.8,0.1-1,0.3s-0.4,0.5-0.5,0.9s-0.1,0.9-0.1,1.4c0,0.6,0,1.1,0.1,1.5
		c0.1,0.4,0.2,0.7,0.5,0.9c0.2,0.2,0.6,0.4,1,0.4c0.4,0,0.8-0.1,1-0.4c0.2-0.2,0.4-0.5,0.5-0.9C385.8,39.7,385.8,39.2,385.8,38.6z"
		/>
	<path d="M393.6,38.1v0.8h-4v-0.8H393.6z"/>
	<path d="M397.3,36v-0.8h2v7h-1V36H397.3z"/>
	<path d="M400.3,40.6v-0.8l3.6-4.7h1v4.7h1v0.8h-1v1.6H404v-1.6H400.3z M404,36.2l-2.8,3.6h2.8V36.2z"/>
	<path d="M411.5,35.9h-3.6v2.4c0.2-0.2,0.4-0.4,0.7-0.5s0.7-0.2,1-0.2c0.5,0,0.9,0.1,1.2,0.3s0.6,0.5,0.7,0.8
		c0.2,0.3,0.2,0.7,0.2,1.1c0,0.7-0.2,1.3-0.6,1.8c-0.4,0.5-1,0.7-1.8,0.7c-0.7,0-1.3-0.2-1.7-0.6c-0.4-0.4-0.7-0.9-0.8-1.5h0.9
		c0.1,0.4,0.2,0.7,0.5,1c0.3,0.2,0.6,0.3,1,0.3c0.5,0,0.9-0.2,1.2-0.5c0.3-0.3,0.4-0.7,0.4-1.2c0-0.5-0.1-0.9-0.4-1.1
		s-0.6-0.4-1.1-0.4c-0.3,0-0.7,0.1-0.9,0.2s-0.5,0.4-0.6,0.6h-0.9v-4h4.5V35.9z"/>
	<path d="M419.1,38.7c0.3,0.1,0.5,0.3,0.8,0.6c0.2,0.3,0.3,0.6,0.3,1.1c0,0.3-0.1,0.6-0.2,0.9s-0.4,0.5-0.8,0.7
		c-0.3,0.2-0.8,0.3-1.2,0.3h0v0.8h-0.3v-0.8c-0.6-0.1-1.2-0.3-1.5-0.6c-0.4-0.4-0.6-0.8-0.7-1.3h1c0,0.3,0.1,0.5,0.4,0.8
		c0.2,0.2,0.5,0.4,0.9,0.5V39c-0.5-0.2-0.9-0.3-1.2-0.4c-0.3-0.1-0.5-0.3-0.7-0.6c-0.2-0.3-0.3-0.6-0.3-1.1c0-0.4,0.1-0.7,0.3-1
		c0.2-0.3,0.5-0.5,0.8-0.7c0.3-0.2,0.7-0.2,1.2-0.2v-0.9h0.3v0.9c0.6,0,1.1,0.2,1.5,0.6c0.4,0.3,0.6,0.7,0.6,1.2h-1
		c0-0.3-0.2-0.5-0.4-0.7c-0.2-0.2-0.5-0.3-0.8-0.4v2.5C418.4,38.4,418.8,38.6,419.1,38.7z M416.6,37.7c0.2,0.2,0.5,0.4,0.9,0.5v-2.4
		c-0.4,0-0.7,0.1-0.9,0.3c-0.2,0.2-0.3,0.5-0.3,0.8C416.3,37.2,416.4,37.5,416.6,37.7z M418.8,41.2c0.2-0.2,0.3-0.5,0.3-0.8
		c0-0.4-0.1-0.6-0.3-0.8s-0.5-0.4-1-0.5v2.5h0C418.3,41.6,418.6,41.4,418.8,41.2z"/>
	<path d="M432.1,37.2c0.4,0.4,0.6,1,0.6,1.8v3.2h-0.9v-3.1c0-0.5-0.1-1-0.4-1.2c-0.3-0.3-0.6-0.4-1.1-0.4c-0.5,0-0.9,0.2-1.2,0.5
		c-0.3,0.3-0.4,0.8-0.4,1.4v2.9h-0.9v-3.1c0-0.5-0.1-1-0.4-1.2s-0.6-0.4-1.1-0.4c-0.5,0-0.9,0.2-1.2,0.5c-0.3,0.3-0.4,0.8-0.4,1.4
		v2.9h-0.9v-5.5h0.9V38c0.1-0.4,0.4-0.8,0.7-1c0.3-0.2,0.7-0.3,1.2-0.3c0.5,0,0.9,0.1,1.2,0.4c0.3,0.2,0.6,0.6,0.7,1
		c0.2-0.4,0.4-0.8,0.8-1c0.4-0.2,0.8-0.4,1.2-0.4C431.2,36.6,431.8,36.8,432.1,37.2z"/>
	<path d="M435,34.8v7.4h-0.9v-7.4H435z"/>
	<path d="M440.9,37.2c0.4,0.4,0.6,1,0.6,1.8v3.2h-0.9v-3.1c0-0.5-0.1-1-0.4-1.3c-0.3-0.3-0.7-0.4-1.1-0.4c-0.5,0-0.9,0.2-1.2,0.5
		c-0.3,0.3-0.5,0.8-0.5,1.4v2.9h-0.9v-5.5h0.9V38c0.1-0.4,0.4-0.8,0.7-1c0.4-0.2,0.8-0.4,1.2-0.4C440,36.6,440.6,36.8,440.9,37.2z"
		/>
</g>
<g>
	<path d="M376.7,76.1c-0.2-0.2-0.5-0.3-1-0.3c-0.6,0-1,0.2-1.3,0.7c-0.3,0.4-0.4,1.1-0.4,2.1l0,0.4c0.1-0.4,0.3-0.7,0.7-1
		c0.4-0.2,0.8-0.4,1.3-0.4c0.7,0,1.2,0.2,1.6,0.6c0.4,0.4,0.6,1,0.6,1.8c0,0.4-0.1,0.8-0.3,1.2c-0.2,0.4-0.4,0.6-0.8,0.9
		c-0.4,0.2-0.8,0.3-1.3,0.3c-1,0-1.7-0.3-2.1-0.9s-0.6-1.5-0.6-2.6c0-1.3,0.2-2.2,0.6-2.8c0.4-0.6,1.1-0.9,2-0.9
		c0.7,0,1.2,0.2,1.6,0.6c0.4,0.4,0.6,0.9,0.6,1.5h-0.9C377.1,76.6,377,76.3,376.7,76.1z M374.6,81c0.3,0.3,0.7,0.5,1.3,0.5
		c0.5,0,0.8-0.1,1.1-0.4c0.3-0.3,0.4-0.7,0.4-1.2c0-0.5-0.1-1-0.4-1.2c-0.3-0.3-0.7-0.4-1.2-0.4c-0.3,0-0.5,0.1-0.8,0.2
		c-0.3,0.1-0.5,0.3-0.6,0.5c-0.2,0.2-0.2,0.5-0.2,0.8C374.2,80.2,374.3,80.7,374.6,81z"/>
	<path d="M379.4,78.6c0-1.1,0.2-2,0.6-2.6c0.4-0.6,1-0.9,1.9-0.9s1.6,0.3,1.9,0.9c0.4,0.6,0.6,1.5,0.6,2.6c0,1.1-0.2,2-0.6,2.6
		c-0.4,0.6-1,0.9-1.9,0.9s-1.6-0.3-1.9-0.9C379.6,80.6,379.4,79.8,379.4,78.6z M383.5,78.6c0-0.6,0-1.1-0.1-1.4
		c-0.1-0.4-0.2-0.7-0.5-0.9s-0.6-0.3-1-0.3c-0.4,0-0.8,0.1-1,0.3s-0.4,0.5-0.5,0.9c-0.1,0.4-0.1,0.9-0.1,1.4c0,0.6,0,1.1,0.1,1.5
		c0.1,0.4,0.2,0.7,0.5,0.9c0.2,0.2,0.6,0.4,1,0.4c0.4,0,0.8-0.1,1-0.4c0.2-0.2,0.4-0.5,0.5-0.9C383.4,79.7,383.5,79.2,383.5,78.6z"
		/>
	<path d="M391.3,78.2v0.8h-4v-0.8H391.3z"/>
	<path d="M395.8,75.9c0.2-0.3,0.5-0.5,0.8-0.7c0.4-0.2,0.8-0.2,1.3-0.2s0.9,0.1,1.3,0.2s0.6,0.4,0.8,0.7s0.3,0.6,0.3,0.9
		c0,0.4-0.1,0.7-0.3,1c-0.2,0.3-0.5,0.5-1,0.6c0.5,0.1,0.8,0.3,1.1,0.7c0.3,0.3,0.4,0.7,0.4,1.2c0,0.7-0.2,1.2-0.7,1.6
		s-1.1,0.6-1.9,0.6c-0.8,0-1.4-0.2-1.9-0.6c-0.5-0.4-0.7-0.9-0.7-1.6c0-0.5,0.1-0.8,0.4-1.2c0.3-0.3,0.6-0.5,1.1-0.7
		c-0.4-0.1-0.8-0.3-1-0.6c-0.2-0.3-0.3-0.6-0.3-1C395.5,76.5,395.6,76.1,395.8,75.9z M396.7,81.3c0.3,0.2,0.7,0.4,1.2,0.4
		c0.5,0,0.9-0.1,1.2-0.4s0.5-0.6,0.5-1.1c0-0.5-0.2-0.8-0.5-1c-0.3-0.2-0.7-0.4-1.2-0.4c-0.5,0-0.9,0.1-1.2,0.4
		c-0.3,0.2-0.5,0.6-0.5,1C396.2,80.7,396.4,81,396.7,81.3z M396.8,77.9c0.3,0.2,0.6,0.3,1.1,0.3s0.8-0.1,1.1-0.3
		c0.3-0.2,0.4-0.5,0.4-0.9c0-0.4-0.1-0.7-0.4-0.9c-0.3-0.2-0.6-0.3-1.1-0.3s-0.8,0.1-1.1,0.3c-0.3,0.2-0.4,0.5-0.4,0.9
		C396.4,77.3,396.5,77.6,396.8,77.9z"/>
	<path d="M406.4,75.9h-3.6v2.4c0.2-0.2,0.4-0.4,0.7-0.5s0.7-0.2,1-0.2c0.5,0,0.9,0.1,1.2,0.3s0.6,0.5,0.7,0.8
		c0.2,0.3,0.2,0.7,0.2,1.1c0,0.7-0.2,1.3-0.6,1.8c-0.4,0.5-1,0.7-1.8,0.7c-0.7,0-1.3-0.2-1.7-0.6c-0.4-0.4-0.7-0.9-0.8-1.5h0.9
		c0.1,0.4,0.2,0.7,0.5,1c0.3,0.2,0.6,0.3,1,0.3c0.5,0,0.9-0.2,1.2-0.5c0.3-0.3,0.4-0.7,0.4-1.2c0-0.5-0.1-0.9-0.4-1.1
		s-0.6-0.4-1.1-0.4c-0.3,0-0.7,0.1-0.9,0.2s-0.5,0.4-0.6,0.6h-0.9v-4h4.5V75.9z"/>
	<path d="M413.9,78.7c0.3,0.1,0.5,0.3,0.8,0.6c0.2,0.3,0.3,0.6,0.3,1.1c0,0.3-0.1,0.6-0.2,0.9s-0.4,0.5-0.8,0.7
		c-0.3,0.2-0.8,0.3-1.2,0.3h0v0.8h-0.3v-0.8c-0.6-0.1-1.2-0.3-1.5-0.6c-0.4-0.4-0.6-0.8-0.7-1.3h1c0,0.3,0.1,0.5,0.4,0.8
		c0.2,0.2,0.5,0.4,0.9,0.5V79c-0.5-0.2-0.9-0.3-1.2-0.4c-0.3-0.1-0.5-0.3-0.7-0.6c-0.2-0.3-0.3-0.6-0.3-1.1c0-0.4,0.1-0.7,0.3-1
		c0.2-0.3,0.5-0.5,0.8-0.7c0.3-0.2,0.7-0.2,1.2-0.2v-0.9h0.3v0.9c0.6,0,1.1,0.2,1.5,0.6c0.4,0.3,0.6,0.7,0.6,1.2h-1
		c0-0.3-0.2-0.5-0.4-0.7c-0.2-0.2-0.5-0.3-0.8-0.4v2.5C413.2,78.4,413.7,78.6,413.9,78.7z M411.5,77.7c0.2,0.2,0.5,0.4,0.9,0.5v-2.4
		c-0.4,0-0.7,0.1-0.9,0.3c-0.2,0.2-0.3,0.5-0.3,0.8C411.1,77.2,411.3,77.5,411.5,77.7z M413.7,81.2c0.2-0.2,0.3-0.5,0.3-0.8
		c0-0.4-0.1-0.6-0.3-0.8s-0.5-0.4-1-0.5v2.5h0C413.2,81.6,413.5,81.5,413.7,81.2z"/>
	<path d="M427,77.2c0.4,0.4,0.6,1,0.6,1.8v3.2h-0.9v-3.1c0-0.5-0.1-1-0.4-1.2c-0.3-0.3-0.6-0.4-1.1-0.4c-0.5,0-0.9,0.2-1.2,0.5
		c-0.3,0.3-0.4,0.8-0.4,1.4v2.9h-0.9v-3.1c0-0.5-0.1-1-0.4-1.2s-0.6-0.4-1.1-0.4c-0.5,0-0.9,0.2-1.2,0.5c-0.3,0.3-0.4,0.8-0.4,1.4
		v2.9h-0.9v-5.5h0.9V78c0.1-0.4,0.4-0.8,0.7-1c0.3-0.2,0.7-0.3,1.2-0.3c0.5,0,0.9,0.1,1.2,0.4c0.3,0.2,0.6,0.6,0.7,1
		c0.2-0.4,0.4-0.8,0.8-1c0.4-0.2,0.8-0.4,1.2-0.4C426.1,76.6,426.6,76.8,427,77.2z"/>
	<path d="M429.9,74.8v7.4H429v-7.4H429.9z"/>
	<path d="M435.8,77.2c0.4,0.4,0.6,1,0.6,1.8v3.2h-0.9v-3.1c0-0.5-0.1-1-0.4-1.3c-0.3-0.3-0.7-0.4-1.1-0.4c-0.5,0-0.9,0.2-1.2,0.5
		c-0.3,0.3-0.5,0.8-0.5,1.4v2.9h-0.9v-5.5h0.9V78c0.1-0.4,0.4-0.8,0.7-1c0.4-0.2,0.8-0.4,1.2-0.4C434.9,76.6,435.4,76.8,435.8,77.2z
		"/>
</g>
<g>
	<path d="M373.2,108.6c0-1.1,0.2-2,0.6-2.6c0.4-0.6,1-0.9,1.9-0.9s1.6,0.3,1.9,1c0.4,0.6,0.6,1.5,0.6,2.6c0,1.1-0.2,2-0.6,2.7
		c-0.4,0.6-1,0.9-1.9,0.9s-1.6-0.3-1.9-0.9C373.4,110.6,373.2,109.8,373.2,108.6z M377.3,108.6c0-0.6,0-1.1-0.1-1.4
		c-0.1-0.4-0.2-0.7-0.5-0.9c-0.2-0.2-0.6-0.3-1-0.3c-0.4,0-0.8,0.1-1,0.3c-0.2,0.2-0.4,0.5-0.5,0.9c-0.1,0.4-0.1,0.9-0.1,1.4
		c0,0.6,0,1.1,0.1,1.5c0.1,0.4,0.2,0.7,0.5,0.9c0.2,0.2,0.6,0.4,1,0.4c0.4,0,0.8-0.1,1-0.4c0.2-0.2,0.4-0.5,0.5-0.9
		C377.2,109.7,377.3,109.2,377.3,108.6z"/>
	<path d="M385.1,108.2v0.8h-4v-0.8H385.1z"/>
	<path d="M391.7,109.2c0.7-0.8,1-1.4,1-2.1c0-0.4-0.1-0.7-0.3-1s-0.5-0.4-1-0.4c-0.5,0-0.8,0.1-1.1,0.4s-0.4,0.7-0.4,1.2h-0.9
		c0-0.8,0.3-1.4,0.7-1.8c0.4-0.4,1-0.6,1.7-0.6c0.7,0,1.2,0.2,1.6,0.5c0.4,0.4,0.6,0.9,0.6,1.5c0,0.5-0.2,1.1-0.5,1.6
		c-0.3,0.6-0.8,1.1-1.3,1.5c-0.5,0.5-1,0.9-1.6,1.2h3.6v0.8H389v-0.7C390.1,110.7,391,110,391.7,109.2z"/>
	<path d="M399.6,105.9H396v2.4c0.2-0.2,0.4-0.4,0.7-0.5c0.3-0.1,0.7-0.2,1-0.2c0.5,0,0.9,0.1,1.2,0.3s0.6,0.5,0.7,0.8
		c0.2,0.3,0.2,0.7,0.2,1.1c0,0.7-0.2,1.3-0.6,1.8s-1,0.7-1.8,0.7c-0.7,0-1.3-0.2-1.7-0.6c-0.4-0.4-0.7-0.9-0.8-1.5h0.9
		c0.1,0.4,0.2,0.7,0.5,1c0.3,0.2,0.6,0.3,1,0.3c0.5,0,0.9-0.2,1.2-0.5c0.3-0.3,0.4-0.7,0.4-1.2c0-0.5-0.1-0.9-0.4-1.1
		s-0.6-0.4-1.1-0.4c-0.3,0-0.7,0.1-0.9,0.2c-0.3,0.1-0.5,0.4-0.6,0.6h-0.9v-4h4.5V105.9z"/>
	<path d="M407.1,108.7c0.3,0.1,0.5,0.3,0.8,0.6c0.2,0.3,0.3,0.6,0.3,1.1c0,0.3-0.1,0.6-0.2,0.9c-0.2,0.3-0.4,0.5-0.8,0.7
		s-0.8,0.3-1.2,0.3h0v0.8h-0.3v-0.8c-0.6-0.1-1.2-0.3-1.5-0.6c-0.4-0.4-0.6-0.8-0.7-1.3h1c0,0.3,0.1,0.5,0.4,0.8
		c0.2,0.2,0.5,0.4,0.9,0.5V109c-0.5-0.2-0.9-0.3-1.2-0.4c-0.3-0.1-0.5-0.3-0.7-0.6c-0.2-0.3-0.3-0.6-0.3-1.1c0-0.4,0.1-0.7,0.3-1
		c0.2-0.3,0.5-0.5,0.8-0.7c0.3-0.2,0.7-0.2,1.2-0.2v-0.9h0.3v0.9c0.6,0,1.1,0.2,1.5,0.6c0.4,0.3,0.6,0.7,0.6,1.2h-1
		c0-0.3-0.2-0.5-0.4-0.7s-0.5-0.3-0.8-0.4v2.5C406.5,108.4,406.9,108.6,407.1,108.7z M404.7,107.7c0.2,0.2,0.5,0.3,0.9,0.5v-2.4
		c-0.4,0-0.7,0.1-0.9,0.3c-0.2,0.2-0.3,0.5-0.3,0.8C404.4,107.2,404.5,107.5,404.7,107.7z M406.9,111.2c0.2-0.2,0.3-0.5,0.3-0.8
		c0-0.4-0.1-0.6-0.3-0.8s-0.5-0.4-1-0.5v2.5h0C406.4,111.6,406.7,111.5,406.9,111.2z"/>
	<path d="M420.2,107.2c0.4,0.4,0.6,1,0.6,1.8v3.2h-0.9v-3.1c0-0.5-0.1-1-0.4-1.2c-0.3-0.3-0.6-0.4-1.1-0.4c-0.5,0-0.9,0.2-1.2,0.5
		c-0.3,0.3-0.4,0.8-0.4,1.4v2.9h-0.9v-3.1c0-0.5-0.1-1-0.4-1.2c-0.3-0.3-0.6-0.4-1.1-0.4c-0.5,0-0.9,0.2-1.2,0.5
		c-0.3,0.3-0.4,0.8-0.4,1.4v2.9h-0.9v-5.5h0.9v1.2c0.1-0.4,0.4-0.8,0.7-1c0.3-0.2,0.7-0.3,1.2-0.3c0.5,0,0.9,0.1,1.2,0.4
		c0.3,0.2,0.6,0.6,0.7,1c0.2-0.4,0.4-0.8,0.8-1c0.4-0.2,0.8-0.4,1.2-0.4C419.3,106.6,419.8,106.8,420.2,107.2z"/>
	<path d="M423.1,104.8v7.4h-0.9v-7.4H423.1z"/>
	<path d="M429,107.2c0.4,0.4,0.6,1,0.6,1.8v3.2h-0.9v-3.1c0-0.5-0.1-1-0.4-1.3c-0.3-0.3-0.7-0.4-1.1-0.4c-0.5,0-0.9,0.2-1.2,0.5
		s-0.5,0.8-0.5,1.4v2.9h-0.9v-5.5h0.9v1.3c0.1-0.4,0.4-0.8,0.7-1c0.4-0.2,0.8-0.4,1.2-0.4C428.1,106.6,428.6,106.8,429,107.2z"/>
</g>
<g>
	<path d="M47.9,130.6v6.9H47V132l-2.2,5.5H44l-2.2-5.5v5.5h-0.9v-6.9h1.1l2.5,5.8l2.4-5.8H47.9z"/>
	<path d="M54.4,135H50c0,0.6,0.2,1.1,0.5,1.4c0.3,0.3,0.7,0.5,1.2,0.5c0.4,0,0.8-0.1,1.1-0.3c0.3-0.2,0.5-0.5,0.5-0.9h1
		c-0.1,0.4-0.2,0.7-0.4,1c-0.2,0.3-0.5,0.5-0.9,0.7c-0.4,0.2-0.8,0.2-1.2,0.2c-0.5,0-1-0.1-1.4-0.3c-0.4-0.2-0.7-0.6-1-1
		c-0.2-0.4-0.3-0.9-0.3-1.5s0.1-1.1,0.3-1.5s0.5-0.8,1-1c0.4-0.2,0.9-0.3,1.4-0.3c0.5,0,1,0.1,1.4,0.3c0.4,0.2,0.7,0.5,0.9,0.9
		s0.3,0.8,0.3,1.3C54.4,134.6,54.4,134.8,54.4,135z M53.3,133.5c-0.2-0.3-0.4-0.5-0.6-0.6s-0.6-0.2-0.9-0.2c-0.5,0-0.9,0.2-1.3,0.5
		c-0.3,0.3-0.5,0.8-0.5,1.4h3.5C53.5,134.1,53.4,133.8,53.3,133.5z"/>
	<path d="M60,132.5c0.4,0.4,0.6,1,0.6,1.8v3.2h-0.9v-3.1c0-0.5-0.1-1-0.4-1.3c-0.3-0.3-0.7-0.4-1.1-0.4c-0.5,0-0.9,0.2-1.2,0.5
		c-0.3,0.3-0.4,0.8-0.4,1.4v2.9h-0.9V132h0.9v1.3c0.1-0.4,0.4-0.8,0.7-1c0.4-0.2,0.8-0.4,1.2-0.4C59.1,131.9,59.6,132.1,60,132.5z"
		/>
	<path d="M65.9,132.3c0.4,0.2,0.7,0.6,1,1c0.2,0.4,0.4,0.9,0.4,1.5s-0.1,1.1-0.4,1.5c-0.2,0.4-0.6,0.7-1,1c-0.4,0.2-0.9,0.3-1.4,0.3
		c-0.5,0-1-0.1-1.4-0.3c-0.4-0.2-0.7-0.6-1-1c-0.2-0.4-0.4-0.9-0.4-1.5s0.1-1.1,0.4-1.5c0.2-0.4,0.6-0.8,1-1
		c0.4-0.2,0.9-0.3,1.4-0.3C65,131.9,65.5,132.1,65.9,132.3z M63.6,133c-0.3,0.1-0.5,0.4-0.7,0.7s-0.3,0.7-0.3,1.1
		c0,0.4,0.1,0.8,0.3,1.1c0.2,0.3,0.4,0.5,0.7,0.7s0.6,0.2,0.9,0.2c0.3,0,0.6-0.1,0.9-0.2c0.3-0.1,0.5-0.4,0.7-0.7
		c0.2-0.3,0.3-0.7,0.3-1.1c0-0.4-0.1-0.8-0.3-1.1s-0.4-0.5-0.7-0.7c-0.3-0.1-0.6-0.2-0.9-0.2C64.2,132.7,63.9,132.8,63.6,133z"/>
	<path d="M73,136.5l1.7-4.5h1l-2.2,5.5h-1.1l-2.1-5.5h1L73,136.5z"/>
	<path d="M81.5,132v5.5h-0.9v-1.3c-0.1,0.4-0.4,0.8-0.7,1c-0.4,0.2-0.8,0.4-1.2,0.4c-0.6,0-1.1-0.2-1.5-0.6s-0.6-1-0.6-1.8V132h0.9
		v3.1c0,0.5,0.1,1,0.4,1.3s0.7,0.4,1.1,0.4c0.5,0,0.9-0.2,1.2-0.5s0.5-0.8,0.5-1.4V132H81.5z"/>
	<path d="M83.9,130.1v7.4H83v-7.4H83.9z"/>
	<path d="M89.8,132.5c0.4,0.4,0.6,1,0.6,1.8v3.2h-0.9v-3.1c0-0.5-0.1-1-0.4-1.3c-0.3-0.3-0.7-0.4-1.1-0.4c-0.5,0-0.9,0.2-1.2,0.5
		s-0.5,0.8-0.5,1.4v2.9h-0.9V132h0.9v1.3c0.1-0.4,0.4-0.8,0.7-1c0.4-0.2,0.8-0.4,1.2-0.4C88.9,131.9,89.4,132.1,89.8,132.5z"/>
	<path d="M96.8,135h-4.4c0,0.6,0.2,1.1,0.5,1.4c0.3,0.3,0.7,0.5,1.2,0.5c0.4,0,0.8-0.1,1.1-0.3c0.3-0.2,0.5-0.5,0.5-0.9h1
		c-0.1,0.4-0.2,0.7-0.4,1c-0.2,0.3-0.5,0.5-0.9,0.7c-0.4,0.2-0.8,0.2-1.2,0.2c-0.5,0-1-0.1-1.4-0.3c-0.4-0.2-0.7-0.6-1-1
		c-0.2-0.4-0.3-0.9-0.3-1.5s0.1-1.1,0.3-1.5c0.2-0.4,0.5-0.8,1-1c0.4-0.2,0.9-0.3,1.4-0.3c0.5,0,1,0.1,1.4,0.3
		c0.4,0.2,0.7,0.5,0.9,0.9s0.3,0.8,0.3,1.3C96.8,134.6,96.8,134.8,96.8,135z M95.7,133.5c-0.2-0.3-0.4-0.5-0.6-0.6s-0.6-0.2-0.9-0.2
		c-0.5,0-0.9,0.2-1.3,0.5c-0.3,0.3-0.5,0.8-0.6,1.4h3.5C95.9,134.1,95.8,133.8,95.7,133.5z"/>
	<path d="M99.7,132.2c0.3-0.2,0.8-0.3,1.2-0.3v1h-0.3c-0.5,0-0.9,0.1-1.3,0.4c-0.3,0.3-0.5,0.7-0.5,1.3v2.9H98V132h0.9v1.1
		C99.1,132.7,99.4,132.4,99.7,132.2z"/>
	<path d="M105.4,132.3c0.4,0.3,0.6,0.6,0.8,1.1V132h0.9v5.5h-0.9v-1.4c-0.1,0.4-0.4,0.8-0.8,1.1s-0.8,0.4-1.4,0.4
		c-0.5,0-0.9-0.1-1.3-0.3s-0.7-0.6-0.9-1c-0.2-0.4-0.3-0.9-0.3-1.5s0.1-1.1,0.3-1.5s0.5-0.8,0.9-1c0.4-0.2,0.8-0.3,1.3-0.3
		C104.6,131.9,105.1,132.1,105.4,132.3z M103,133.3c-0.3,0.4-0.5,0.8-0.5,1.5s0.2,1.1,0.5,1.5c0.3,0.4,0.8,0.5,1.3,0.5
		c0.4,0,0.7-0.1,1-0.2c0.3-0.2,0.5-0.4,0.7-0.7c0.2-0.3,0.2-0.7,0.2-1.1s-0.1-0.8-0.2-1.1s-0.4-0.5-0.7-0.7c-0.3-0.2-0.6-0.2-1-0.2
		C103.8,132.8,103.3,132.9,103,133.3z"/>
	<path d="M112.9,132.3c0.4,0.2,0.7,0.6,0.9,1s0.3,0.9,0.3,1.5s-0.1,1.1-0.3,1.5c-0.2,0.4-0.5,0.7-0.9,1c-0.4,0.2-0.8,0.3-1.3,0.3
		c-0.5,0-1-0.1-1.4-0.4c-0.4-0.3-0.6-0.6-0.8-1.1v1.4h-0.9v-7.4h0.9v3.3c0.1-0.4,0.4-0.8,0.8-1.1c0.4-0.3,0.8-0.4,1.4-0.4
		C112.1,131.9,112.5,132.1,112.9,132.3z M110.4,133c-0.3,0.2-0.5,0.4-0.7,0.7s-0.2,0.7-0.2,1.1s0.1,0.8,0.2,1.1
		c0.2,0.3,0.4,0.5,0.7,0.7c0.3,0.2,0.6,0.2,1,0.2c0.6,0,1-0.2,1.4-0.5c0.3-0.4,0.5-0.8,0.5-1.5s-0.2-1.1-0.5-1.5
		c-0.3-0.4-0.8-0.5-1.4-0.5C111,132.8,110.7,132.8,110.4,133z"/>
	<path d="M115.3,130c0.1-0.1,0.3-0.2,0.5-0.2c0.2,0,0.3,0.1,0.4,0.2s0.2,0.2,0.2,0.4c0,0.2-0.1,0.3-0.2,0.4s-0.3,0.2-0.4,0.2
		c-0.2,0-0.3-0.1-0.5-0.2s-0.2-0.2-0.2-0.4C115.2,130.2,115.2,130.1,115.3,130z M116.2,132v5.5h-0.9V132H116.2z"/>
	<path d="M118.6,130.1v7.4h-0.9v-7.4H118.6z"/>
	<path d="M120.1,130c0.1-0.1,0.3-0.2,0.5-0.2c0.2,0,0.3,0.1,0.4,0.2s0.2,0.2,0.2,0.4c0,0.2-0.1,0.3-0.2,0.4s-0.3,0.2-0.4,0.2
		c-0.2,0-0.3-0.1-0.5-0.2s-0.2-0.2-0.2-0.4C119.9,130.2,120,130.1,120.1,130z M121,132v5.5h-0.9V132H121z"/>
</g>
<g>
	<path d="M40.6,156.8l0.4,0.7l-1.4,0.5l1.4,0.5l-0.4,0.7l-1.2-0.9l0.2,1.5h-0.8l0.2-1.5l-1.2,0.9l-0.4-0.8l1.4-0.5l-1.4-0.5l0.4-0.7
		l1.2,0.9l-0.2-1.5h0.8l-0.2,1.5L40.6,156.8z"/>
	<path d="M45.7,162.8h2.5v0.7h-3.4v-7h0.9V162.8z"/>
	<path d="M49.8,156.5c0,0.4-0.1,0.7-0.3,0.8c-0.2,0.2-0.4,0.3-0.8,0.3v-0.4c0.2,0,0.3,0,0.4-0.1s0.1-0.2,0.1-0.4v-0.2h-0.5v-0.9h0.9
		C49.7,155.9,49.8,156.2,49.8,156.5z"/>
	<path d="M54.5,158.3c0.4,0.3,0.6,0.6,0.8,1.1V158h0.9v5.5h-0.9v-1.4c-0.1,0.4-0.4,0.8-0.8,1.1s-0.8,0.4-1.4,0.4
		c-0.5,0-0.9-0.1-1.3-0.3c-0.4-0.2-0.7-0.6-0.9-1c-0.2-0.4-0.3-0.9-0.3-1.5s0.1-1.1,0.3-1.5c0.2-0.4,0.5-0.8,0.9-1
		c0.4-0.2,0.8-0.3,1.3-0.3C53.7,157.9,54.1,158.1,54.5,158.3z M52,159.3c-0.3,0.4-0.5,0.8-0.5,1.5s0.2,1.1,0.5,1.5
		c0.3,0.4,0.8,0.5,1.3,0.5c0.4,0,0.7-0.1,1-0.2c0.3-0.2,0.5-0.4,0.7-0.7c0.2-0.3,0.2-0.7,0.2-1.1s-0.1-0.8-0.2-1.1
		c-0.2-0.3-0.4-0.5-0.7-0.7c-0.3-0.2-0.6-0.2-1-0.2C52.8,158.8,52.4,158.9,52,159.3z"/>
	<path d="M59.3,158.2c0.3-0.2,0.8-0.3,1.2-0.3v1h-0.3c-0.5,0-0.9,0.1-1.3,0.4s-0.5,0.7-0.5,1.3v2.9h-0.9V158h0.9v1.1
		C58.7,158.7,59,158.4,59.3,158.2z"/>
	<path d="M66.5,161h-4.4c0,0.6,0.2,1.1,0.5,1.4c0.3,0.3,0.7,0.5,1.2,0.5c0.4,0,0.8-0.1,1.1-0.3c0.3-0.2,0.5-0.5,0.5-0.9h1
		c-0.1,0.4-0.2,0.7-0.4,1c-0.2,0.3-0.5,0.5-0.9,0.7c-0.4,0.2-0.8,0.2-1.2,0.2c-0.5,0-1-0.1-1.4-0.3c-0.4-0.2-0.7-0.6-1-1
		c-0.2-0.4-0.3-0.9-0.3-1.5s0.1-1.1,0.3-1.5s0.5-0.8,1-1c0.4-0.2,0.9-0.3,1.4-0.3c0.5,0,1,0.1,1.4,0.3c0.4,0.2,0.7,0.5,0.9,0.9
		c0.2,0.4,0.3,0.8,0.3,1.3C66.5,160.6,66.5,160.8,66.5,161z M65.4,159.5c-0.2-0.3-0.4-0.5-0.6-0.6c-0.3-0.1-0.6-0.2-0.9-0.2
		c-0.5,0-0.9,0.2-1.3,0.5c-0.3,0.3-0.5,0.8-0.5,1.4h3.5C65.6,160.1,65.5,159.8,65.4,159.5z"/>
	<path d="M71.3,158.3c0.4,0.3,0.6,0.6,0.8,1.1V158H73v5.5h-0.9v-1.4c-0.1,0.4-0.4,0.8-0.8,1.1s-0.8,0.4-1.4,0.4
		c-0.5,0-0.9-0.1-1.3-0.3s-0.7-0.6-0.9-1c-0.2-0.4-0.3-0.9-0.3-1.5s0.1-1.1,0.3-1.5s0.5-0.8,0.9-1c0.4-0.2,0.8-0.3,1.3-0.3
		C70.5,157.9,70.9,158.1,71.3,158.3z M68.9,159.3c-0.3,0.4-0.5,0.8-0.5,1.5s0.2,1.1,0.5,1.5c0.3,0.4,0.8,0.5,1.3,0.5
		c0.4,0,0.7-0.1,1-0.2c0.3-0.2,0.5-0.4,0.7-0.7c0.2-0.3,0.2-0.7,0.2-1.1s-0.1-0.8-0.2-1.1s-0.4-0.5-0.7-0.7c-0.3-0.2-0.6-0.2-1-0.2
		C69.6,158.8,69.2,158.9,68.9,159.3z"/>
	<path d="M80.1,158.4c0.4,0.3,0.6,0.8,0.7,1.3h-0.9c0-0.3-0.2-0.6-0.4-0.8c-0.2-0.2-0.5-0.3-0.9-0.3c-0.3,0-0.6,0.1-0.8,0.2
		c-0.2,0.2-0.3,0.4-0.3,0.6c0,0.2,0.1,0.4,0.2,0.5c0.1,0.1,0.3,0.2,0.5,0.3s0.4,0.1,0.8,0.2c0.4,0.1,0.7,0.2,1,0.3
		c0.2,0.1,0.5,0.3,0.6,0.5c0.2,0.2,0.3,0.5,0.3,0.9c0,0.4-0.2,0.8-0.5,1.1c-0.3,0.3-0.8,0.4-1.3,0.4c-0.7,0-1.2-0.2-1.6-0.5
		c-0.4-0.3-0.7-0.8-0.7-1.3h0.9c0,0.3,0.2,0.6,0.4,0.8c0.3,0.2,0.6,0.3,1,0.3c0.3,0,0.6-0.1,0.7-0.2c0.2-0.2,0.3-0.4,0.3-0.6
		c0-0.2-0.1-0.4-0.2-0.5c-0.1-0.1-0.3-0.2-0.5-0.3c-0.2-0.1-0.4-0.1-0.8-0.2c-0.4-0.1-0.7-0.2-1-0.3c-0.2-0.1-0.5-0.2-0.6-0.4
		s-0.3-0.5-0.3-0.8c0-0.5,0.2-0.8,0.5-1.1c0.3-0.3,0.8-0.4,1.4-0.4C79.2,157.9,79.7,158.1,80.1,158.4z"/>
	<path d="M87.1,161h-4.4c0,0.6,0.2,1.1,0.5,1.4c0.3,0.3,0.7,0.5,1.2,0.5c0.4,0,0.8-0.1,1.1-0.3c0.3-0.2,0.5-0.5,0.5-0.9h1
		c-0.1,0.4-0.2,0.7-0.4,1c-0.2,0.3-0.5,0.5-0.9,0.7c-0.4,0.2-0.8,0.2-1.2,0.2c-0.5,0-1-0.1-1.4-0.3c-0.4-0.2-0.7-0.6-1-1
		c-0.2-0.4-0.3-0.9-0.3-1.5s0.1-1.1,0.3-1.5c0.2-0.4,0.5-0.8,1-1c0.4-0.2,0.9-0.3,1.4-0.3c0.5,0,1,0.1,1.4,0.3
		c0.4,0.2,0.7,0.5,0.9,0.9s0.3,0.8,0.3,1.3C87.1,160.6,87.1,160.8,87.1,161z M86,159.5c-0.2-0.3-0.4-0.5-0.6-0.6s-0.6-0.2-0.9-0.2
		c-0.5,0-0.9,0.2-1.3,0.5c-0.3,0.3-0.5,0.8-0.6,1.4h3.5C86.2,160.1,86.2,159.8,86,159.5z"/>
	<path d="M89.2,156.1v7.4h-0.9v-7.4H89.2z"/>
	<path d="M95.7,161h-4.4c0,0.6,0.2,1.1,0.5,1.4c0.3,0.3,0.7,0.5,1.2,0.5c0.4,0,0.8-0.1,1.1-0.3c0.3-0.2,0.5-0.5,0.5-0.9h1
		c-0.1,0.4-0.2,0.7-0.4,1c-0.2,0.3-0.5,0.5-0.9,0.7c-0.4,0.2-0.8,0.2-1.2,0.2c-0.5,0-1-0.1-1.4-0.3c-0.4-0.2-0.7-0.6-1-1
		c-0.2-0.4-0.3-0.9-0.3-1.5s0.1-1.1,0.3-1.5c0.2-0.4,0.5-0.8,1-1c0.4-0.2,0.9-0.3,1.4-0.3c0.5,0,1,0.1,1.4,0.3
		c0.4,0.2,0.7,0.5,0.9,0.9s0.3,0.8,0.3,1.3C95.7,160.6,95.7,160.8,95.7,161z M94.6,159.5c-0.2-0.3-0.4-0.5-0.6-0.6s-0.6-0.2-0.9-0.2
		c-0.5,0-0.9,0.2-1.3,0.5c-0.3,0.3-0.5,0.8-0.6,1.4h3.5C94.8,160.1,94.8,159.8,94.6,159.5z"/>
	<path d="M97.5,162.7h2.9v0.8h-3.9v-0.7l2.8-4h-2.7V158h3.8v0.7L97.5,162.7z"/>
	<path d="M101.4,156c0.1-0.1,0.3-0.2,0.5-0.2c0.2,0,0.3,0.1,0.4,0.2s0.2,0.2,0.2,0.4c0,0.2-0.1,0.3-0.2,0.4s-0.3,0.2-0.4,0.2
		c-0.2,0-0.3-0.1-0.5-0.2s-0.2-0.2-0.2-0.4C101.2,156.2,101.3,156.1,101.4,156z M102.3,158v5.5h-0.9V158H102.3z"/>
	<path d="M107.7,158.3c0.4,0.2,0.7,0.6,1,1c0.2,0.4,0.4,0.9,0.4,1.5s-0.1,1.1-0.4,1.5c-0.2,0.4-0.6,0.7-1,1
		c-0.4,0.2-0.9,0.3-1.4,0.3s-1-0.1-1.4-0.3c-0.4-0.2-0.7-0.6-1-1c-0.2-0.4-0.4-0.9-0.4-1.5s0.1-1.1,0.4-1.5c0.2-0.4,0.6-0.8,1-1
		c0.4-0.2,0.9-0.3,1.4-0.3S107.2,158.1,107.7,158.3z M105.3,159c-0.3,0.1-0.5,0.4-0.7,0.7c-0.2,0.3-0.3,0.7-0.3,1.1
		c0,0.4,0.1,0.8,0.3,1.1c0.2,0.3,0.4,0.5,0.7,0.7c0.3,0.1,0.6,0.2,0.9,0.2c0.3,0,0.6-0.1,0.9-0.2s0.5-0.4,0.7-0.7
		c0.2-0.3,0.3-0.7,0.3-1.1c0-0.4-0.1-0.8-0.3-1.1s-0.4-0.5-0.7-0.7s-0.6-0.2-0.9-0.2C105.9,158.7,105.6,158.8,105.3,159z"/>
	<path d="M114.6,158.5c0.4,0.4,0.6,1,0.6,1.8v3.2h-0.9v-3.1c0-0.5-0.1-1-0.4-1.3c-0.3-0.3-0.7-0.4-1.1-0.4c-0.5,0-0.9,0.2-1.2,0.5
		s-0.5,0.8-0.5,1.4v2.9h-0.9V158h0.9v1.3c0.1-0.4,0.4-0.8,0.7-1c0.4-0.2,0.8-0.4,1.2-0.4C113.7,157.9,114.2,158.1,114.6,158.5z"/>
	<path d="M120.2,158.3c0.4,0.3,0.6,0.6,0.8,1.1V158h0.9v5.5H121v-1.4c-0.1,0.4-0.4,0.8-0.8,1.1s-0.8,0.4-1.4,0.4
		c-0.5,0-0.9-0.1-1.3-0.3s-0.7-0.6-0.9-1c-0.2-0.4-0.3-0.9-0.3-1.5s0.1-1.1,0.3-1.5s0.5-0.8,0.9-1c0.4-0.2,0.8-0.3,1.3-0.3
		C119.4,157.9,119.9,158.1,120.2,158.3z M117.8,159.3c-0.3,0.4-0.5,0.8-0.5,1.5s0.2,1.1,0.5,1.5c0.3,0.4,0.8,0.5,1.3,0.5
		c0.4,0,0.7-0.1,1-0.2c0.3-0.2,0.5-0.4,0.7-0.7c0.2-0.3,0.2-0.7,0.2-1.1s-0.1-0.8-0.2-1.1s-0.4-0.5-0.7-0.7c-0.3-0.2-0.6-0.2-1-0.2
		C118.6,158.8,118.1,158.9,117.8,159.3z"/>
	<path d="M126,162.7v0.8h-0.7c-0.6,0-1-0.1-1.3-0.4s-0.4-0.7-0.4-1.3v-3h-0.8V158h0.8v-1.4h0.9v1.4h1.4v0.8h-1.4v3
		c0,0.4,0.1,0.6,0.2,0.7s0.4,0.2,0.7,0.2H126z"/>
	<path d="M130.7,158.3c0.4,0.3,0.6,0.6,0.8,1.1V158h0.9v5.5h-0.9v-1.4c-0.1,0.4-0.4,0.8-0.8,1.1s-0.8,0.4-1.4,0.4
		c-0.5,0-0.9-0.1-1.3-0.3s-0.7-0.6-0.9-1c-0.2-0.4-0.3-0.9-0.3-1.5s0.1-1.1,0.3-1.5s0.5-0.8,0.9-1c0.4-0.2,0.8-0.3,1.3-0.3
		C129.9,157.9,130.3,158.1,130.7,158.3z M128.3,159.3c-0.3,0.4-0.5,0.8-0.5,1.5s0.2,1.1,0.5,1.5c0.3,0.4,0.8,0.5,1.3,0.5
		c0.4,0,0.7-0.1,1-0.2c0.3-0.2,0.5-0.4,0.7-0.7c0.2-0.3,0.2-0.7,0.2-1.1s-0.1-0.8-0.2-1.1s-0.4-0.5-0.7-0.7c-0.3-0.2-0.6-0.2-1-0.2
		C129,158.8,128.6,158.9,128.3,159.3z"/>
	<path d="M139.5,158.4c0.4,0.3,0.6,0.8,0.7,1.3h-0.9c0-0.3-0.2-0.6-0.4-0.8c-0.2-0.2-0.5-0.3-0.9-0.3c-0.3,0-0.6,0.1-0.8,0.2
		c-0.2,0.2-0.3,0.4-0.3,0.6c0,0.2,0.1,0.4,0.2,0.5c0.1,0.1,0.3,0.2,0.5,0.3s0.4,0.1,0.8,0.2c0.4,0.1,0.7,0.2,1,0.3
		c0.2,0.1,0.5,0.3,0.6,0.5c0.2,0.2,0.3,0.5,0.3,0.9c0,0.4-0.2,0.8-0.5,1.1c-0.3,0.3-0.8,0.4-1.3,0.4c-0.7,0-1.2-0.2-1.6-0.5
		c-0.4-0.3-0.7-0.8-0.7-1.3h0.9c0,0.3,0.2,0.6,0.4,0.8c0.3,0.2,0.6,0.3,1,0.3c0.3,0,0.6-0.1,0.7-0.2c0.2-0.2,0.3-0.4,0.3-0.6
		c0-0.2-0.1-0.4-0.2-0.5c-0.1-0.1-0.3-0.2-0.5-0.3c-0.2-0.1-0.4-0.1-0.8-0.2c-0.4-0.1-0.7-0.2-1-0.3c-0.2-0.1-0.5-0.2-0.6-0.4
		s-0.3-0.5-0.3-0.8c0-0.5,0.2-0.8,0.5-1.1c0.3-0.3,0.8-0.4,1.4-0.4C138.6,157.9,139.1,158.1,139.5,158.4z"/>
	<path d="M141.5,156c0.1-0.1,0.3-0.2,0.5-0.2c0.2,0,0.3,0.1,0.4,0.2s0.2,0.2,0.2,0.4c0,0.2-0.1,0.3-0.2,0.4s-0.3,0.2-0.4,0.2
		c-0.2,0-0.3-0.1-0.5-0.2s-0.2-0.2-0.2-0.4C141.3,156.2,141.4,156.1,141.5,156z M142.4,158v5.5h-0.9V158H142.4z"/>
	<path d="M39.2,170.2c0.3-0.2,0.8-0.3,1.2-0.3v1h-0.3c-0.5,0-0.9,0.1-1.3,0.4s-0.5,0.7-0.5,1.3v2.9h-0.9V170h0.9v1.1
		C38.6,170.7,38.9,170.4,39.2,170.2z"/>
	<path d="M41.4,168c0.1-0.1,0.3-0.2,0.4-0.2s0.3,0.1,0.5,0.2c0.1,0.1,0.2,0.2,0.2,0.4c0,0.2-0.1,0.3-0.2,0.4
		c-0.1,0.1-0.3,0.2-0.5,0.2s-0.3-0.1-0.4-0.2c-0.1-0.1-0.2-0.2-0.2-0.4C41.2,168.2,41.3,168.1,41.4,168z M42.3,170v5.5h-0.9V170
		H42.3z"/>
	<path d="M45.2,169c-0.2,0.2-0.3,0.5-0.3,0.9v0.2h1.3v0.8h-1.3v4.7H44v-4.7h-0.8V170H44v-0.2c0-1.3,0.7-1.9,2.2-1.9v0.8
		C45.7,168.7,45.3,168.8,45.2,169z"/>
	<path d="M52.2,173h-4.4c0,0.6,0.2,1.1,0.5,1.4c0.3,0.3,0.7,0.5,1.2,0.5c0.4,0,0.8-0.1,1.1-0.3c0.3-0.2,0.5-0.5,0.5-0.9h1
		c-0.1,0.4-0.2,0.7-0.4,1c-0.2,0.3-0.5,0.5-0.9,0.7c-0.4,0.2-0.8,0.2-1.2,0.2c-0.5,0-1-0.1-1.4-0.3c-0.4-0.2-0.7-0.6-1-1
		c-0.2-0.4-0.3-0.9-0.3-1.5s0.1-1.1,0.3-1.5s0.5-0.8,1-1c0.4-0.2,0.9-0.3,1.4-0.3c0.5,0,1,0.1,1.4,0.3c0.4,0.2,0.7,0.5,0.9,0.9
		s0.3,0.8,0.3,1.3C52.2,172.6,52.2,172.8,52.2,173z M51.1,171.5c-0.2-0.3-0.4-0.5-0.6-0.6s-0.6-0.2-0.9-0.2c-0.5,0-0.9,0.2-1.3,0.5
		c-0.3,0.3-0.5,0.8-0.5,1.4h3.5C51.3,172.1,51.2,171.8,51.1,171.5z"/>
	<path d="M55.1,170.2c0.3-0.2,0.8-0.3,1.2-0.3v1h-0.3c-0.5,0-0.9,0.1-1.3,0.4s-0.5,0.7-0.5,1.3v2.9h-0.9V170h0.9v1.1
		C54.5,170.7,54.8,170.4,55.1,170.2z"/>
	<path d="M57.2,168c0.1-0.1,0.3-0.2,0.4-0.2s0.3,0.1,0.5,0.2c0.1,0.1,0.2,0.2,0.2,0.4c0,0.2-0.1,0.3-0.2,0.4
		c-0.1,0.1-0.3,0.2-0.5,0.2s-0.3-0.1-0.4-0.2c-0.1-0.1-0.2-0.2-0.2-0.4C57.1,168.2,57.1,168.1,57.2,168z M58.1,170v5.5h-0.9V170
		H58.1z"/>
	<path d="M62.8,170.4c0.4,0.3,0.6,0.8,0.7,1.3h-0.9c0-0.3-0.2-0.6-0.4-0.8s-0.5-0.3-0.9-0.3c-0.3,0-0.6,0.1-0.8,0.2
		c-0.2,0.2-0.3,0.4-0.3,0.6c0,0.2,0.1,0.4,0.2,0.5c0.1,0.1,0.3,0.2,0.5,0.3c0.2,0.1,0.4,0.1,0.8,0.2c0.4,0.1,0.7,0.2,1,0.3
		c0.2,0.1,0.5,0.3,0.6,0.5c0.2,0.2,0.3,0.5,0.3,0.9c0,0.4-0.2,0.8-0.5,1.1c-0.3,0.3-0.8,0.4-1.3,0.4c-0.7,0-1.2-0.2-1.6-0.5
		c-0.4-0.3-0.7-0.8-0.7-1.3h0.9c0,0.3,0.2,0.6,0.4,0.8c0.3,0.2,0.6,0.3,1,0.3c0.3,0,0.6-0.1,0.7-0.2s0.3-0.4,0.3-0.6
		c0-0.2-0.1-0.4-0.2-0.5c-0.1-0.1-0.3-0.2-0.5-0.3c-0.2-0.1-0.4-0.1-0.8-0.2c-0.4-0.1-0.7-0.2-1-0.3c-0.2-0.1-0.4-0.2-0.6-0.4
		c-0.2-0.2-0.3-0.5-0.3-0.8c0-0.5,0.2-0.8,0.5-1.1c0.3-0.3,0.8-0.4,1.4-0.4C61.9,169.9,62.4,170.1,62.8,170.4z"/>
	<path d="M68.9,170.5c0.5,0.4,0.7,0.9,0.8,1.5h-1c-0.1-0.4-0.2-0.7-0.5-0.9c-0.3-0.2-0.7-0.3-1.1-0.3c-0.3,0-0.6,0.1-0.9,0.2
		c-0.3,0.1-0.5,0.4-0.6,0.7s-0.2,0.7-0.2,1.1s0.1,0.8,0.2,1.1s0.4,0.5,0.6,0.7c0.3,0.1,0.6,0.2,0.9,0.2c0.4,0,0.8-0.1,1.1-0.3
		s0.5-0.5,0.5-0.9h1c-0.1,0.6-0.4,1.1-0.8,1.5s-1,0.6-1.7,0.6c-0.5,0-1-0.1-1.4-0.3c-0.4-0.2-0.7-0.6-1-1c-0.2-0.4-0.3-0.9-0.3-1.5
		s0.1-1.1,0.3-1.5c0.2-0.4,0.5-0.8,1-1c0.4-0.2,0.9-0.3,1.4-0.3C67.9,169.9,68.5,170.1,68.9,170.5z"/>
	<path d="M76,173h-4.4c0,0.6,0.2,1.1,0.5,1.4c0.3,0.3,0.7,0.5,1.2,0.5c0.4,0,0.8-0.1,1.1-0.3c0.3-0.2,0.5-0.5,0.5-0.9h1
		c-0.1,0.4-0.2,0.7-0.4,1c-0.2,0.3-0.5,0.5-0.9,0.7c-0.4,0.2-0.8,0.2-1.2,0.2c-0.5,0-1-0.1-1.4-0.3c-0.4-0.2-0.7-0.6-1-1
		c-0.2-0.4-0.3-0.9-0.3-1.5s0.1-1.1,0.3-1.5c0.2-0.4,0.5-0.8,1-1c0.4-0.2,0.9-0.3,1.4-0.3c0.5,0,1,0.1,1.4,0.3
		c0.4,0.2,0.7,0.5,0.9,0.9s0.3,0.8,0.3,1.3C76,172.6,76,172.8,76,173z M74.9,171.5c-0.2-0.3-0.4-0.5-0.6-0.6s-0.6-0.2-0.9-0.2
		c-0.5,0-0.9,0.2-1.3,0.5c-0.3,0.3-0.5,0.8-0.6,1.4h3.5C75.1,172.1,75.1,171.8,74.9,171.5z"/>
	<path d="M83.3,170.3c0.4,0.3,0.6,0.6,0.8,1.1V170H85v5.5h-0.9v-1.4c-0.1,0.4-0.4,0.8-0.8,1.1s-0.8,0.4-1.4,0.4
		c-0.5,0-0.9-0.1-1.3-0.3s-0.7-0.6-0.9-1c-0.2-0.4-0.3-0.9-0.3-1.5s0.1-1.1,0.3-1.5s0.5-0.8,0.9-1c0.4-0.2,0.8-0.3,1.3-0.3
		C82.5,169.9,82.9,170.1,83.3,170.3z M80.9,171.3c-0.3,0.4-0.5,0.8-0.5,1.5s0.2,1.1,0.5,1.5c0.3,0.4,0.8,0.5,1.3,0.5
		c0.4,0,0.7-0.1,1-0.2c0.3-0.2,0.5-0.4,0.7-0.7c0.2-0.3,0.2-0.7,0.2-1.1s-0.1-0.8-0.2-1.1s-0.4-0.5-0.7-0.7c-0.3-0.2-0.6-0.2-1-0.2
		C81.6,170.8,81.2,170.9,80.9,171.3z"/>
	<path d="M86.4,168c0.1-0.1,0.3-0.2,0.5-0.2c0.2,0,0.3,0.1,0.4,0.2s0.2,0.2,0.2,0.4c0,0.2-0.1,0.3-0.2,0.4s-0.3,0.2-0.4,0.2
		c-0.2,0-0.3-0.1-0.5-0.2s-0.2-0.2-0.2-0.4C86.3,168.2,86.3,168.1,86.4,168z M87.3,170v5.5h-0.9V170H87.3z"/>
	<path d="M92.2,172.7v2.8h-0.9v-7h2.2c0.8,0,1.4,0.2,1.8,0.6c0.4,0.4,0.6,0.9,0.6,1.5c0,0.7-0.2,1.2-0.6,1.5s-1,0.6-1.8,0.6H92.2z
		 M94.6,171.5c0.2-0.2,0.4-0.6,0.4-1c0-0.4-0.1-0.8-0.4-1c-0.2-0.2-0.6-0.3-1.2-0.3h-1.2v2.7h1.2C94,171.9,94.4,171.8,94.6,171.5z"
		/>
	<path d="M100.6,170.3c0.4,0.3,0.6,0.6,0.8,1.1V170h0.9v5.5h-0.9v-1.4c-0.1,0.4-0.4,0.8-0.8,1.1s-0.8,0.4-1.4,0.4
		c-0.5,0-0.9-0.1-1.3-0.3s-0.7-0.6-0.9-1c-0.2-0.4-0.3-0.9-0.3-1.5s0.1-1.1,0.3-1.5s0.5-0.8,0.9-1c0.4-0.2,0.8-0.3,1.3-0.3
		C99.8,169.9,100.2,170.1,100.6,170.3z M98.2,171.3c-0.3,0.4-0.5,0.8-0.5,1.5s0.2,1.1,0.5,1.5c0.3,0.4,0.8,0.5,1.3,0.5
		c0.4,0,0.7-0.1,1-0.2c0.3-0.2,0.5-0.4,0.7-0.7c0.2-0.3,0.2-0.7,0.2-1.1s-0.1-0.8-0.2-1.1s-0.4-0.5-0.7-0.7c-0.3-0.2-0.6-0.2-1-0.2
		C98.9,170.8,98.5,170.9,98.2,171.3z"/>
	<path d="M108.7,173h-4.4c0,0.6,0.2,1.1,0.5,1.4c0.3,0.3,0.7,0.5,1.2,0.5c0.4,0,0.8-0.1,1.1-0.3c0.3-0.2,0.5-0.5,0.5-0.9h1
		c-0.1,0.4-0.2,0.7-0.4,1c-0.2,0.3-0.5,0.5-0.9,0.7c-0.4,0.2-0.8,0.2-1.2,0.2c-0.5,0-1-0.1-1.4-0.3c-0.4-0.2-0.7-0.6-1-1
		c-0.2-0.4-0.3-0.9-0.3-1.5s0.1-1.1,0.3-1.5c0.2-0.4,0.5-0.8,1-1c0.4-0.2,0.9-0.3,1.4-0.3c0.5,0,1,0.1,1.4,0.3
		c0.4,0.2,0.7,0.5,0.9,0.9s0.3,0.8,0.3,1.3C108.8,172.6,108.8,172.8,108.7,173z M107.7,171.5c-0.2-0.3-0.4-0.5-0.6-0.6
		s-0.6-0.2-0.9-0.2c-0.5,0-0.9,0.2-1.3,0.5c-0.3,0.3-0.5,0.8-0.6,1.4h3.5C107.9,172.1,107.8,171.8,107.7,171.5z"/>
	<path d="M113.2,170.4c0.4,0.3,0.6,0.8,0.7,1.3H113c0-0.3-0.2-0.6-0.4-0.8c-0.2-0.2-0.5-0.3-0.9-0.3c-0.3,0-0.6,0.1-0.8,0.2
		c-0.2,0.2-0.3,0.4-0.3,0.6c0,0.2,0.1,0.4,0.2,0.5c0.1,0.1,0.3,0.2,0.5,0.3s0.4,0.1,0.8,0.2c0.4,0.1,0.7,0.2,1,0.3
		c0.2,0.1,0.5,0.3,0.6,0.5c0.2,0.2,0.3,0.5,0.3,0.9c0,0.4-0.2,0.8-0.5,1.1c-0.3,0.3-0.8,0.4-1.3,0.4c-0.7,0-1.2-0.2-1.6-0.5
		c-0.4-0.3-0.7-0.8-0.7-1.3h0.9c0,0.3,0.2,0.6,0.4,0.8c0.3,0.2,0.6,0.3,1,0.3c0.3,0,0.6-0.1,0.7-0.2c0.2-0.2,0.3-0.4,0.3-0.6
		c0-0.2-0.1-0.4-0.2-0.5c-0.1-0.1-0.3-0.2-0.5-0.3c-0.2-0.1-0.4-0.1-0.8-0.2c-0.4-0.1-0.7-0.2-1-0.3c-0.2-0.1-0.5-0.2-0.6-0.4
		s-0.3-0.5-0.3-0.8c0-0.5,0.2-0.8,0.5-1.1c0.3-0.3,0.8-0.4,1.4-0.4C112.3,169.9,112.8,170.1,113.2,170.4z"/>
	<path d="M115.1,168c0.1-0.1,0.3-0.2,0.5-0.2c0.2,0,0.3,0.1,0.4,0.2s0.2,0.2,0.2,0.4c0,0.2-0.1,0.3-0.2,0.4s-0.3,0.2-0.4,0.2
		c-0.2,0-0.3-0.1-0.5-0.2s-0.2-0.2-0.2-0.4C115,168.2,115,168.1,115.1,168z M116,170v5.5h-0.9V170H116z"/>
	<path d="M128.3,170.5c0.4,0.4,0.6,1,0.6,1.8v3.2h-0.9v-3.1c0-0.5-0.1-1-0.4-1.2c-0.3-0.3-0.6-0.4-1.1-0.4c-0.5,0-0.9,0.2-1.2,0.5
		c-0.3,0.3-0.4,0.8-0.4,1.4v2.9H124v-3.1c0-0.5-0.1-1-0.4-1.2c-0.3-0.3-0.6-0.4-1.1-0.4c-0.5,0-0.9,0.2-1.2,0.5
		c-0.3,0.3-0.4,0.8-0.4,1.4v2.9H120V170h0.9v1.2c0.1-0.4,0.4-0.8,0.7-1c0.3-0.2,0.7-0.3,1.2-0.3c0.5,0,0.9,0.1,1.2,0.4
		c0.3,0.2,0.6,0.6,0.7,1c0.2-0.4,0.4-0.8,0.8-1c0.4-0.2,0.8-0.4,1.2-0.4C127.4,169.9,127.9,170.1,128.3,170.5z"/>
	<path d="M134.2,170.3c0.4,0.2,0.7,0.6,1,1c0.2,0.4,0.4,0.9,0.4,1.5s-0.1,1.1-0.4,1.5c-0.2,0.4-0.6,0.7-1,1
		c-0.4,0.2-0.9,0.3-1.4,0.3s-1-0.1-1.4-0.3c-0.4-0.2-0.7-0.6-1-1c-0.2-0.4-0.4-0.9-0.4-1.5s0.1-1.1,0.4-1.5c0.2-0.4,0.6-0.8,1-1
		c0.4-0.2,0.9-0.3,1.4-0.3S133.8,170.1,134.2,170.3z M131.9,171c-0.3,0.1-0.5,0.4-0.7,0.7c-0.2,0.3-0.3,0.7-0.3,1.1
		c0,0.4,0.1,0.8,0.3,1.1c0.2,0.3,0.4,0.5,0.7,0.7c0.3,0.1,0.6,0.2,0.9,0.2c0.3,0,0.6-0.1,0.9-0.2s0.5-0.4,0.7-0.7
		c0.2-0.3,0.3-0.7,0.3-1.1c0-0.4-0.1-0.8-0.3-1.1s-0.4-0.5-0.7-0.7s-0.6-0.2-0.9-0.2C132.4,170.7,132.1,170.8,131.9,171z"/>
	<path d="M139.9,170.4c0.4,0.3,0.6,0.8,0.7,1.3h-0.9c0-0.3-0.2-0.6-0.4-0.8c-0.2-0.2-0.5-0.3-0.9-0.3c-0.3,0-0.6,0.1-0.8,0.2
		c-0.2,0.2-0.3,0.4-0.3,0.6c0,0.2,0.1,0.4,0.2,0.5c0.1,0.1,0.3,0.2,0.5,0.3s0.4,0.1,0.8,0.2c0.4,0.1,0.7,0.2,1,0.3
		c0.2,0.1,0.5,0.3,0.6,0.5c0.2,0.2,0.3,0.5,0.3,0.9c0,0.4-0.2,0.8-0.5,1.1c-0.3,0.3-0.8,0.4-1.3,0.4c-0.7,0-1.2-0.2-1.6-0.5
		c-0.4-0.3-0.7-0.8-0.7-1.3h0.9c0,0.3,0.2,0.6,0.4,0.8c0.3,0.2,0.6,0.3,1,0.3c0.3,0,0.6-0.1,0.7-0.2c0.2-0.2,0.3-0.4,0.3-0.6
		c0-0.2-0.1-0.4-0.2-0.5c-0.1-0.1-0.3-0.2-0.5-0.3c-0.2-0.1-0.4-0.1-0.8-0.2c-0.4-0.1-0.7-0.2-1-0.3c-0.2-0.1-0.5-0.2-0.6-0.4
		s-0.3-0.5-0.3-0.8c0-0.5,0.2-0.8,0.5-1.1c0.3-0.3,0.8-0.4,1.4-0.4C139,169.9,139.5,170.1,139.9,170.4z"/>
	<path d="M144.5,174.7v0.8h-0.7c-0.6,0-1-0.1-1.3-0.4s-0.4-0.7-0.4-1.3v-3h-0.8V170h0.8v-1.4h0.9v1.4h1.4v0.8h-1.4v3
		c0,0.4,0.1,0.6,0.2,0.7s0.4,0.2,0.7,0.2H144.5z"/>
	<path d="M147.3,170.2c0.3-0.2,0.8-0.3,1.2-0.3v1h-0.3c-0.5,0-0.9,0.1-1.3,0.4c-0.3,0.3-0.5,0.7-0.5,1.3v2.9h-0.9V170h0.9v1.1
		C146.7,170.7,147,170.4,147.3,170.2z"/>
	<path d="M153,170.3c0.4,0.3,0.6,0.6,0.8,1.1V170h0.9v5.5h-0.9v-1.4c-0.1,0.4-0.4,0.8-0.8,1.1s-0.8,0.4-1.4,0.4
		c-0.5,0-0.9-0.1-1.3-0.3s-0.7-0.6-0.9-1c-0.2-0.4-0.3-0.9-0.3-1.5s0.1-1.1,0.3-1.5s0.5-0.8,0.9-1c0.4-0.2,0.8-0.3,1.3-0.3
		C152.2,169.9,152.7,170.1,153,170.3z M150.6,171.3c-0.3,0.4-0.5,0.8-0.5,1.5s0.2,1.1,0.5,1.5c0.3,0.4,0.8,0.5,1.3,0.5
		c0.4,0,0.7-0.1,1-0.2c0.3-0.2,0.5-0.4,0.7-0.7c0.2-0.3,0.2-0.7,0.2-1.1s-0.1-0.8-0.2-1.1s-0.4-0.5-0.7-0.7c-0.3-0.2-0.6-0.2-1-0.2
		C151.4,170.8,150.9,170.9,150.6,171.3z"/>
	<path d="M158.8,174.7v0.8h-0.7c-0.6,0-1-0.1-1.3-0.4s-0.4-0.7-0.4-1.3v-3h-0.8V170h0.8v-1.4h0.9v1.4h1.4v0.8h-1.4v3
		c0,0.4,0.1,0.6,0.2,0.7s0.4,0.2,0.7,0.2H158.8z"/>
	<path d="M159.9,168c0.1-0.1,0.3-0.2,0.5-0.2c0.2,0,0.3,0.1,0.4,0.2s0.2,0.2,0.2,0.4c0,0.2-0.1,0.3-0.2,0.4s-0.3,0.2-0.4,0.2
		c-0.2,0-0.3-0.1-0.5-0.2s-0.2-0.2-0.2-0.4C159.7,168.2,159.8,168.1,159.9,168z M160.8,170v5.5h-0.9V170H160.8z"/>
</g>
<g>
	<path d="M19.9,85.4h2.8v0.9h-7v-2.2c0-0.8,0.2-1.4,0.6-1.8c0.4-0.4,0.9-0.6,1.5-0.6c0.7,0,1.2,0.2,1.5,0.6c0.4,0.4,0.6,1,0.6,1.8
		V85.4z M18.8,83c-0.2-0.2-0.6-0.4-1-0.4c-0.4,0-0.8,0.1-1,0.4s-0.3,0.6-0.3,1.2v1.2h2.7v-1.2C19.1,83.6,19,83.2,18.8,83z"/>
	<path d="M15.2,80.6c-0.1-0.1-0.2-0.3-0.2-0.4s0.1-0.3,0.2-0.5c0.1-0.1,0.2-0.2,0.4-0.2c0.2,0,0.3,0.1,0.4,0.2
		c0.1,0.1,0.2,0.3,0.2,0.5s-0.1,0.3-0.2,0.4c-0.1,0.1-0.2,0.2-0.4,0.2C15.4,80.8,15.3,80.7,15.2,80.6z M17.2,79.7h5.5v0.9h-5.5V79.7
		z"/>
	<path d="M16.1,75.4h0.6l-1.2,2.1h-0.7L16.1,75.4z M17.2,73.4h5.5v0.9h-1.3c0.4,0.1,0.8,0.4,1,0.7c0.2,0.4,0.4,0.8,0.4,1.2
		c0,0.6-0.2,1.1-0.6,1.5c-0.4,0.4-1,0.6-1.8,0.6h-3.2v-0.9h3.1c0.5,0,1-0.1,1.3-0.4c0.3-0.3,0.4-0.7,0.4-1.1c0-0.5-0.2-0.9-0.5-1.2
		c-0.3-0.3-0.8-0.5-1.4-0.5h-2.9V73.4z"/>
	<path d="M17.5,65.1c0.2-0.4,0.6-0.7,1-0.9c0.4-0.2,0.9-0.3,1.5-0.3c0.6,0,1.1,0.1,1.5,0.3c0.4,0.2,0.7,0.5,1,0.9s0.3,0.8,0.3,1.3
		c0,0.5-0.1,1-0.4,1.4c-0.3,0.4-0.6,0.6-1.1,0.8h4v0.9h-8.1v-0.9h1.4c-0.4-0.1-0.8-0.4-1.1-0.8c-0.3-0.4-0.4-0.8-0.4-1.4
		C17.2,65.9,17.3,65.5,17.5,65.1z M18.2,67.6c0.2,0.3,0.4,0.5,0.7,0.7c0.3,0.2,0.7,0.2,1.1,0.2c0.4,0,0.8-0.1,1.1-0.2
		c0.3-0.2,0.5-0.4,0.7-0.7s0.2-0.6,0.2-1c0-0.6-0.2-1-0.5-1.4c-0.4-0.3-0.8-0.5-1.5-0.5c-0.6,0-1.1,0.2-1.5,0.5
		c-0.4,0.3-0.5,0.8-0.5,1.4C18,67,18,67.3,18.2,67.6z"/>
	<path d="M17.5,61c-0.2-0.3-0.3-0.8-0.3-1.2h1V60c0,0.5,0.1,0.9,0.4,1.3c0.3,0.3,0.7,0.5,1.3,0.5h2.9v0.9h-5.5v-0.9h1.1
		C18,61.6,17.7,61.3,17.5,61z"/>
	<path d="M17.5,54.9c0.2-0.4,0.6-0.7,1-1c0.4-0.2,0.9-0.4,1.5-0.4c0.6,0,1.1,0.1,1.5,0.4c0.4,0.2,0.7,0.6,1,1
		c0.2,0.4,0.3,0.9,0.3,1.4s-0.1,1-0.3,1.4c-0.2,0.4-0.6,0.7-1,1C21,59,20.5,59.1,20,59.1c-0.6,0-1.1-0.1-1.5-0.4
		c-0.4-0.2-0.8-0.6-1-1c-0.2-0.4-0.3-0.9-0.3-1.4S17.3,55.4,17.5,54.9z M18.2,57.3c0.1,0.3,0.4,0.5,0.7,0.7c0.3,0.2,0.7,0.3,1.1,0.3
		c0.4,0,0.8-0.1,1.1-0.3c0.3-0.2,0.5-0.4,0.7-0.7c0.1-0.3,0.2-0.6,0.2-0.9c0-0.3-0.1-0.6-0.2-0.9c-0.1-0.3-0.4-0.5-0.7-0.7
		s-0.7-0.3-1.1-0.3c-0.4,0-0.8,0.1-1.1,0.3c-0.3,0.2-0.5,0.4-0.7,0.7C18,55.7,18,56,18,56.4C18,56.7,18,57,18.2,57.3z"/>
	<path d="M17.8,48c0.4-0.4,1-0.6,1.8-0.6h3.2v0.9h-3.1c-0.5,0-1,0.1-1.3,0.4c-0.3,0.3-0.4,0.7-0.4,1.1c0,0.5,0.2,0.9,0.5,1.2
		c0.3,0.3,0.8,0.5,1.4,0.5h2.9v0.9h-5.5v-0.9h1.3c-0.4-0.1-0.8-0.4-1-0.7c-0.2-0.4-0.4-0.8-0.4-1.2C17.1,48.9,17.3,48.4,17.8,48z"/>
	<path d="M21.9,43.4h0.8V44c0,0.6-0.1,1-0.4,1.3s-0.7,0.4-1.3,0.4h-3v0.8h-0.8v-0.8h-1.4v-0.9h1.4v-1.4H18v1.4h3
		c0.4,0,0.6-0.1,0.7-0.2s0.2-0.4,0.2-0.7V43.4z"/>
	<path d="M15.2,42.2c-0.1-0.1-0.2-0.3-0.2-0.5c0-0.2,0.1-0.3,0.2-0.4s0.2-0.2,0.4-0.2c0.2,0,0.3,0.1,0.4,0.2
		c0.1,0.1,0.2,0.3,0.2,0.4c0,0.2-0.1,0.3-0.2,0.5c-0.1,0.1-0.2,0.2-0.4,0.2C15.4,42.4,15.3,42.4,15.2,42.2z M17.2,41.4h5.5v0.9h-5.5
		V41.4z"/>
</g>
</svg>
