<?xml version="1.0" encoding="utf-8"?>
<!-- Generator: Adobe Illustrator 22.1.0, SVG Export Plug-In . SVG Version: 6.00 Build 0)  -->
<svg version="1.1" id="Livello_10" xmlns="http://www.w3.org/2000/svg" xmlns:xlink="http://www.w3.org/1999/xlink" x="0px" y="0px"
	 viewBox="0 0 686 112.3" style="enable-background:new 0 0 686 112.3;" xml:space="preserve">
<style type="text/css">
	.st0{fill:none;}
	.st1{fill:#C1C1C1;}
	.st2{fill:#272727;}
	.st3{opacity:0.6;fill:#272727;enable-background:new    ;}
	.st4{fill:none;stroke:#272727;stroke-width:0.5;stroke-miterlimit:10;}
	.st5{font-family:'Poppins-Regular';}
	.st6{font-size:8px;}
	.st7{font-family:'CrimsonText-Regular';}
	.st8{fill:none;stroke:#272727;stroke-width:0.5;stroke-miterlimit:10;stroke-dasharray:1.9032,0.9516;}
</style>
<line class="st0" x1="-821.4" y1="-96.9" x2="-808.1" y2="-96.8"/>
<path class="st1" d="M27.3,12H6.6c0,11.9,10.9,12.2,10.9,20.5h9.8H37c0-8.3,10.9-8.6,10.9-20.5H27.3z"/>
<rect x="116" y="9.5" class="st2" width="110.7" height="7.7"/>
<rect x="116" y="27" class="st2" width="52.3" height="7.7"/>
<rect x="226.7" y="9.5" class="st3" width="17.6" height="7.7"/>
<rect x="168.4" y="27" class="st3" width="15.6" height="7.7"/>
<line class="st0" x1="226.7" y1="-1.5" x2="244.3" y2="-1.5"/>
<rect x="116" y="74.8" class="st2" width="6.1" height="6.1"/>
<rect x="116" y="89.8" class="st3" width="6.1" height="6.1"/>
<g>
	<rect x="384.2" y="9.5" class="st0" width="327.8" height="88.5"/>
</g>
<line class="st4" x1="27.3" y1="32.5" x2="55.3" y2="32.5"/>
<line class="st4" x1="27.3" y1="12" x2="54.5" y2="12"/>
<text transform="matrix(1 0 0 1 384.9998 15.4)" class="st5 st6">AF - Adaptation Fund</text>
<text transform="matrix(1 0 0 1 384.9998 30.4)" class="st5 st6">ASAP - Adaptation for Smallholder Agricolture Program</text>
<text transform="matrix(1 0 0 1 384.9998 45.4)" class="st5 st6">LDCF - Least Developed Countries Fund</text>
<text transform="matrix(1 0 0 1 384.9998 60.4)" class="st5 st6">PPCR - Pilot Program for Climate Resilience</text>
<text transform="matrix(1 0 0 1 384.9998 75.4)" class="st5 st6">SCCF - Special Climate Change Fund</text>
<text transform="matrix(1 0 0 1 58.4998 14.5001)" class="st5 st6">Deposited</text>
<text transform="matrix(1 0 0 1 58.4998 35.0001)" class="st5 st6">Approved</text>
<text transform="matrix(1 0 0 1 251.3001 51.2001)" class="st5 st6">mln $</text>
<text transform="matrix(1 0 0 1 128.0334 80.4001)" class="st7 st6">Top 10 contributors and top 20 recipients’ funds</text>
<text transform="matrix(1 0 0 1 128.0332 95.3999)" class="st7 st6">Other 129 countries’ funds</text>
<g>
	<g>
		<line class="st4" x1="116" y1="9.5" x2="116" y2="10.5"/>
		<line class="st8" x1="116" y1="11.5" x2="116" y2="39.5"/>
		<line class="st4" x1="116" y1="40" x2="116" y2="41"/>
	</g>
</g>
<g>
	<g>
		<line class="st4" x1="244.3" y1="9.5" x2="244.3" y2="10.5"/>
		<line class="st8" x1="244.3" y1="11.5" x2="244.3" y2="39.5"/>
		<line class="st4" x1="244.3" y1="40" x2="244.3" y2="41"/>
	</g>
</g>
<g>
	<g>
		<line class="st4" x1="180.1" y1="9.5" x2="180.1" y2="10.5"/>
		<line class="st8" x1="180.1" y1="11.5" x2="180.1" y2="39.5"/>
		<line class="st4" x1="180.1" y1="40" x2="180.1" y2="41"/>
	</g>
</g>
<text transform="matrix(1 0 0 1 172.0297 51.2001)" class="st5 st6">1657</text>
<text transform="matrix(1 0 0 1 116.0001 51.2)" class="st5 st6">0</text>
<text transform="matrix(1 0 0 1 227.6203 51.2999)" class="st5 st6">3314</text>
</svg>
