<?xml version="1.0" encoding="utf-8"?>
<!-- Generator: Adobe Illustrator 22.1.0, SVG Export Plug-In . SVG Version: 6.00 Build 0)  -->
<svg version="1.1" id="Livello_1" xmlns="http://www.w3.org/2000/svg" xmlns:xlink="http://www.w3.org/1999/xlink" x="0px" y="0px"
	 viewBox="0 0 93.8 63" style="enable-background:new 0 0 93.8 63;" xml:space="preserve">
<style type="text/css">
	.st0{fill:#E94C62;}
	.st1{fill:#B22F45;}
	.st2{opacity:0.15;enable-background:new    ;}
	.st3{fill:#272727;}
	.st4{fill:none;stroke:#272727;stroke-width:0.5;stroke-miterlimit:10;}
</style>
<g>
	<path class="st0" d="M57.8,55.9l-0.2-17.4c0-14.2-16.1-22.4-27.6-14l0,0c-11.5,8.3-8.6,26.2,4.8,30.6l16.5,5.4L57.8,55.9z"/>
</g>
<g>
	<path class="st1" d="M57.8,55.9l-0.1-5.8c0-7.9-8.9-12.5-15.3-7.8l0,0c-6.3,4.5-3.9,13.7,3.3,16.4l5.6,1.8L57.8,55.9z"/>
</g>
<g class="st2">
	<polygon class="st3" points="2.5,44.7 2.3,44.3 57.5,4.1 65.8,4.1 65.8,4.6 57.7,4.6 	"/>
</g>
<g class="st2">
	<polygon class="st3" points="8.3,46.6 8.1,46.2 57.5,10.2 60.9,10.2 60.9,10.8 57.7,10.8 	"/>
</g>
<g class="st2">
	<polygon class="st3" points="15.1,48.8 14.9,48.4 57.5,17.4 65.7,17.4 65.7,17.9 57.7,17.9 	"/>
</g>
<g class="st2">
	<polygon class="st3" points="21.1,51.1 20.9,50.7 57.8,24 61.2,24 61.2,24.5 58,24.5 	"/>
</g>
<g class="st2">
	<polygon class="st3" points="27.7,52.9 27.5,52.5 57.5,30.6 65.7,30.6 65.7,31.1 57.7,31.1 	"/>
</g>
<g class="st2">
	<polygon class="st3" points="33.5,54.8 33.3,54.4 57.5,36.8 60.9,36.8 60.9,37.2 57.7,37.2 	"/>
</g>
<g class="st2">
	<g>
		<path class="st4" d="M75,56.7"/>
	</g>
</g>
<g class="st2">
	<polygon class="st3" points="40.2,57 40,56.6 57.5,43.8 65.7,43.8 65.7,44.3 57.7,44.3 	"/>
</g>
<g class="st2">
	<polygon class="st3" points="51.6,60.9 51.4,60.5 57.8,55.8 65.7,55.8 65.7,56.3 58,56.3 	"/>
</g>
<g class="st2">
	<polygon class="st3" points="45.8,58.8 45.6,58.4 57.6,49.7 60.9,49.7 60.9,50.2 57.8,50.2 	"/>
</g>
<g>
	<path d="M18.6,28c0,0.2,0,0.4-0.1,0.6c-0.1,0.2-0.3,0.4-0.5,0.6c-0.2,0.2-0.5,0.3-0.7,0.3c-0.2,0-0.5,0-0.7,0
		c-0.2-0.1-0.4-0.2-0.5-0.4l0.5-0.3c0.1,0.1,0.2,0.2,0.3,0.2c0.1,0.1,0.3,0.1,0.4,0c0.1,0,0.3-0.1,0.4-0.2c0.2-0.1,0.3-0.3,0.3-0.5
		s0-0.3-0.1-0.5c-0.1-0.1-0.2-0.2-0.4-0.3c-0.1,0-0.3,0-0.4,0c-0.1,0-0.3,0.1-0.6,0.2c-0.3,0.1-0.5,0.1-0.7,0.2c-0.2,0-0.4,0-0.5,0
		c-0.2-0.1-0.4-0.2-0.5-0.4c-0.1-0.2-0.2-0.4-0.2-0.6c0-0.2,0-0.4,0.1-0.6c0.1-0.2,0.3-0.4,0.5-0.5c0.3-0.2,0.7-0.4,1-0.3
		c0.3,0,0.6,0.1,0.8,0.4l-0.5,0.3c-0.1-0.1-0.3-0.2-0.5-0.2c-0.2,0-0.4,0-0.6,0.2c-0.2,0.1-0.3,0.3-0.3,0.5c0,0.2,0,0.3,0.1,0.5
		c0.1,0.1,0.2,0.2,0.3,0.2c0.1,0,0.3,0,0.4,0c0.1,0,0.3-0.1,0.5-0.2c0.3-0.1,0.5-0.2,0.7-0.2c0.2,0,0.4,0,0.6,0
		c0.2,0.1,0.4,0.2,0.5,0.4C18.5,27.6,18.6,27.8,18.6,28z"/>
	<path d="M18.3,24.2l0.9,1.2l1.3-1l0.2,0.3l-1.3,1l0.9,1.2l1.4-1.1l0.3,0.4l-1.9,1.4l-2.5-3.4l1.9-1.4l0.3,0.4L18.3,24.2z"/>
	<path d="M22.6,20.4l0.3,0.4l-1,0.7l2.3,3l-0.4,0.3l-2.3-3l-1,0.7l-0.3-0.4L22.6,20.4z"/>
	<path d="M25.6,18.2l0.3,0.4l-1,0.7l2.2,3l-0.4,0.3l-2.3-3l-1,0.7L23.2,20L25.6,18.2z"/>
	<path d="M29,15.9c0.4,0,0.7,0,1.1,0.2c0.3,0.2,0.6,0.4,0.9,0.7c0.2,0.3,0.4,0.7,0.4,1.1c0.1,0.4,0,0.7-0.1,1.1
		c-0.1,0.3-0.4,0.6-0.7,0.9c-0.3,0.2-0.7,0.4-1,0.4c-0.4,0-0.7,0-1.1-0.2s-0.6-0.4-0.9-0.7c-0.2-0.3-0.4-0.7-0.4-1.1
		c-0.1-0.4,0-0.7,0.1-1.1c0.1-0.3,0.4-0.6,0.7-0.9C28.3,16.1,28.7,16,29,15.9z M27.8,17.4c-0.1,0.2-0.1,0.5-0.1,0.8
		c0,0.3,0.2,0.6,0.4,0.8c0.2,0.3,0.4,0.5,0.7,0.6c0.3,0.1,0.5,0.2,0.8,0.1c0.3,0,0.5-0.1,0.7-0.3c0.2-0.2,0.4-0.4,0.5-0.6
		c0.1-0.2,0.1-0.5,0.1-0.8c0-0.3-0.2-0.6-0.4-0.8c-0.2-0.3-0.4-0.5-0.7-0.6c-0.3-0.1-0.5-0.2-0.8-0.1c-0.3,0-0.5,0.1-0.7,0.3
		C28.1,16.9,27.9,17.1,27.8,17.4z"/>
	<path d="M35.1,16.4l-1.9-0.7L32.7,16l1,1.4l-0.4,0.3l-2.5-3.4l1.1-0.8c0.4-0.3,0.7-0.4,1.1-0.4c0.3,0,0.6,0.2,0.8,0.5
		c0.2,0.3,0.3,0.6,0.3,0.8c0,0.3-0.2,0.6-0.4,0.8l2,0.7L35.1,16.4z M32.5,15.7l0.6-0.5c0.5-0.4,0.6-0.8,0.3-1.2
		c-0.3-0.4-0.7-0.5-1.2-0.1l-0.6,0.5L32.5,15.7z"/>
	<path d="M34.8,12l0.9,1.2l1.3-1l0.2,0.3l-1.3,1l0.9,1.2l1.4-1.1l0.3,0.4l-1.9,1.4l-2.5-3.4l1.9-1.4l0.3,0.4L34.8,12z"/>
</g>
<g>
	<path d="M67.7,2.8c0.1-0.1,0.2-0.3,0.4-0.3c0.2-0.1,0.4-0.1,0.7-0.1c0.3,0,0.5,0,0.7,0.1c0.2,0.1,0.3,0.2,0.4,0.3
		C69.9,3,70,3.1,70,3.3c0,0.2-0.1,0.4-0.2,0.5c-0.1,0.1-0.3,0.2-0.5,0.3c0.2,0.1,0.4,0.2,0.5,0.3s0.2,0.3,0.2,0.6
		c0,0.3-0.1,0.6-0.4,0.8c-0.2,0.2-0.6,0.3-0.9,0.3c-0.4,0-0.7-0.1-0.9-0.3c-0.2-0.2-0.4-0.5-0.4-0.8c0-0.2,0.1-0.4,0.2-0.6
		c0.1-0.2,0.3-0.3,0.5-0.3C68,4.1,67.8,4,67.7,3.8c-0.1-0.1-0.2-0.3-0.2-0.5C67.6,3.1,67.6,3,67.7,2.8z M68.2,5.5
		c0.2,0.1,0.4,0.2,0.6,0.2c0.3,0,0.5-0.1,0.6-0.2c0.2-0.1,0.2-0.3,0.2-0.5c0-0.2-0.1-0.4-0.2-0.5S69,4.3,68.8,4.3
		c-0.2,0-0.5,0.1-0.6,0.2S67.9,4.8,67.9,5C67.9,5.2,68,5.4,68.2,5.5z M68.2,3.8C68.4,3.9,68.6,4,68.8,4c0.2,0,0.4-0.1,0.6-0.2
		c0.1-0.1,0.2-0.3,0.2-0.5c0-0.2-0.1-0.4-0.2-0.5c-0.1-0.1-0.3-0.2-0.5-0.2c-0.2,0-0.4,0.1-0.6,0.2C68.1,3,68,3.2,68,3.4
		C68,3.6,68.1,3.7,68.2,3.8z"/>
	<path d="M71.1,4.2c0-0.6,0.1-1,0.3-1.3c0.2-0.3,0.5-0.5,1-0.5s0.8,0.2,1,0.5c0.2,0.3,0.3,0.8,0.3,1.3c0,0.6-0.1,1-0.3,1.3
		c-0.2,0.3-0.5,0.5-1,0.5s-0.8-0.2-1-0.5C71.2,5.2,71.1,4.8,71.1,4.2z M73.2,4.2c0-0.3,0-0.5-0.1-0.7S73,3.1,72.9,3
		c-0.1-0.1-0.3-0.2-0.5-0.2c-0.2,0-0.4,0.1-0.5,0.2c-0.1,0.1-0.2,0.3-0.2,0.5c0,0.2-0.1,0.4-0.1,0.7c0,0.3,0,0.5,0.1,0.7
		c0,0.2,0.1,0.4,0.2,0.5c0.1,0.1,0.3,0.2,0.5,0.2c0.2,0,0.4-0.1,0.5-0.2c0.1-0.1,0.2-0.3,0.2-0.5C73.2,4.7,73.2,4.5,73.2,4.2z"/>
	<path d="M78.3,4.2c0.1,0.1,0.3,0.2,0.4,0.3c0.1,0.1,0.2,0.3,0.2,0.5c0,0.2,0,0.3-0.1,0.5c-0.1,0.1-0.2,0.3-0.4,0.4
		C78.2,6,77.9,6,77.7,6h0v0.4h-0.2V6c-0.3,0-0.6-0.1-0.8-0.3S76.4,5.3,76.4,5h0.5c0,0.1,0.1,0.3,0.2,0.4c0.1,0.1,0.3,0.2,0.4,0.2
		V4.4c-0.3-0.1-0.5-0.1-0.6-0.2S76.7,4,76.6,3.9c-0.1-0.1-0.2-0.3-0.2-0.5c0-0.2,0-0.3,0.1-0.5c0.1-0.1,0.2-0.2,0.4-0.3
		s0.4-0.1,0.6-0.1V2h0.2v0.4c0.3,0,0.6,0.1,0.7,0.3c0.2,0.2,0.3,0.4,0.3,0.6h-0.5c0-0.1-0.1-0.2-0.2-0.3s-0.2-0.2-0.4-0.2V4
		C77.9,4.1,78.1,4.2,78.3,4.2z M77.1,3.7c0.1,0.1,0.3,0.2,0.5,0.2V2.8c-0.2,0-0.3,0-0.5,0.1c-0.1,0.1-0.2,0.2-0.2,0.4
		C76.9,3.5,76.9,3.6,77.1,3.7z M78.2,5.5c0.1-0.1,0.2-0.2,0.2-0.4c0-0.2-0.1-0.3-0.2-0.4s-0.3-0.2-0.5-0.2v1.2h0
		C77.9,5.7,78.1,5.6,78.2,5.5z"/>
	<path d="M85.2,2.5V6h-0.5V3.2L83.6,6h-0.4l-1.1-2.8V6h-0.5V2.5h0.5l1.2,2.9l1.2-2.9H85.2z"/>
	<path d="M86.9,5.6h1.2V6h-1.7V2.5h0.5V5.6z"/>
	<path d="M91.8,6h-0.5l-1.8-2.8V6h-0.5V2.5h0.5l1.8,2.8V2.5h0.5V6z"/>
</g>
<g>
	<path d="M69.3,15.8c-0.1-0.1-0.3-0.2-0.5-0.2c-0.3,0-0.5,0.1-0.6,0.3C68,16.2,68,16.6,68,17l0,0.2c0-0.2,0.2-0.4,0.3-0.5
		c0.2-0.1,0.4-0.2,0.6-0.2c0.3,0,0.6,0.1,0.8,0.3s0.3,0.5,0.3,0.9c0,0.2,0,0.4-0.1,0.6s-0.2,0.3-0.4,0.4c-0.2,0.1-0.4,0.2-0.7,0.2
		c-0.5,0-0.8-0.2-1-0.5s-0.3-0.7-0.3-1.3c0-0.6,0.1-1.1,0.3-1.4c0.2-0.3,0.5-0.5,1-0.5c0.3,0,0.6,0.1,0.8,0.3s0.3,0.4,0.3,0.7h-0.4
		C69.5,16.1,69.4,15.9,69.3,15.8z M68.2,18.3c0.1,0.2,0.4,0.2,0.6,0.2c0.2,0,0.4-0.1,0.6-0.2c0.1-0.1,0.2-0.3,0.2-0.6
		c0-0.3-0.1-0.5-0.2-0.6c-0.1-0.1-0.3-0.2-0.6-0.2c-0.1,0-0.3,0-0.4,0.1s-0.2,0.1-0.3,0.3c-0.1,0.1-0.1,0.3-0.1,0.4
		C68,17.9,68.1,18.1,68.2,18.3z"/>
	<path d="M71.1,17.1c0-0.6,0.1-1,0.3-1.3c0.2-0.3,0.5-0.5,1-0.5s0.8,0.2,1,0.5c0.2,0.3,0.3,0.8,0.3,1.3c0,0.6-0.1,1-0.3,1.3
		c-0.2,0.3-0.5,0.5-1,0.5s-0.8-0.2-1-0.5C71.2,18.1,71.1,17.7,71.1,17.1z M73.2,17.1c0-0.3,0-0.5-0.1-0.7S73,16,72.9,15.9
		c-0.1-0.1-0.3-0.2-0.5-0.2c-0.2,0-0.4,0.1-0.5,0.2c-0.1,0.1-0.2,0.3-0.2,0.5c0,0.2-0.1,0.4-0.1,0.7c0,0.3,0,0.5,0.1,0.7
		c0,0.2,0.1,0.4,0.2,0.5c0.1,0.1,0.3,0.2,0.5,0.2c0.2,0,0.4-0.1,0.5-0.2c0.1-0.1,0.2-0.3,0.2-0.5C73.2,17.6,73.2,17.4,73.2,17.1z"/>
	<path d="M78.3,17.1c0.1,0.1,0.3,0.2,0.4,0.3c0.1,0.1,0.2,0.3,0.2,0.5c0,0.2,0,0.3-0.1,0.5c-0.1,0.1-0.2,0.3-0.4,0.4
		c-0.2,0.1-0.4,0.1-0.6,0.1h0v0.4h-0.2v-0.4c-0.3,0-0.6-0.1-0.8-0.3s-0.3-0.4-0.3-0.7h0.5c0,0.1,0.1,0.3,0.2,0.4
		c0.1,0.1,0.3,0.2,0.4,0.2v-1.3c-0.3-0.1-0.5-0.1-0.6-0.2s-0.3-0.2-0.4-0.3c-0.1-0.1-0.2-0.3-0.2-0.5c0-0.2,0-0.3,0.1-0.5
		c0.1-0.1,0.2-0.2,0.4-0.3s0.4-0.1,0.6-0.1v-0.4h0.2v0.4c0.3,0,0.6,0.1,0.7,0.3c0.2,0.2,0.3,0.4,0.3,0.6h-0.5c0-0.1-0.1-0.2-0.2-0.3
		s-0.2-0.2-0.4-0.2v1.2C77.9,17,78.1,17.1,78.3,17.1z M77.1,16.6c0.1,0.1,0.3,0.2,0.5,0.2v-1.2c-0.2,0-0.3,0-0.5,0.1
		c-0.1,0.1-0.2,0.2-0.2,0.4C76.9,16.4,76.9,16.5,77.1,16.6z M78.2,18.4c0.1-0.1,0.2-0.2,0.2-0.4c0-0.2-0.1-0.3-0.2-0.4
		s-0.3-0.2-0.5-0.2v1.2h0C77.9,18.6,78.1,18.5,78.2,18.4z"/>
	<path d="M85.2,15.4v3.5h-0.5v-2.8l-1.1,2.8h-0.4l-1.1-2.8v2.8h-0.5v-3.5h0.5l1.2,2.9l1.2-2.9H85.2z"/>
	<path d="M86.9,18.5h1.2v0.4h-1.7v-3.5h0.5V18.5z"/>
	<path d="M91.8,18.9h-0.5l-1.8-2.8v2.8h-0.5v-3.5h0.5l1.8,2.8v-2.8h0.5V18.9z"/>
</g>
<g>
	<path d="M67.4,31.1v-0.4l1.8-2.4h0.5v2.3h0.5v0.4h-0.5v0.8h-0.5v-0.8H67.4z M69.3,28.9l-1.4,1.8h1.4V28.9z"/>
	<path d="M71.1,30.1c0-0.6,0.1-1,0.3-1.3c0.2-0.3,0.5-0.5,1-0.5s0.8,0.2,1,0.5c0.2,0.3,0.3,0.8,0.3,1.3c0,0.6-0.1,1-0.3,1.3
		c-0.2,0.3-0.5,0.5-1,0.5s-0.8-0.2-1-0.5C71.2,31.1,71.1,30.7,71.1,30.1z M73.2,30.1c0-0.3,0-0.5-0.1-0.7S73,29,72.9,28.9
		c-0.1-0.1-0.3-0.2-0.5-0.2c-0.2,0-0.4,0.1-0.5,0.2c-0.1,0.1-0.2,0.3-0.2,0.5c0,0.2-0.1,0.4-0.1,0.7c0,0.3,0,0.5,0.1,0.7
		c0,0.2,0.1,0.4,0.2,0.5c0.1,0.1,0.3,0.2,0.5,0.2c0.2,0,0.4-0.1,0.5-0.2c0.1-0.1,0.2-0.3,0.2-0.5C73.2,30.6,73.2,30.4,73.2,30.1z"/>
	<path d="M78.3,30.1c0.1,0.1,0.3,0.2,0.4,0.3c0.1,0.1,0.2,0.3,0.2,0.5c0,0.2,0,0.3-0.1,0.5c-0.1,0.1-0.2,0.3-0.4,0.4
		c-0.2,0.1-0.4,0.1-0.6,0.1h0v0.4h-0.2v-0.4c-0.3,0-0.6-0.1-0.8-0.3s-0.3-0.4-0.3-0.7h0.5c0,0.1,0.1,0.3,0.2,0.4
		c0.1,0.1,0.3,0.2,0.4,0.2v-1.3c-0.3-0.1-0.5-0.1-0.6-0.2s-0.3-0.2-0.4-0.3c-0.1-0.1-0.2-0.3-0.2-0.5c0-0.2,0-0.3,0.1-0.5
		c0.1-0.1,0.2-0.2,0.4-0.3s0.4-0.1,0.6-0.1v-0.4h0.2v0.4c0.3,0,0.6,0.1,0.7,0.3c0.2,0.2,0.3,0.4,0.3,0.6h-0.5c0-0.1-0.1-0.2-0.2-0.3
		s-0.2-0.2-0.4-0.2v1.2C77.9,30,78.1,30.1,78.3,30.1z M77.1,29.6c0.1,0.1,0.3,0.2,0.5,0.2v-1.2c-0.2,0-0.3,0-0.5,0.1
		c-0.1,0.1-0.2,0.2-0.2,0.4C76.9,29.4,76.9,29.5,77.1,29.6z M78.2,31.4c0.1-0.1,0.2-0.2,0.2-0.4c0-0.2-0.1-0.3-0.2-0.4
		s-0.3-0.2-0.5-0.2v1.2h0C77.9,31.6,78.1,31.5,78.2,31.4z"/>
	<path d="M85.2,28.4v3.5h-0.5v-2.8l-1.1,2.8h-0.4l-1.1-2.8v2.8h-0.5v-3.5h0.5l1.2,2.9l1.2-2.9H85.2z"/>
	<path d="M86.9,31.5h1.2v0.4h-1.7v-3.5h0.5V31.5z"/>
	<path d="M91.8,31.9h-0.5l-1.8-2.8v2.8h-0.5v-3.5h0.5l1.8,2.8v-2.8h0.5V31.9z"/>
</g>
<g>
	<path d="M69.1,43.5c0.3-0.4,0.5-0.7,0.5-1c0-0.2-0.1-0.4-0.2-0.5c-0.1-0.1-0.3-0.2-0.5-0.2c-0.2,0-0.4,0.1-0.5,0.2
		c-0.1,0.1-0.2,0.4-0.2,0.6h-0.5c0-0.4,0.1-0.7,0.4-0.9c0.2-0.2,0.5-0.3,0.8-0.3c0.3,0,0.6,0.1,0.8,0.3s0.3,0.4,0.3,0.8
		c0,0.3-0.1,0.5-0.3,0.8c-0.2,0.3-0.4,0.5-0.6,0.8c-0.3,0.2-0.5,0.4-0.8,0.6h1.8V45h-2.4v-0.3C68.3,44.3,68.7,43.9,69.1,43.5z"/>
	<path d="M71.1,43.2c0-0.6,0.1-1,0.3-1.3c0.2-0.3,0.5-0.5,1-0.5s0.8,0.2,1,0.5c0.2,0.3,0.3,0.8,0.3,1.3c0,0.6-0.1,1-0.3,1.3
		c-0.2,0.3-0.5,0.5-1,0.5s-0.8-0.2-1-0.5C71.2,44.2,71.1,43.8,71.1,43.2z M73.2,43.2c0-0.3,0-0.5-0.1-0.7S73,42.1,72.9,42
		c-0.1-0.1-0.3-0.2-0.5-0.2c-0.2,0-0.4,0.1-0.5,0.2c-0.1,0.1-0.2,0.3-0.2,0.5c0,0.2-0.1,0.4-0.1,0.7c0,0.3,0,0.5,0.1,0.7
		c0,0.2,0.1,0.4,0.2,0.5c0.1,0.1,0.3,0.2,0.5,0.2c0.2,0,0.4-0.1,0.5-0.2c0.1-0.1,0.2-0.3,0.2-0.5C73.2,43.7,73.2,43.5,73.2,43.2z"/>
	<path d="M78.3,43.2c0.1,0.1,0.3,0.2,0.4,0.3c0.1,0.1,0.2,0.3,0.2,0.5c0,0.2,0,0.3-0.1,0.5c-0.1,0.1-0.2,0.3-0.4,0.4
		S77.9,45,77.7,45h0v0.4h-0.2V45c-0.3,0-0.6-0.1-0.8-0.3c-0.2-0.2-0.3-0.4-0.3-0.7h0.5c0,0.1,0.1,0.3,0.2,0.4
		c0.1,0.1,0.3,0.2,0.4,0.2v-1.3c-0.3-0.1-0.5-0.1-0.6-0.2s-0.3-0.2-0.4-0.3c-0.1-0.1-0.2-0.3-0.2-0.5c0-0.2,0-0.3,0.1-0.5
		c0.1-0.1,0.2-0.2,0.4-0.3c0.2-0.1,0.4-0.1,0.6-0.1V41h0.2v0.4c0.3,0,0.6,0.1,0.7,0.3c0.2,0.2,0.3,0.4,0.3,0.6h-0.5
		c0-0.1-0.1-0.2-0.2-0.3c-0.1-0.1-0.2-0.2-0.4-0.2V43C77.9,43.1,78.1,43.2,78.3,43.2z M77.1,42.7c0.1,0.1,0.3,0.2,0.5,0.2v-1.2
		c-0.2,0-0.3,0-0.5,0.1c-0.1,0.1-0.2,0.2-0.2,0.4C76.9,42.5,76.9,42.6,77.1,42.7z M78.2,44.5c0.1-0.1,0.2-0.2,0.2-0.4
		c0-0.2-0.1-0.3-0.2-0.4s-0.3-0.2-0.5-0.2v1.2h0C77.9,44.7,78.1,44.6,78.2,44.5z"/>
	<path d="M85.2,41.5V45h-0.5v-2.8L83.6,45h-0.4l-1.1-2.8V45h-0.5v-3.5h0.5l1.2,2.9l1.2-2.9H85.2z"/>
	<path d="M86.9,44.6h1.2V45h-1.7v-3.5h0.5V44.6z"/>
	<path d="M91.8,45h-0.5l-1.8-2.8V45h-0.5v-3.5h0.5l1.8,2.8v-2.8h0.5V45z"/>
</g>
<g>
	<path d="M71.1,56.2c0-0.6,0.1-1,0.3-1.3c0.2-0.3,0.5-0.5,1-0.5s0.8,0.2,1,0.5c0.2,0.3,0.3,0.8,0.3,1.3c0,0.6-0.1,1-0.3,1.3
		c-0.2,0.3-0.5,0.5-1,0.5s-0.8-0.2-1-0.5C71.2,57.2,71.1,56.8,71.1,56.2z M73.2,56.2c0-0.3,0-0.5-0.1-0.7S73,55.1,72.9,55
		c-0.1-0.1-0.3-0.2-0.5-0.2c-0.2,0-0.4,0.1-0.5,0.2c-0.1,0.1-0.2,0.3-0.2,0.5c0,0.2-0.1,0.4-0.1,0.7c0,0.3,0,0.5,0.1,0.7
		c0,0.2,0.1,0.4,0.2,0.5c0.1,0.1,0.3,0.2,0.5,0.2c0.2,0,0.4-0.1,0.5-0.2c0.1-0.1,0.2-0.3,0.2-0.5C73.2,56.7,73.2,56.5,73.2,56.2z"/>
	<path d="M78.3,56.2c0.1,0.1,0.3,0.2,0.4,0.3c0.1,0.1,0.2,0.3,0.2,0.5c0,0.2,0,0.3-0.1,0.5c-0.1,0.1-0.2,0.3-0.4,0.4
		S77.9,58,77.7,58h0v0.4h-0.2V58c-0.3,0-0.6-0.1-0.8-0.3c-0.2-0.2-0.3-0.4-0.3-0.7h0.5c0,0.1,0.1,0.3,0.2,0.4
		c0.1,0.1,0.3,0.2,0.4,0.2v-1.3c-0.3-0.1-0.5-0.1-0.6-0.2s-0.3-0.2-0.4-0.3c-0.1-0.1-0.2-0.3-0.2-0.5c0-0.2,0-0.3,0.1-0.5
		c0.1-0.1,0.2-0.2,0.4-0.3c0.2-0.1,0.4-0.1,0.6-0.1V54h0.2v0.4c0.3,0,0.6,0.1,0.7,0.3c0.2,0.2,0.3,0.4,0.3,0.6h-0.5
		c0-0.1-0.1-0.2-0.2-0.3c-0.1-0.1-0.2-0.2-0.4-0.2V56C77.9,56.1,78.1,56.2,78.3,56.2z M77.1,55.7c0.1,0.1,0.3,0.2,0.5,0.2v-1.2
		c-0.2,0-0.3,0-0.5,0.1c-0.1,0.1-0.2,0.2-0.2,0.4C76.9,55.5,76.9,55.6,77.1,55.7z M78.2,57.5c0.1-0.1,0.2-0.2,0.2-0.4
		c0-0.2-0.1-0.3-0.2-0.4s-0.3-0.2-0.5-0.2v1.2h0C77.9,57.7,78.1,57.6,78.2,57.5z"/>
	<path d="M85.2,54.5V58h-0.5v-2.8L83.6,58h-0.4l-1.1-2.8V58h-0.5v-3.5h0.5l1.2,2.9l1.2-2.9H85.2z"/>
	<path d="M86.9,57.6h1.2V58h-1.7v-3.5h0.5V57.6z"/>
	<path d="M91.8,58h-0.5l-1.8-2.8V58h-0.5v-3.5h0.5l1.8,2.8v-2.8h0.5V58z"/>
</g>
</svg>
